<?xml version="1.0" encoding="UTF-8" standalone="no"?>
<!DOCTYPE svg PUBLIC "-//W3C//DTD SVG 1.1//EN"
 "http://www.w3.org/Graphics/SVG/1.1/DTD/svg11.dtd">
<!-- Generated by graphviz version 2.43.0 (0)
 -->
<!-- Title: G Pages: 1 -->
<svg width="766pt" height="673pt"
 viewBox="0.00 0.00 766.00 673.00" xmlns="http://www.w3.org/2000/svg" xmlns:xlink="http://www.w3.org/1999/xlink">
<g id="graph0" class="graph" transform="scale(1 1) rotate(0) translate(4 669)">
<title>G</title>
<polygon fill="white" stroke="transparent" points="-4,4 -4,-669 762,-669 762,4 -4,4"/>
<!-- House -->
<g id="node1" class="node">
<title>House</title>
<ellipse fill="lightgrey" stroke="black" cx="362.49" cy="-488.05" rx="40.09" ry="18"/>
<text text-anchor="middle" x="362.49" y="-484.35" font-family="Times,serif" font-size="14.00">House</text>
</g>
<!-- House_First -->
<g id="node7" class="node">
<title>House_First</title>
<ellipse fill="none" stroke="black" cx="372.68" cy="-438.36" rx="66.89" ry="18"/>
<text text-anchor="middle" x="372.68" y="-434.66" font-family="Times,serif" font-size="14.00">House_First</text>
</g>
<!-- House&#45;&gt;House_First -->
<g id="edge1" class="edge">
<title>House&#45;&gt;House_First</title>
<path fill="none" stroke="black" d="M366.17,-470.11C367.08,-465.66 368.06,-460.89 368.97,-456.44"/>
</g>
<!-- House_A -->
<g id="node8" class="node">
<title>House_A</title>
<ellipse fill="none" stroke="black" cx="244.85" cy="-434.46" rx="50.89" ry="18"/>
<text text-anchor="middle" x="244.85" y="-430.76" font-family="Times,serif" font-size="14.00">House_A</text>
</g>
<!-- House&#45;&gt;House_A -->
<g id="edge2" class="edge">
<title>House&#45;&gt;House_A</title>
<path fill="none" stroke="black" d="M334.02,-475.08C316.61,-467.15 294.32,-456.99 276.38,-448.82"/>
</g>
<!-- House_Middle -->
<g id="node9" class="node">
<title>House_Middle</title>
<ellipse fill="none" stroke="black" cx="232.58" cy="-484.31" rx="76.89" ry="18"/>
<text text-anchor="middle" x="232.58" y="-480.61" font-family="Times,serif" font-size="14.00">House_Middle</text>
</g>
<!-- House&#45;&gt;House_Middle -->
<g id="edge3" class="edge">
<title>House&#45;&gt;House_Middle</title>
<path fill="none" stroke="black" d="M322.1,-486.88C317.78,-486.76 313.29,-486.63 308.72,-486.5"/>
</g>
<!-- House_1 -->
<g id="node10" class="node">
<title>House_1</title>
<ellipse fill="none" stroke="black" cx="355.29" cy="-532.48" rx="50.09" ry="18"/>
<text text-anchor="middle" x="355.29" y="-528.78" font-family="Times,serif" font-size="14.00">House_1</text>
</g>
<!-- House&#45;&gt;House_1 -->
<g id="edge4" class="edge">
<title>House&#45;&gt;House_1</title>
<path fill="none" stroke="black" d="M359.57,-506.12C359.13,-508.81 358.68,-511.59 358.24,-514.28"/>
</g>
<!-- House_Last -->
<g id="node11" class="node">
<title>House_Last</title>
<ellipse fill="none" stroke="black" cx="329.76" cy="-578.8" rx="64.19" ry="18"/>
<text text-anchor="middle" x="329.76" y="-575.1" font-family="Times,serif" font-size="14.00">House_Last</text>
</g>
<!-- House&#45;&gt;House_Last -->
<g id="edge5" class="edge">
<title>House&#45;&gt;House_Last</title>
<path fill="none" stroke="black" d="M356.03,-505.98C350.33,-521.79 342.06,-544.71 336.33,-560.6"/>
</g>
<!-- Color -->
<g id="node2" class="node">
<title>Color</title>
<ellipse fill="lightgrey" stroke="black" cx="523.35" cy="-182.77" rx="36" ry="18"/>
<text text-anchor="middle" x="523.35" y="-179.07" font-family="Times,serif" font-size="14.00">Color</text>
</g>
<!-- Ivory -->
<g id="node12" class="node">
<title>Ivory</title>
<ellipse fill="none" stroke="black" cx="603.71" cy="-112.4" rx="34.39" ry="18"/>
<text text-anchor="middle" x="603.71" y="-108.7" font-family="Times,serif" font-size="14.00">Ivory</text>
</g>
<!-- Color&#45;&gt;Ivory -->
<g id="edge14" class="edge">
<title>Color&#45;&gt;Ivory</title>
<path fill="none" stroke="black" d="M541.18,-167.16C554.5,-155.49 572.62,-139.63 585.92,-127.98"/>
</g>
<!-- Yellow -->
<g id="node13" class="node">
<title>Yellow</title>
<ellipse fill="none" stroke="black" cx="488.37" cy="-96.05" rx="40.09" ry="18"/>
<text text-anchor="middle" x="488.37" y="-92.35" font-family="Times,serif" font-size="14.00">Yellow</text>
</g>
<!-- Color&#45;&gt;Yellow -->
<g id="edge15" class="edge">
<title>Color&#45;&gt;Yellow</title>
<path fill="none" stroke="black" d="M516.1,-164.8C510.1,-149.92 501.61,-128.87 495.6,-114"/>
</g>
<!-- Red -->
<g id="node14" class="node">
<title>Red</title>
<ellipse fill="none" stroke="black" cx="444.61" cy="-177.95" rx="28.7" ry="18"/>
<text text-anchor="middle" x="444.61" y="-174.25" font-family="Times,serif" font-size="14.00">Red</text>
</g>
<!-- Color&#45;&gt;Red -->
<g id="edge16" class="edge">
<title>Color&#45;&gt;Red</title>
<path fill="none" stroke="black" d="M487.67,-180.59C482.79,-180.29 477.83,-179.99 473.1,-179.7"/>
</g>
<!-- Green -->
<g id="node15" class="node">
<title>Green</title>
<ellipse fill="none" stroke="black" cx="610.76" cy="-209.02" rx="38.99" ry="18"/>
<text text-anchor="middle" x="610.76" y="-205.32" font-family="Times,serif" font-size="14.00">Green</text>
</g>
<!-- Color&#45;&gt;Green -->
<g id="edge17" class="edge">
<title>Color&#45;&gt;Green</title>
<path fill="none" stroke="black" d="M554.41,-192.1C562.07,-194.4 570.29,-196.87 578.02,-199.19"/>
</g>
<!-- Blue -->
<g id="node16" class="node">
<title>Blue</title>
<ellipse fill="none" stroke="black" cx="507.76" cy="-234.22" rx="31.7" ry="18"/>
<text text-anchor="middle" x="507.76" y="-230.52" font-family="Times,serif" font-size="14.00">Blue</text>
</g>
<!-- Color&#45;&gt;Blue -->
<g id="edge18" class="edge">
<title>Color&#45;&gt;Blue</title>
<path fill="none" stroke="black" d="M517.9,-200.77C516.39,-205.75 514.75,-211.16 513.23,-216.15"/>
</g>
<!-- Nationality -->
<g id="node3" class="node">
<title>Nationality</title>
<ellipse fill="lightgrey" stroke="black" cx="562.88" cy="-376.8" rx="62.29" ry="18"/>
<text text-anchor="middle" x="562.88" y="-373.1" font-family="Times,serif" font-size="14.00">Nationality</text>
</g>
<!-- Englishman -->
<g id="node17" class="node">
<title>Englishman</title>
<ellipse fill="none" stroke="black" cx="648.62" cy="-330.06" rx="65.79" ry="18"/>
<text text-anchor="middle" x="648.62" y="-326.36" font-family="Times,serif" font-size="14.00">Englishman</text>
</g>
<!-- Nationality&#45;&gt;Englishman -->
<g id="edge19" class="edge">
<title>Nationality&#45;&gt;Englishman</title>
<path fill="none" stroke="black" d="M592.39,-360.71C601.01,-356.01 610.43,-350.88 619.06,-346.18"/>
</g>
<!-- Spaniard -->
<g id="node18" class="node">
<title>Spaniard</title>
<ellipse fill="none" stroke="black" cx="521.9" cy="-332.05" rx="52.79" ry="18"/>
<text text-anchor="middle" x="521.9" y="-328.35" font-family="Times,serif" font-size="14.00">Spaniard</text>
</g>
<!-- Nationality&#45;&gt;Spaniard -->
<g id="edge20" class="edge">
<title>Nationality&#45;&gt;Spaniard</title>
<path fill="none" stroke="black" d="M546.92,-359.37C543.95,-356.13 540.85,-352.74 537.88,-349.5"/>
</g>
<!-- Ukrainian -->
<g id="node19" class="node">
<title>Ukrainian</title>
<ellipse fill="none" stroke="black" cx="394.64" cy="-381.59" rx="56.59" ry="18"/>
<text text-anchor="middle" x="394.64" y="-377.89" font-family="Times,serif" font-size="14.00">Ukrainian</text>
</g>
<!-- Nationality&#45;&gt;Ukrainian -->
<g id="edge21" class="edge">
<title>Nationality&#45;&gt;Ukrainian</title>
<path fill="none" stroke="black" d="M500.71,-378.57C484.43,-379.03 466.96,-379.53 450.99,-379.98"/>
</g>
<!-- Japanese -->
<g id="node20" class="node">
<title>Japanese</title>
<ellipse fill="none" stroke="black" cx="705.89" cy="-443.65" rx="51.99" ry="18"/>
<text text-anchor="middle" x="705.89" y="-439.95" font-family="Times,serif" font-size="14.00">Japanese</text>
</g>
<!-- Nationality&#45;&gt;Japanese -->
<g id="edge22" class="edge">
<title>Nationality&#45;&gt;Japanese</title>
<path fill="none" stroke="black" d="M595.69,-392.14C619.44,-403.24 651.34,-418.15 674.7,-429.08"/>
</g>
<!-- Norwegian -->
<g id="node21" class="node">
<title>Norwegian</title>
<ellipse fill="none" stroke="black" cx="553.95" cy="-421.79" rx="61.99" ry="18"/>
<text text-anchor="middle" x="553.95" y="-418.09" font-family="Times,serif" font-size="14.00">Norwegian</text>
</g>
<!-- Nationality&#45;&gt;Norwegian -->
<g id="edge23" class="edge">
<title>Nationality&#45;&gt;Norwegian</title>
<path fill="none" stroke="black" d="M559.3,-394.84C558.72,-397.77 558.11,-400.81 557.53,-403.75"/>
</g>
<!-- Pet -->
<g id="node4" class="node">
<title>Pet</title>
<ellipse fill="lightgrey" stroke="black" cx="111.29" cy="-99.08" rx="27" ry="18"/>
<text text-anchor="middle" x="111.29" y="-95.38" font-family="Times,serif" font-size="14.00">Pet</text>
</g>
<!-- Dog -->
<g id="node22" class="node">
<title>Dog</title>
<ellipse fill="none" stroke="black" cx="175.05" cy="-36.43" rx="29.5" ry="18"/>
<text text-anchor="middle" x="175.05" y="-32.73" font-family="Times,serif" font-size="14.00">Dog</text>
</g>
<!-- Pet&#45;&gt;Dog -->
<g id="edge24" class="edge">
<title>Pet&#45;&gt;Dog</title>
<path fill="none" stroke="black" d="M126.72,-83.91C136.6,-74.21 149.38,-61.65 159.32,-51.89"/>
</g>
<!-- Hourse -->
<g id="node23" class="node">
<title>Hourse</title>
<ellipse fill="none" stroke="black" cx="70.35" cy="-18.07" rx="44.39" ry="18"/>
<text text-anchor="middle" x="70.35" y="-14.37" font-family="Times,serif" font-size="14.00">Hourse</text>
</g>
<!-- Pet&#45;&gt;Hourse -->
<g id="edge25" class="edge">
<title>Pet&#45;&gt;Hourse</title>
<path fill="none" stroke="black" d="M102.61,-81.9C95.75,-68.34 86.23,-49.48 79.31,-35.78"/>
</g>
<!-- Snail -->
<g id="node24" class="node">
<title>Snail</title>
<ellipse fill="none" stroke="black" cx="33.98" cy="-94.42" rx="34.39" ry="18"/>
<text text-anchor="middle" x="33.98" y="-90.72" font-family="Times,serif" font-size="14.00">Snail</text>
</g>
<!-- Pet&#45;&gt;Snail -->
<g id="edge26" class="edge">
<title>Pet&#45;&gt;Snail</title>
<path fill="none" stroke="black" d="M84.25,-97.45C79.11,-97.14 73.67,-96.81 68.34,-96.49"/>
</g>
<!-- Fox -->
<g id="node25" class="node">
<title>Fox</title>
<ellipse fill="none" stroke="black" cx="179.65" cy="-123.3" rx="27.1" ry="18"/>
<text text-anchor="middle" x="179.65" y="-119.6" font-family="Times,serif" font-size="14.00">Fox</text>
</g>
<!-- Pet&#45;&gt;Fox -->
<g id="edge27" class="edge">
<title>Pet&#45;&gt;Fox</title>
<path fill="none" stroke="black" d="M135.2,-107.55C141.66,-109.84 148.67,-112.33 155.17,-114.63"/>
</g>
<!-- Zebra -->
<g id="node26" class="node">
<title>Zebra</title>
<ellipse fill="none" stroke="black" cx="90.83" cy="-150.15" rx="38.19" ry="18"/>
<text text-anchor="middle" x="90.83" y="-146.45" font-family="Times,serif" font-size="14.00">Zebra</text>
</g>
<!-- Pet&#45;&gt;Zebra -->
<g id="edge28" class="edge">
<title>Pet&#45;&gt;Zebra</title>
<path fill="none" stroke="black" d="M104.25,-116.65C102.21,-121.73 99.99,-127.27 97.95,-132.37"/>
</g>
<!-- Cigarette -->
<g id="node5" class="node">
<title>Cigarette</title>
<ellipse fill="lightgrey" stroke="black" cx="270.74" cy="-232.9" rx="54.69" ry="18"/>
<text text-anchor="middle" x="270.74" y="-229.2" font-family="Times,serif" font-size="14.00">Cigarette</text>
</g>
<!-- Old_Gold -->
<g id="node27" class="node">
<title>Old_Gold</title>
<ellipse fill="none" stroke="black" cx="372.21" cy="-121.76" rx="52.79" ry="18"/>
<text text-anchor="middle" x="372.21" y="-118.06" font-family="Times,serif" font-size="14.00">Old_Gold</text>
</g>
<!-- Cigarette&#45;&gt;Old_Gold -->
<g id="edge29" class="edge">
<title>Cigarette&#45;&gt;Old_Gold</title>
<path fill="none" stroke="black" d="M286.59,-215.53C305.65,-194.65 337.45,-159.83 356.46,-139"/>
</g>
<!-- Chesterfields -->
<g id="node28" class="node">
<title>Chesterfields</title>
<ellipse fill="none" stroke="black" cx="252.14" cy="-186.87" rx="72.29" ry="18"/>
<text text-anchor="middle" x="252.14" y="-183.17" font-family="Times,serif" font-size="14.00">Chesterfields</text>
</g>
<!-- Cigarette&#45;&gt;Chesterfields -->
<g id="edge30" class="edge">
<title>Cigarette&#45;&gt;Chesterfields</title>
<path fill="none" stroke="black" d="M263.49,-214.97C262.15,-211.64 260.74,-208.15 259.4,-204.82"/>
</g>
<!-- Lucky_Strike -->
<g id="node29" class="node">
<title>Lucky_Strike</title>
<ellipse fill="none" stroke="black" cx="97.09" cy="-241.31" rx="70.69" ry="18"/>
<text text-anchor="middle" x="97.09" y="-237.61" font-family="Times,serif" font-size="14.00">Lucky_Strike</text>
</g>
<!-- Cigarette&#45;&gt;Lucky_Strike -->
<g id="edge31" class="edge">
<title>Cigarette&#45;&gt;Lucky_Strike</title>
<path fill="none" stroke="black" d="M216.27,-235.53C200.56,-236.29 183.19,-237.14 166.69,-237.94"/>
</g>
<!-- Kools -->
<g id="node30" class="node">
<title>Kools</title>
<ellipse fill="none" stroke="black" cx="377.48" cy="-314.04" rx="36" ry="18"/>
<text text-anchor="middle" x="377.48" y="-310.34" font-family="Times,serif" font-size="14.00">Kools</text>
</g>
<!-- Cigarette&#45;&gt;Kools -->
<g id="edge32" class="edge">
<title>Cigarette&#45;&gt;Kools</title>
<path fill="none" stroke="black" d="M292.6,-249.51C311.63,-263.98 338.99,-284.78 357.46,-298.82"/>
</g>
<!-- Parlament -->
<g id="node31" class="node">
<title>Parlament</title>
<ellipse fill="none" stroke="black" cx="262.85" cy="-279.19" rx="58.49" ry="18"/>
<text text-anchor="middle" x="262.85" y="-275.49" font-family="Times,serif" font-size="14.00">Parlament</text>
</g>
<!-- Cigarette&#45;&gt;Parlament -->
<g id="edge33" class="edge">
<title>Cigarette&#45;&gt;Parlament</title>
<path fill="none" stroke="black" d="M267.67,-250.93C267.1,-254.28 266.5,-257.78 265.93,-261.13"/>
</g>
<!-- Drink -->
<g id="node6" class="node">
<title>Drink</title>
<ellipse fill="lightgrey" stroke="black" cx="604.7" cy="-597.49" rx="36.29" ry="18"/>
<text text-anchor="middle" x="604.7" y="-593.79" font-family="Times,serif" font-size="14.00">Drink</text>
</g>
<!-- Coffee -->
<g id="node32" class="node">
<title>Coffee</title>
<ellipse fill="none" stroke="black" cx="680.09" cy="-534.44" rx="40.09" ry="18"/>
<text text-anchor="middle" x="680.09" y="-530.74" font-family="Times,serif" font-size="14.00">Coffee</text>
</g>
<!-- Drink&#45;&gt;Coffee -->
<g id="edge34" class="edge">
<title>Drink&#45;&gt;Coffee</title>
<path fill="none" stroke="black" d="M623.34,-581.9C634.76,-572.35 649.36,-560.14 660.88,-550.5"/>
</g>
<!-- Milk -->
<g id="node33" class="node">
<title>Milk</title>
<ellipse fill="none" stroke="black" cx="564.02" cy="-511.54" rx="31.4" ry="18"/>
<text text-anchor="middle" x="564.02" y="-507.84" font-family="Times,serif" font-size="14.00">Milk</text>
</g>
<!-- Drink&#45;&gt;Milk -->
<g id="edge35" class="edge">
<title>Drink&#45;&gt;Milk</title>
<path fill="none" stroke="black" d="M596.27,-579.68C589.24,-564.83 579.29,-543.79 572.3,-529.03"/>
</g>
<!-- Tea -->
<g id="node34" class="node">
<title>Tea</title>
<ellipse fill="none" stroke="black" cx="520.85" cy="-596.91" rx="27" ry="18"/>
<text text-anchor="middle" x="520.85" y="-593.21" font-family="Times,serif" font-size="14.00">Tea</text>
</g>
<!-- Drink&#45;&gt;Tea -->
<g id="edge36" class="edge">
<title>Drink&#45;&gt;Tea</title>
<path fill="none" stroke="black" d="M568.17,-597.24C561.37,-597.19 554.38,-597.14 547.93,-597.1"/>
</g>
<!-- Juice -->
<g id="node35" class="node">
<title>Juice</title>
<ellipse fill="none" stroke="black" cx="686.57" cy="-630.42" rx="33.29" ry="18"/>
<text text-anchor="middle" x="686.57" y="-626.72" font-family="Times,serif" font-size="14.00">Juice</text>
</g>
<!-- Drink&#45;&gt;Juice -->
<g id="edge37" class="edge">
<title>Drink&#45;&gt;Juice</title>
<path fill="none" stroke="black" d="M633.33,-609C641.91,-612.45 651.28,-616.22 659.74,-619.63"/>
</g>
<!-- Water -->
<g id="node36" class="node">
<title>Water</title>
<ellipse fill="none" stroke="black" cx="591.01" cy="-646.69" rx="38.19" ry="18"/>
<text text-anchor="middle" x="591.01" y="-642.99" font-family="Times,serif" font-size="14.00">Water</text>
</g>
<!-- Drink&#45;&gt;Water -->
<g id="edge38" class="edge">
<title>Drink&#45;&gt;Water</title>
<path fill="none" stroke="black" d="M599.68,-615.53C598.49,-619.81 597.22,-624.37 596.03,-628.65"/>
</g>
<!-- House_First&#45;&gt;House_A -->
<g id="edge6" class="edge">
<title>House_First&#45;&gt;House_A</title>
<path fill="none" stroke="red" d="M313.46,-429.82C310.24,-429.7 307,-429.6 303.78,-429.53"/>
<polygon fill="red" stroke="red" points="303.65,-426.03 293.6,-429.37 303.55,-433.03 303.65,-426.03"/>
<text text-anchor="middle" x="317.62" y="-418.47" font-family="Times,serif" font-size="14.00">right</text>
</g>
<!-- House_First&#45;&gt;House_A -->
<g id="edge10" class="edge">
<title>House_First&#45;&gt;House_A</title>
<path fill="none" stroke="blue" stroke-dasharray="5,2" d="M307.81,-443.14C301.99,-442.95 296.18,-442.69 290.57,-442.37"/>
<text text-anchor="middle" x="283.19" y="-446.55" font-family="Times,serif" font-size="14.00">next</text>
</g>
<!-- House_A&#45;&gt;House_Middle -->
<g id="edge7" class="edge">
<title>House_A&#45;&gt;House_Middle</title>
<path fill="none" stroke="red" d="M233.66,-452.3C233.27,-453.57 232.91,-454.87 232.56,-456.19"/>
<polygon fill="red" stroke="red" points="229.08,-455.74 230.44,-466.25 235.93,-457.19 229.08,-455.74"/>
<text text-anchor="middle" x="215.11" y="-458.04" font-family="Times,serif" font-size="14.00">right</text>
</g>
<!-- House_A&#45;&gt;House_Middle -->
<g id="edge11" class="edge">
<title>House_A&#45;&gt;House_Middle</title>
<path fill="none" stroke="blue" stroke-dasharray="5,2" d="M246.98,-452.59C246.26,-457.1 245.14,-461.93 243.78,-466.43"/>
<text text-anchor="middle" x="261.38" y="-463.31" font-family="Times,serif" font-size="14.00">next</text>
</g>
<!-- House_Middle&#45;&gt;House_1 -->
<g id="edge8" class="edge">
<title>House_Middle&#45;&gt;House_1</title>
<path fill="none" stroke="red" d="M259.52,-501.16C272.37,-507.08 288.17,-513.57 303.21,-519.17"/>
<polygon fill="red" stroke="red" points="302.36,-522.58 312.95,-522.71 304.75,-516 302.36,-522.58"/>
<text text-anchor="middle" x="263.37" y="-513.96" font-family="Times,serif" font-size="14.00">right</text>
</g>
<!-- House_Middle&#45;&gt;House_1 -->
<g id="edge12" class="edge">
<title>House_Middle&#45;&gt;House_1</title>
<path fill="none" stroke="blue" stroke-dasharray="5,2" d="M284.56,-497.58C300.51,-503.52 317.31,-510.45 330.55,-516.65"/>
<text text-anchor="middle" x="291.55" y="-510.92" font-family="Times,serif" font-size="14.00">next</text>
</g>
<!-- House_1&#45;&gt;House_Last -->
<g id="edge9" class="edge">
<title>House_1&#45;&gt;House_Last</title>
<path fill="none" stroke="red" d="M338.3,-549.43C337.9,-550.11 337.5,-550.8 337.11,-551.5"/>
<polygon fill="red" stroke="red" points="333.88,-550.12 332.5,-560.63 340.13,-553.28 333.88,-550.12"/>
<text text-anchor="middle" x="319.7" y="-554.26" font-family="Times,serif" font-size="14.00">right</text>
</g>
<!-- House_1&#45;&gt;House_Last -->
<g id="edge13" class="edge">
<title>House_1&#45;&gt;House_Last</title>
<path fill="none" stroke="blue" stroke-dasharray="5,2" d="M352.64,-550.46C351.07,-554.01 349.16,-557.72 347.1,-561.26"/>
<text text-anchor="middle" x="365.87" y="-559.66" font-family="Times,serif" font-size="14.00">next</text>
</g>
</g>
</svg>
