<?xml version="1.0" encoding="UTF-8" standalone="no"?>
<!DOCTYPE svg PUBLIC "-//W3C//DTD SVG 1.1//EN"
 "http://www.w3.org/Graphics/SVG/1.1/DTD/svg11.dtd">
<!-- Generated by graphviz version 2.43.0 (0)
 -->
<!-- Title: G Pages: 1 -->
<svg width="900pt" height="628pt"
 viewBox="0.00 0.00 900.00 628.00" xmlns="http://www.w3.org/2000/svg" xmlns:xlink="http://www.w3.org/1999/xlink">
<g id="graph0" class="graph" transform="scale(1 1) rotate(0) translate(4 624)">
<title>G</title>
<polygon fill="white" stroke="transparent" points="-4,4 -4,-624 896,-624 896,4 -4,4"/>
<g id="clust1" class="cluster">
<title>cluster_house</title>
<polygon fill="none" stroke="black" points="-0.3,-0.23 -0.3,-187.23 220.7,-187.23 220.7,-0.23 -0.3,-0.23"/>
<text text-anchor="middle" x="110.2" y="-172.03" font-family="Times,serif" font-size="14.00">House</text>
</g>
<g id="clust2" class="cluster">
<title>cluster_color</title>
<polygon fill="none" stroke="black" points="94.56,-195.65 94.56,-374.65 322.56,-374.65 322.56,-195.65 94.56,-195.65"/>
<text text-anchor="middle" x="208.56" y="-359.45" font-family="Times,serif" font-size="14.00">Color</text>
</g>
<g id="clust3" class="cluster">
<title>cluster_nation</title>
<polygon fill="none" stroke="black" points="332.24,-165.71 332.24,-361.71 624.24,-361.71 624.24,-165.71 332.24,-165.71"/>
<text text-anchor="middle" x="478.24" y="-346.51" font-family="Times,serif" font-size="14.00">Nationality</text>
</g>
<g id="clust4" class="cluster">
<title>cluster_pet</title>
<polygon fill="none" stroke="black" points="679.4,-437.01 679.4,-620.01 892.4,-620.01 892.4,-437.01 679.4,-437.01"/>
<text text-anchor="middle" x="785.9" y="-604.81" font-family="Times,serif" font-size="14.00">Pet</text>
</g>
<g id="clust5" class="cluster">
<title>cluster_cigarette</title>
<polygon fill="none" stroke="black" points="373.85,-372.38 373.85,-558.38 668.85,-558.38 668.85,-372.38 373.85,-372.38"/>
<text text-anchor="middle" x="521.35" y="-543.18" font-family="Times,serif" font-size="14.00">Cigarette</text>
</g>
<g id="clust6" class="cluster">
<title>cluster_drink</title>
<polygon fill="none" stroke="black" points="4.79,-384.37 4.79,-563.37 253.79,-563.37 253.79,-384.37 4.79,-384.37"/>
<text text-anchor="middle" x="129.29" y="-548.17" font-family="Times,serif" font-size="14.00">Drink</text>
</g>
<!-- House_1 -->
<g id="node1" class="node">
<title>House_1</title>
<polygon fill="none" stroke="black" points="128.52,-44.39 51.52,-44.39 51.52,-8.39 128.52,-8.39 128.52,-44.39"/>
<text text-anchor="middle" x="90.02" y="-22.69" font-family="Times,serif" font-size="14.00">House_1</text>
</g>
<!-- Norwegian -->
<g id="node15" class="node">
<title>Norwegian</title>
<ellipse fill="none" stroke="black" cx="408.44" cy="-192.02" rx="61.99" ry="18"/>
<text text-anchor="middle" x="408.44" y="-188.32" font-family="Times,serif" font-size="14.00">Norwegian</text>
</g>
<!-- House_1&#45;&gt;Norwegian -->
<g id="edge17" class="edge">
<title>House_1&#45;&gt;Norwegian</title>
<path fill="none" stroke="black" d="M116.14,-44.52C170.04,-76.32 294.11,-141.15 362,-173.32"/>
<polygon fill="black" stroke="black" points="360.66,-176.56 371.2,-177.64 363.63,-170.22 360.66,-176.56"/>
</g>
<!-- House_2 -->
<g id="node2" class="node">
<title>House_2</title>
<polygon fill="none" stroke="black" points="180.43,-99.88 103.43,-99.88 103.43,-63.88 180.43,-63.88 180.43,-99.88"/>
<text text-anchor="middle" x="141.93" y="-78.18" font-family="Times,serif" font-size="14.00">House_2</text>
</g>
<!-- House_3 -->
<g id="node3" class="node">
<title>House_3</title>
<polygon fill="none" stroke="black" points="84.36,-88.61 7.36,-88.61 7.36,-52.61 84.36,-52.61 84.36,-88.61"/>
<text text-anchor="middle" x="45.86" y="-66.91" font-family="Times,serif" font-size="14.00">House_3</text>
</g>
<!-- Milk -->
<g id="node27" class="node">
<title>Milk</title>
<ellipse fill="none" stroke="black" cx="44.33" cy="-459.15" rx="31.4" ry="18"/>
<text text-anchor="middle" x="44.33" y="-455.45" font-family="Times,serif" font-size="14.00">Milk</text>
</g>
<!-- House_3&#45;&gt;Milk -->
<g id="edge15" class="edge">
<title>House_3&#45;&gt;Milk</title>
<path fill="none" stroke="black" d="M42.72,-88.82C37.79,-151 36.77,-355.3 40.71,-430.79"/>
<polygon fill="black" stroke="black" points="37.23,-431.19 41.33,-440.96 44.22,-430.76 37.23,-431.19"/>
</g>
<!-- House_4 -->
<g id="node4" class="node">
<title>House_4</title>
<polygon fill="none" stroke="black" points="212.43,-155.88 135.43,-155.88 135.43,-119.88 212.43,-119.88 212.43,-155.88"/>
<text text-anchor="middle" x="173.93" y="-134.18" font-family="Times,serif" font-size="14.00">House_4</text>
</g>
<!-- House_5 -->
<g id="node5" class="node">
<title>House_5</title>
<polygon fill="none" stroke="black" points="116.43,-155.88 39.43,-155.88 39.43,-119.88 116.43,-119.88 116.43,-155.88"/>
<text text-anchor="middle" x="77.93" y="-134.18" font-family="Times,serif" font-size="14.00">House_5</text>
</g>
<!-- Ivory -->
<g id="node6" class="node">
<title>Ivory</title>
<ellipse fill="none" stroke="black" cx="279.8" cy="-325.29" rx="34.39" ry="18"/>
<text text-anchor="middle" x="279.8" y="-321.59" font-family="Times,serif" font-size="14.00">Ivory</text>
</g>
<!-- Yellow -->
<g id="node7" class="node">
<title>Yellow</title>
<ellipse fill="none" stroke="black" cx="245.83" cy="-270.67" rx="40.09" ry="18"/>
<text text-anchor="middle" x="245.83" y="-266.97" font-family="Times,serif" font-size="14.00">Yellow</text>
</g>
<!-- Kools -->
<g id="node24" class="node">
<title>Kools</title>
<ellipse fill="none" stroke="black" cx="495.15" cy="-397.97" rx="36" ry="18"/>
<text text-anchor="middle" x="495.15" y="-394.27" font-family="Times,serif" font-size="14.00">Kools</text>
</g>
<!-- Yellow&#45;&gt;Kools -->
<g id="edge13" class="edge">
<title>Yellow&#45;&gt;Kools</title>
<path fill="none" stroke="black" d="M266.97,-286.08C308.84,-311.06 402.73,-359.32 456.12,-383.61"/>
<polygon fill="black" stroke="black" points="454.72,-386.82 465.28,-387.71 457.59,-380.43 454.72,-386.82"/>
</g>
<!-- Red -->
<g id="node8" class="node">
<title>Red</title>
<ellipse fill="none" stroke="black" cx="192.37" cy="-221.23" rx="28.7" ry="18"/>
<text text-anchor="middle" x="192.37" y="-217.53" font-family="Times,serif" font-size="14.00">Red</text>
</g>
<!-- Englishman -->
<g id="node11" class="node">
<title>Englishman</title>
<ellipse fill="none" stroke="black" cx="550.91" cy="-216.77" rx="65.79" ry="18"/>
<text text-anchor="middle" x="550.91" y="-213.07" font-family="Times,serif" font-size="14.00">Englishman</text>
</g>
<!-- Red&#45;&gt;Englishman -->
<g id="edge2" class="edge">
<title>Red&#45;&gt;Englishman</title>
<path fill="none" stroke="black" d="M220.55,-224.72C275.65,-227.22 399.19,-226.26 478.59,-223.22"/>
<polygon fill="black" stroke="black" points="479.16,-226.7 489.01,-222.8 478.88,-219.7 479.16,-226.7"/>
</g>
<!-- Green -->
<g id="node9" class="node">
<title>Green</title>
<ellipse fill="none" stroke="black" cx="188.12" cy="-322.63" rx="38.99" ry="18"/>
<text text-anchor="middle" x="188.12" y="-318.93" font-family="Times,serif" font-size="14.00">Green</text>
</g>
<!-- Green&#45;&gt;Ivory -->
<g id="edge9" class="edge">
<title>Green&#45;&gt;Ivory</title>
<path fill="none" stroke="red" stroke-dasharray="1,5" d="M227.27,-323.76C229.86,-323.84 232.49,-323.92 235.11,-323.99"/>
<polygon fill="red" stroke="red" points="235.03,-327.49 245.13,-324.28 235.23,-320.49 235.03,-327.49"/>
<text text-anchor="start" x="231.19" y="-327.68" font-family="Times,serif" font-size="14.00" fill="red">to the right of</text>
</g>
<!-- Coffee -->
<g id="node26" class="node">
<title>Coffee</title>
<ellipse fill="none" stroke="black" cx="78.64" cy="-410.62" rx="40.09" ry="18"/>
<text text-anchor="middle" x="78.64" y="-406.92" font-family="Times,serif" font-size="14.00">Coffee</text>
</g>
<!-- Green&#45;&gt;Coffee -->
<g id="edge6" class="edge">
<title>Green&#45;&gt;Coffee</title>
<path fill="none" stroke="black" d="M162.21,-336.3C143.03,-349.77 117.32,-370.37 99.46,-386.53"/>
<polygon fill="black" stroke="black" points="96.79,-384.23 91.86,-393.61 101.56,-389.36 96.79,-384.23"/>
</g>
<!-- Blue -->
<g id="node10" class="node">
<title>Blue</title>
<ellipse fill="none" stroke="black" cx="134.35" cy="-271.83" rx="31.7" ry="18"/>
<text text-anchor="middle" x="134.35" y="-268.13" font-family="Times,serif" font-size="14.00">Blue</text>
</g>
<!-- Blue&#45;&gt;Norwegian -->
<g id="edge27" class="edge">
<title>Blue&#45;&gt;Norwegian</title>
<path fill="none" stroke="blue" stroke-dasharray="5,2" d="M165.43,-267.37C214.13,-256.15 308.57,-228.92 364.3,-210.27"/>
<polygon fill="blue" stroke="blue" points="365.56,-213.54 373.9,-207.01 363.31,-206.91 365.56,-213.54"/>
<text text-anchor="middle" x="290.37" y="-227.62" font-family="Times,serif" font-size="14.00">next to</text>
</g>
<!-- Englishman&#45;&gt;Red -->
<g id="edge1" class="edge">
<title>Englishman&#45;&gt;Red</title>
<path fill="none" stroke="black" d="M487.15,-212.26C412.56,-210.98 291.48,-212.81 230.31,-216.4"/>
<polygon fill="black" stroke="black" points="230.07,-212.91 220.32,-217.05 230.52,-219.9 230.07,-212.91"/>
</g>
<!-- Spaniard -->
<g id="node12" class="node">
<title>Spaniard</title>
<ellipse fill="none" stroke="black" cx="426.16" cy="-312.23" rx="52.79" ry="18"/>
<text text-anchor="middle" x="426.16" y="-308.53" font-family="Times,serif" font-size="14.00">Spaniard</text>
</g>
<!-- Dog -->
<g id="node16" class="node">
<title>Dog</title>
<ellipse fill="none" stroke="black" cx="717.08" cy="-512.05" rx="29.5" ry="18"/>
<text text-anchor="middle" x="717.08" y="-508.35" font-family="Times,serif" font-size="14.00">Dog</text>
</g>
<!-- Spaniard&#45;&gt;Dog -->
<g id="edge3" class="edge">
<title>Spaniard&#45;&gt;Dog</title>
<path fill="none" stroke="black" d="M444.54,-329.31C493.02,-367.33 624.45,-457.84 685.36,-495.43"/>
<polygon fill="black" stroke="black" points="683.8,-498.58 694.16,-500.79 687.44,-492.6 683.8,-498.58"/>
</g>
<!-- Ukrainian -->
<g id="node13" class="node">
<title>Ukrainian</title>
<ellipse fill="none" stroke="black" cx="396.84" cy="-252.04" rx="56.59" ry="18"/>
<text text-anchor="middle" x="396.84" y="-248.34" font-family="Times,serif" font-size="14.00">Ukrainian</text>
</g>
<!-- Tea -->
<g id="node28" class="node">
<title>Tea</title>
<ellipse fill="none" stroke="black" cx="114.98" cy="-499.94" rx="27" ry="18"/>
<text text-anchor="middle" x="114.98" y="-496.24" font-family="Times,serif" font-size="14.00">Tea</text>
</g>
<!-- Ukrainian&#45;&gt;Tea -->
<g id="edge7" class="edge">
<title>Ukrainian&#45;&gt;Tea</title>
<path fill="none" stroke="black" d="M372.18,-268.6C317.17,-311.84 185.62,-427.52 135.11,-477.05"/>
<polygon fill="black" stroke="black" points="132.61,-474.6 127.99,-484.14 137.55,-479.56 132.61,-474.6"/>
</g>
<!-- Japanese -->
<g id="node14" class="node">
<title>Japanese</title>
<ellipse fill="none" stroke="black" cx="540.07" cy="-271.14" rx="51.99" ry="18"/>
<text text-anchor="middle" x="540.07" y="-267.44" font-family="Times,serif" font-size="14.00">Japanese</text>
</g>
<!-- Parlament -->
<g id="node25" class="node">
<title>Parlament</title>
<ellipse fill="none" stroke="black" cx="602.5" cy="-435.82" rx="58.49" ry="18"/>
<text text-anchor="middle" x="602.5" y="-432.12" font-family="Times,serif" font-size="14.00">Parlament</text>
</g>
<!-- Japanese&#45;&gt;Parlament -->
<g id="edge24" class="edge">
<title>Japanese&#45;&gt;Parlament</title>
<path fill="none" stroke="black" d="M542.4,-289.35C550.28,-318.38 571.46,-375.18 586.66,-408.9"/>
<polygon fill="black" stroke="black" points="583.57,-410.57 590.96,-418.16 589.92,-407.62 583.57,-410.57"/>
</g>
<!-- Norwegian&#45;&gt;House_1 -->
<g id="edge16" class="edge">
<title>Norwegian&#45;&gt;House_1</title>
<path fill="none" stroke="black" d="M384.71,-175.31C332.6,-144.32 207.45,-78.83 138.16,-45.9"/>
<polygon fill="black" stroke="black" points="139.31,-42.57 128.77,-41.47 136.33,-48.9 139.31,-42.57"/>
</g>
<!-- Norwegian&#45;&gt;Blue -->
<g id="edge26" class="edge">
<title>Norwegian&#45;&gt;Blue</title>
<path fill="none" stroke="blue" stroke-dasharray="5,2" d="M356.02,-201.67C300.82,-215.64 215.54,-240.71 168.46,-256.99"/>
<polygon fill="blue" stroke="blue" points="167.29,-253.7 159.02,-260.33 169.62,-260.3 167.29,-253.7"/>
<text text-anchor="middle" x="249.49" y="-218.13" font-family="Times,serif" font-size="14.00">next to</text>
</g>
<!-- Dog&#45;&gt;Spaniard -->
<g id="edge4" class="edge">
<title>Dog&#45;&gt;Spaniard</title>
<path fill="none" stroke="black" d="M700.85,-496.67C655.8,-460.95 528.61,-373.14 464.32,-332.85"/>
<polygon fill="black" stroke="black" points="466.02,-329.79 455.68,-327.49 462.33,-335.74 466.02,-329.79"/>
</g>
<!-- Hourse -->
<g id="node17" class="node">
<title>Hourse</title>
<ellipse fill="none" stroke="black" cx="734.93" cy="-562.93" rx="44.39" ry="18"/>
<text text-anchor="middle" x="734.93" y="-559.23" font-family="Times,serif" font-size="14.00">Hourse</text>
</g>
<!-- Hourse&#45;&gt;Kools -->
<g id="edge21" class="edge">
<title>Hourse&#45;&gt;Kools</title>
<path fill="none" stroke="blue" stroke-dasharray="5,2" d="M717.52,-546.21C678.05,-514.82 581.43,-448.02 529.47,-415.82"/>
<polygon fill="blue" stroke="blue" points="531.28,-412.82 520.92,-410.59 527.62,-418.8 531.28,-412.82"/>
<text text-anchor="middle" x="649" y="-469.81" font-family="Times,serif" font-size="14.00">next to</text>
</g>
<!-- Snail -->
<g id="node18" class="node">
<title>Snail</title>
<ellipse fill="none" stroke="black" cx="812.84" cy="-514.17" rx="34.39" ry="18"/>
<text text-anchor="middle" x="812.84" y="-510.47" font-family="Times,serif" font-size="14.00">Snail</text>
</g>
<!-- Old_Gold -->
<g id="node21" class="node">
<title>Old_Gold</title>
<ellipse fill="none" stroke="black" cx="603.78" cy="-493.62" rx="52.79" ry="18"/>
<text text-anchor="middle" x="603.78" y="-489.92" font-family="Times,serif" font-size="14.00">Old_Gold</text>
</g>
<!-- Snail&#45;&gt;Old_Gold -->
<g id="edge11" class="edge">
<title>Snail&#45;&gt;Old_Gold</title>
<path fill="none" stroke="black" d="M781.57,-506.06C751.47,-501.31 705.06,-496.33 667.2,-493.58"/>
<polygon fill="black" stroke="black" points="666.99,-490.05 656.77,-492.86 666.51,-497.04 666.99,-490.05"/>
</g>
<!-- Fox -->
<g id="node19" class="node">
<title>Fox</title>
<ellipse fill="none" stroke="black" cx="789.23" cy="-462.68" rx="27.1" ry="18"/>
<text text-anchor="middle" x="789.23" y="-458.98" font-family="Times,serif" font-size="14.00">Fox</text>
</g>
<!-- Chesterfields -->
<g id="node22" class="node">
<title>Chesterfields</title>
<ellipse fill="none" stroke="black" cx="466.57" cy="-509.09" rx="72.29" ry="18"/>
<text text-anchor="middle" x="466.57" y="-505.39" font-family="Times,serif" font-size="14.00">Chesterfields</text>
</g>
<!-- Fox&#45;&gt;Chesterfields -->
<g id="edge19" class="edge">
<title>Fox&#45;&gt;Chesterfields</title>
<path fill="none" stroke="blue" stroke-dasharray="5,2" d="M761.71,-462.65C710.31,-466.88 598.56,-482.44 528.27,-494.69"/>
<polygon fill="blue" stroke="blue" points="527.45,-491.28 518.21,-496.47 528.67,-498.18 527.45,-491.28"/>
<text text-anchor="middle" x="670.49" y="-482.47" font-family="Times,serif" font-size="14.00">next to</text>
</g>
<!-- Zebra -->
<g id="node20" class="node">
<title>Zebra</title>
<ellipse fill="none" stroke="black" cx="845.64" cy="-570.65" rx="38.19" ry="18"/>
<text text-anchor="middle" x="845.64" y="-566.95" font-family="Times,serif" font-size="14.00">Zebra</text>
</g>
<!-- Old_Gold&#45;&gt;Snail -->
<g id="edge10" class="edge">
<title>Old_Gold&#45;&gt;Snail</title>
<path fill="none" stroke="black" d="M647.82,-503.62C683.25,-508.59 732.83,-513.46 768.38,-515.44"/>
<polygon fill="black" stroke="black" points="768.31,-518.94 778.47,-515.94 768.65,-511.95 768.31,-518.94"/>
</g>
<!-- Chesterfields&#45;&gt;Fox -->
<g id="edge18" class="edge">
<title>Chesterfields&#45;&gt;Fox</title>
<path fill="none" stroke="blue" stroke-dasharray="5,2" d="M536.6,-504.73C603.72,-496.89 702.28,-482.29 754.23,-472.18"/>
<polygon fill="blue" stroke="blue" points="755.16,-475.57 764.27,-470.16 753.78,-468.7 755.16,-475.57"/>
<text text-anchor="middle" x="670.91" y="-492.26" font-family="Times,serif" font-size="14.00">next to</text>
</g>
<!-- Lucky_Strike -->
<g id="node23" class="node">
<title>Lucky_Strike</title>
<ellipse fill="none" stroke="black" cx="453.06" cy="-457.25" rx="70.69" ry="18"/>
<text text-anchor="middle" x="453.06" y="-453.55" font-family="Times,serif" font-size="14.00">Lucky_Strike</text>
</g>
<!-- Juice -->
<g id="node29" class="node">
<title>Juice</title>
<ellipse fill="none" stroke="black" cx="159.2" cy="-454.98" rx="33.29" ry="18"/>
<text text-anchor="middle" x="159.2" y="-451.28" font-family="Times,serif" font-size="14.00">Juice</text>
</g>
<!-- Lucky_Strike&#45;&gt;Juice -->
<g id="edge22" class="edge">
<title>Lucky_Strike&#45;&gt;Juice</title>
<path fill="none" stroke="black" d="M386.42,-450.98C329.8,-448.98 250.21,-448.65 201.81,-450.39"/>
<polygon fill="black" stroke="black" points="201.53,-446.9 191.68,-450.8 201.82,-453.89 201.53,-446.9"/>
</g>
<!-- Kools&#45;&gt;Yellow -->
<g id="edge12" class="edge">
<title>Kools&#45;&gt;Yellow</title>
<path fill="none" stroke="black" d="M474.86,-383.07C433.95,-358.55 340.98,-310.7 286.89,-285.96"/>
<polygon fill="black" stroke="black" points="288.14,-282.69 277.59,-281.76 285.27,-289.07 288.14,-282.69"/>
</g>
<!-- Kools&#45;&gt;Hourse -->
<g id="edge20" class="edge">
<title>Kools&#45;&gt;Hourse</title>
<path fill="none" stroke="blue" stroke-dasharray="5,2" d="M511.78,-414.08C550.09,-444.67 644.99,-510.38 697.89,-543.39"/>
<polygon fill="blue" stroke="blue" points="696.28,-546.51 706.63,-548.78 699.95,-540.55 696.28,-546.51"/>
<text text-anchor="middle" x="579.34" y="-467.54" font-family="Times,serif" font-size="14.00">next to</text>
</g>
<!-- Parlament&#45;&gt;Japanese -->
<g id="edge25" class="edge">
<title>Parlament&#45;&gt;Japanese</title>
<path fill="none" stroke="black" d="M600.17,-417.61C592.3,-388.59 571.12,-331.79 555.92,-298.07"/>
<polygon fill="black" stroke="black" points="559,-296.4 551.61,-288.81 552.65,-299.35 559,-296.4"/>
</g>
<!-- Coffee&#45;&gt;Green -->
<g id="edge5" class="edge">
<title>Coffee&#45;&gt;Green</title>
<path fill="none" stroke="black" d="M104.83,-396.75C123.9,-383.33 149.33,-362.96 167.09,-346.9"/>
<polygon fill="black" stroke="black" points="169.72,-349.23 174.66,-339.86 164.95,-344.11 169.72,-349.23"/>
</g>
<!-- Milk&#45;&gt;House_3 -->
<g id="edge14" class="edge">
<title>Milk&#45;&gt;House_3</title>
<path fill="none" stroke="black" d="M47.45,-441.2C52.39,-379.34 53.42,-174.67 49.48,-99.03"/>
<polygon fill="black" stroke="black" points="52.96,-98.61 48.86,-88.84 45.97,-99.03 52.96,-98.61"/>
</g>
<!-- Tea&#45;&gt;Ukrainian -->
<g id="edge8" class="edge">
<title>Tea&#45;&gt;Ukrainian</title>
<path fill="none" stroke="black" d="M134.46,-487.39C185.31,-448.26 321.31,-328.91 374.84,-276.74"/>
<polygon fill="black" stroke="black" points="377.47,-279.06 382.12,-269.55 372.55,-274.08 377.47,-279.06"/>
</g>
<!-- Juice&#45;&gt;Lucky_Strike -->
<g id="edge23" class="edge">
<title>Juice&#45;&gt;Lucky_Strike</title>
<path fill="none" stroke="black" d="M191.45,-459.65C235.27,-462.4 315,-463.56 374.97,-462.69"/>
<polygon fill="black" stroke="black" points="375.22,-466.19 385.16,-462.52 375.11,-459.19 375.22,-466.19"/>
</g>
<!-- Water -->
<g id="node30" class="node">
<title>Water</title>
<ellipse fill="none" stroke="black" cx="207.03" cy="-514.01" rx="38.19" ry="18"/>
<text text-anchor="middle" x="207.03" y="-510.31" font-family="Times,serif" font-size="14.00">Water</text>
</g>
</g>
</svg>
