<?xml version="1.0" encoding="UTF-8" standalone="no"?>
<!DOCTYPE svg PUBLIC "-//W3C//DTD SVG 1.1//EN"
 "http://www.w3.org/Graphics/SVG/1.1/DTD/svg11.dtd">
<!-- Generated by graphviz version 2.43.0 (0)
 -->
<!-- Title: G Pages: 1 -->
<svg width="925pt" height="622pt"
 viewBox="0.00 0.00 925.00 622.00" xmlns="http://www.w3.org/2000/svg" xmlns:xlink="http://www.w3.org/1999/xlink">
<g id="graph0" class="graph" transform="scale(1 1) rotate(0) translate(4 618)">
<title>G</title>
<polygon fill="white" stroke="transparent" points="-4,4 -4,-618 921,-618 921,4 -4,4"/>
<g id="clust1" class="cluster">
<title>cluster_house</title>
<polygon fill="none" stroke="black" points="10.76,-0.01 10.76,-187.01 231.76,-187.01 231.76,-0.01 10.76,-0.01"/>
<text text-anchor="middle" x="121.26" y="-171.81" font-family="Times,serif" font-size="14.00">House</text>
</g>
<g id="clust2" class="cluster">
<title>cluster_color</title>
<polygon fill="none" stroke="black" points="98.96,-195.16 98.96,-374.16 326.96,-374.16 326.96,-195.16 98.96,-195.16"/>
<text text-anchor="middle" x="212.96" y="-358.96" font-family="Times,serif" font-size="14.00">Color</text>
</g>
<g id="clust3" class="cluster">
<title>cluster_nation</title>
<polygon fill="none" stroke="black" points="336.85,-179.56 336.85,-375.56 628.85,-375.56 628.85,-179.56 336.85,-179.56"/>
<text text-anchor="middle" x="482.85" y="-360.36" font-family="Times,serif" font-size="14.00">Nationality</text>
</g>
<g id="clust4" class="cluster">
<title>cluster_pet</title>
<polygon fill="none" stroke="black" points="703.64,-431.46 703.64,-614.46 916.64,-614.46 916.64,-431.46 703.64,-431.46"/>
<text text-anchor="middle" x="810.14" y="-599.26" font-family="Times,serif" font-size="14.00">Pet</text>
</g>
<g id="clust5" class="cluster">
<title>cluster_cigarette</title>
<polygon fill="none" stroke="black" points="369.46,-386.67 369.46,-584.67 694.46,-584.67 694.46,-386.67 369.46,-386.67"/>
<text text-anchor="middle" x="531.96" y="-569.47" font-family="Times,serif" font-size="14.00">Cigarette</text>
</g>
<g id="clust6" class="cluster">
<title>cluster_drink</title>
<polygon fill="none" stroke="black" points="-0.22,-383.49 -0.22,-562.49 248.78,-562.49 248.78,-383.49 -0.22,-383.49"/>
<text text-anchor="middle" x="124.28" y="-547.29" font-family="Times,serif" font-size="14.00">Drink</text>
</g>
<!-- House_1 -->
<g id="node1" class="node">
<title>House_1</title>
<polygon fill="none" stroke="black" points="139.58,-44.17 62.58,-44.17 62.58,-8.17 139.58,-8.17 139.58,-44.17"/>
<text text-anchor="middle" x="101.08" y="-22.47" font-family="Times,serif" font-size="14.00">House_1</text>
</g>
<!-- Norwegian -->
<g id="node15" class="node">
<title>Norwegian</title>
<ellipse fill="none" stroke="black" cx="413.06" cy="-205.87" rx="61.99" ry="18"/>
<text text-anchor="middle" x="413.06" y="-202.17" font-family="Times,serif" font-size="14.00">Norwegian</text>
</g>
<!-- House_1&#45;&gt;Norwegian -->
<g id="edge17" class="edge">
<title>House_1&#45;&gt;Norwegian</title>
<path fill="none" stroke="black" d="M124.66,-44.26C176.72,-78.26 301.98,-150.74 369.02,-186.01"/>
<polygon fill="black" stroke="black" points="367.59,-189.21 378.08,-190.73 370.83,-183.01 367.59,-189.21"/>
</g>
<!-- House_2 -->
<g id="node2" class="node">
<title>House_2</title>
<polygon fill="none" stroke="black" points="191.49,-99.65 114.49,-99.65 114.49,-63.65 191.49,-63.65 191.49,-99.65"/>
<text text-anchor="middle" x="152.99" y="-77.95" font-family="Times,serif" font-size="14.00">House_2</text>
</g>
<!-- House_3 -->
<g id="node3" class="node">
<title>House_3</title>
<polygon fill="none" stroke="black" points="95.42,-88.38 18.42,-88.38 18.42,-52.38 95.42,-52.38 95.42,-88.38"/>
<text text-anchor="middle" x="56.92" y="-66.68" font-family="Times,serif" font-size="14.00">House_3</text>
</g>
<!-- Milk -->
<g id="node27" class="node">
<title>Milk</title>
<ellipse fill="none" stroke="black" cx="39.32" cy="-458.26" rx="31.4" ry="18"/>
<text text-anchor="middle" x="39.32" y="-454.56" font-family="Times,serif" font-size="14.00">Milk</text>
</g>
<!-- House_3&#45;&gt;Milk -->
<g id="edge15" class="edge">
<title>House_3&#45;&gt;Milk</title>
<path fill="none" stroke="black" d="M53.02,-88.43C45.54,-150.32 36.06,-354.26 36.88,-429.79"/>
<polygon fill="black" stroke="black" points="33.38,-430.04 37.08,-439.97 40.38,-429.91 33.38,-430.04"/>
</g>
<!-- House_4 -->
<g id="node4" class="node">
<title>House_4</title>
<polygon fill="none" stroke="black" points="223.49,-155.65 146.49,-155.65 146.49,-119.65 223.49,-119.65 223.49,-155.65"/>
<text text-anchor="middle" x="184.99" y="-133.95" font-family="Times,serif" font-size="14.00">House_4</text>
</g>
<!-- House_5 -->
<g id="node5" class="node">
<title>House_5</title>
<polygon fill="none" stroke="black" points="127.49,-155.65 50.49,-155.65 50.49,-119.65 127.49,-119.65 127.49,-155.65"/>
<text text-anchor="middle" x="88.99" y="-133.95" font-family="Times,serif" font-size="14.00">House_5</text>
</g>
<!-- Ivory -->
<g id="node6" class="node">
<title>Ivory</title>
<ellipse fill="none" stroke="black" cx="284.2" cy="-324.8" rx="34.39" ry="18"/>
<text text-anchor="middle" x="284.2" y="-321.1" font-family="Times,serif" font-size="14.00">Ivory</text>
</g>
<!-- Yellow -->
<g id="node7" class="node">
<title>Yellow</title>
<ellipse fill="none" stroke="black" cx="250.24" cy="-270.18" rx="40.09" ry="18"/>
<text text-anchor="middle" x="250.24" y="-266.48" font-family="Times,serif" font-size="14.00">Yellow</text>
</g>
<!-- Kools -->
<g id="node24" class="node">
<title>Kools</title>
<ellipse fill="none" stroke="black" cx="490.7" cy="-535.92" rx="36" ry="18"/>
<text text-anchor="middle" x="490.7" y="-532.22" font-family="Times,serif" font-size="14.00">Kools</text>
</g>
<!-- Yellow&#45;&gt;Kools -->
<g id="edge13" class="edge">
<title>Yellow&#45;&gt;Kools</title>
<path fill="none" stroke="black" d="M261.7,-287.88C298.41,-334.74 412.69,-461.42 464.65,-513.35"/>
<polygon fill="black" stroke="black" points="462.27,-515.92 471.85,-520.45 467.19,-510.93 462.27,-515.92"/>
</g>
<!-- Red -->
<g id="node8" class="node">
<title>Red</title>
<ellipse fill="none" stroke="black" cx="196.77" cy="-220.74" rx="28.7" ry="18"/>
<text text-anchor="middle" x="196.77" y="-217.04" font-family="Times,serif" font-size="14.00">Red</text>
</g>
<!-- Englishman -->
<g id="node11" class="node">
<title>Englishman</title>
<ellipse fill="none" stroke="black" cx="555.52" cy="-230.62" rx="65.79" ry="18"/>
<text text-anchor="middle" x="555.52" y="-226.92" font-family="Times,serif" font-size="14.00">Englishman</text>
</g>
<!-- Red&#45;&gt;Englishman -->
<g id="edge2" class="edge">
<title>Red&#45;&gt;Englishman</title>
<path fill="none" stroke="black" d="M224.52,-225.34C278.79,-230 400.63,-233.95 480.38,-234.17"/>
<polygon fill="black" stroke="black" points="480.85,-237.67 490.86,-234.17 480.86,-230.67 480.85,-237.67"/>
</g>
<!-- Green -->
<g id="node9" class="node">
<title>Green</title>
<ellipse fill="none" stroke="black" cx="192.52" cy="-322.14" rx="38.99" ry="18"/>
<text text-anchor="middle" x="192.52" y="-318.44" font-family="Times,serif" font-size="14.00">Green</text>
</g>
<!-- Green&#45;&gt;Ivory -->
<g id="edge9" class="edge">
<title>Green&#45;&gt;Ivory</title>
<path fill="none" stroke="black" stroke-dasharray="1,5" d="M231.67,-323.28C234.27,-323.35 236.89,-323.43 239.52,-323.51"/>
<polygon fill="black" stroke="black" points="239.43,-327.01 249.53,-323.8 239.64,-320.01 239.43,-327.01"/>
<text text-anchor="middle" x="285.59" y="-327.19" font-family="Times,serif" font-size="14.00">to the right of</text>
</g>
<!-- Coffee -->
<g id="node26" class="node">
<title>Coffee</title>
<ellipse fill="none" stroke="black" cx="73.63" cy="-409.73" rx="40.09" ry="18"/>
<text text-anchor="middle" x="73.63" y="-406.03" font-family="Times,serif" font-size="14.00">Coffee</text>
</g>
<!-- Green&#45;&gt;Coffee -->
<g id="edge6" class="edge">
<title>Green&#45;&gt;Coffee</title>
<path fill="none" stroke="black" d="M165.47,-335.21C144.49,-348.7 115.83,-369.75 96.1,-386.12"/>
<polygon fill="black" stroke="black" points="93.59,-383.66 88.24,-392.81 98.12,-388.99 93.59,-383.66"/>
</g>
<!-- Blue -->
<g id="node10" class="node">
<title>Blue</title>
<ellipse fill="none" stroke="black" cx="138.75" cy="-271.35" rx="31.7" ry="18"/>
<text text-anchor="middle" x="138.75" y="-267.65" font-family="Times,serif" font-size="14.00">Blue</text>
</g>
<!-- Blue&#45;&gt;Norwegian -->
<g id="edge27" class="edge">
<title>Blue&#45;&gt;Norwegian</title>
<path fill="none" stroke="black" stroke-dasharray="5,2" d="M170.18,-268.4C217.93,-259.84 309.08,-238.39 365.13,-222.78"/>
<polygon fill="black" stroke="black" points="366.16,-226.13 374.83,-220.04 364.25,-219.39 366.16,-226.13"/>
<text text-anchor="middle" x="293.16" y="-234.39" font-family="Times,serif" font-size="14.00">next to</text>
</g>
<!-- Englishman&#45;&gt;Red -->
<g id="edge1" class="edge">
<title>Englishman&#45;&gt;Red</title>
<path fill="none" stroke="black" d="M494.81,-223.73C420.79,-219.4 297.89,-216.3 235.57,-217.43"/>
<polygon fill="black" stroke="black" points="235.3,-213.93 225.39,-217.67 235.47,-220.93 235.3,-213.93"/>
</g>
<!-- Spaniard -->
<g id="node12" class="node">
<title>Spaniard</title>
<ellipse fill="none" stroke="black" cx="430.77" cy="-326.08" rx="52.79" ry="18"/>
<text text-anchor="middle" x="430.77" y="-322.38" font-family="Times,serif" font-size="14.00">Spaniard</text>
</g>
<!-- Dog -->
<g id="node16" class="node">
<title>Dog</title>
<ellipse fill="none" stroke="black" cx="741.32" cy="-506.5" rx="29.5" ry="18"/>
<text text-anchor="middle" x="741.32" y="-502.8" font-family="Times,serif" font-size="14.00">Dog</text>
</g>
<!-- Spaniard&#45;&gt;Dog -->
<g id="edge3" class="edge">
<title>Spaniard&#45;&gt;Dog</title>
<path fill="none" stroke="black" d="M452.22,-342.91C505.44,-378.21 643.64,-458.7 707.77,-491.95"/>
<polygon fill="black" stroke="black" points="706.18,-495.07 716.67,-496.5 709.36,-488.83 706.18,-495.07"/>
</g>
<!-- Ukrainian -->
<g id="node13" class="node">
<title>Ukrainian</title>
<ellipse fill="none" stroke="black" cx="401.45" cy="-265.88" rx="56.59" ry="18"/>
<text text-anchor="middle" x="401.45" y="-262.18" font-family="Times,serif" font-size="14.00">Ukrainian</text>
</g>
<!-- Tea -->
<g id="node28" class="node">
<title>Tea</title>
<ellipse fill="none" stroke="black" cx="109.96" cy="-499.05" rx="27" ry="18"/>
<text text-anchor="middle" x="109.96" y="-495.35" font-family="Times,serif" font-size="14.00">Tea</text>
</g>
<!-- Ukrainian&#45;&gt;Tea -->
<g id="edge7" class="edge">
<title>Ukrainian&#45;&gt;Tea</title>
<path fill="none" stroke="black" d="M375.16,-281.91C318.09,-322.72 184.09,-429.9 131.56,-476.75"/>
<polygon fill="black" stroke="black" points="129.2,-474.17 124.13,-483.47 133.89,-479.36 129.2,-474.17"/>
</g>
<!-- Japanese -->
<g id="node14" class="node">
<title>Japanese</title>
<ellipse fill="none" stroke="black" cx="544.68" cy="-284.99" rx="51.99" ry="18"/>
<text text-anchor="middle" x="544.68" y="-281.29" font-family="Times,serif" font-size="14.00">Japanese</text>
</g>
<!-- Parlament -->
<g id="node25" class="node">
<title>Parlament</title>
<ellipse fill="none" stroke="black" cx="475.18" cy="-412.71" rx="58.49" ry="18"/>
<text text-anchor="middle" x="475.18" y="-409.01" font-family="Times,serif" font-size="14.00">Parlament</text>
</g>
<!-- Japanese&#45;&gt;Parlament -->
<g id="edge24" class="edge">
<title>Japanese&#45;&gt;Parlament</title>
<path fill="none" stroke="black" d="M529.55,-302.26C515.51,-323.6 495.5,-360.07 483.89,-385.26"/>
<polygon fill="black" stroke="black" points="480.59,-384.07 479.74,-394.63 486.99,-386.9 480.59,-384.07"/>
</g>
<!-- Norwegian&#45;&gt;House_1 -->
<g id="edge16" class="edge">
<title>Norwegian&#45;&gt;House_1</title>
<path fill="none" stroke="black" d="M391,-188.77C340.79,-155.8 217.23,-84.2 148.72,-47.93"/>
<polygon fill="black" stroke="black" points="150.32,-44.81 139.84,-43.26 147.06,-51.01 150.32,-44.81"/>
</g>
<!-- Norwegian&#45;&gt;Blue -->
<g id="edge26" class="edge">
<title>Norwegian&#45;&gt;Blue</title>
<path fill="none" stroke="black" stroke-dasharray="5,2" d="M356.92,-213.59C302.16,-224.75 220.55,-244.5 174.22,-257.98"/>
<polygon fill="black" stroke="black" points="173.2,-254.63 164.62,-260.84 175.2,-261.34 173.2,-254.63"/>
<text text-anchor="middle" x="240.07" y="-239.58" font-family="Times,serif" font-size="14.00">next to</text>
</g>
<!-- Dog&#45;&gt;Spaniard -->
<g id="edge4" class="edge">
<title>Dog&#45;&gt;Spaniard</title>
<path fill="none" stroke="black" d="M723.19,-491.89C674.76,-459.28 541.63,-381.49 472.94,-345.15"/>
<polygon fill="black" stroke="black" points="474.18,-341.85 463.7,-340.31 470.93,-348.05 474.18,-341.85"/>
</g>
<!-- Hourse -->
<g id="node17" class="node">
<title>Hourse</title>
<ellipse fill="none" stroke="black" cx="759.17" cy="-557.38" rx="44.39" ry="18"/>
<text text-anchor="middle" x="759.17" y="-553.68" font-family="Times,serif" font-size="14.00">Hourse</text>
</g>
<!-- Hourse&#45;&gt;Kools -->
<g id="edge21" class="edge">
<title>Hourse&#45;&gt;Kools</title>
<path fill="none" stroke="black" stroke-dasharray="5,2" d="M719.66,-549.24C670.92,-543.05 588.2,-536.35 536.66,-534.36"/>
<polygon fill="black" stroke="black" points="536.59,-530.85 526.48,-534.02 536.35,-537.85 536.59,-530.85"/>
<text text-anchor="middle" x="653.66" y="-545.6" font-family="Times,serif" font-size="14.00">next to</text>
</g>
<!-- Snail -->
<g id="node18" class="node">
<title>Snail</title>
<ellipse fill="none" stroke="black" cx="837.08" cy="-508.62" rx="34.39" ry="18"/>
<text text-anchor="middle" x="837.08" y="-504.92" font-family="Times,serif" font-size="14.00">Snail</text>
</g>
<!-- Old_Gold -->
<g id="node21" class="node">
<title>Old_Gold</title>
<ellipse fill="none" stroke="black" cx="596.38" cy="-510.59" rx="52.79" ry="18"/>
<text text-anchor="middle" x="596.38" y="-506.89" font-family="Times,serif" font-size="14.00">Old_Gold</text>
</g>
<!-- Snail&#45;&gt;Old_Gold -->
<g id="edge11" class="edge">
<title>Snail&#45;&gt;Old_Gold</title>
<path fill="none" stroke="black" d="M803.57,-504.05C765.6,-502.26 702.97,-502.41 656.5,-504.17"/>
<polygon fill="black" stroke="black" points="656.09,-500.68 646.25,-504.59 656.38,-507.67 656.09,-500.68"/>
</g>
<!-- Fox -->
<g id="node19" class="node">
<title>Fox</title>
<ellipse fill="none" stroke="black" cx="813.47" cy="-457.13" rx="27.1" ry="18"/>
<text text-anchor="middle" x="813.47" y="-453.43" font-family="Times,serif" font-size="14.00">Fox</text>
</g>
<!-- Chesterfields -->
<g id="node22" class="node">
<title>Chesterfields</title>
<ellipse fill="none" stroke="black" cx="614.79" cy="-457.47" rx="72.29" ry="18"/>
<text text-anchor="middle" x="614.79" y="-453.77" font-family="Times,serif" font-size="14.00">Chesterfields</text>
</g>
<!-- Fox&#45;&gt;Chesterfields -->
<g id="edge19" class="edge">
<title>Fox&#45;&gt;Chesterfields</title>
<path fill="none" stroke="black" stroke-dasharray="5,2" d="M787.08,-452.42C762.97,-450.77 726.09,-450.22 692.63,-450.73"/>
<polygon fill="black" stroke="black" points="692.3,-447.23 682.37,-450.92 692.43,-454.23 692.3,-447.23"/>
<text text-anchor="middle" x="714.35" y="-440.37" font-family="Times,serif" font-size="14.00">next to</text>
</g>
<!-- Zebra -->
<g id="node20" class="node">
<title>Zebra</title>
<ellipse fill="none" stroke="black" cx="869.88" cy="-565.1" rx="38.19" ry="18"/>
<text text-anchor="middle" x="869.88" y="-561.4" font-family="Times,serif" font-size="14.00">Zebra</text>
</g>
<!-- Old_Gold&#45;&gt;Snail -->
<g id="edge10" class="edge">
<title>Old_Gold&#45;&gt;Snail</title>
<path fill="none" stroke="black" d="M646.89,-515.8C690.36,-517.04 752.43,-516.44 793.7,-514.31"/>
<polygon fill="black" stroke="black" points="793.93,-517.8 803.72,-513.74 793.53,-510.81 793.93,-517.8"/>
</g>
<!-- Chesterfields&#45;&gt;Fox -->
<g id="edge18" class="edge">
<title>Chesterfields&#45;&gt;Fox</title>
<path fill="none" stroke="black" stroke-dasharray="5,2" d="M682.62,-463.79C714.14,-464.38 750.38,-463.97 776.71,-462.57"/>
<polygon fill="black" stroke="black" points="777.23,-466.05 787,-461.94 776.8,-459.06 777.23,-466.05"/>
<text text-anchor="middle" x="755.17" y="-466.98" font-family="Times,serif" font-size="14.00">next to</text>
</g>
<!-- Lucky_Strike -->
<g id="node23" class="node">
<title>Lucky_Strike</title>
<ellipse fill="none" stroke="black" cx="448.38" cy="-481.18" rx="70.69" ry="18"/>
<text text-anchor="middle" x="448.38" y="-477.48" font-family="Times,serif" font-size="14.00">Lucky_Strike</text>
</g>
<!-- Juice -->
<g id="node29" class="node">
<title>Juice</title>
<ellipse fill="none" stroke="black" cx="154.19" cy="-454.09" rx="33.29" ry="18"/>
<text text-anchor="middle" x="154.19" y="-450.39" font-family="Times,serif" font-size="14.00">Juice</text>
</g>
<!-- Lucky_Strike&#45;&gt;Juice -->
<g id="edge22" class="edge">
<title>Lucky_Strike&#45;&gt;Juice</title>
<path fill="none" stroke="black" d="M391.46,-470.43C334.69,-463.34 248.73,-455.61 197.36,-453.12"/>
<polygon fill="black" stroke="black" points="197.39,-449.62 187.25,-452.68 197.09,-456.61 197.39,-449.62"/>
</g>
<!-- Kools&#45;&gt;Yellow -->
<g id="edge12" class="edge">
<title>Kools&#45;&gt;Yellow</title>
<path fill="none" stroke="black" d="M479.56,-518.63C443.31,-472.25 329.1,-345.61 276.76,-293.23"/>
<polygon fill="black" stroke="black" points="279.08,-290.6 269.51,-286.06 274.16,-295.58 279.08,-290.6"/>
</g>
<!-- Kools&#45;&gt;Hourse -->
<g id="edge20" class="edge">
<title>Kools&#45;&gt;Hourse</title>
<path fill="none" stroke="black" stroke-dasharray="5,2" d="M523.52,-543.19C568.66,-549.29 650.47,-556.13 704.82,-558.59"/>
<polygon fill="black" stroke="black" points="704.84,-562.09 714.97,-559.01 705.13,-555.1 704.84,-562.09"/>
<text text-anchor="middle" x="588.67" y="-554.69" font-family="Times,serif" font-size="14.00">next to</text>
</g>
<!-- Parlament&#45;&gt;Japanese -->
<g id="edge25" class="edge">
<title>Parlament&#45;&gt;Japanese</title>
<path fill="none" stroke="black" d="M490.49,-395.17C504.54,-373.76 524.47,-337.41 536.03,-312.33"/>
<polygon fill="black" stroke="black" points="539.31,-313.55 540.16,-302.99 532.91,-310.72 539.31,-313.55"/>
</g>
<!-- Coffee&#45;&gt;Green -->
<g id="edge5" class="edge">
<title>Coffee&#45;&gt;Green</title>
<path fill="none" stroke="black" d="M100.98,-396.47C121.97,-382.94 150.52,-361.96 170.17,-345.66"/>
<polygon fill="black" stroke="black" points="172.65,-348.14 177.99,-338.99 168.11,-342.81 172.65,-348.14"/>
</g>
<!-- Milk&#45;&gt;House_3 -->
<g id="edge14" class="edge">
<title>Milk&#45;&gt;House_3</title>
<path fill="none" stroke="black" d="M43.21,-440.21C50.7,-378.33 60.17,-174.39 59.36,-98.85"/>
<polygon fill="black" stroke="black" points="62.85,-98.6 59.16,-88.67 55.85,-98.74 62.85,-98.6"/>
</g>
<!-- Tea&#45;&gt;Ukrainian -->
<g id="edge8" class="edge">
<title>Tea&#45;&gt;Ukrainian</title>
<path fill="none" stroke="black" d="M130.38,-487.19C182.86,-450.51 321.9,-339.55 377.78,-290.03"/>
<polygon fill="black" stroke="black" points="380.3,-292.47 385.41,-283.19 375.63,-287.26 380.3,-292.47"/>
</g>
<!-- Juice&#45;&gt;Lucky_Strike -->
<g id="edge23" class="edge">
<title>Juice&#45;&gt;Lucky_Strike</title>
<path fill="none" stroke="black" d="M184.72,-461.26C227.45,-467.65 306.63,-475.53 367.11,-479.82"/>
<polygon fill="black" stroke="black" points="367.19,-483.33 377.4,-480.53 367.67,-476.35 367.19,-483.33"/>
</g>
<!-- Water -->
<g id="node30" class="node">
<title>Water</title>
<ellipse fill="none" stroke="black" cx="202.02" cy="-513.13" rx="38.19" ry="18"/>
<text text-anchor="middle" x="202.02" y="-509.43" font-family="Times,serif" font-size="14.00">Water</text>
</g>
</g>
</svg>
