<?xml version="1.0" encoding="UTF-8" standalone="no"?>
<!DOCTYPE svg PUBLIC "-//W3C//DTD SVG 1.1//EN"
 "http://www.w3.org/Graphics/SVG/1.1/DTD/svg11.dtd">
<!-- Generated by graphviz version 2.43.0 (0)
 -->
<!-- Title: G Pages: 1 -->
<svg width="938pt" height="572pt"
 viewBox="0.00 0.00 938.00 572.00" xmlns="http://www.w3.org/2000/svg" xmlns:xlink="http://www.w3.org/1999/xlink">
<g id="graph0" class="graph" transform="scale(1 1) rotate(0) translate(4 568)">
<title>G</title>
<polygon fill="white" stroke="transparent" points="-4,4 -4,-568 934,-568 934,4 -4,4"/>
<g id="clust1" class="cluster">
<title>cluster_house</title>
<polygon fill="none" stroke="black" points="0.03,0.21 0.03,-186.79 221.03,-186.79 221.03,0.21 0.03,0.21"/>
<text text-anchor="middle" x="110.53" y="-171.59" font-family="Times,serif" font-size="14.00">House</text>
</g>
<g id="clust2" class="cluster">
<title>cluster_color</title>
<polygon fill="none" stroke="black" points="97.97,-195.11 97.97,-374.11 325.97,-374.11 325.97,-195.11 97.97,-195.11"/>
<text text-anchor="middle" x="211.97" y="-358.91" font-family="Times,serif" font-size="14.00">Color</text>
</g>
<g id="clust3" class="cluster">
<title>cluster_nation</title>
<polygon fill="none" stroke="black" points="335.06,-162.7 335.06,-358.7 627.06,-358.7 627.06,-162.7 335.06,-162.7"/>
<text text-anchor="middle" x="481.06" y="-343.5" font-family="Times,serif" font-size="14.00">Nationality</text>
</g>
<g id="clust4" class="cluster">
<title>cluster_pet</title>
<polygon fill="none" stroke="black" points="716.84,-380.4 716.84,-563.4 929.84,-563.4 929.84,-380.4 716.84,-380.4"/>
<text text-anchor="middle" x="823.34" y="-548.2" font-family="Times,serif" font-size="14.00">Pet</text>
</g>
<g id="clust5" class="cluster">
<title>cluster_cigarette</title>
<polygon fill="none" stroke="black" points="387.78,-369.29 387.78,-559.29 662.78,-559.29 662.78,-369.29 387.78,-369.29"/>
<text text-anchor="middle" x="525.28" y="-544.09" font-family="Times,serif" font-size="14.00">Cigarette</text>
</g>
<g id="clust6" class="cluster">
<title>cluster_drink</title>
<polygon fill="none" stroke="black" points="13.06,-384.61 13.06,-563.61 262.06,-563.61 262.06,-384.61 13.06,-384.61"/>
<text text-anchor="middle" x="137.56" y="-548.41" font-family="Times,serif" font-size="14.00">Drink</text>
</g>
<!-- House_1 -->
<g id="node1" class="node">
<title>House_1</title>
<polygon fill="none" stroke="black" points="128.86,-43.95 51.86,-43.95 51.86,-7.95 128.86,-7.95 128.86,-43.95"/>
<text text-anchor="middle" x="90.36" y="-22.25" font-family="Times,serif" font-size="14.00">House_1</text>
</g>
<!-- Norwegian -->
<g id="node15" class="node">
<title>Norwegian</title>
<ellipse fill="none" stroke="black" cx="411.27" cy="-189.01" rx="61.99" ry="18"/>
<text text-anchor="middle" x="411.27" y="-185.31" font-family="Times,serif" font-size="14.00">Norwegian</text>
</g>
<!-- House_1&#45;&gt;Norwegian -->
<g id="edge17" class="edge">
<title>House_1&#45;&gt;Norwegian</title>
<path fill="none" stroke="black" d="M117.01,-44.03C171.4,-75.38 295.71,-138.85 364.08,-170.49"/>
<polygon fill="black" stroke="black" points="362.8,-173.75 373.35,-174.73 365.72,-167.38 362.8,-173.75"/>
</g>
<!-- House_2 -->
<g id="node2" class="node">
<title>House_2</title>
<polygon fill="none" stroke="black" points="180.77,-99.43 103.77,-99.43 103.77,-63.43 180.77,-63.43 180.77,-99.43"/>
<text text-anchor="middle" x="142.27" y="-77.73" font-family="Times,serif" font-size="14.00">House_2</text>
</g>
<!-- House_3 -->
<g id="node3" class="node">
<title>House_3</title>
<polygon fill="none" stroke="black" points="84.7,-88.16 7.7,-88.16 7.7,-52.16 84.7,-52.16 84.7,-88.16"/>
<text text-anchor="middle" x="46.2" y="-66.46" font-family="Times,serif" font-size="14.00">House_3</text>
</g>
<!-- Milk -->
<g id="node27" class="node">
<title>Milk</title>
<ellipse fill="none" stroke="black" cx="52.6" cy="-459.39" rx="31.4" ry="18"/>
<text text-anchor="middle" x="52.6" y="-455.69" font-family="Times,serif" font-size="14.00">Milk</text>
</g>
<!-- House_3&#45;&gt;Milk -->
<g id="edge15" class="edge">
<title>House_3&#45;&gt;Milk</title>
<path fill="none" stroke="black" d="M43.44,-88.21C39.77,-150.27 42.92,-355.31 48.4,-430.99"/>
<polygon fill="black" stroke="black" points="44.93,-431.5 49.23,-441.19 51.91,-430.94 44.93,-431.5"/>
</g>
<!-- House_4 -->
<g id="node4" class="node">
<title>House_4</title>
<polygon fill="none" stroke="black" points="212.77,-155.43 135.77,-155.43 135.77,-119.43 212.77,-119.43 212.77,-155.43"/>
<text text-anchor="middle" x="174.27" y="-133.73" font-family="Times,serif" font-size="14.00">House_4</text>
</g>
<!-- House_5 -->
<g id="node5" class="node">
<title>House_5</title>
<polygon fill="none" stroke="black" points="116.77,-155.43 39.77,-155.43 39.77,-119.43 116.77,-119.43 116.77,-155.43"/>
<text text-anchor="middle" x="78.27" y="-133.73" font-family="Times,serif" font-size="14.00">House_5</text>
</g>
<!-- Ivory -->
<g id="node6" class="node">
<title>Ivory</title>
<ellipse fill="none" stroke="black" cx="283.21" cy="-324.75" rx="34.39" ry="18"/>
<text text-anchor="middle" x="283.21" y="-321.05" font-family="Times,serif" font-size="14.00">Ivory</text>
</g>
<!-- Yellow -->
<g id="node7" class="node">
<title>Yellow</title>
<ellipse fill="none" stroke="black" cx="249.24" cy="-270.13" rx="40.09" ry="18"/>
<text text-anchor="middle" x="249.24" y="-266.43" font-family="Times,serif" font-size="14.00">Yellow</text>
</g>
<!-- Kools -->
<g id="node24" class="node">
<title>Kools</title>
<ellipse fill="none" stroke="black" cx="598.65" cy="-425.09" rx="36" ry="18"/>
<text text-anchor="middle" x="598.65" y="-421.39" font-family="Times,serif" font-size="14.00">Kools</text>
</g>
<!-- Yellow&#45;&gt;Kools -->
<g id="edge13" class="edge">
<title>Yellow&#45;&gt;Kools</title>
<path fill="none" stroke="black" d="M273.14,-284.8C332.18,-315.13 485.25,-383.27 558.49,-412.11"/>
<polygon fill="black" stroke="black" points="557.27,-415.39 567.86,-415.75 559.8,-408.86 557.27,-415.39"/>
</g>
<!-- Red -->
<g id="node8" class="node">
<title>Red</title>
<ellipse fill="none" stroke="black" cx="195.78" cy="-220.69" rx="28.7" ry="18"/>
<text text-anchor="middle" x="195.78" y="-216.99" font-family="Times,serif" font-size="14.00">Red</text>
</g>
<!-- Englishman -->
<g id="node11" class="node">
<title>Englishman</title>
<ellipse fill="none" stroke="black" cx="553.73" cy="-213.76" rx="65.79" ry="18"/>
<text text-anchor="middle" x="553.73" y="-210.06" font-family="Times,serif" font-size="14.00">Englishman</text>
</g>
<!-- Red&#45;&gt;Englishman -->
<g id="edge2" class="edge">
<title>Red&#45;&gt;Englishman</title>
<path fill="none" stroke="black" d="M223.94,-223.99C279.05,-226.12 402.67,-224.29 481.91,-220.69"/>
<polygon fill="black" stroke="black" points="482.49,-224.17 492.31,-220.19 482.15,-217.17 482.49,-224.17"/>
</g>
<!-- Green -->
<g id="node9" class="node">
<title>Green</title>
<ellipse fill="none" stroke="black" cx="191.53" cy="-322.09" rx="38.99" ry="18"/>
<text text-anchor="middle" x="191.53" y="-318.39" font-family="Times,serif" font-size="14.00">Green</text>
</g>
<!-- Green&#45;&gt;Ivory -->
<g id="edge9" class="edge">
<title>Green&#45;&gt;Ivory</title>
<path fill="none" stroke="red" stroke-dasharray="1,5" d="M230.68,-323.23C233.27,-323.3 235.9,-323.38 238.52,-323.46"/>
<polygon fill="red" stroke="red" points="238.44,-326.95 248.54,-323.75 238.64,-319.96 238.44,-326.95"/>
<text text-anchor="start" x="234.6" y="-327.14" font-family="Times,serif" font-size="14.00" fill="red">to the right of</text>
</g>
<!-- Coffee -->
<g id="node26" class="node">
<title>Coffee</title>
<ellipse fill="none" stroke="black" cx="86.91" cy="-410.86" rx="40.09" ry="18"/>
<text text-anchor="middle" x="86.91" y="-407.16" font-family="Times,serif" font-size="14.00">Coffee</text>
</g>
<!-- Green&#45;&gt;Coffee -->
<g id="edge6" class="edge">
<title>Green&#45;&gt;Coffee</title>
<path fill="none" stroke="black" d="M166.5,-336.02C148.21,-349.56 123.82,-370.18 106.84,-386.41"/>
<polygon fill="black" stroke="black" points="104.28,-384.01 99.6,-393.52 109.19,-389 104.28,-384.01"/>
</g>
<!-- Blue -->
<g id="node10" class="node">
<title>Blue</title>
<ellipse fill="none" stroke="black" cx="137.76" cy="-271.3" rx="31.7" ry="18"/>
<text text-anchor="middle" x="137.76" y="-267.6" font-family="Times,serif" font-size="14.00">Blue</text>
</g>
<!-- Blue&#45;&gt;Norwegian -->
<g id="edge27" class="edge">
<title>Blue&#45;&gt;Norwegian</title>
<path fill="none" stroke="blue" stroke-dasharray="5,2" d="M168.55,-266.61C217.2,-254.97 311.98,-226.73 367.62,-207.53"/>
<polygon fill="blue" stroke="blue" points="368.92,-210.79 377.2,-204.18 366.61,-204.18 368.92,-210.79"/>
<text text-anchor="middle" x="293.59" y="-240.87" font-family="Times,serif" font-size="14.00">next to</text>
</g>
<!-- Englishman&#45;&gt;Red -->
<g id="edge1" class="edge">
<title>Englishman&#45;&gt;Red</title>
<path fill="none" stroke="black" d="M489.63,-209.69C415.23,-208.94 294.94,-211.58 233.92,-215.59"/>
<polygon fill="black" stroke="black" points="233.31,-212.12 223.59,-216.32 233.81,-219.1 233.31,-212.12"/>
</g>
<!-- Spaniard -->
<g id="node12" class="node">
<title>Spaniard</title>
<ellipse fill="none" stroke="black" cx="428.98" cy="-309.22" rx="52.79" ry="18"/>
<text text-anchor="middle" x="428.98" y="-305.52" font-family="Times,serif" font-size="14.00">Spaniard</text>
</g>
<!-- Dog -->
<g id="node16" class="node">
<title>Dog</title>
<ellipse fill="none" stroke="black" cx="754.51" cy="-455.44" rx="29.5" ry="18"/>
<text text-anchor="middle" x="754.51" y="-451.74" font-family="Times,serif" font-size="14.00">Dog</text>
</g>
<!-- Spaniard&#45;&gt;Dog -->
<g id="edge3" class="edge">
<title>Spaniard&#45;&gt;Dog</title>
<path fill="none" stroke="black" d="M454.56,-325.04C512.1,-354.82 651.75,-417.7 718.22,-443.91"/>
<polygon fill="black" stroke="black" points="717.27,-447.3 727.86,-447.65 719.8,-440.77 717.27,-447.3"/>
</g>
<!-- Ukrainian -->
<g id="node13" class="node">
<title>Ukrainian</title>
<ellipse fill="none" stroke="black" cx="399.66" cy="-249.02" rx="56.59" ry="18"/>
<text text-anchor="middle" x="399.66" y="-245.32" font-family="Times,serif" font-size="14.00">Ukrainian</text>
</g>
<!-- Tea -->
<g id="node28" class="node">
<title>Tea</title>
<ellipse fill="none" stroke="black" cx="123.25" cy="-500.18" rx="27" ry="18"/>
<text text-anchor="middle" x="123.25" y="-496.48" font-family="Times,serif" font-size="14.00">Tea</text>
</g>
<!-- Ukrainian&#45;&gt;Tea -->
<g id="edge7" class="edge">
<title>Ukrainian&#45;&gt;Tea</title>
<path fill="none" stroke="black" d="M375.87,-265.49C322.15,-309.05 192.65,-426.68 142.99,-476.98"/>
<polygon fill="black" stroke="black" points="140.46,-474.56 135.99,-484.17 145.48,-479.44 140.46,-474.56"/>
</g>
<!-- Japanese -->
<g id="node14" class="node">
<title>Japanese</title>
<ellipse fill="none" stroke="black" cx="542.89" cy="-268.13" rx="51.99" ry="18"/>
<text text-anchor="middle" x="542.89" y="-264.43" font-family="Times,serif" font-size="14.00">Japanese</text>
</g>
<!-- Parlament -->
<g id="node25" class="node">
<title>Parlament</title>
<ellipse fill="none" stroke="black" cx="459.96" cy="-455.53" rx="58.49" ry="18"/>
<text text-anchor="middle" x="459.96" y="-451.83" font-family="Times,serif" font-size="14.00">Parlament</text>
</g>
<!-- Japanese&#45;&gt;Parlament -->
<g id="edge24" class="edge">
<title>Japanese&#45;&gt;Parlament</title>
<path fill="none" stroke="black" d="M530.39,-285.74C512.54,-318.47 481.23,-388.8 466.92,-427.91"/>
<polygon fill="black" stroke="black" points="463.61,-426.78 463.59,-437.37 470.21,-429.1 463.61,-426.78"/>
</g>
<!-- Norwegian&#45;&gt;House_1 -->
<g id="edge16" class="edge">
<title>Norwegian&#45;&gt;House_1</title>
<path fill="none" stroke="black" d="M387.04,-172.33C334.23,-141.64 208.04,-77.15 138.44,-44.89"/>
<polygon fill="black" stroke="black" points="139.56,-41.55 129.01,-40.56 136.64,-47.91 139.56,-41.55"/>
</g>
<!-- Norwegian&#45;&gt;Blue -->
<g id="edge26" class="edge">
<title>Norwegian&#45;&gt;Blue</title>
<path fill="none" stroke="blue" stroke-dasharray="5,2" d="M359.55,-198.97C304.4,-213.42 218.65,-239.45 171.56,-256.22"/>
<polygon fill="blue" stroke="blue" points="170.32,-252.95 162.12,-259.65 172.71,-259.53 170.32,-252.95"/>
<text text-anchor="middle" x="291.06" y="-216.39" font-family="Times,serif" font-size="14.00">next to</text>
</g>
<!-- Dog&#45;&gt;Spaniard -->
<g id="edge4" class="edge">
<title>Dog&#45;&gt;Spaniard</title>
<path fill="none" stroke="black" d="M734.12,-442.34C683.12,-415.35 549.11,-354.69 476.81,-325.37"/>
<polygon fill="black" stroke="black" points="478.05,-322.09 467.46,-321.62 475.44,-328.59 478.05,-322.09"/>
</g>
<!-- Hourse -->
<g id="node17" class="node">
<title>Hourse</title>
<ellipse fill="none" stroke="black" cx="772.36" cy="-506.32" rx="44.39" ry="18"/>
<text text-anchor="middle" x="772.36" y="-502.62" font-family="Times,serif" font-size="14.00">Hourse</text>
</g>
<!-- Hourse&#45;&gt;Kools -->
<g id="edge21" class="edge">
<title>Hourse&#45;&gt;Kools</title>
<path fill="none" stroke="blue" stroke-dasharray="5,2" d="M750.26,-490.64C722.39,-475.17 674.02,-452.23 639.39,-437.84"/>
<polygon fill="blue" stroke="blue" points="640.6,-434.55 630.01,-434.02 637.96,-441.03 640.6,-434.55"/>
<text text-anchor="middle" x="694.82" y="-453.04" font-family="Times,serif" font-size="14.00">next to</text>
</g>
<!-- Snail -->
<g id="node18" class="node">
<title>Snail</title>
<ellipse fill="none" stroke="black" cx="850.27" cy="-457.56" rx="34.39" ry="18"/>
<text text-anchor="middle" x="850.27" y="-453.86" font-family="Times,serif" font-size="14.00">Snail</text>
</g>
<!-- Old_Gold -->
<g id="node21" class="node">
<title>Old_Gold</title>
<ellipse fill="none" stroke="black" cx="601.92" cy="-483.09" rx="52.79" ry="18"/>
<text text-anchor="middle" x="601.92" y="-479.39" font-family="Times,serif" font-size="14.00">Old_Gold</text>
</g>
<!-- Snail&#45;&gt;Old_Gold -->
<g id="edge11" class="edge">
<title>Snail&#45;&gt;Old_Gold</title>
<path fill="none" stroke="black" d="M815.77,-456.27C774.49,-458.27 704.88,-465.12 656.33,-471.75"/>
<polygon fill="black" stroke="black" points="655.73,-468.3 646.31,-473.16 656.7,-475.23 655.73,-468.3"/>
</g>
<!-- Fox -->
<g id="node19" class="node">
<title>Fox</title>
<ellipse fill="none" stroke="black" cx="826.66" cy="-406.07" rx="27.1" ry="18"/>
<text text-anchor="middle" x="826.66" y="-402.37" font-family="Times,serif" font-size="14.00">Fox</text>
</g>
<!-- Chesterfields -->
<g id="node22" class="node">
<title>Chesterfields</title>
<ellipse fill="none" stroke="black" cx="468.27" cy="-510.48" rx="72.29" ry="18"/>
<text text-anchor="middle" x="468.27" y="-506.78" font-family="Times,serif" font-size="14.00">Chesterfields</text>
</g>
<!-- Fox&#45;&gt;Chesterfields -->
<g id="edge19" class="edge">
<title>Fox&#45;&gt;Chesterfields</title>
<path fill="none" stroke="blue" stroke-dasharray="5,2" d="M799.85,-410.03C739.38,-423.83 591.79,-466.45 515.55,-491.71"/>
<polygon fill="blue" stroke="blue" points="514.1,-488.5 505.73,-495 516.33,-495.14 514.1,-488.5"/>
<text text-anchor="middle" x="632.2" y="-454.67" font-family="Times,serif" font-size="14.00">next to</text>
</g>
<!-- Zebra -->
<g id="node20" class="node">
<title>Zebra</title>
<ellipse fill="none" stroke="black" cx="883.07" cy="-514.05" rx="38.19" ry="18"/>
<text text-anchor="middle" x="883.07" y="-510.35" font-family="Times,serif" font-size="14.00">Zebra</text>
</g>
<!-- Old_Gold&#45;&gt;Snail -->
<g id="edge10" class="edge">
<title>Old_Gold&#45;&gt;Snail</title>
<path fill="none" stroke="black" d="M654.86,-483.3C701.04,-480.2 767.09,-473.26 809.32,-466.99"/>
<polygon fill="black" stroke="black" points="809.91,-470.44 819.26,-465.45 808.84,-463.52 809.91,-470.44"/>
</g>
<!-- Chesterfields&#45;&gt;Fox -->
<g id="edge18" class="edge">
<title>Chesterfields&#45;&gt;Fox</title>
<path fill="none" stroke="blue" stroke-dasharray="5,2" d="M524.89,-499.23C600.93,-479.74 733.51,-440.8 794.41,-419.77"/>
<polygon fill="blue" stroke="blue" points="795.62,-423.06 803.89,-416.43 793.3,-416.45 795.62,-423.06"/>
<text text-anchor="middle" x="685.15" y="-463.3" font-family="Times,serif" font-size="14.00">next to</text>
</g>
<!-- Lucky_Strike -->
<g id="node23" class="node">
<title>Lucky_Strike</title>
<ellipse fill="none" stroke="black" cx="480.05" cy="-395.73" rx="70.69" ry="18"/>
<text text-anchor="middle" x="480.05" y="-392.03" font-family="Times,serif" font-size="14.00">Lucky_Strike</text>
</g>
<!-- Juice -->
<g id="node29" class="node">
<title>Juice</title>
<ellipse fill="none" stroke="black" cx="167.47" cy="-455.22" rx="33.29" ry="18"/>
<text text-anchor="middle" x="167.47" y="-451.52" font-family="Times,serif" font-size="14.00">Juice</text>
</g>
<!-- Lucky_Strike&#45;&gt;Juice -->
<g id="edge22" class="edge">
<title>Lucky_Strike&#45;&gt;Juice</title>
<path fill="none" stroke="black" d="M414.24,-402.56C350.86,-412.78 257.22,-430.92 205.42,-443.28"/>
<polygon fill="black" stroke="black" points="204.52,-439.89 195.64,-445.67 206.18,-446.69 204.52,-439.89"/>
</g>
<!-- Kools&#45;&gt;Yellow -->
<g id="edge12" class="edge">
<title>Kools&#45;&gt;Yellow</title>
<path fill="none" stroke="black" d="M576.11,-411.12C518.79,-381.5 366.86,-313.8 292.05,-284.16"/>
<polygon fill="black" stroke="black" points="293.05,-280.79 282.46,-280.4 290.49,-287.31 293.05,-280.79"/>
</g>
<!-- Kools&#45;&gt;Hourse -->
<g id="edge20" class="edge">
<title>Kools&#45;&gt;Hourse</title>
<path fill="none" stroke="blue" stroke-dasharray="5,2" d="M619.36,-439.99C645.82,-454.82 692.31,-476.99 727.13,-491.69"/>
<polygon fill="blue" stroke="blue" points="726.04,-495.03 736.62,-495.63 728.72,-488.56 726.04,-495.03"/>
<text text-anchor="middle" x="698.74" y="-469.64" font-family="Times,serif" font-size="14.00">next to</text>
</g>
<!-- Parlament&#45;&gt;Japanese -->
<g id="edge25" class="edge">
<title>Parlament&#45;&gt;Japanese</title>
<path fill="none" stroke="black" d="M472.46,-437.93C490.31,-405.19 521.62,-334.87 535.94,-295.75"/>
<polygon fill="black" stroke="black" points="539.25,-296.89 539.27,-286.29 532.64,-294.56 539.25,-296.89"/>
</g>
<!-- Coffee&#45;&gt;Green -->
<g id="edge5" class="edge">
<title>Coffee&#45;&gt;Green</title>
<path fill="none" stroke="black" d="M112.21,-396.73C130.51,-383.16 154.8,-362.61 171.71,-346.44"/>
<polygon fill="black" stroke="black" points="174.24,-348.87 178.91,-339.36 169.33,-343.88 174.24,-348.87"/>
</g>
<!-- Milk&#45;&gt;House_3 -->
<g id="edge14" class="edge">
<title>Milk&#45;&gt;House_3</title>
<path fill="none" stroke="black" d="M55.36,-441.35C59.03,-379.28 55.88,-174.25 50.39,-98.56"/>
<polygon fill="black" stroke="black" points="53.86,-98.05 49.57,-88.36 46.89,-98.61 53.86,-98.05"/>
</g>
<!-- Tea&#45;&gt;Ukrainian -->
<g id="edge8" class="edge">
<title>Tea&#45;&gt;Ukrainian</title>
<path fill="none" stroke="black" d="M142.44,-487.4C192.41,-447.67 325.79,-326.74 378.19,-273.97"/>
<polygon fill="black" stroke="black" points="380.82,-276.29 385.32,-266.69 375.82,-271.39 380.82,-276.29"/>
</g>
<!-- Juice&#45;&gt;Lucky_Strike -->
<g id="edge23" class="edge">
<title>Juice&#45;&gt;Lucky_Strike</title>
<path fill="none" stroke="black" d="M200.55,-453.31C253.8,-446.09 359.1,-426.4 424.16,-411.81"/>
<polygon fill="black" stroke="black" points="425.26,-415.15 434.24,-409.52 423.71,-408.33 425.26,-415.15"/>
</g>
<!-- Water -->
<g id="node30" class="node">
<title>Water</title>
<ellipse fill="none" stroke="black" cx="215.3" cy="-514.26" rx="38.19" ry="18"/>
<text text-anchor="middle" x="215.3" y="-510.56" font-family="Times,serif" font-size="14.00">Water</text>
</g>
</g>
</svg>
