<?xml version="1.0" encoding="UTF-8" standalone="no"?>
<!DOCTYPE svg PUBLIC "-//W3C//DTD SVG 1.1//EN"
 "http://www.w3.org/Graphics/SVG/1.1/DTD/svg11.dtd">
<!-- Generated by graphviz version 2.43.0 (0)
 -->
<!-- Title: G Pages: 1 -->
<svg width="257pt" height="291pt"
 viewBox="0.00 0.00 257.29 291.00" xmlns="http://www.w3.org/2000/svg" xmlns:xlink="http://www.w3.org/1999/xlink">
<g id="graph0" class="graph" transform="scale(1 1) rotate(0) translate(4 287)">
<title>G</title>
<polygon fill="white" stroke="transparent" points="-4,4 -4,-287 253.29,-287 253.29,4 -4,4"/>
<!-- House -->
<g id="node1" class="node">
<title>House</title>
<ellipse fill="lightgrey" stroke="black" cx="40.3" cy="-192" rx="40.09" ry="18"/>
<text text-anchor="middle" x="40.3" y="-188.3" font-family="Times,serif" font-size="14.00">House</text>
</g>
<!-- House_4 -->
<g id="node3" class="node">
<title>House_4</title>
<ellipse fill="none" stroke="black" cx="103.3" cy="-105" rx="50.09" ry="18"/>
<text text-anchor="middle" x="103.3" y="-101.3" font-family="Times,serif" font-size="14.00">House_4</text>
</g>
<!-- House&#45;&gt;House_4 -->
<g id="edge1" class="edge">
<title>House&#45;&gt;House_4</title>
<path fill="none" stroke="black" d="M52.44,-174.61C63.53,-159.66 79.83,-137.66 90.97,-122.63"/>
</g>
<!-- House_5 -->
<g id="node4" class="node">
<title>House_5</title>
<ellipse fill="none" stroke="black" cx="103.3" cy="-18" rx="50.09" ry="18"/>
<text text-anchor="middle" x="103.3" y="-14.3" font-family="Times,serif" font-size="14.00">House_5</text>
</g>
<!-- House&#45;&gt;House_5 -->
<g id="edge2" class="edge">
<title>House&#45;&gt;House_5</title>
<path fill="none" stroke="black" d="M37.57,-173.72C34.97,-152.48 32.93,-115.73 44.3,-87 52.57,-66.07 70.21,-47.17 84.05,-34.64"/>
</g>
<!-- Color -->
<g id="node2" class="node">
<title>Color</title>
<ellipse fill="lightgrey" stroke="black" cx="179.3" cy="-265" rx="36" ry="18"/>
<text text-anchor="middle" x="179.3" y="-261.3" font-family="Times,serif" font-size="14.00">Color</text>
</g>
<!-- Ivory -->
<g id="node5" class="node">
<title>Ivory</title>
<ellipse fill="none" stroke="black" cx="148.3" cy="-192" rx="34.39" ry="18"/>
<text text-anchor="middle" x="148.3" y="-188.3" font-family="Times,serif" font-size="14.00">Ivory</text>
</g>
<!-- Color&#45;&gt;Ivory -->
<g id="edge4" class="edge">
<title>Color&#45;&gt;Ivory</title>
<path fill="none" stroke="black" d="M171.95,-247.17C167.01,-235.86 160.52,-221 155.59,-209.71"/>
</g>
<!-- Green -->
<g id="node6" class="node">
<title>Green</title>
<ellipse fill="none" stroke="black" cx="210.3" cy="-105" rx="38.99" ry="18"/>
<text text-anchor="middle" x="210.3" y="-101.3" font-family="Times,serif" font-size="14.00">Green</text>
</g>
<!-- Color&#45;&gt;Green -->
<g id="edge5" class="edge">
<title>Color&#45;&gt;Green</title>
<path fill="none" stroke="black" d="M183.25,-247.01C185.67,-236.39 188.78,-222.42 191.3,-210 197.49,-179.42 203.83,-143.59 207.4,-122.97"/>
</g>
<!-- House_4&#45;&gt;House_5 -->
<g id="edge3" class="edge">
<title>House_4&#45;&gt;House_5</title>
<path fill="none" stroke="red" d="M103.3,-86.8C103.3,-75.16 103.3,-59.55 103.3,-46.24"/>
<polygon fill="red" stroke="red" points="106.8,-46.18 103.3,-36.18 99.8,-46.18 106.8,-46.18"/>
<text text-anchor="middle" x="121.3" y="-57.8" font-family="Times,serif" font-size="14.00">right</text>
</g>
<!-- Ivory&#45;&gt;House_4 -->
<g id="edge7" class="edge">
<title>Ivory&#45;&gt;House_4</title>
<path fill="none" stroke="black" d="M139.41,-174.21C131.52,-159.31 120.05,-137.65 112.17,-122.76"/>
</g>
<!-- Ivory&#45;&gt;Green -->
<g id="edge6" class="edge">
<title>Ivory&#45;&gt;Green</title>
<path fill="none" stroke="red" d="M149.41,-173.56C150.77,-163.34 153.76,-150.59 160.3,-141 164.56,-134.74 170.34,-129.24 176.46,-124.58"/>
<polygon fill="red" stroke="red" points="178.68,-127.3 184.91,-118.73 174.69,-121.55 178.68,-127.3"/>
<text text-anchor="middle" x="178.3" y="-144.8" font-family="Times,serif" font-size="14.00">right</text>
</g>
<!-- Green&#45;&gt;House_5 -->
<g id="edge8" class="edge">
<title>Green&#45;&gt;House_5</title>
<path fill="none" stroke="green" stroke-width="2" d="M191.17,-88.8C171.93,-73.52 142.42,-50.08 122.98,-34.64"/>
</g>
</g>
</svg>
