<?xml version="1.0" encoding="UTF-8" standalone="no"?>
<!DOCTYPE svg PUBLIC "-//W3C//DTD SVG 1.1//EN"
 "http://www.w3.org/Graphics/SVG/1.1/DTD/svg11.dtd">
<!-- Generated by graphviz version 2.43.0 (0)
 -->
<!-- Title: G Pages: 1 -->
<svg width="188pt" height="188pt"
 viewBox="0.00 0.00 187.60 188.00" xmlns="http://www.w3.org/2000/svg" xmlns:xlink="http://www.w3.org/1999/xlink">
<g id="graph0" class="graph" transform="scale(1 1) rotate(0) translate(4 184)">
<title>G</title>
<polygon fill="white" stroke="transparent" points="-4,4 -4,-184 183.6,-184 183.6,4 -4,4"/>
<!-- Pet -->
<g id="node1" class="node">
<title>Pet</title>
<ellipse fill="lightgrey" stroke="black" cx="27" cy="-90" rx="27" ry="18"/>
<text text-anchor="middle" x="27" y="-86.3" font-family="Times,serif" font-size="14.00">Pet</text>
</g>
<!-- Snail -->
<g id="node3" class="node">
<title>Snail</title>
<ellipse fill="none" stroke="black" cx="76" cy="-18" rx="34.39" ry="18"/>
<text text-anchor="middle" x="76" y="-14.3" font-family="Times,serif" font-size="14.00">Snail</text>
</g>
<!-- Pet&#45;&gt;Snail -->
<g id="edge1" class="edge">
<title>Pet&#45;&gt;Snail</title>
<path fill="none" stroke="black" d="M37.87,-73.46C45.77,-62.19 56.43,-46.96 64.47,-35.47"/>
</g>
<!-- Cigarette -->
<g id="node2" class="node">
<title>Cigarette</title>
<ellipse fill="lightgrey" stroke="black" cx="125" cy="-162" rx="54.69" ry="18"/>
<text text-anchor="middle" x="125" y="-158.3" font-family="Times,serif" font-size="14.00">Cigarette</text>
</g>
<!-- Old_Gold -->
<g id="node4" class="node">
<title>Old_Gold</title>
<ellipse fill="none" stroke="black" cx="125" cy="-90" rx="52.79" ry="18"/>
<text text-anchor="middle" x="125" y="-86.3" font-family="Times,serif" font-size="14.00">Old_Gold</text>
</g>
<!-- Cigarette&#45;&gt;Old_Gold -->
<g id="edge2" class="edge">
<title>Cigarette&#45;&gt;Old_Gold</title>
<path fill="none" stroke="black" d="M125,-143.7C125,-132.85 125,-118.92 125,-108.1"/>
</g>
<!-- Old_Gold&#45;&gt;Snail -->
<g id="edge3" class="edge">
<title>Old_Gold&#45;&gt;Snail</title>
<path fill="none" stroke="black" d="M113.39,-72.41C105.58,-61.25 95.32,-46.6 87.53,-35.47"/>
</g>
</g>
</svg>
