<?xml version="1.0" encoding="UTF-8" standalone="no"?>
<!DOCTYPE svg PUBLIC "-//W3C//DTD SVG 1.1//EN"
 "http://www.w3.org/Graphics/SVG/1.1/DTD/svg11.dtd">
<!-- Generated by graphviz version 2.43.0 (0)
 -->
<!-- Title: G Pages: 1 -->
<svg width="428pt" height="188pt"
 viewBox="0.00 0.00 427.59 188.00" xmlns="http://www.w3.org/2000/svg" xmlns:xlink="http://www.w3.org/1999/xlink">
<g id="graph0" class="graph" transform="scale(1 1) rotate(0) translate(4 184)">
<title>G</title>
<polygon fill="white" stroke="transparent" points="-4,4 -4,-184 423.59,-184 423.59,4 -4,4"/>
<!-- House -->
<g id="node1" class="node">
<title>House</title>
<ellipse fill="lightgrey" stroke="black" cx="285" cy="-162" rx="40.09" ry="18"/>
<text text-anchor="middle" x="285" y="-158.3" font-family="Times,serif" font-size="14.00">House</text>
</g>
<!-- House_First -->
<g id="node8" class="node">
<title>House_First</title>
<ellipse fill="none" stroke="black" cx="285" cy="-90" rx="66.89" ry="18"/>
<text text-anchor="middle" x="285" y="-86.3" font-family="Times,serif" font-size="14.00">House_First</text>
</g>
<!-- House&#45;&gt;House_First -->
<g id="edge6" class="edge">
<title>House&#45;&gt;House_First</title>
<path fill="none" stroke="black" d="M285,-143.7C285,-132.85 285,-118.92 285,-108.1"/>
</g>
<!-- Color -->
<g id="node2" class="node">
<title>Color</title>
<ellipse fill="lightgrey" stroke="black" cx="164" cy="-90" rx="36" ry="18"/>
<text text-anchor="middle" x="164" y="-86.3" font-family="Times,serif" font-size="14.00">Color</text>
</g>
<!-- Red -->
<g id="node3" class="node">
<title>Red</title>
<ellipse fill="none" stroke="black" cx="391" cy="-18" rx="28.7" ry="18"/>
<text text-anchor="middle" x="391" y="-14.3" font-family="Times,serif" font-size="14.00">Red</text>
</g>
<!-- Color&#45;&gt;Red -->
<g id="edge1" class="edge">
<title>Color&#45;&gt;Red</title>
<path fill="none" stroke="black" d="M191.42,-78.05C197.19,-75.92 203.26,-73.79 209,-72 272.39,-52.23 291.33,-57.96 354,-36 358.93,-34.27 364.11,-32.12 368.97,-29.94"/>
</g>
<!-- Green -->
<g id="node4" class="node">
<title>Green</title>
<ellipse fill="none" stroke="black" cx="39" cy="-18" rx="38.99" ry="18"/>
<text text-anchor="middle" x="39" y="-14.3" font-family="Times,serif" font-size="14.00">Green</text>
</g>
<!-- Color&#45;&gt;Green -->
<g id="edge2" class="edge">
<title>Color&#45;&gt;Green</title>
<path fill="none" stroke="black" d="M141.07,-76.16C118.94,-63.77 85.56,-45.08 63.06,-32.47"/>
</g>
<!-- Yellow -->
<g id="node5" class="node">
<title>Yellow</title>
<ellipse fill="none" stroke="black" cx="136" cy="-18" rx="40.09" ry="18"/>
<text text-anchor="middle" x="136" y="-14.3" font-family="Times,serif" font-size="14.00">Yellow</text>
</g>
<!-- Color&#45;&gt;Yellow -->
<g id="edge3" class="edge">
<title>Color&#45;&gt;Yellow</title>
<path fill="none" stroke="black" d="M157.22,-72.05C152.82,-61.05 147.1,-46.76 142.71,-35.79"/>
</g>
<!-- Ivory -->
<g id="node6" class="node">
<title>Ivory</title>
<ellipse fill="none" stroke="black" cx="229" cy="-18" rx="34.39" ry="18"/>
<text text-anchor="middle" x="229" y="-14.3" font-family="Times,serif" font-size="14.00">Ivory</text>
</g>
<!-- Color&#45;&gt;Ivory -->
<g id="edge4" class="edge">
<title>Color&#45;&gt;Ivory</title>
<path fill="none" stroke="black" d="M178.42,-73.46C189.19,-61.86 203.85,-46.08 214.61,-34.49"/>
</g>
<!-- Blue -->
<g id="node7" class="node">
<title>Blue</title>
<ellipse fill="none" stroke="black" cx="313" cy="-18" rx="31.7" ry="18"/>
<text text-anchor="middle" x="313" y="-14.3" font-family="Times,serif" font-size="14.00">Blue</text>
</g>
<!-- Color&#45;&gt;Blue -->
<g id="edge5" class="edge">
<title>Color&#45;&gt;Blue</title>
<path fill="none" stroke="black" d="M189.27,-77.13C217.17,-64.02 261.74,-43.08 289.08,-30.24"/>
</g>
<!-- House_First&#45;&gt;Red -->
<g id="edge7" class="edge">
<title>House_First&#45;&gt;Red</title>
<path fill="none" stroke="red" stroke-dasharray="5,2" d="M309.05,-73.12C328.11,-60.53 354.37,-43.19 371.98,-31.56"/>
</g>
<!-- House_First&#45;&gt;Green -->
<g id="edge8" class="edge">
<title>House_First&#45;&gt;Green</title>
<path fill="none" stroke="red" stroke-dasharray="5,2" d="M237.09,-77.3C196.8,-67.2 137.81,-51.77 87,-36 81,-34.14 74.64,-32 68.58,-29.89"/>
</g>
<!-- House_First&#45;&gt;Yellow -->
<g id="edge9" class="edge">
<title>House_First&#45;&gt;Yellow</title>
<path fill="none" stroke="green" stroke-width="2" d="M253.03,-73.98C226.18,-61.37 188.25,-43.55 162.92,-31.65"/>
</g>
<!-- House_First&#45;&gt;Ivory -->
<g id="edge10" class="edge">
<title>House_First&#45;&gt;Ivory</title>
<path fill="none" stroke="red" stroke-dasharray="5,2" d="M271.44,-72.05C262.38,-60.73 250.53,-45.92 241.66,-34.83"/>
</g>
<!-- House_First&#45;&gt;Blue -->
<g id="edge11" class="edge">
<title>House_First&#45;&gt;Blue</title>
<path fill="none" stroke="red" stroke-dasharray="5,2" d="M291.77,-72.05C296.18,-61.05 301.89,-46.76 306.28,-35.79"/>
</g>
</g>
</svg>
