<?xml version="1.0" encoding="UTF-8" standalone="no"?>
<!DOCTYPE svg PUBLIC "-//W3C//DTD SVG 1.1//EN"
 "http://www.w3.org/Graphics/SVG/1.1/DTD/svg11.dtd">
<!-- Generated by graphviz version 14.1.5 (0)
 -->
<!-- Title: layer_n_processing Pages: 1 -->
<svg width="1764pt" height="2323pt"
 viewBox="0.00 0.00 1764.00 2323.00" xmlns="http://www.w3.org/2000/svg" xmlns:xlink="http://www.w3.org/1999/xlink">
<g id="graph0" class="graph" transform="scale(1 1) rotate(0) translate(4 2318.56)">
<title>layer_n_processing</title>
<polygon fill="white" stroke="none" points="-4,4 -4,-2318.56 1759.5,-2318.56 1759.5,4 -4,4"/>
<!-- start -->
<g id="node1" class="node">
<title>start</title>
<path fill="lightblue" stroke="black" d="M1503.62,-2314.56C1503.62,-2314.56 1344.38,-2314.56 1344.38,-2314.56 1338.38,-2314.56 1332.38,-2308.56 1332.38,-2302.56 1332.38,-2302.56 1332.38,-2266.81 1332.38,-2266.81 1332.38,-2260.81 1338.38,-2254.81 1344.38,-2254.81 1344.38,-2254.81 1503.62,-2254.81 1503.62,-2254.81 1509.62,-2254.81 1515.62,-2260.81 1515.62,-2266.81 1515.62,-2266.81 1515.62,-2302.56 1515.62,-2302.56 1515.62,-2308.56 1509.62,-2314.56 1503.62,-2314.56"/>
<text xml:space="preserve" text-anchor="middle" x="1424" y="-2297.26" font-family="Helvetica,sans-Serif" font-size="14.00">Layer N start</text>
<text xml:space="preserve" text-anchor="middle" x="1424" y="-2280.01" font-family="Helvetica,sans-Serif" font-size="14.00">A_1, …, A_{N&#45;1} frozen</text>
<text xml:space="preserve" text-anchor="middle" x="1424" y="-2262.76" font-family="Helvetica,sans-Serif" font-size="14.00">root._nogoods carried in</text>
</g>
<!-- generate -->
<g id="node2" class="node">
<title>generate</title>
<path fill="lightblue" stroke="black" d="M1558.38,-2217.81C1558.38,-2217.81 1289.62,-2217.81 1289.62,-2217.81 1283.62,-2217.81 1277.62,-2211.81 1277.62,-2205.81 1277.62,-2205.81 1277.62,-2168.56 1277.62,-2168.56 1277.62,-2162.56 1283.62,-2156.56 1289.62,-2156.56 1289.62,-2156.56 1558.38,-2156.56 1558.38,-2156.56 1564.38,-2156.56 1570.38,-2162.56 1570.38,-2168.56 1570.38,-2168.56 1570.38,-2205.81 1570.38,-2205.81 1570.38,-2211.81 1564.38,-2217.81 1558.38,-2217.81"/>
<text xml:space="preserve" text-anchor="middle" x="1424" y="-2200.51" font-family="Helvetica,sans-Serif" font-size="14.00">Apriori prefix&#45;join</text>
<text xml:space="preserve" text-anchor="middle" x="1424" y="-2183.26" font-family="Helvetica,sans-Serif" font-size="14.00">A_{N&#45;1} ⨝ A_{N&#45;1} → candidates</text>
<text xml:space="preserve" text-anchor="middle" x="1424" y="-2164.51" font-family="Helvetica,sans-Serif" font-size="14.00">(each size&#45;N candidate generated once)</text>
</g>
<!-- start&#45;&gt;generate -->
<g id="edge1" class="edge">
<title>start&#45;&gt;generate</title>
<path fill="none" stroke="black" d="M1424,-2254.51C1424,-2246.59 1424,-2237.86 1424,-2229.41"/>
<polygon fill="black" stroke="black" points="1427.5,-2229.68 1424,-2219.68 1420.5,-2229.68 1427.5,-2229.68"/>
</g>
<!-- filter -->
<g id="node3" class="node">
<title>filter</title>
<path fill="lightyellow" stroke="black" d="M1743.5,-2119.56C1743.5,-2119.56 1240.16,-2119.56 1240.16,-2119.56 1234.16,-2119.56 1224.19,-2115.05 1220.22,-2110.55 1220.22,-2110.55 1100.43,-1974.56 1100.43,-1974.56 1096.46,-1970.06 1098.5,-1965.56 1104.5,-1965.56 1104.5,-1965.56 1607.84,-1965.56 1607.84,-1965.56 1613.84,-1965.56 1623.81,-1970.06 1627.78,-1974.56 1627.78,-1974.56 1747.57,-2110.55 1747.57,-2110.55 1751.54,-2115.05 1749.5,-2119.56 1743.5,-2119.56"/>
<text xml:space="preserve" text-anchor="middle" x="1424" y="-2063.76" font-family="Helvetica,sans-Serif" font-size="14.00">Filter candidates:</text>
<text xml:space="preserve" text-anchor="middle" x="1424" y="-2046.51" font-family="Helvetica,sans-Serif" font-size="14.00">• every (N&#45;1)&#45;subset ∈ A_{N&#45;1}</text>
<text xml:space="preserve" text-anchor="middle" x="1424" y="-2029.26" font-family="Helvetica,sans-Serif" font-size="14.00">• ¬ matches_any_nogood(c, root._nogoods)</text>
<text xml:space="preserve" text-anchor="middle" x="1424" y="-2012.01" font-family="Helvetica,sans-Serif" font-size="14.00">• every element ∈ current_alive</text>
</g>
<!-- generate&#45;&gt;filter -->
<g id="edge2" class="edge">
<title>generate&#45;&gt;filter</title>
<path fill="none" stroke="black" d="M1424,-2156.28C1424,-2148.7 1424,-2140.16 1424,-2131.27"/>
<polygon fill="black" stroke="black" points="1427.5,-2131.36 1424,-2121.36 1420.5,-2131.36 1427.5,-2131.36"/>
</g>
<!-- loop_head -->
<g id="node4" class="node">
<title>loop_head</title>
<path fill="lightblue" stroke="black" d="M1599.27,-1891.54C1599.27,-1891.54 1599.27,-1900.52 1599.27,-1900.52 1599.27,-1905.01 1594.85,-1910.32 1590.44,-1911.14 1590.44,-1911.14 1505.43,-1926.92 1505.43,-1926.92 1501.01,-1927.74 1492.11,-1928.56 1487.62,-1928.56 1487.62,-1928.56 1360.38,-1928.56 1360.38,-1928.56 1355.89,-1928.56 1346.99,-1927.74 1342.57,-1926.92 1342.57,-1926.92 1257.56,-1911.14 1257.56,-1911.14 1253.15,-1910.32 1248.73,-1905.01 1248.73,-1900.52 1248.73,-1900.52 1248.73,-1891.54 1248.73,-1891.54 1248.73,-1887.05 1253.15,-1881.73 1257.56,-1880.92 1257.56,-1880.92 1342.57,-1865.14 1342.57,-1865.14 1346.99,-1864.32 1355.89,-1863.5 1360.38,-1863.5 1360.38,-1863.5 1487.62,-1863.5 1487.62,-1863.5 1492.11,-1863.5 1501.01,-1864.32 1505.43,-1865.14 1505.43,-1865.14 1590.44,-1880.92 1590.44,-1880.92 1594.85,-1881.73 1599.27,-1887.05 1599.27,-1891.54"/>
<text xml:space="preserve" text-anchor="middle" x="1424" y="-1899.98" font-family="Helvetica,sans-Serif" font-size="14.00">for each surviving candidate C</text>
<text xml:space="preserve" text-anchor="middle" x="1424" y="-1882.73" font-family="Helvetica,sans-Serif" font-size="14.00">(|C| = N)</text>
</g>
<!-- filter&#45;&gt;loop_head -->
<g id="edge3" class="edge">
<title>filter&#45;&gt;loop_head</title>
<path fill="none" stroke="black" d="M1424,-1965.06C1424,-1956.61 1424,-1948.23 1424,-1940.4"/>
<polygon fill="black" stroke="black" points="1427.5,-1940.5 1424,-1930.5 1420.5,-1940.5 1427.5,-1940.5"/>
</g>
<!-- find_parents -->
<g id="node5" class="node">
<title>find_parents</title>
<path fill="lightblue" stroke="black" d="M1441,-1826.5C1441,-1826.5 1263,-1826.5 1263,-1826.5 1257,-1826.5 1251,-1820.5 1251,-1814.5 1251,-1814.5 1251,-1778.75 1251,-1778.75 1251,-1772.75 1257,-1766.75 1263,-1766.75 1263,-1766.75 1441,-1766.75 1441,-1766.75 1447,-1766.75 1453,-1772.75 1453,-1778.75 1453,-1778.75 1453,-1814.5 1453,-1814.5 1453,-1820.5 1447,-1826.5 1441,-1826.5"/>
<text xml:space="preserve" text-anchor="middle" x="1352" y="-1809.2" font-family="Helvetica,sans-Serif" font-size="14.00">find C&#39;s parents:</text>
<text xml:space="preserve" text-anchor="middle" x="1352" y="-1791.95" font-family="Helvetica,sans-Serif" font-size="14.00">all N (N&#45;1)&#45;subsets of C</text>
<text xml:space="preserve" text-anchor="middle" x="1352" y="-1774.7" font-family="Helvetica,sans-Serif" font-size="14.00">(each must be in A_{N&#45;1})</text>
</g>
<!-- loop_head&#45;&gt;find_parents -->
<g id="edge4" class="edge">
<title>loop_head&#45;&gt;find_parents</title>
<path fill="none" stroke="black" d="M1400.42,-1863.13C1394.03,-1854.49 1387.04,-1845.03 1380.42,-1836.07"/>
<polygon fill="black" stroke="black" points="1383.34,-1834.13 1374.58,-1828.17 1377.71,-1838.29 1383.34,-1834.13"/>
</g>
<!-- sanity -->
<g id="node6" class="node">
<title>sanity</title>
<path fill="lightgray" stroke="black" stroke-dasharray="5,2" d="M1290.25,-1713.5C1290.25,-1713.5 999.75,-1713.5 999.75,-1713.5 993.75,-1713.5 987.75,-1707.5 987.75,-1701.5 987.75,-1701.5 987.75,-1631.25 987.75,-1631.25 987.75,-1625.25 993.75,-1619.25 999.75,-1619.25 999.75,-1619.25 1290.25,-1619.25 1290.25,-1619.25 1296.25,-1619.25 1302.25,-1625.25 1302.25,-1631.25 1302.25,-1631.25 1302.25,-1701.5 1302.25,-1701.5 1302.25,-1707.5 1296.25,-1713.5 1290.25,-1713.5"/>
<text xml:space="preserve" text-anchor="middle" x="1145" y="-1696.2" font-family="Helvetica,sans-Serif" font-size="14.00">[OPTIONAL — disabled by default]</text>
<text xml:space="preserve" text-anchor="middle" x="1145" y="-1678.95" font-family="Helvetica,sans-Serif" font-size="14.00">for each parent P_i:</text>
<text xml:space="preserve" text-anchor="middle" x="1145" y="-1661.7" font-family="Helvetica,sans-Serif" font-size="14.00"> &#160;fork(P_i.kb), add h_i = C \ P_i, saturate</text>
<text xml:space="preserve" text-anchor="middle" x="1145" y="-1644.45" font-family="Helvetica,sans-Serif" font-size="14.00">verify state_hash(...) is identical across all i</text>
<text xml:space="preserve" text-anchor="middle" x="1145" y="-1627.2" font-family="Helvetica,sans-Serif" font-size="14.00">(validates saturation commutativity)</text>
</g>
<!-- find_parents&#45;&gt;sanity -->
<g id="edge5" class="edge">
<title>find_parents&#45;&gt;sanity</title>
<path fill="none" stroke="gray" stroke-dasharray="5,2" d="M1300.38,-1766.47C1283.5,-1756.94 1269,-1748.75 1269,-1748.75 1269,-1748.75 1248.98,-1735.61 1225.03,-1719.9"/>
<polygon fill="gray" stroke="gray" points="1227.24,-1717.16 1216.96,-1714.6 1223.4,-1723.01 1227.24,-1717.16"/>
<text xml:space="preserve" text-anchor="middle" x="1303.5" y="-1735.45" font-family="Helvetica,sans-Serif" font-size="14.00">if enabled</text>
</g>
<!-- fork_one -->
<g id="node7" class="node">
<title>fork_one</title>
<path fill="lightblue" stroke="black" d="M1351.62,-1566C1351.62,-1566 1006.38,-1566 1006.38,-1566 1000.38,-1566 994.38,-1560 994.38,-1554 994.38,-1554 994.38,-1535.5 994.38,-1535.5 994.38,-1529.5 1000.38,-1523.5 1006.38,-1523.5 1006.38,-1523.5 1351.62,-1523.5 1351.62,-1523.5 1357.62,-1523.5 1363.62,-1529.5 1363.62,-1535.5 1363.62,-1535.5 1363.62,-1554 1363.62,-1554 1363.62,-1560 1357.62,-1566 1351.62,-1566"/>
<text xml:space="preserve" text-anchor="middle" x="1179" y="-1548.7" font-family="Helvetica,sans-Serif" font-size="14.00">fork ANY one parent P&#39;s kb</text>
<text xml:space="preserve" text-anchor="middle" x="1179" y="-1531.45" font-family="Helvetica,sans-Serif" font-size="14.00">(commutativity ⟹ result is independent of choice)</text>
</g>
<!-- find_parents&#45;&gt;fork_one -->
<g id="edge7" class="edge">
<title>find_parents&#45;&gt;fork_one</title>
<path fill="none" stroke="black" d="M1347.01,-1766.56C1344.1,-1749.6 1341,-1731.5 1341,-1731.5 1341,-1731.5 1317,-1619.25 1317,-1619.25 1317,-1619.25 1261,-1584 1261,-1584 1261,-1584 1248.67,-1578.25 1233.58,-1571.21"/>
<polygon fill="black" stroke="black" points="1235.27,-1568.14 1224.73,-1567.08 1232.31,-1574.48 1235.27,-1568.14"/>
<text xml:space="preserve" text-anchor="middle" x="1379.47" y="-1661.7" font-family="Helvetica,sans-Serif" font-size="14.00">default path</text>
</g>
<!-- sanity&#45;&gt;fork_one -->
<g id="edge6" class="edge">
<title>sanity&#45;&gt;fork_one</title>
<path fill="none" stroke="gray" stroke-dasharray="5,2" d="M1158.24,-1618.78C1162.18,-1604.92 1166.41,-1590.06 1170.01,-1577.39"/>
<polygon fill="gray" stroke="gray" points="1173.33,-1578.49 1172.7,-1567.91 1166.6,-1576.57 1173.33,-1578.49"/>
<text xml:space="preserve" text-anchor="middle" x="1210.75" y="-1587.95" font-family="Helvetica,sans-Serif" font-size="14.00">states agree</text>
</g>
<!-- add_hyp -->
<g id="node8" class="node">
<title>add_hyp</title>
<path fill="lightblue" stroke="black" d="M1286.38,-1486.5C1286.38,-1486.5 1071.62,-1486.5 1071.62,-1486.5 1065.62,-1486.5 1059.62,-1480.5 1059.62,-1474.5 1059.62,-1474.5 1059.62,-1456 1059.62,-1456 1059.62,-1450 1065.62,-1444 1071.62,-1444 1071.62,-1444 1286.38,-1444 1286.38,-1444 1292.38,-1444 1298.38,-1450 1298.38,-1456 1298.38,-1456 1298.38,-1474.5 1298.38,-1474.5 1298.38,-1480.5 1292.38,-1486.5 1286.38,-1486.5"/>
<text xml:space="preserve" text-anchor="middle" x="1179" y="-1469.2" font-family="Helvetica,sans-Serif" font-size="14.00">add hypothesis h = C \ P to fork</text>
<text xml:space="preserve" text-anchor="middle" x="1179" y="-1451.95" font-family="Helvetica,sans-Serif" font-size="14.00">(NOT yet saturated)</text>
</g>
<!-- fork_one&#45;&gt;add_hyp -->
<g id="edge8" class="edge">
<title>fork_one&#45;&gt;add_hyp</title>
<path fill="none" stroke="black" d="M1179,-1523.39C1179,-1515.62 1179,-1506.56 1179,-1497.98"/>
<polygon fill="black" stroke="black" points="1182.5,-1498.26 1179,-1488.26 1175.5,-1498.26 1182.5,-1498.26"/>
</g>
<!-- pre_contra -->
<g id="node9" class="node">
<title>pre_contra</title>
<path fill="lightyellow" stroke="black" d="M1167.15,-1405.1C1167.15,-1405.1 925.85,-1366.4 925.85,-1366.4 919.92,-1365.45 919.92,-1363.55 925.85,-1362.6 925.85,-1362.6 1167.15,-1323.9 1167.15,-1323.9 1173.08,-1322.95 1184.92,-1322.95 1190.85,-1323.9 1190.85,-1323.9 1432.15,-1362.6 1432.15,-1362.6 1438.08,-1363.55 1438.08,-1365.45 1432.15,-1366.4 1432.15,-1366.4 1190.85,-1405.1 1190.85,-1405.1 1184.92,-1406.05 1173.08,-1406.05 1167.15,-1405.1"/>
<text xml:space="preserve" text-anchor="middle" x="1179" y="-1368.45" font-family="Helvetica,sans-Serif" font-size="14.00">ContradictionDetector(fork).detect()</text>
<text xml:space="preserve" text-anchor="middle" x="1179" y="-1351.2" font-family="Helvetica,sans-Serif" font-size="14.00">[pre&#45;sat: any (X, ¬X) pair?]</text>
</g>
<!-- add_hyp&#45;&gt;pre_contra -->
<g id="edge9" class="edge">
<title>add_hyp&#45;&gt;pre_contra</title>
<path fill="none" stroke="black" d="M1179,-1443.79C1179,-1436.32 1179,-1427.49 1179,-1418.5"/>
<polygon fill="black" stroke="black" points="1182.5,-1418.63 1179,-1408.63 1175.5,-1418.63 1182.5,-1418.63"/>
</g>
<!-- saturate -->
<g id="node10" class="node">
<title>saturate</title>
<path fill="lightblue" stroke="black" d="M1035.12,-1268.75C1035.12,-1268.75 866.88,-1268.75 866.88,-1268.75 860.88,-1268.75 854.88,-1262.75 854.88,-1256.75 854.88,-1256.75 854.88,-1244.75 854.88,-1244.75 854.88,-1238.75 860.88,-1232.75 866.88,-1232.75 866.88,-1232.75 1035.12,-1232.75 1035.12,-1232.75 1041.12,-1232.75 1047.12,-1238.75 1047.12,-1244.75 1047.12,-1244.75 1047.12,-1256.75 1047.12,-1256.75 1047.12,-1262.75 1041.12,-1268.75 1035.12,-1268.75"/>
<text xml:space="preserve" text-anchor="middle" x="951" y="-1246.08" font-family="Helvetica,sans-Serif" font-size="14.00">Saturator(fork).saturate()</text>
</g>
<!-- pre_contra&#45;&gt;saturate -->
<g id="edge11" class="edge">
<title>pre_contra&#45;&gt;saturate</title>
<path fill="none" stroke="black" d="M1114.58,-1331.93C1076.99,-1313.5 1030.46,-1290.7 996.65,-1274.13"/>
<polygon fill="black" stroke="black" points="998.47,-1271.12 987.95,-1269.86 995.39,-1277.4 998.47,-1271.12"/>
<text xml:space="preserve" text-anchor="middle" x="1069.72" y="-1290.7" font-family="Helvetica,sans-Serif" font-size="14.00">clean</text>
</g>
<!-- dead_pre -->
<g id="node18" class="node">
<title>dead_pre</title>
<path fill="salmon" stroke="black" d="M1368.75,-1214.75C1368.75,-1214.75 1051.25,-1214.75 1051.25,-1214.75 1045.25,-1214.75 1039.25,-1208.75 1039.25,-1202.75 1039.25,-1202.75 1039.25,-1149.75 1039.25,-1149.75 1039.25,-1143.75 1045.25,-1137.75 1051.25,-1137.75 1051.25,-1137.75 1368.75,-1137.75 1368.75,-1137.75 1374.75,-1137.75 1380.75,-1143.75 1380.75,-1149.75 1380.75,-1149.75 1380.75,-1202.75 1380.75,-1202.75 1380.75,-1208.75 1374.75,-1214.75 1368.75,-1214.75"/>
<text xml:space="preserve" text-anchor="middle" x="1210" y="-1197.45" font-family="Helvetica,sans-Serif" font-size="14.00">DEAD (pre&#45;sat)</text>
<text xml:space="preserve" text-anchor="middle" x="1210" y="-1180.2" font-family="Helvetica,sans-Serif" font-size="14.00">unsat_core = ContradictionDetector witnesses</text>
<text xml:space="preserve" text-anchor="middle" x="1210" y="-1162.95" font-family="Helvetica,sans-Serif" font-size="14.00">emit nogood = frozenset(C) into root._nogoods</text>
<text xml:space="preserve" text-anchor="middle" x="1210" y="-1145.7" font-family="Helvetica,sans-Serif" font-size="14.00">record SetNode in D_N with verdict=&quot;dead&quot;</text>
</g>
<!-- pre_contra&#45;&gt;dead_pre -->
<g id="edge10" class="edge">
<title>pre_contra&#45;&gt;dead_pre</title>
<path fill="none" stroke="red" d="M1185.8,-1322.63C1190.53,-1294.24 1196.85,-1256.27 1201.84,-1226.25"/>
<polygon fill="red" stroke="red" points="1205.25,-1227.1 1203.44,-1216.67 1198.35,-1225.96 1205.25,-1227.1"/>
<text xml:space="preserve" text-anchor="middle" x="1236.58" y="-1290.7" font-family="Helvetica,sans-Serif" font-size="14.00">contradiction</text>
</g>
<!-- state_hash_check -->
<g id="node11" class="node">
<title>state_hash_check</title>
<path fill="lightyellow" stroke="black" d="M850.18,-1117.68C850.18,-1117.68 631.32,-1079.32 631.32,-1079.32 625.41,-1078.29 625.41,-1076.21 631.32,-1075.18 631.32,-1075.18 850.18,-1036.82 850.18,-1036.82 856.09,-1035.79 867.91,-1035.79 873.82,-1036.82 873.82,-1036.82 1092.68,-1075.18 1092.68,-1075.18 1098.59,-1076.21 1098.59,-1078.29 1092.68,-1079.32 1092.68,-1079.32 873.82,-1117.68 873.82,-1117.68 867.91,-1118.71 856.09,-1118.71 850.18,-1117.68"/>
<text xml:space="preserve" text-anchor="middle" x="862" y="-1081.2" font-family="Helvetica,sans-Serif" font-size="14.00">state_hash(fork) ∈ lattice index?</text>
<text xml:space="preserve" text-anchor="middle" x="862" y="-1063.95" font-family="Helvetica,sans-Serif" font-size="14.00">[post&#45;sat dedup checkpoint]</text>
</g>
<!-- saturate&#45;&gt;state_hash_check -->
<g id="edge12" class="edge">
<title>saturate&#45;&gt;state_hash_check</title>
<path fill="none" stroke="black" d="M941.98,-1232.36C929.23,-1207.79 905.45,-1161.98 887.12,-1126.66"/>
<polygon fill="black" stroke="black" points="890.28,-1125.15 882.57,-1117.88 884.07,-1128.37 890.28,-1125.15"/>
</g>
<!-- merge_into -->
<g id="node12" class="node">
<title>merge_into</title>
<path fill="lightcyan" stroke="black" d="M299.25,-903.75C299.25,-903.75 14.75,-903.75 14.75,-903.75 8.75,-903.75 2.75,-897.75 2.75,-891.75 2.75,-891.75 2.75,-787 2.75,-787 2.75,-781 8.75,-775 14.75,-775 14.75,-775 299.25,-775 299.25,-775 305.25,-775 311.25,-781 311.25,-787 311.25,-787 311.25,-891.75 311.25,-891.75 311.25,-897.75 305.25,-903.75 299.25,-903.75"/>
<text xml:space="preserve" text-anchor="middle" x="157" y="-886.45" font-family="Helvetica,sans-Serif" font-size="14.00">MERGE into existing node E</text>
<text xml:space="preserve" text-anchor="middle" x="157" y="-869.2" font-family="Helvetica,sans-Serif" font-size="14.00">• E.labels += (C,)</text>
<text xml:space="preserve" text-anchor="middle" x="157" y="-851.95" font-family="Helvetica,sans-Serif" font-size="14.00">• E.parents += C&#39;s parents</text>
<text xml:space="preserve" text-anchor="middle" x="157" y="-834.7" font-family="Helvetica,sans-Serif" font-size="14.00">• audit row in A_N or D_N</text>
<text xml:space="preserve" text-anchor="middle" x="157" y="-817.45" font-family="Helvetica,sans-Serif" font-size="14.00"> &#160;marks C → merged_into=E.canonical_set</text>
<text xml:space="preserve" text-anchor="middle" x="157" y="-800.2" font-family="Helvetica,sans-Serif" font-size="14.00">SKIP downstream pipeline</text>
<text xml:space="preserve" text-anchor="middle" x="157" y="-782.95" font-family="Helvetica,sans-Serif" font-size="14.00">(verdict + bubbles already recorded on E)</text>
</g>
<!-- state_hash_check&#45;&gt;merge_into -->
<g id="edge13" class="edge">
<title>state_hash_check&#45;&gt;merge_into</title>
<path fill="none" stroke="darkblue" d="M779.75,-1048.73C668.04,-1011.35 465.83,-943.7 322.15,-895.63"/>
<polygon fill="darkblue" stroke="darkblue" points="323.51,-892.39 312.91,-892.54 321.29,-899.03 323.51,-892.39"/>
<text xml:space="preserve" text-anchor="middle" x="692.68" y="-1003.45" font-family="Helvetica,sans-Serif" font-size="14.00">hit</text>
</g>
<!-- record_uncond -->
<g id="node13" class="node">
<title>record_uncond</title>
<path fill="lightcyan" stroke="black" d="M1095.75,-981.5C1095.75,-981.5 628.25,-981.5 628.25,-981.5 622.25,-981.5 616.25,-975.5 616.25,-969.5 616.25,-969.5 616.25,-933.75 616.25,-933.75 616.25,-927.75 622.25,-921.75 628.25,-921.75 628.25,-921.75 1095.75,-921.75 1095.75,-921.75 1101.75,-921.75 1107.75,-927.75 1107.75,-933.75 1107.75,-933.75 1107.75,-969.5 1107.75,-969.5 1107.75,-975.5 1101.75,-981.5 1095.75,-981.5"/>
<text xml:space="preserve" text-anchor="middle" x="862" y="-964.2" font-family="Helvetica,sans-Serif" font-size="14.00">scan firings:</text>
<text xml:space="preserve" text-anchor="middle" x="862" y="-946.95" font-family="Helvetica,sans-Serif" font-size="14.00">• forced_positives — derives_positive ∧ ¬reaches_hypothesis</text>
<text xml:space="preserve" text-anchor="middle" x="862" y="-929.7" font-family="Helvetica,sans-Serif" font-size="14.00">• proposed_negatives — ¬h_other derived with no&#45;hypothesis chain</text>
</g>
<!-- state_hash_check&#45;&gt;record_uncond -->
<g id="edge14" class="edge">
<title>state_hash_check&#45;&gt;record_uncond</title>
<path fill="none" stroke="black" d="M862,-1034.4C862,-1021.07 862,-1006.35 862,-993.12"/>
<polygon fill="black" stroke="black" points="865.5,-993.47 862,-983.47 858.5,-993.47 865.5,-993.47"/>
<text xml:space="preserve" text-anchor="middle" x="878.12" y="-1003.45" font-family="Helvetica,sans-Serif" font-size="14.00">miss</text>
</g>
<!-- loop_tail -->
<g id="node23" class="node">
<title>loop_tail</title>
<path fill="lightblue" stroke="black" d="M815.43,-145.76C815.43,-145.76 815.43,-150.74 815.43,-150.74 815.43,-153.22 812.99,-156.16 810.54,-156.62 810.54,-156.62 763.83,-165.34 763.83,-165.34 761.38,-165.79 756.46,-166.25 753.97,-166.25 753.97,-166.25 684.03,-166.25 684.03,-166.25 681.54,-166.25 676.62,-165.79 674.17,-165.34 674.17,-165.34 627.46,-156.62 627.46,-156.62 625.01,-156.16 622.57,-153.22 622.57,-150.74 622.57,-150.74 622.57,-145.76 622.57,-145.76 622.57,-143.28 625.01,-140.34 627.46,-139.88 627.46,-139.88 674.17,-131.16 674.17,-131.16 676.62,-130.71 681.54,-130.25 684.03,-130.25 684.03,-130.25 753.97,-130.25 753.97,-130.25 756.46,-130.25 761.38,-130.71 763.83,-131.16 763.83,-131.16 810.54,-139.88 810.54,-139.88 812.99,-140.34 815.43,-143.28 815.43,-145.76"/>
<text xml:space="preserve" text-anchor="middle" x="719" y="-143.57" font-family="Helvetica,sans-Serif" font-size="14.00">next candidate?</text>
</g>
<!-- merge_into&#45;&gt;loop_tail -->
<g id="edge15" class="edge">
<title>merge_into&#45;&gt;loop_tail</title>
<path fill="none" stroke="darkblue" stroke-dasharray="5,2" d="M104.94,-774.71C59.24,-718.82 0,-646.38 0,-646.38 0,-646.38 0,-646.38 0,-258 0,-258 29,-203.25 29,-203.25 29,-203.25 420.3,-172.63 613.56,-157.5"/>
<polygon fill="darkblue" stroke="darkblue" points="613.66,-161 623.36,-156.74 613.11,-154.03 613.66,-161"/>
<text xml:space="preserve" text-anchor="middle" x="14.25" y="-502.45" font-family="Helvetica,sans-Serif" font-size="14.00">skip</text>
</g>
<!-- post_contra -->
<g id="node14" class="node">
<title>post_contra</title>
<path fill="lightyellow" stroke="black" d="M850.15,-755.1C850.15,-755.1 608.85,-716.4 608.85,-716.4 602.92,-715.45 602.92,-713.55 608.85,-712.6 608.85,-712.6 850.15,-673.9 850.15,-673.9 856.08,-672.95 867.92,-672.95 873.85,-673.9 873.85,-673.9 1115.15,-712.6 1115.15,-712.6 1121.08,-713.55 1121.08,-715.45 1115.15,-716.4 1115.15,-716.4 873.85,-755.1 873.85,-755.1 867.92,-756.05 856.08,-756.05 850.15,-755.1"/>
<text xml:space="preserve" text-anchor="middle" x="862" y="-718.45" font-family="Helvetica,sans-Serif" font-size="14.00">ContradictionDetector(fork).detect()</text>
<text xml:space="preserve" text-anchor="middle" x="862" y="-701.2" font-family="Helvetica,sans-Serif" font-size="14.00">[post&#45;sat: any (X, ¬X) pair?]</text>
</g>
<!-- record_uncond&#45;&gt;post_contra -->
<g id="edge16" class="edge">
<title>record_uncond&#45;&gt;post_contra</title>
<path fill="none" stroke="black" d="M862,-921.32C862,-883.22 862,-815.98 862,-768.75"/>
<polygon fill="black" stroke="black" points="865.5,-769.01 862,-759.01 858.5,-769.01 865.5,-769.01"/>
</g>
<!-- is_solved -->
<g id="node15" class="node">
<title>is_solved</title>
<path fill="lightyellow" stroke="black" d="M615.35,-615.88C615.35,-615.88 465.9,-579.12 465.9,-579.12 460.08,-577.68 460.08,-574.82 465.9,-573.38 465.9,-573.38 615.35,-536.62 615.35,-536.62 621.17,-535.18 632.83,-535.18 638.65,-536.62 638.65,-536.62 788.1,-573.38 788.1,-573.38 793.92,-574.82 793.92,-577.68 788.1,-579.12 788.1,-579.12 638.65,-615.88 638.65,-615.88 632.83,-617.32 621.17,-617.32 615.35,-615.88"/>
<text xml:space="preserve" text-anchor="middle" x="627" y="-580.2" font-family="Helvetica,sans-Serif" font-size="14.00">is_solved(fork, mode)?</text>
<text xml:space="preserve" text-anchor="middle" x="627" y="-562.95" font-family="Helvetica,sans-Serif" font-size="14.00">(goal facts present)</text>
</g>
<!-- post_contra&#45;&gt;is_solved -->
<g id="edge18" class="edge">
<title>post_contra&#45;&gt;is_solved</title>
<path fill="none" stroke="black" d="M805.41,-680.69C769.63,-659.95 723.43,-633.16 687.01,-612.05"/>
<polygon fill="black" stroke="black" points="689.22,-609.28 678.81,-607.29 685.7,-615.33 689.22,-609.28"/>
<text xml:space="preserve" text-anchor="middle" x="776.94" y="-640.7" font-family="Helvetica,sans-Serif" font-size="14.00">clean</text>
</g>
<!-- dead_post -->
<g id="node20" class="node">
<title>dead_post</title>
<path fill="salmon" stroke="black" d="M1170.75,-454.62C1170.75,-454.62 853.25,-454.62 853.25,-454.62 847.25,-454.62 841.25,-448.62 841.25,-442.62 841.25,-442.62 841.25,-389.62 841.25,-389.62 841.25,-383.62 847.25,-377.62 853.25,-377.62 853.25,-377.62 1170.75,-377.62 1170.75,-377.62 1176.75,-377.62 1182.75,-383.62 1182.75,-389.62 1182.75,-389.62 1182.75,-442.62 1182.75,-442.62 1182.75,-448.62 1176.75,-454.62 1170.75,-454.62"/>
<text xml:space="preserve" text-anchor="middle" x="1012" y="-437.32" font-family="Helvetica,sans-Serif" font-size="14.00">DEAD (post&#45;sat)</text>
<text xml:space="preserve" text-anchor="middle" x="1012" y="-420.07" font-family="Helvetica,sans-Serif" font-size="14.00">unsat_core = ContradictionDetector witnesses</text>
<text xml:space="preserve" text-anchor="middle" x="1012" y="-402.82" font-family="Helvetica,sans-Serif" font-size="14.00">emit nogood = frozenset(C) into root._nogoods</text>
<text xml:space="preserve" text-anchor="middle" x="1012" y="-385.57" font-family="Helvetica,sans-Serif" font-size="14.00">record SetNode in D_N with verdict=&quot;dead&quot;</text>
</g>
<!-- post_contra&#45;&gt;dead_post -->
<g id="edge17" class="edge">
<title>post_contra&#45;&gt;dead_post</title>
<path fill="none" stroke="red" d="M881.61,-674.75C908.88,-620.88 958.22,-523.39 987.76,-465.02"/>
<polygon fill="red" stroke="red" points="990.78,-466.8 992.18,-456.29 984.54,-463.64 990.78,-466.8"/>
<text xml:space="preserve" text-anchor="middle" x="997.29" y="-571.58" font-family="Helvetica,sans-Serif" font-size="14.00">contradiction</text>
</g>
<!-- alive -->
<g id="node16" class="node">
<title>alive</title>
<path fill="palegreen" stroke="black" d="M400.25,-471.88C400.25,-471.88 55.75,-471.88 55.75,-471.88 49.75,-471.88 43.75,-465.88 43.75,-459.88 43.75,-459.88 43.75,-372.38 43.75,-372.38 43.75,-366.38 49.75,-360.38 55.75,-360.38 55.75,-360.38 400.25,-360.38 400.25,-360.38 406.25,-360.38 412.25,-366.38 412.25,-372.38 412.25,-372.38 412.25,-459.88 412.25,-459.88 412.25,-465.88 406.25,-471.88 400.25,-471.88"/>
<text xml:space="preserve" text-anchor="middle" x="228" y="-454.57" font-family="Helvetica,sans-Serif" font-size="14.00">ALIVE</text>
<text xml:space="preserve" text-anchor="middle" x="228" y="-437.32" font-family="Helvetica,sans-Serif" font-size="14.00">record SetNode in A_N</text>
<text xml:space="preserve" text-anchor="middle" x="228" y="-420.07" font-family="Helvetica,sans-Serif" font-size="14.00">• canonical_set = C</text>
<text xml:space="preserve" text-anchor="middle" x="228" y="-402.82" font-family="Helvetica,sans-Serif" font-size="14.00">• labels = (C,) (multilabel grows on future merges)</text>
<text xml:space="preserve" text-anchor="middle" x="228" y="-385.57" font-family="Helvetica,sans-Serif" font-size="14.00">• parents = (P_1, …, P_N)</text>
<text xml:space="preserve" text-anchor="middle" x="228" y="-368.32" font-family="Helvetica,sans-Serif" font-size="14.00">• kb_snapshot, firings, forced_*, learned_nogoods</text>
</g>
<!-- is_solved&#45;&gt;alive -->
<g id="edge20" class="edge">
<title>is_solved&#45;&gt;alive</title>
<path fill="none" stroke="black" d="M562.01,-549.49C512.12,-529.72 441.22,-501.63 377.57,-476.4"/>
<polygon fill="black" stroke="black" points="379.01,-473.21 368.42,-472.78 376.43,-479.71 379.01,-473.21"/>
<text xml:space="preserve" text-anchor="middle" x="534.6" y="-502.45" font-family="Helvetica,sans-Serif" font-size="14.00">goal not satisfied</text>
</g>
<!-- solution -->
<g id="node22" class="node">
<title>solution</title>
<path fill="mediumseagreen" stroke="black" d="M800.38,-480.5C800.38,-480.5 453.62,-480.5 453.62,-480.5 447.62,-480.5 441.62,-474.5 441.62,-468.5 441.62,-468.5 441.62,-363.75 441.62,-363.75 441.62,-357.75 447.62,-351.75 453.62,-351.75 453.62,-351.75 800.38,-351.75 800.38,-351.75 806.38,-351.75 812.38,-357.75 812.38,-363.75 812.38,-363.75 812.38,-468.5 812.38,-468.5 812.38,-474.5 806.38,-480.5 800.38,-480.5"/>
<text xml:space="preserve" text-anchor="middle" x="627" y="-463.2" font-family="Helvetica,sans-Serif" font-size="14.00">SOLUTION</text>
<text xml:space="preserve" text-anchor="middle" x="627" y="-445.95" font-family="Helvetica,sans-Serif" font-size="14.00">LatticeProof produced:</text>
<text xml:space="preserve" text-anchor="middle" x="627" y="-428.7" font-family="Helvetica,sans-Serif" font-size="14.00">• final_kb = fork</text>
<text xml:space="preserve" text-anchor="middle" x="627" y="-411.45" font-family="Helvetica,sans-Serif" font-size="14.00">• alive_at_end = C</text>
<text xml:space="preserve" text-anchor="middle" x="627" y="-394.2" font-family="Helvetica,sans-Serif" font-size="14.00">• lattice DAG</text>
<text xml:space="preserve" text-anchor="middle" x="627" y="-376.95" font-family="Helvetica,sans-Serif" font-size="14.00">• dead_commitments</text>
<text xml:space="preserve" text-anchor="middle" x="627" y="-359.7" font-family="Helvetica,sans-Serif" font-size="14.00">(SOLVE mode: terminate; GAPS: record + continue)</text>
</g>
<!-- is_solved&#45;&gt;solution -->
<g id="edge19" class="edge">
<title>is_solved&#45;&gt;solution</title>
<path fill="none" stroke="darkgreen" d="M627,-533.29C627,-520.58 627,-506.22 627,-492.04"/>
<polygon fill="darkgreen" stroke="darkgreen" points="630.5,-492.26 627,-482.26 623.5,-492.26 630.5,-492.26"/>
<text xml:space="preserve" text-anchor="middle" x="673.12" y="-502.45" font-family="Helvetica,sans-Serif" font-size="14.00">goal satisfied</text>
</g>
<!-- alive_integrate -->
<g id="node17" class="node">
<title>alive_integrate</title>
<path fill="plum" stroke="black" d="M462.38,-314.75C462.38,-314.75 55.62,-314.75 55.62,-314.75 49.62,-314.75 43.62,-308.75 43.62,-302.75 43.62,-302.75 43.62,-215.25 43.62,-215.25 43.62,-209.25 49.62,-203.25 55.62,-203.25 55.62,-203.25 462.38,-203.25 462.38,-203.25 468.38,-203.25 474.38,-209.25 474.38,-215.25 474.38,-215.25 474.38,-302.75 474.38,-302.75 474.38,-308.75 468.38,-314.75 462.38,-314.75"/>
<text xml:space="preserve" text-anchor="middle" x="259" y="-297.45" font-family="Helvetica,sans-Serif" font-size="14.00">integrate(parent_kb, C&#39;s BranchResult)</text>
<text xml:space="preserve" text-anchor="middle" x="259" y="-280.2" font-family="Helvetica,sans-Serif" font-size="14.00">for EACH parent P_i of C:</text>
<text xml:space="preserve" text-anchor="middle" x="259" y="-262.95" font-family="Helvetica,sans-Serif" font-size="14.00">• adopt forced_positives (if forced at P_i too)</text>
<text xml:space="preserve" text-anchor="middle" x="259" y="-245.7" font-family="Helvetica,sans-Serif" font-size="14.00">• adopt proposed_negatives (per&#45;level unconditional check)</text>
<text xml:space="preserve" text-anchor="middle" x="259" y="-228.45" font-family="Helvetica,sans-Serif" font-size="14.00">• merge learned_nogoods (idempotent under subsumption)</text>
<text xml:space="preserve" text-anchor="middle" x="259" y="-211.2" font-family="Helvetica,sans-Serif" font-size="14.00">recursive bubble continues until root</text>
</g>
<!-- alive&#45;&gt;alive_integrate -->
<g id="edge21" class="edge">
<title>alive&#45;&gt;alive_integrate</title>
<path fill="none" stroke="black" d="M239.02,-360C241.2,-349.09 243.51,-337.53 245.75,-326.3"/>
<polygon fill="black" stroke="black" points="249.14,-327.19 247.67,-316.7 242.28,-325.82 249.14,-327.19"/>
</g>
<!-- alive_integrate&#45;&gt;loop_tail -->
<g id="edge24" class="edge">
<title>alive_integrate&#45;&gt;loop_tail</title>
<path fill="none" stroke="black" d="M446.99,-202.77C483.14,-192.14 510,-184.25 510,-184.25 510,-184.25 578.72,-172.74 637.34,-162.92"/>
<polygon fill="black" stroke="black" points="637.76,-166.4 647.04,-161.3 636.6,-159.5 637.76,-166.4"/>
</g>
<!-- dead_pre_integrate -->
<g id="node19" class="node">
<title>dead_pre_integrate</title>
<path fill="plum" stroke="black" d="M1441.12,-306.12C1441.12,-306.12 1134.88,-306.12 1134.88,-306.12 1128.88,-306.12 1122.88,-300.12 1122.88,-294.12 1122.88,-294.12 1122.88,-223.88 1122.88,-223.88 1122.88,-217.88 1128.88,-211.88 1134.88,-211.88 1134.88,-211.88 1441.12,-211.88 1441.12,-211.88 1447.12,-211.88 1453.12,-217.88 1453.12,-223.88 1453.12,-223.88 1453.12,-294.12 1453.12,-294.12 1453.12,-300.12 1447.12,-306.12 1441.12,-306.12"/>
<text xml:space="preserve" text-anchor="middle" x="1288" y="-288.82" font-family="Helvetica,sans-Serif" font-size="14.00">integrate(parent_kb, C&#39;s BranchResult)</text>
<text xml:space="preserve" text-anchor="middle" x="1288" y="-271.57" font-family="Helvetica,sans-Serif" font-size="14.00">for EACH parent P_i of C:</text>
<text xml:space="preserve" text-anchor="middle" x="1288" y="-254.32" font-family="Helvetica,sans-Serif" font-size="14.00">• merge clause {frozenset(C)} into _nogoods</text>
<text xml:space="preserve" text-anchor="middle" x="1288" y="-237.07" font-family="Helvetica,sans-Serif" font-size="14.00">(no forced positives — never saturated)</text>
<text xml:space="preserve" text-anchor="middle" x="1288" y="-219.82" font-family="Helvetica,sans-Serif" font-size="14.00">idempotent across the N parents</text>
</g>
<!-- dead_pre&#45;&gt;dead_pre_integrate -->
<g id="edge22" class="edge">
<title>dead_pre&#45;&gt;dead_pre_integrate</title>
<path fill="none" stroke="black" d="M1218.85,-1137.55C1230.36,-1088.54 1249,-1009.12 1249,-1009.12 1249,-1009.12 1249,-1009.12 1249,-415.12 1249,-415.12 1262.44,-361.68 1273.54,-317.53"/>
<polygon fill="black" stroke="black" points="1276.89,-318.56 1275.93,-308.01 1270.1,-316.86 1276.89,-318.56"/>
</g>
<!-- dead_pre_integrate&#45;&gt;loop_tail -->
<g id="edge25" class="edge">
<title>dead_pre_integrate&#45;&gt;loop_tail</title>
<path fill="none" stroke="black" d="M1134.95,-211.45C1118.73,-206.51 1108,-203.25 1108,-203.25 1108,-203.25 921.32,-177.34 806.6,-161.41"/>
<polygon fill="black" stroke="black" points="807.28,-157.97 796.89,-160.06 806.31,-164.9 807.28,-157.97"/>
</g>
<!-- dead_post_integrate -->
<g id="node21" class="node">
<title>dead_post_integrate</title>
<path fill="plum" stroke="black" d="M1081.88,-314.75C1081.88,-314.75 732.12,-314.75 732.12,-314.75 726.12,-314.75 720.12,-308.75 720.12,-302.75 720.12,-302.75 720.12,-215.25 720.12,-215.25 720.12,-209.25 726.12,-203.25 732.12,-203.25 732.12,-203.25 1081.88,-203.25 1081.88,-203.25 1087.88,-203.25 1093.88,-209.25 1093.88,-215.25 1093.88,-215.25 1093.88,-302.75 1093.88,-302.75 1093.88,-308.75 1087.88,-314.75 1081.88,-314.75"/>
<text xml:space="preserve" text-anchor="middle" x="907" y="-297.45" font-family="Helvetica,sans-Serif" font-size="14.00">integrate(parent_kb, C&#39;s BranchResult)</text>
<text xml:space="preserve" text-anchor="middle" x="907" y="-280.2" font-family="Helvetica,sans-Serif" font-size="14.00">for EACH parent P_i of C:</text>
<text xml:space="preserve" text-anchor="middle" x="907" y="-262.95" font-family="Helvetica,sans-Serif" font-size="14.00">• merge clause {frozenset(C)} into _nogoods</text>
<text xml:space="preserve" text-anchor="middle" x="907" y="-245.7" font-family="Helvetica,sans-Serif" font-size="14.00">• adopt forced_positives collected pre&#45;contradiction</text>
<text xml:space="preserve" text-anchor="middle" x="907" y="-228.45" font-family="Helvetica,sans-Serif" font-size="14.00"> &#160;(if independently unconditional at P_i)</text>
<text xml:space="preserve" text-anchor="middle" x="907" y="-211.2" font-family="Helvetica,sans-Serif" font-size="14.00">idempotent across the N parents</text>
</g>
<!-- dead_post&#45;&gt;dead_post_integrate -->
<g id="edge23" class="edge">
<title>dead_post&#45;&gt;dead_post_integrate</title>
<path fill="none" stroke="black" d="M986.31,-377.18C975.56,-361.29 962.75,-342.37 950.6,-324.42"/>
<polygon fill="black" stroke="black" points="953.68,-322.71 945.17,-316.4 947.88,-326.64 953.68,-322.71"/>
</g>
<!-- dead_post_integrate&#45;&gt;loop_tail -->
<g id="edge26" class="edge">
<title>dead_post_integrate&#45;&gt;loop_tail</title>
<path fill="none" stroke="black" d="M811.62,-202.83C792.98,-192.05 774.42,-181.31 758.85,-172.3"/>
<polygon fill="black" stroke="black" points="760.81,-169.39 750.4,-167.41 757.3,-175.45 760.81,-169.39"/>
</g>
<!-- solution&#45;&gt;loop_tail -->
<g id="edge27" class="edge">
<title>solution&#45;&gt;loop_tail</title>
<path fill="none" stroke="black" stroke-dasharray="1,5" d="M576.11,-351.27C560.33,-331.48 547,-314.75 547,-314.75 547,-314.75 547,-203.25 547,-203.25 547,-203.25 609.02,-183.78 658.57,-168.22"/>
<polygon fill="black" stroke="black" points="659.31,-171.66 667.81,-165.32 657.22,-164.98 659.31,-171.66"/>
<text xml:space="preserve" text-anchor="middle" x="626.5" y="-262.95" font-family="Helvetica,sans-Serif" font-size="14.00">GAPS mode</text>
<text xml:space="preserve" text-anchor="middle" x="626.5" y="-245.7" font-family="Helvetica,sans-Serif" font-size="14.00">or record&#45;and&#45;continue</text>
</g>
<!-- loop_tail&#45;&gt;loop_head -->
<g id="edge28" class="edge">
<title>loop_tail&#45;&gt;loop_head</title>
<path fill="none" stroke="black" stroke-dasharray="5,2" d="M815.39,-156.2C1017.68,-170.78 1468,-203.25 1468,-203.25 1468,-203.25 1497,-258 1497,-258 1497,-1797.62 1497,-1797.62 1497,-1797.62 1497,-1797.62 1474.55,-1827.57 1454.56,-1854.26"/>
<polygon fill="black" stroke="black" points="1452.01,-1851.82 1448.81,-1861.92 1457.61,-1856.02 1452.01,-1851.82"/>
<text xml:space="preserve" text-anchor="middle" x="1514.62" y="-1171.58" font-family="Helvetica,sans-Serif" font-size="14.00">more</text>
</g>
<!-- end -->
<g id="node24" class="node">
<title>end</title>
<path fill="lightblue" stroke="black" d="M848.12,-77C848.12,-77 589.88,-77 589.88,-77 583.88,-77 577.88,-71 577.88,-65 577.88,-65 577.88,-12 577.88,-12 577.88,-6 583.88,0 589.88,0 589.88,0 848.12,0 848.12,0 854.12,0 860.12,-6 860.12,-12 860.12,-12 860.12,-65 860.12,-65 860.12,-71 854.12,-77 848.12,-77"/>
<text xml:space="preserve" text-anchor="middle" x="719" y="-59.7" font-family="Helvetica,sans-Serif" font-size="14.00">Layer N complete</text>
<text xml:space="preserve" text-anchor="middle" x="719" y="-42.45" font-family="Helvetica,sans-Serif" font-size="14.00">A_N, D_N populated</text>
<text xml:space="preserve" text-anchor="middle" x="719" y="-25.2" font-family="Helvetica,sans-Serif" font-size="14.00">root._nogoods updated</text>
<text xml:space="preserve" text-anchor="middle" x="719" y="-7.95" font-family="Helvetica,sans-Serif" font-size="14.00">recompute current_alive for layer N+1</text>
</g>
<!-- loop_tail&#45;&gt;end -->
<g id="edge29" class="edge">
<title>loop_tail&#45;&gt;end</title>
<path fill="none" stroke="black" stroke-width="2" d="M719,-129.94C719,-118.66 719,-103.32 719,-88.49"/>
<polygon fill="black" stroke="black" stroke-width="2" points="722.5,-90.34 719,-80.34 715.5,-90.34 722.5,-90.34"/>
<text xml:space="preserve" text-anchor="middle" x="755.38" y="-98.95" font-family="Helvetica,sans-Serif" font-size="14.00">exhausted</text>
</g>
</g>
</svg>
