<?xml version="1.0" encoding="UTF-8" standalone="no"?>
<!DOCTYPE svg PUBLIC "-//W3C//DTD SVG 1.1//EN"
 "http://www.w3.org/Graphics/SVG/1.1/DTD/svg11.dtd">
<!-- Generated by graphviz version 14.1.5 (0)
 -->
<!-- Title: lattice_3hyps_dedup Pages: 1 -->
<svg width="678pt" height="651pt"
 viewBox="0.00 0.00 678.00 651.00" xmlns="http://www.w3.org/2000/svg" xmlns:xlink="http://www.w3.org/1999/xlink">
<g id="graph0" class="graph" transform="scale(1 1) rotate(0) translate(4 646.5)">
<title>lattice_3hyps_dedup</title>
<polygon fill="white" stroke="none" points="-4,4 -4,-646.5 673.75,-646.5 673.75,4 -4,4"/>
<text xml:space="preserve" text-anchor="middle" x="334.88" y="-627.1" font-family="Helvetica,sans-Serif" font-size="12.00">Search lattice over 3 hypotheses — state&#45;hash dedup across layers 2 and 3</text>
<text xml:space="preserve" text-anchor="middle" x="334.88" y="-612.85" font-family="Helvetica,sans-Serif" font-size="12.00">{h₁, h₂} ≡ {h₂, h₃} ≡ {h₁, h₂, h₃} all merge into ONE SetNode (three labels)</text>
<g id="clust1" class="cluster">
<title>cluster_legend</title>
<polygon fill="none" stroke="gray" stroke-dasharray="5,2" points="8,-411.75 8,-598 298,-598 298,-411.75 8,-411.75"/>
<text xml:space="preserve" text-anchor="middle" x="153" y="-584.5" font-family="Helvetica,sans-Serif" font-size="10.00">Legend</text>
</g>
<!-- legend_commit -->
<g id="node1" class="node">
<title>legend_commit</title>
<path fill="lightblue" stroke="black" d="M107.88,-560.62C107.88,-560.62 28.12,-560.62 28.12,-560.62 22.12,-560.62 16.12,-554.62 16.12,-548.62 16.12,-548.62 16.12,-530.12 16.12,-530.12 16.12,-524.12 22.12,-518.12 28.12,-518.12 28.12,-518.12 107.88,-518.12 107.88,-518.12 113.88,-518.12 119.88,-524.12 119.88,-530.12 119.88,-530.12 119.88,-548.62 119.88,-548.62 119.88,-554.62 113.88,-560.62 107.88,-560.62"/>
<text xml:space="preserve" text-anchor="middle" x="68" y="-543.33" font-family="Helvetica,sans-Serif" font-size="14.00">commitment</text>
<text xml:space="preserve" text-anchor="middle" x="68" y="-526.08" font-family="Helvetica,sans-Serif" font-size="14.00">set (raw)</text>
</g>
<!-- legend_kb -->
<g id="node2" class="node">
<title>legend_kb</title>
<polygon fill="palegreen" stroke="black" points="103.38,-462.25 26.62,-462.25 26.62,-419.75 109.38,-419.75 109.38,-456.25 103.38,-462.25"/>
<polyline fill="none" stroke="black" points="103.38,-462.25 103.38,-456.25"/>
<polyline fill="none" stroke="black" points="109.38,-456.25 103.38,-456.25"/>
<text xml:space="preserve" text-anchor="middle" x="68" y="-444.95" font-family="Helvetica,sans-Serif" font-size="14.00">saturated</text>
<text xml:space="preserve" text-anchor="middle" x="68" y="-427.7" font-family="Helvetica,sans-Serif" font-size="14.00">kb (alive)</text>
</g>
<!-- legend_commit&#45;&gt;legend_kb -->
<g id="edge1" class="edge">
<title>legend_commit&#45;&gt;legend_kb</title>
<path fill="none" stroke="gray" stroke-dasharray="5,2" d="M68,-517.94C68,-505.25 68,-488.66 68,-474.23"/>
<polygon fill="gray" stroke="gray" points="71.5,-474.25 68,-464.25 64.5,-474.26 71.5,-474.25"/>
<text xml:space="preserve" text-anchor="middle" x="80.75" y="-482.95" font-family="Helvetica,sans-Serif" font-size="9.00"> &#160;sat &#160;</text>
</g>
<!-- legend_kb&#45;&gt;legend_commit -->
<g id="edge2" class="edge">
<title>legend_kb&#45;&gt;legend_commit</title>
<path fill="none" stroke="black" d="M84.05,-462.47C91.19,-471.56 98,-480.25 98,-480.25 98,-480.25 98,-491.5 98,-491.5 98,-491.5 93.2,-499 87.44,-508.01"/>
<polygon fill="black" stroke="black" points="84.5,-506.09 82.06,-516.4 90.4,-509.87 84.5,-506.09"/>
<text xml:space="preserve" text-anchor="middle" x="114.12" y="-482.95" font-family="Helvetica,sans-Serif" font-size="9.00"> &#160;+h_i &#160;</text>
</g>
<!-- legend_merged -->
<g id="node3" class="node">
<title>legend_merged</title>
<polygon fill="gold" stroke="black" points="284,-569.25 142,-569.25 142,-509.5 290,-509.5 290,-563.25 284,-569.25"/>
<polyline fill="none" stroke="black" points="284,-569.25 284,-563.25"/>
<polyline fill="none" stroke="black" points="290,-563.25 284,-563.25"/>
<text xml:space="preserve" text-anchor="middle" x="216" y="-551.95" font-family="Helvetica,sans-Serif" font-size="14.00">merged kb</text>
<text xml:space="preserve" text-anchor="middle" x="216" y="-534.7" font-family="Helvetica,sans-Serif" font-size="14.00">(state&#45;hash dedup,</text>
<text xml:space="preserve" text-anchor="middle" x="216" y="-517.45" font-family="Helvetica,sans-Serif" font-size="14.00">layer&#45;spanning)</text>
</g>
<!-- L0_kb -->
<g id="node4" class="node">
<title>L0_kb</title>
<polygon fill="palegreen" stroke="black" points="454.5,-560.62 369.5,-560.62 369.5,-518.12 460.5,-518.12 460.5,-554.62 454.5,-560.62"/>
<polyline fill="none" stroke="black" points="454.5,-560.62 454.5,-554.62"/>
<polyline fill="none" stroke="black" points="460.5,-554.62 454.5,-554.62"/>
<text xml:space="preserve" text-anchor="middle" x="415" y="-543.33" font-family="Helvetica,sans-Serif" font-size="14.00">kb(∅)</text>
<text xml:space="preserve" text-anchor="middle" x="415" y="-526.08" font-family="Helvetica,sans-Serif" font-size="14.00">= sat(root)</text>
</g>
<!-- L1_h1 -->
<g id="node5" class="node">
<title>L1_h1</title>
<path fill="lightblue" stroke="black" d="M430,-459C430,-459 400,-459 400,-459 394,-459 388,-453 388,-447 388,-447 388,-435 388,-435 388,-429 394,-423 400,-423 400,-423 430,-423 430,-423 436,-423 442,-429 442,-435 442,-435 442,-447 442,-447 442,-453 436,-459 430,-459"/>
<text xml:space="preserve" text-anchor="middle" x="415" y="-436.32" font-family="Helvetica,sans-Serif" font-size="14.00">{h₁}</text>
</g>
<!-- L0_kb&#45;&gt;L1_h1 -->
<g id="edge6" class="edge">
<title>L0_kb&#45;&gt;L1_h1</title>
<path fill="none" stroke="black" d="M415,-517.94C415,-504.16 415,-485.79 415,-470.57"/>
<polygon fill="black" stroke="black" points="418.5,-470.7 415,-460.7 411.5,-470.7 418.5,-470.7"/>
<text xml:space="preserve" text-anchor="middle" x="423.62" y="-482.95" font-family="Helvetica,sans-Serif" font-size="9.00">+h₁</text>
</g>
<!-- L1_h2 -->
<g id="node6" class="node">
<title>L1_h2</title>
<path fill="lightblue" stroke="black" d="M517,-459C517,-459 487,-459 487,-459 481,-459 475,-453 475,-447 475,-447 475,-435 475,-435 475,-429 481,-423 487,-423 487,-423 517,-423 517,-423 523,-423 529,-429 529,-435 529,-435 529,-447 529,-447 529,-453 523,-459 517,-459"/>
<text xml:space="preserve" text-anchor="middle" x="502" y="-436.32" font-family="Helvetica,sans-Serif" font-size="14.00">{h₂}</text>
</g>
<!-- L0_kb&#45;&gt;L1_h2 -->
<g id="edge7" class="edge">
<title>L0_kb&#45;&gt;L1_h2</title>
<path fill="none" stroke="black" d="M433.45,-517.94C446.75,-503.2 464.79,-483.22 479.02,-467.45"/>
<polygon fill="black" stroke="black" points="481.37,-470.08 485.47,-460.31 476.17,-465.39 481.37,-470.08"/>
<text xml:space="preserve" text-anchor="middle" x="474.92" y="-482.95" font-family="Helvetica,sans-Serif" font-size="9.00">+h₂</text>
</g>
<!-- L1_h3 -->
<g id="node7" class="node">
<title>L1_h3</title>
<path fill="lightblue" stroke="black" d="M348,-459C348,-459 318,-459 318,-459 312,-459 306,-453 306,-447 306,-447 306,-435 306,-435 306,-429 312,-423 318,-423 318,-423 348,-423 348,-423 354,-423 360,-429 360,-435 360,-435 360,-447 360,-447 360,-453 354,-459 348,-459"/>
<text xml:space="preserve" text-anchor="middle" x="333" y="-436.32" font-family="Helvetica,sans-Serif" font-size="14.00">{h₃}</text>
</g>
<!-- L0_kb&#45;&gt;L1_h3 -->
<g id="edge8" class="edge">
<title>L0_kb&#45;&gt;L1_h3</title>
<path fill="none" stroke="black" d="M397.61,-517.94C385.19,-503.34 368.39,-483.59 355.03,-467.89"/>
<polygon fill="black" stroke="black" points="357.75,-465.69 348.61,-460.34 352.42,-470.23 357.75,-465.69"/>
<text xml:space="preserve" text-anchor="middle" x="382.62" y="-482.95" font-family="Helvetica,sans-Serif" font-size="9.00">+h₃</text>
</g>
<!-- L1_h1_kb -->
<g id="node8" class="node">
<title>L1_h1_kb</title>
<polygon fill="palegreen" stroke="black" points="447,-372.5 377,-372.5 377,-336.5 453,-336.5 453,-366.5 447,-372.5"/>
<polyline fill="none" stroke="black" points="447,-372.5 447,-366.5"/>
<polyline fill="none" stroke="black" points="453,-366.5 447,-366.5"/>
<text xml:space="preserve" text-anchor="middle" x="415" y="-349.82" font-family="Helvetica,sans-Serif" font-size="14.00">kb({h₁})</text>
</g>
<!-- L1_h1&#45;&gt;L1_h1_kb -->
<g id="edge3" class="edge">
<title>L1_h1&#45;&gt;L1_h1_kb</title>
<path fill="none" stroke="gray" stroke-dasharray="5,2" d="M415,-422.9C415,-411.75 415,-396.92 415,-384.02"/>
<polygon fill="gray" stroke="gray" points="418.5,-384.38 415,-374.38 411.5,-384.38 418.5,-384.38"/>
<text xml:space="preserve" text-anchor="middle" x="421.75" y="-393.2" font-family="Helvetica,sans-Serif" font-size="9.00">sat</text>
</g>
<!-- L1_h2_kb -->
<g id="node9" class="node">
<title>L1_h2_kb</title>
<polygon fill="palegreen" stroke="black" points="545,-372.5 475,-372.5 475,-336.5 551,-336.5 551,-366.5 545,-372.5"/>
<polyline fill="none" stroke="black" points="545,-372.5 545,-366.5"/>
<polyline fill="none" stroke="black" points="551,-366.5 545,-366.5"/>
<text xml:space="preserve" text-anchor="middle" x="513" y="-349.82" font-family="Helvetica,sans-Serif" font-size="14.00">kb({h₂})</text>
</g>
<!-- L1_h2&#45;&gt;L1_h2_kb -->
<g id="edge4" class="edge">
<title>L1_h2&#45;&gt;L1_h2_kb</title>
<path fill="none" stroke="gray" stroke-dasharray="5,2" d="M504.23,-422.9C505.68,-411.75 507.61,-396.92 509.29,-384.02"/>
<polygon fill="gray" stroke="gray" points="512.72,-384.73 510.54,-374.37 505.78,-383.83 512.72,-384.73"/>
<text xml:space="preserve" text-anchor="middle" x="514.91" y="-393.2" font-family="Helvetica,sans-Serif" font-size="9.00">sat</text>
</g>
<!-- L1_h3_kb -->
<g id="node10" class="node">
<title>L1_h3_kb</title>
<polygon fill="palegreen" stroke="black" points="349,-372.5 279,-372.5 279,-336.5 355,-336.5 355,-366.5 349,-372.5"/>
<polyline fill="none" stroke="black" points="349,-372.5 349,-366.5"/>
<polyline fill="none" stroke="black" points="355,-366.5 349,-366.5"/>
<text xml:space="preserve" text-anchor="middle" x="317" y="-349.82" font-family="Helvetica,sans-Serif" font-size="14.00">kb({h₃})</text>
</g>
<!-- L1_h3&#45;&gt;L1_h3_kb -->
<g id="edge5" class="edge">
<title>L1_h3&#45;&gt;L1_h3_kb</title>
<path fill="none" stroke="gray" stroke-dasharray="5,2" d="M329.76,-422.9C327.65,-411.75 324.84,-396.92 322.4,-384.02"/>
<polygon fill="gray" stroke="gray" points="325.87,-383.53 320.57,-374.35 318.99,-384.83 325.87,-383.53"/>
<text xml:space="preserve" text-anchor="middle" x="332.23" y="-393.2" font-family="Helvetica,sans-Serif" font-size="9.00">sat</text>
</g>
<!-- L2_h1h2 -->
<g id="node11" class="node">
<title>L2_h1h2</title>
<path fill="lightblue" stroke="black" d="M547.75,-289.25C547.75,-289.25 500.25,-289.25 500.25,-289.25 494.25,-289.25 488.25,-283.25 488.25,-277.25 488.25,-277.25 488.25,-265.25 488.25,-265.25 488.25,-259.25 494.25,-253.25 500.25,-253.25 500.25,-253.25 547.75,-253.25 547.75,-253.25 553.75,-253.25 559.75,-259.25 559.75,-265.25 559.75,-265.25 559.75,-277.25 559.75,-277.25 559.75,-283.25 553.75,-289.25 547.75,-289.25"/>
<text xml:space="preserve" text-anchor="middle" x="524" y="-266.57" font-family="Helvetica,sans-Serif" font-size="14.00">{h₁, h₂}</text>
</g>
<!-- L1_h1_kb&#45;&gt;L2_h1h2 -->
<g id="edge12" class="edge">
<title>L1_h1_kb&#45;&gt;L2_h1h2</title>
<path fill="none" stroke="black" d="M426.25,-336.01C434.67,-322.92 444.75,-307.25 444.75,-307.25 444.75,-307.25 460.38,-300.35 477.76,-292.67"/>
<polygon fill="black" stroke="black" points="478.97,-295.96 486.7,-288.72 476.14,-289.56 478.97,-295.96"/>
<text xml:space="preserve" text-anchor="middle" x="453.38" y="-309.95" font-family="Helvetica,sans-Serif" font-size="9.00">+h₂</text>
</g>
<!-- L2_h1h3 -->
<g id="node12" class="node">
<title>L2_h1h3</title>
<path fill="lightblue" stroke="black" d="M330.75,-289.25C330.75,-289.25 283.25,-289.25 283.25,-289.25 277.25,-289.25 271.25,-283.25 271.25,-277.25 271.25,-277.25 271.25,-265.25 271.25,-265.25 271.25,-259.25 277.25,-253.25 283.25,-253.25 283.25,-253.25 330.75,-253.25 330.75,-253.25 336.75,-253.25 342.75,-259.25 342.75,-265.25 342.75,-265.25 342.75,-277.25 342.75,-277.25 342.75,-283.25 336.75,-289.25 330.75,-289.25"/>
<text xml:space="preserve" text-anchor="middle" x="307" y="-266.57" font-family="Helvetica,sans-Serif" font-size="14.00">{h₁, h₃}</text>
</g>
<!-- L1_h1_kb&#45;&gt;L2_h1h3 -->
<g id="edge14" class="edge">
<title>L1_h1_kb&#45;&gt;L2_h1h3</title>
<path fill="none" stroke="black" d="M396.85,-336.01C383.26,-322.92 367,-307.25 367,-307.25 367,-307.25 357.84,-301.91 346.69,-295.4"/>
<polygon fill="black" stroke="black" points="348.71,-292.53 338.31,-290.51 345.18,-298.57 348.71,-292.53"/>
<text xml:space="preserve" text-anchor="middle" x="387.22" y="-309.95" font-family="Helvetica,sans-Serif" font-size="9.00">+h₃</text>
</g>
<!-- L1_h2_kb&#45;&gt;L2_h1h2 -->
<g id="edge13" class="edge">
<title>L1_h2_kb&#45;&gt;L2_h1h2</title>
<path fill="none" stroke="black" d="M515.33,-336.27C516.72,-326 518.52,-312.7 520.12,-300.89"/>
<polygon fill="black" stroke="black" points="523.56,-301.62 521.43,-291.24 516.62,-300.68 523.56,-301.62"/>
<text xml:space="preserve" text-anchor="middle" x="527.78" y="-309.95" font-family="Helvetica,sans-Serif" font-size="9.00">+h₁</text>
</g>
<!-- L2_h2h3 -->
<g id="node13" class="node">
<title>L2_h2h3</title>
<path fill="lightblue" stroke="black" d="M453.75,-289.25C453.75,-289.25 406.25,-289.25 406.25,-289.25 400.25,-289.25 394.25,-283.25 394.25,-277.25 394.25,-277.25 394.25,-265.25 394.25,-265.25 394.25,-259.25 400.25,-253.25 406.25,-253.25 406.25,-253.25 453.75,-253.25 453.75,-253.25 459.75,-253.25 465.75,-259.25 465.75,-265.25 465.75,-265.25 465.75,-277.25 465.75,-277.25 465.75,-283.25 459.75,-289.25 453.75,-289.25"/>
<text xml:space="preserve" text-anchor="middle" x="430" y="-266.57" font-family="Helvetica,sans-Serif" font-size="14.00">{h₂, h₃}</text>
</g>
<!-- L1_h2_kb&#45;&gt;L2_h2h3 -->
<g id="edge16" class="edge">
<title>L1_h2_kb&#45;&gt;L2_h2h3</title>
<path fill="none" stroke="black" d="M495.4,-336.27C483.92,-325.03 468.75,-310.18 455.9,-297.61"/>
<polygon fill="black" stroke="black" points="458.54,-295.29 448.94,-290.8 453.64,-300.29 458.54,-295.29"/>
<text xml:space="preserve" text-anchor="middle" x="485.09" y="-309.95" font-family="Helvetica,sans-Serif" font-size="9.00">+h₃</text>
</g>
<!-- L1_h3_kb&#45;&gt;L2_h1h3 -->
<g id="edge15" class="edge">
<title>L1_h3_kb&#45;&gt;L2_h1h3</title>
<path fill="none" stroke="black" d="M310.88,-336C307.81,-327.25 304.75,-318.5 304.75,-318.5 304.75,-318.5 304.75,-307.25 304.75,-307.25 304.75,-307.25 304.91,-304.78 305.14,-301.15"/>
<polygon fill="black" stroke="black" points="308.63,-301.46 305.78,-291.26 301.64,-301.02 308.63,-301.46"/>
<text xml:space="preserve" text-anchor="middle" x="313.38" y="-309.95" font-family="Helvetica,sans-Serif" font-size="9.00">+h₁</text>
</g>
<!-- L1_h3_kb&#45;&gt;L2_h2h3 -->
<g id="edge17" class="edge">
<title>L1_h3_kb&#45;&gt;L2_h2h3</title>
<path fill="none" stroke="black" d="M327.49,-336.01C335.35,-322.92 344.75,-307.25 344.75,-307.25 344.75,-307.25 363.5,-299.55 383.42,-291.37"/>
<polygon fill="black" stroke="black" points="384.52,-294.7 392.45,-287.67 381.87,-288.23 384.52,-294.7"/>
<text xml:space="preserve" text-anchor="middle" x="353.38" y="-309.95" font-family="Helvetica,sans-Serif" font-size="9.00">+h₂</text>
</g>
<!-- merged_kb -->
<g id="node15" class="node">
<title>merged_kb</title>
<polygon fill="gold" stroke="black" points="663.75,-206 376.25,-206 376.25,-94.5 669.75,-94.5 669.75,-200 663.75,-206"/>
<polyline fill="none" stroke="black" points="663.75,-206 663.75,-200"/>
<polyline fill="none" stroke="black" points="669.75,-200 663.75,-200"/>
<text xml:space="preserve" text-anchor="middle" x="523" y="-188.7" font-family="Helvetica,sans-Serif" font-size="14.00">kb({h₁,h₂})</text>
<text xml:space="preserve" text-anchor="middle" x="523" y="-171.45" font-family="Helvetica,sans-Serif" font-size="14.00">≡ kb({h₂,h₃})</text>
<text xml:space="preserve" text-anchor="middle" x="523" y="-154.2" font-family="Helvetica,sans-Serif" font-size="14.00">≡ kb({h₁,h₂,h₃})</text>
<text xml:space="preserve" text-anchor="middle" x="523" y="-136.95" font-family="Helvetica,sans-Serif" font-size="14.00">— merged across layers 2 &amp; 3 —</text>
<text xml:space="preserve" text-anchor="middle" x="523" y="-119.7" font-family="Helvetica,sans-Serif" font-size="14.00">labels = ({h₁,h₂}, {h₂,h₃}, {h₁,h₂,h₃})</text>
<text xml:space="preserve" text-anchor="middle" x="523" y="-102.45" font-family="Helvetica,sans-Serif" font-size="14.00">parents = ({h₁},{h₂},{h₃}, kb({h₁,h₃}))</text>
</g>
<!-- L2_h1h2&#45;&gt;merged_kb -->
<g id="edge9" class="edge">
<title>L2_h1h2&#45;&gt;merged_kb</title>
<path fill="none" stroke="darkorange" stroke-dasharray="5,2" d="M523.85,-252.95C523.77,-243.37 523.67,-230.8 523.56,-217.77"/>
<polygon fill="darkorange" stroke="darkorange" points="527.06,-217.75 523.48,-207.78 520.06,-217.81 527.06,-217.75"/>
<text xml:space="preserve" text-anchor="middle" x="530.45" y="-226.7" font-family="Helvetica,sans-Serif" font-size="9.00">sat</text>
</g>
<!-- L2_h1h3_kb -->
<g id="node14" class="node">
<title>L2_h1h3_kb</title>
<polygon fill="palegreen" stroke="black" points="348.38,-168.25 259.62,-168.25 259.62,-132.25 354.38,-132.25 354.38,-162.25 348.38,-168.25"/>
<polyline fill="none" stroke="black" points="348.38,-168.25 348.38,-162.25"/>
<polyline fill="none" stroke="black" points="354.38,-162.25 348.38,-162.25"/>
<text xml:space="preserve" text-anchor="middle" x="307" y="-145.57" font-family="Helvetica,sans-Serif" font-size="14.00">kb({h₁,h₃})</text>
</g>
<!-- L2_h1h3&#45;&gt;L2_h1h3_kb -->
<g id="edge10" class="edge">
<title>L2_h1h3&#45;&gt;L2_h1h3_kb</title>
<path fill="none" stroke="gray" stroke-dasharray="5,2" d="M307,-252.95C307,-233.82 307,-202.71 307,-179.93"/>
<polygon fill="gray" stroke="gray" points="310.5,-180.09 307,-170.09 303.5,-180.09 310.5,-180.09"/>
<text xml:space="preserve" text-anchor="middle" x="313.75" y="-226.7" font-family="Helvetica,sans-Serif" font-size="9.00">sat</text>
</g>
<!-- L2_h2h3&#45;&gt;merged_kb -->
<g id="edge11" class="edge">
<title>L2_h2h3&#45;&gt;merged_kb</title>
<path fill="none" stroke="darkorange" stroke-dasharray="5,2" d="M442.1,-252.76C451.16,-239.67 462,-224 462,-224 462,-224 464.96,-220.47 469.57,-214.97"/>
<polygon fill="darkorange" stroke="darkorange" points="472.05,-217.46 475.79,-207.55 466.69,-212.96 472.05,-217.46"/>
<text xml:space="preserve" text-anchor="middle" x="490.5" y="-226.7" font-family="Helvetica,sans-Serif" font-size="9.00">sat [dedup!]</text>
</g>
<!-- L3 -->
<g id="node16" class="node">
<title>L3</title>
<path fill="lightblue" stroke="black" d="M423.38,-36C423.38,-36 352.62,-36 352.62,-36 346.62,-36 340.62,-30 340.62,-24 340.62,-24 340.62,-12 340.62,-12 340.62,-6 346.62,0 352.62,0 352.62,0 423.38,0 423.38,0 429.38,0 435.38,-6 435.38,-12 435.38,-12 435.38,-24 435.38,-24 435.38,-30 429.38,-36 423.38,-36"/>
<text xml:space="preserve" text-anchor="middle" x="388" y="-13.32" font-family="Helvetica,sans-Serif" font-size="14.00">{h₁, h₂, h₃}</text>
</g>
<!-- L2_h1h3_kb&#45;&gt;L3 -->
<g id="edge20" class="edge">
<title>L2_h1h3_kb&#45;&gt;L3</title>
<path fill="none" stroke="black" d="M313.74,-131.78C324.35,-104.28 343.75,-54 343.75,-54 343.75,-54 349.72,-49.28 357.27,-43.31"/>
<polygon fill="black" stroke="black" points="359.02,-46.39 364.69,-37.44 354.67,-40.9 359.02,-46.39"/>
<text xml:space="preserve" text-anchor="middle" x="352.38" y="-62.33" font-family="Helvetica,sans-Serif" font-size="9.00">+h₂</text>
</g>
<!-- merged_kb&#45;&gt;L3 -->
<g id="edge19" class="edge">
<title>merged_kb&#45;&gt;L3</title>
<path fill="none" stroke="black" d="M507.95,-94.12C502.2,-73.05 497,-54 497,-54 497,-54 472.35,-46.09 446.5,-37.79"/>
<polygon fill="black" stroke="black" points="447.84,-34.54 437.25,-34.81 445.7,-41.2 447.84,-34.54"/>
<text xml:space="preserve" text-anchor="middle" x="551.74" y="-67.95" font-family="Helvetica,sans-Serif" font-size="9.00">+h₃ &#160;(from {h₁,h₂})</text>
<text xml:space="preserve" text-anchor="middle" x="551.74" y="-56.7" font-family="Helvetica,sans-Serif" font-size="9.00">or +h₁ (from {h₂,h₃})</text>
</g>
<!-- L3&#45;&gt;merged_kb -->
<g id="edge18" class="edge">
<title>L3&#45;&gt;merged_kb</title>
<path fill="none" stroke="#cc5500" stroke-dasharray="5,2" d="M388,-36.25C388,-53.19 388,-76.5 388,-76.5 388,-76.5 397.14,-81.43 410.67,-88.72"/>
<polygon fill="#cc5500" stroke="#cc5500" points="408.88,-91.73 419.35,-93.39 412.2,-85.57 408.88,-91.73"/>
<text xml:space="preserve" text-anchor="middle" x="442" y="-62.33" font-family="Helvetica,sans-Serif" font-size="9.00">sat [dedup! cross&#45;layer]</text>
</g>
</g>
</svg>
