<?xml version="1.0" encoding="UTF-8" standalone="no"?>
<!DOCTYPE svg PUBLIC "-//W3C//DTD SVG 1.1//EN"
 "http://www.w3.org/Graphics/SVG/1.1/DTD/svg11.dtd">
<!-- Generated by graphviz version 14.1.5 (0)
 -->
<!-- Title: lattice_4hyps_dedup Pages: 1 -->
<svg width="1300pt" height="931pt"
 viewBox="0.00 0.00 1300.00 931.00" xmlns="http://www.w3.org/2000/svg" xmlns:xlink="http://www.w3.org/1999/xlink">
<g id="graph0" class="graph" transform="scale(1 1) rotate(0) translate(4 927)">
<title>lattice_4hyps_dedup</title>
<polygon fill="white" stroke="none" points="-4,4 -4,-927 1295.5,-927 1295.5,4 -4,4"/>
<text xml:space="preserve" text-anchor="middle" x="645.75" y="-908.55" font-family="Helvetica,sans-Serif" font-size="11.00">Search lattice over 4 hypotheses — fully explored</text>
<text xml:space="preserve" text-anchor="middle" x="645.75" y="-895.05" font-family="Helvetica,sans-Serif" font-size="11.00">layer&#45;2 merge {h₁,h₃} ≡ {h₁,h₄}; layer&#45;2 death {h₂,h₃};</text>
<text xml:space="preserve" text-anchor="middle" x="645.75" y="-881.55" font-family="Helvetica,sans-Serif" font-size="11.00">layer&#45;3 cross&#45;layer merge {h₁,h₃,h₄} → existing merged node; layer&#45;4 pruned</text>
<g id="clust1" class="cluster">
<title>cluster_legend</title>
<polygon fill="none" stroke="gray" stroke-dasharray="5,2" points="8,-676.75 8,-866.5 430,-866.5 430,-676.75 8,-676.75"/>
<text xml:space="preserve" text-anchor="middle" x="219" y="-853" font-family="Helvetica,sans-Serif" font-size="10.00">Legend</text>
</g>
<!-- legend_commit -->
<g id="node1" class="node">
<title>legend_commit</title>
<path fill="lightblue" stroke="black" d="M107.88,-817C107.88,-817 28.12,-817 28.12,-817 22.12,-817 16.12,-811 16.12,-805 16.12,-805 16.12,-786.5 16.12,-786.5 16.12,-780.5 22.12,-774.5 28.12,-774.5 28.12,-774.5 107.88,-774.5 107.88,-774.5 113.88,-774.5 119.88,-780.5 119.88,-786.5 119.88,-786.5 119.88,-805 119.88,-805 119.88,-811 113.88,-817 107.88,-817"/>
<text xml:space="preserve" text-anchor="middle" x="68" y="-799.7" font-family="Helvetica,sans-Serif" font-size="14.00">commitment</text>
<text xml:space="preserve" text-anchor="middle" x="68" y="-782.45" font-family="Helvetica,sans-Serif" font-size="14.00">set (raw)</text>
</g>
<!-- legend_kb -->
<g id="node2" class="node">
<title>legend_kb</title>
<polygon fill="palegreen" stroke="black" points="103.38,-727.25 26.62,-727.25 26.62,-684.75 109.38,-684.75 109.38,-721.25 103.38,-727.25"/>
<polyline fill="none" stroke="black" points="103.38,-727.25 103.38,-721.25"/>
<polyline fill="none" stroke="black" points="109.38,-721.25 103.38,-721.25"/>
<text xml:space="preserve" text-anchor="middle" x="68" y="-709.95" font-family="Helvetica,sans-Serif" font-size="14.00">saturated</text>
<text xml:space="preserve" text-anchor="middle" x="68" y="-692.7" font-family="Helvetica,sans-Serif" font-size="14.00">kb (alive)</text>
</g>
<!-- legend_commit&#45;&gt;legend_kb -->
<g id="edge1" class="edge">
<title>legend_commit&#45;&gt;legend_kb</title>
<path fill="none" stroke="gray" stroke-dasharray="5,2" d="M68,-774.4C68,-763.84 68,-750.71 68,-738.84"/>
<polygon fill="gray" stroke="gray" points="71.5,-739.06 68,-729.06 64.5,-739.06 71.5,-739.06"/>
<text xml:space="preserve" text-anchor="middle" x="80.75" y="-747.95" font-family="Helvetica,sans-Serif" font-size="9.00"> &#160;sat &#160;</text>
</g>
<!-- legend_kb&#45;&gt;legend_commit -->
<g id="edge2" class="edge">
<title>legend_kb&#45;&gt;legend_commit</title>
<path fill="none" stroke="black" d="M83.52,-727.47C90.41,-736.56 97,-745.25 97,-745.25 97,-745.25 97,-756.5 97,-756.5 97,-756.5 94.16,-760.24 90.26,-765.38"/>
<polygon fill="black" stroke="black" points="87.69,-762.99 84.43,-773.08 93.26,-767.22 87.69,-762.99"/>
<text xml:space="preserve" text-anchor="middle" x="113.12" y="-747.95" font-family="Helvetica,sans-Serif" font-size="9.00"> &#160;+h_i &#160;</text>
</g>
<!-- legend_merged -->
<g id="node3" class="node">
<title>legend_merged</title>
<polygon fill="gold" stroke="black" points="280.38,-817 137.62,-817 137.62,-774.5 286.38,-774.5 286.38,-811 280.38,-817"/>
<polyline fill="none" stroke="black" points="280.38,-817 280.38,-811"/>
<polyline fill="none" stroke="black" points="286.38,-811 280.38,-811"/>
<text xml:space="preserve" text-anchor="middle" x="212" y="-799.7" font-family="Helvetica,sans-Serif" font-size="14.00">merged kb</text>
<text xml:space="preserve" text-anchor="middle" x="212" y="-782.45" font-family="Helvetica,sans-Serif" font-size="14.00">(state&#45;hash dedup)</text>
</g>
<!-- legend_dead -->
<g id="node4" class="node">
<title>legend_dead</title>
<polygon fill="salmon" stroke="black" points="415.62,-817 304.38,-817 304.38,-774.5 421.62,-774.5 421.62,-811 415.62,-817"/>
<polyline fill="none" stroke="black" points="415.62,-817 415.62,-811"/>
<polyline fill="none" stroke="black" points="421.62,-811 415.62,-811"/>
<text xml:space="preserve" text-anchor="middle" x="363" y="-799.7" font-family="Helvetica,sans-Serif" font-size="14.00">dead kb</text>
<text xml:space="preserve" text-anchor="middle" x="363" y="-782.45" font-family="Helvetica,sans-Serif" font-size="14.00">(contradiction)</text>
</g>
<!-- L0_kb -->
<g id="node5" class="node">
<title>L0_kb</title>
<polygon fill="palegreen" stroke="black" points="628.5,-817 543.5,-817 543.5,-774.5 634.5,-774.5 634.5,-811 628.5,-817"/>
<polyline fill="none" stroke="black" points="628.5,-817 628.5,-811"/>
<polyline fill="none" stroke="black" points="634.5,-811 628.5,-811"/>
<text xml:space="preserve" text-anchor="middle" x="589" y="-799.7" font-family="Helvetica,sans-Serif" font-size="14.00">kb(∅)</text>
<text xml:space="preserve" text-anchor="middle" x="589" y="-782.45" font-family="Helvetica,sans-Serif" font-size="14.00">= sat(root)</text>
</g>
<!-- L1_h1 -->
<g id="node6" class="node">
<title>L1_h1</title>
<path fill="lightblue" stroke="black" d="M563,-724C563,-724 533,-724 533,-724 527,-724 521,-718 521,-712 521,-712 521,-700 521,-700 521,-694 527,-688 533,-688 533,-688 563,-688 563,-688 569,-688 575,-694 575,-700 575,-700 575,-712 575,-712 575,-718 569,-724 563,-724"/>
<text xml:space="preserve" text-anchor="middle" x="548" y="-701.33" font-family="Helvetica,sans-Serif" font-size="14.00">{h₁}</text>
</g>
<!-- L0_kb&#45;&gt;L1_h1 -->
<g id="edge7" class="edge">
<title>L0_kb&#45;&gt;L1_h1</title>
<path fill="none" stroke="black" d="M579.49,-774.4C573.95,-762.53 566.88,-747.41 560.85,-734.49"/>
<polygon fill="black" stroke="black" points="564.12,-733.23 556.72,-725.66 557.78,-736.2 564.12,-733.23"/>
<text xml:space="preserve" text-anchor="middle" x="579.58" y="-747.95" font-family="Helvetica,sans-Serif" font-size="9.00">+h₁</text>
</g>
<!-- L1_h2 -->
<g id="node7" class="node">
<title>L1_h2</title>
<path fill="lightblue" stroke="black" d="M734,-724C734,-724 704,-724 704,-724 698,-724 692,-718 692,-712 692,-712 692,-700 692,-700 692,-694 698,-688 704,-688 704,-688 734,-688 734,-688 740,-688 746,-694 746,-700 746,-700 746,-712 746,-712 746,-718 740,-724 734,-724"/>
<text xml:space="preserve" text-anchor="middle" x="719" y="-701.33" font-family="Helvetica,sans-Serif" font-size="14.00">{h₂}</text>
</g>
<!-- L0_kb&#45;&gt;L1_h2 -->
<g id="edge8" class="edge">
<title>L0_kb&#45;&gt;L1_h2</title>
<path fill="none" stroke="black" d="M619.48,-774.18C638.7,-761.2 663.59,-744.4 683.67,-730.85"/>
<polygon fill="black" stroke="black" points="685.51,-733.83 691.84,-725.33 681.6,-728.03 685.51,-733.83"/>
<text xml:space="preserve" text-anchor="middle" x="670.41" y="-747.95" font-family="Helvetica,sans-Serif" font-size="9.00">+h₂</text>
</g>
<!-- L1_h3 -->
<g id="node8" class="node">
<title>L1_h3</title>
<path fill="lightblue" stroke="black" d="M480,-724C480,-724 450,-724 450,-724 444,-724 438,-718 438,-712 438,-712 438,-700 438,-700 438,-694 444,-688 450,-688 450,-688 480,-688 480,-688 486,-688 492,-694 492,-700 492,-700 492,-712 492,-712 492,-718 486,-724 480,-724"/>
<text xml:space="preserve" text-anchor="middle" x="465" y="-701.33" font-family="Helvetica,sans-Serif" font-size="14.00">{h₃}</text>
</g>
<!-- L0_kb&#45;&gt;L1_h3 -->
<g id="edge9" class="edge">
<title>L0_kb&#45;&gt;L1_h3</title>
<path fill="none" stroke="black" d="M559.93,-774.18C541.68,-761.26 518.07,-744.55 498.96,-731.03"/>
<polygon fill="black" stroke="black" points="501.13,-728.28 490.94,-725.36 497.08,-733.99 501.13,-728.28"/>
<text xml:space="preserve" text-anchor="middle" x="543.05" y="-747.95" font-family="Helvetica,sans-Serif" font-size="9.00">+h₃</text>
</g>
<!-- L1_h4 -->
<g id="node9" class="node">
<title>L1_h4</title>
<path fill="lightblue" stroke="black" d="M646,-724C646,-724 616,-724 616,-724 610,-724 604,-718 604,-712 604,-712 604,-700 604,-700 604,-694 610,-688 616,-688 616,-688 646,-688 646,-688 652,-688 658,-694 658,-700 658,-700 658,-712 658,-712 658,-718 652,-724 646,-724"/>
<text xml:space="preserve" text-anchor="middle" x="631" y="-701.33" font-family="Helvetica,sans-Serif" font-size="14.00">{h₄}</text>
</g>
<!-- L0_kb&#45;&gt;L1_h4 -->
<g id="edge10" class="edge">
<title>L0_kb&#45;&gt;L1_h4</title>
<path fill="none" stroke="black" d="M598.74,-774.4C604.42,-762.53 611.66,-747.41 617.84,-734.49"/>
<polygon fill="black" stroke="black" points="620.91,-736.18 622.07,-725.65 614.6,-733.16 620.91,-736.18"/>
<text xml:space="preserve" text-anchor="middle" x="621.14" y="-747.95" font-family="Helvetica,sans-Serif" font-size="9.00">+h₄</text>
</g>
<!-- L1_h1_kb -->
<g id="node10" class="node">
<title>L1_h1_kb</title>
<polygon fill="palegreen" stroke="black" points="572,-637.5 502,-637.5 502,-601.5 578,-601.5 578,-631.5 572,-637.5"/>
<polyline fill="none" stroke="black" points="572,-637.5 572,-631.5"/>
<polyline fill="none" stroke="black" points="578,-631.5 572,-631.5"/>
<text xml:space="preserve" text-anchor="middle" x="540" y="-614.83" font-family="Helvetica,sans-Serif" font-size="14.00">kb({h₁})</text>
</g>
<!-- L1_h1&#45;&gt;L1_h1_kb -->
<g id="edge3" class="edge">
<title>L1_h1&#45;&gt;L1_h1_kb</title>
<path fill="none" stroke="gray" stroke-dasharray="5,2" d="M546.38,-687.9C545.33,-676.75 543.92,-661.92 542.7,-649.02"/>
<polygon fill="gray" stroke="gray" points="546.21,-649 541.79,-639.37 539.24,-649.66 546.21,-649"/>
<text xml:space="preserve" text-anchor="middle" x="550.99" y="-658.2" font-family="Helvetica,sans-Serif" font-size="9.00">sat</text>
</g>
<!-- L1_h2_kb -->
<g id="node11" class="node">
<title>L1_h2_kb</title>
<polygon fill="palegreen" stroke="black" points="795,-637.5 725,-637.5 725,-601.5 801,-601.5 801,-631.5 795,-637.5"/>
<polyline fill="none" stroke="black" points="795,-637.5 795,-631.5"/>
<polyline fill="none" stroke="black" points="801,-631.5 795,-631.5"/>
<text xml:space="preserve" text-anchor="middle" x="763" y="-614.83" font-family="Helvetica,sans-Serif" font-size="14.00">kb({h₂})</text>
</g>
<!-- L1_h2&#45;&gt;L1_h2_kb -->
<g id="edge4" class="edge">
<title>L1_h2&#45;&gt;L1_h2_kb</title>
<path fill="none" stroke="gray" stroke-dasharray="5,2" d="M727.9,-687.9C733.89,-676.41 741.9,-661.01 748.76,-647.84"/>
<polygon fill="gray" stroke="gray" points="751.74,-649.69 753.26,-639.21 745.54,-646.46 751.74,-649.69"/>
<text xml:space="preserve" text-anchor="middle" x="750.38" y="-658.2" font-family="Helvetica,sans-Serif" font-size="9.00">sat</text>
</g>
<!-- L1_h3_kb -->
<g id="node12" class="node">
<title>L1_h3_kb</title>
<polygon fill="palegreen" stroke="black" points="475,-637.5 405,-637.5 405,-601.5 481,-601.5 481,-631.5 475,-637.5"/>
<polyline fill="none" stroke="black" points="475,-637.5 475,-631.5"/>
<polyline fill="none" stroke="black" points="481,-631.5 475,-631.5"/>
<text xml:space="preserve" text-anchor="middle" x="443" y="-614.83" font-family="Helvetica,sans-Serif" font-size="14.00">kb({h₃})</text>
</g>
<!-- L1_h3&#45;&gt;L1_h3_kb -->
<g id="edge5" class="edge">
<title>L1_h3&#45;&gt;L1_h3_kb</title>
<path fill="none" stroke="gray" stroke-dasharray="5,2" d="M460.55,-687.9C457.62,-676.64 453.71,-661.62 450.32,-648.62"/>
<polygon fill="gray" stroke="gray" points="453.81,-648.12 447.9,-639.33 447.03,-649.89 453.81,-648.12"/>
<text xml:space="preserve" text-anchor="middle" x="461.41" y="-658.2" font-family="Helvetica,sans-Serif" font-size="9.00">sat</text>
</g>
<!-- L1_h4_kb -->
<g id="node13" class="node">
<title>L1_h4_kb</title>
<polygon fill="palegreen" stroke="black" points="667,-637.5 597,-637.5 597,-601.5 673,-601.5 673,-631.5 667,-637.5"/>
<polyline fill="none" stroke="black" points="667,-637.5 667,-631.5"/>
<polyline fill="none" stroke="black" points="673,-631.5 667,-631.5"/>
<text xml:space="preserve" text-anchor="middle" x="635" y="-614.83" font-family="Helvetica,sans-Serif" font-size="14.00">kb({h₄})</text>
</g>
<!-- L1_h4&#45;&gt;L1_h4_kb -->
<g id="edge6" class="edge">
<title>L1_h4&#45;&gt;L1_h4_kb</title>
<path fill="none" stroke="gray" stroke-dasharray="5,2" d="M631.81,-687.9C632.34,-676.75 633.04,-661.92 633.65,-649.02"/>
<polygon fill="gray" stroke="gray" points="637.13,-649.53 634.11,-639.38 630.14,-649.2 637.13,-649.53"/>
<text xml:space="preserve" text-anchor="middle" x="639.99" y="-658.2" font-family="Helvetica,sans-Serif" font-size="9.00">sat</text>
</g>
<!-- L2_h1h2 -->
<g id="node14" class="node">
<title>L2_h1h2</title>
<path fill="lightblue" stroke="black" d="M806.75,-554.25C806.75,-554.25 759.25,-554.25 759.25,-554.25 753.25,-554.25 747.25,-548.25 747.25,-542.25 747.25,-542.25 747.25,-530.25 747.25,-530.25 747.25,-524.25 753.25,-518.25 759.25,-518.25 759.25,-518.25 806.75,-518.25 806.75,-518.25 812.75,-518.25 818.75,-524.25 818.75,-530.25 818.75,-530.25 818.75,-542.25 818.75,-542.25 818.75,-548.25 812.75,-554.25 806.75,-554.25"/>
<text xml:space="preserve" text-anchor="middle" x="783" y="-531.58" font-family="Helvetica,sans-Serif" font-size="14.00">{h₁, h₂}</text>
</g>
<!-- L1_h1_kb&#45;&gt;L2_h1h2 -->
<g id="edge17" class="edge">
<title>L1_h1_kb&#45;&gt;L2_h1h2</title>
<path fill="none" stroke="black" d="M578.29,-604.94C583.99,-602.92 588,-601.5 588,-601.5 588,-601.5 736,-554.25 736,-554.25 736,-554.25 736.07,-554.22 736.21,-554.17"/>
<polygon fill="black" stroke="black" points="737.26,-557.51 745.48,-550.82 734.88,-550.93 737.26,-557.51"/>
<text xml:space="preserve" text-anchor="middle" x="688.23" y="-574.95" font-family="Helvetica,sans-Serif" font-size="9.00">+h₂</text>
</g>
<!-- L2_h1h3 -->
<g id="node15" class="node">
<title>L2_h1h3</title>
<path fill="lightblue" stroke="black" d="M488.75,-554.25C488.75,-554.25 441.25,-554.25 441.25,-554.25 435.25,-554.25 429.25,-548.25 429.25,-542.25 429.25,-542.25 429.25,-530.25 429.25,-530.25 429.25,-524.25 435.25,-518.25 441.25,-518.25 441.25,-518.25 488.75,-518.25 488.75,-518.25 494.75,-518.25 500.75,-524.25 500.75,-530.25 500.75,-530.25 500.75,-542.25 500.75,-542.25 500.75,-548.25 494.75,-554.25 488.75,-554.25"/>
<text xml:space="preserve" text-anchor="middle" x="465" y="-531.58" font-family="Helvetica,sans-Serif" font-size="14.00">{h₁, h₃}</text>
</g>
<!-- L1_h1_kb&#45;&gt;L2_h1h3 -->
<g id="edge19" class="edge">
<title>L1_h1_kb&#45;&gt;L2_h1h3</title>
<path fill="none" stroke="black" d="M518.38,-601C507.56,-592.25 496.75,-583.5 496.75,-583.5 496.75,-583.5 490.45,-574.32 483.45,-564.13"/>
<polygon fill="black" stroke="black" points="486.41,-562.25 477.86,-555.98 480.63,-566.21 486.41,-562.25"/>
<text xml:space="preserve" text-anchor="middle" x="505.38" y="-574.95" font-family="Helvetica,sans-Serif" font-size="9.00">+h₃</text>
</g>
<!-- L2_h1h4 -->
<g id="node16" class="node">
<title>L2_h1h4</title>
<path fill="lightblue" stroke="black" d="M578.75,-554.25C578.75,-554.25 531.25,-554.25 531.25,-554.25 525.25,-554.25 519.25,-548.25 519.25,-542.25 519.25,-542.25 519.25,-530.25 519.25,-530.25 519.25,-524.25 525.25,-518.25 531.25,-518.25 531.25,-518.25 578.75,-518.25 578.75,-518.25 584.75,-518.25 590.75,-524.25 590.75,-530.25 590.75,-530.25 590.75,-542.25 590.75,-542.25 590.75,-548.25 584.75,-554.25 578.75,-554.25"/>
<text xml:space="preserve" text-anchor="middle" x="555" y="-531.58" font-family="Helvetica,sans-Serif" font-size="14.00">{h₁, h₄}</text>
</g>
<!-- L1_h1_kb&#45;&gt;L2_h1h4 -->
<g id="edge21" class="edge">
<title>L1_h1_kb&#45;&gt;L2_h1h4</title>
<path fill="none" stroke="black" d="M528.88,-601C523.31,-592.25 517.75,-583.5 517.75,-583.5 517.75,-583.5 517.75,-572.25 517.75,-572.25 517.75,-572.25 522.35,-567.92 528.32,-562.31"/>
<polygon fill="black" stroke="black" points="530.38,-565.18 535.27,-555.79 525.59,-560.08 530.38,-565.18"/>
<text xml:space="preserve" text-anchor="middle" x="526.38" y="-574.95" font-family="Helvetica,sans-Serif" font-size="9.00">+h₄</text>
</g>
<!-- L1_h2_kb&#45;&gt;L2_h1h2 -->
<g id="edge18" class="edge">
<title>L1_h2_kb&#45;&gt;L2_h1h2</title>
<path fill="none" stroke="black" d="M769,-601C772,-592.25 775,-583.5 775,-583.5 775,-583.5 776.4,-575.41 778.03,-565.99"/>
<polygon fill="black" stroke="black" points="781.46,-566.68 779.72,-556.23 774.56,-565.48 781.46,-566.68"/>
<text xml:space="preserve" text-anchor="middle" x="785.56" y="-574.95" font-family="Helvetica,sans-Serif" font-size="9.00">+h₁</text>
</g>
<!-- L2_h2h3 -->
<g id="node17" class="node">
<title>L2_h2h3</title>
<path fill="lightblue" stroke="black" d="M714.75,-554.25C714.75,-554.25 667.25,-554.25 667.25,-554.25 661.25,-554.25 655.25,-548.25 655.25,-542.25 655.25,-542.25 655.25,-530.25 655.25,-530.25 655.25,-524.25 661.25,-518.25 667.25,-518.25 667.25,-518.25 714.75,-518.25 714.75,-518.25 720.75,-518.25 726.75,-524.25 726.75,-530.25 726.75,-530.25 726.75,-542.25 726.75,-542.25 726.75,-548.25 720.75,-554.25 714.75,-554.25"/>
<text xml:space="preserve" text-anchor="middle" x="691" y="-531.58" font-family="Helvetica,sans-Serif" font-size="14.00">{h₂, h₃}</text>
</g>
<!-- L1_h2_kb&#45;&gt;L2_h2h3 -->
<g id="edge23" class="edge">
<title>L1_h2_kb&#45;&gt;L2_h2h3</title>
<path fill="none" stroke="black" d="M740.38,-601C729.06,-592.25 717.75,-583.5 717.75,-583.5 717.75,-583.5 712.55,-574.5 706.73,-564.44"/>
<polygon fill="black" stroke="black" points="709.91,-562.95 701.87,-556.05 703.85,-566.45 709.91,-562.95"/>
<text xml:space="preserve" text-anchor="middle" x="726.38" y="-574.95" font-family="Helvetica,sans-Serif" font-size="9.00">+h₃</text>
</g>
<!-- L2_h2h4 -->
<g id="node18" class="node">
<title>L2_h2h4</title>
<path fill="lightblue" stroke="black" d="M896.75,-554.25C896.75,-554.25 849.25,-554.25 849.25,-554.25 843.25,-554.25 837.25,-548.25 837.25,-542.25 837.25,-542.25 837.25,-530.25 837.25,-530.25 837.25,-524.25 843.25,-518.25 849.25,-518.25 849.25,-518.25 896.75,-518.25 896.75,-518.25 902.75,-518.25 908.75,-524.25 908.75,-530.25 908.75,-530.25 908.75,-542.25 908.75,-542.25 908.75,-548.25 902.75,-554.25 896.75,-554.25"/>
<text xml:space="preserve" text-anchor="middle" x="873" y="-531.58" font-family="Helvetica,sans-Serif" font-size="14.00">{h₂, h₄}</text>
</g>
<!-- L1_h2_kb&#45;&gt;L2_h2h4 -->
<g id="edge25" class="edge">
<title>L1_h2_kb&#45;&gt;L2_h2h4</title>
<path fill="none" stroke="black" d="M786.6,-601.07C802.26,-589.5 823.02,-574.16 840.27,-561.42"/>
<polygon fill="black" stroke="black" points="842.26,-564.31 848.22,-555.55 838.1,-558.68 842.26,-564.31"/>
<text xml:space="preserve" text-anchor="middle" x="833.21" y="-574.95" font-family="Helvetica,sans-Serif" font-size="9.00">+h₄</text>
</g>
<!-- L1_h3_kb&#45;&gt;L2_h1h3 -->
<g id="edge20" class="edge">
<title>L1_h3_kb&#45;&gt;L2_h1h3</title>
<path fill="none" stroke="black" d="M440.38,-601C439.06,-592.25 437.75,-583.5 437.75,-583.5 437.75,-583.5 437.75,-572.25 437.75,-572.25 437.75,-572.25 440.55,-568.66 444.35,-563.78"/>
<polygon fill="black" stroke="black" points="447.06,-565.98 450.45,-555.94 441.54,-561.68 447.06,-565.98"/>
<text xml:space="preserve" text-anchor="middle" x="446.38" y="-574.95" font-family="Helvetica,sans-Serif" font-size="9.00">+h₁</text>
</g>
<!-- L1_h3_kb&#45;&gt;L2_h2h3 -->
<g id="edge24" class="edge">
<title>L1_h3_kb&#45;&gt;L2_h2h3</title>
<path fill="none" stroke="black" d="M481.4,-605.44C488.12,-603.16 493,-601.5 493,-601.5 493,-601.5 575,-583.5 575,-583.5 575,-583.5 593.75,-572.25 593.75,-572.25 593.75,-572.25 619.31,-563.05 644.23,-554.08"/>
<polygon fill="black" stroke="black" points="645.14,-557.47 653.36,-550.8 642.77,-550.89 645.14,-557.47"/>
<text xml:space="preserve" text-anchor="middle" x="602.38" y="-574.95" font-family="Helvetica,sans-Serif" font-size="9.00">+h₂</text>
</g>
<!-- L2_h3h4 -->
<g id="node19" class="node">
<title>L2_h3h4</title>
<path fill="lightblue" stroke="black" d="M398.75,-554.25C398.75,-554.25 351.25,-554.25 351.25,-554.25 345.25,-554.25 339.25,-548.25 339.25,-542.25 339.25,-542.25 339.25,-530.25 339.25,-530.25 339.25,-524.25 345.25,-518.25 351.25,-518.25 351.25,-518.25 398.75,-518.25 398.75,-518.25 404.75,-518.25 410.75,-524.25 410.75,-530.25 410.75,-530.25 410.75,-542.25 410.75,-542.25 410.75,-548.25 404.75,-554.25 398.75,-554.25"/>
<text xml:space="preserve" text-anchor="middle" x="375" y="-531.58" font-family="Helvetica,sans-Serif" font-size="14.00">{h₃, h₄}</text>
</g>
<!-- L1_h3_kb&#45;&gt;L2_h3h4 -->
<g id="edge27" class="edge">
<title>L1_h3_kb&#45;&gt;L2_h3h4</title>
<path fill="none" stroke="black" d="M428.58,-601.27C419.36,-590.25 407.22,-575.74 396.83,-563.33"/>
<polygon fill="black" stroke="black" points="399.71,-561.32 390.61,-555.9 394.34,-565.81 399.71,-561.32"/>
<text xml:space="preserve" text-anchor="middle" x="421.7" y="-574.95" font-family="Helvetica,sans-Serif" font-size="9.00">+h₄</text>
</g>
<!-- L1_h4_kb&#45;&gt;L2_h1h4 -->
<g id="edge22" class="edge">
<title>L1_h4_kb&#45;&gt;L2_h1h4</title>
<path fill="none" stroke="black" d="M627.44,-601.01C621.78,-587.92 615,-572.25 615,-572.25 615,-572.25 605.84,-566.91 594.69,-560.4"/>
<polygon fill="black" stroke="black" points="596.71,-557.53 586.31,-555.51 593.18,-563.57 596.71,-557.53"/>
<text xml:space="preserve" text-anchor="middle" x="628.46" y="-574.95" font-family="Helvetica,sans-Serif" font-size="9.00">+h₁</text>
</g>
<!-- L1_h4_kb&#45;&gt;L2_h2h4 -->
<g id="edge26" class="edge">
<title>L1_h4_kb&#45;&gt;L2_h2h4</title>
<path fill="none" stroke="black" d="M673.38,-605.07C701.58,-595.2 735,-583.5 735,-583.5 735,-583.5 753.75,-572.25 753.75,-572.25 753.75,-572.25 803.24,-560.25 826.37,-553.98"/>
<polygon fill="black" stroke="black" points="827.05,-557.42 835.65,-551.24 825.07,-550.71 827.05,-557.42"/>
<text xml:space="preserve" text-anchor="middle" x="762.38" y="-574.95" font-family="Helvetica,sans-Serif" font-size="9.00">+h₂</text>
</g>
<!-- L1_h4_kb&#45;&gt;L2_h3h4 -->
<g id="edge28" class="edge">
<title>L1_h4_kb&#45;&gt;L2_h3h4</title>
<path fill="none" stroke="black" d="M596.75,-602.02C575.68,-592.95 553.75,-583.5 553.75,-583.5 553.75,-583.5 535,-572.25 535,-572.25 535,-572.25 453.13,-559.44 422.08,-553.36"/>
<polygon fill="black" stroke="black" points="422.9,-549.96 412.37,-551.15 421.34,-556.79 422.9,-549.96"/>
<text xml:space="preserve" text-anchor="middle" x="562.38" y="-574.95" font-family="Helvetica,sans-Serif" font-size="9.00">+h₃</text>
</g>
<!-- L2_h1h2_kb -->
<g id="node20" class="node">
<title>L2_h1h2_kb</title>
<polygon fill="palegreen" stroke="black" points="877.38,-441.88 788.62,-441.88 788.62,-405.88 883.38,-405.88 883.38,-435.88 877.38,-441.88"/>
<polyline fill="none" stroke="black" points="877.38,-441.88 877.38,-435.88"/>
<polyline fill="none" stroke="black" points="883.38,-435.88 877.38,-435.88"/>
<text xml:space="preserve" text-anchor="middle" x="836" y="-419.2" font-family="Helvetica,sans-Serif" font-size="14.00">kb({h₁,h₂})</text>
</g>
<!-- L2_h1h2&#45;&gt;L2_h1h2_kb -->
<g id="edge11" class="edge">
<title>L2_h1h2&#45;&gt;L2_h1h2_kb</title>
<path fill="none" stroke="gray" stroke-dasharray="5,2" d="M791.28,-518C799.67,-500.53 812.79,-473.22 822.65,-452.68"/>
<polygon fill="gray" stroke="gray" points="825.77,-454.26 826.95,-443.73 819.46,-451.23 825.77,-454.26"/>
<text xml:space="preserve" text-anchor="middle" x="811.5" y="-491.7" font-family="Helvetica,sans-Serif" font-size="9.00">sat</text>
</g>
<!-- L2_merged_kb -->
<g id="node21" class="node">
<title>L2_merged_kb</title>
<polygon fill="gold" stroke="black" points="587.38,-471 336.62,-471 336.62,-376.75 593.38,-376.75 593.38,-465 587.38,-471"/>
<polyline fill="none" stroke="black" points="587.38,-471 587.38,-465"/>
<polyline fill="none" stroke="black" points="593.38,-465 587.38,-465"/>
<text xml:space="preserve" text-anchor="middle" x="465" y="-453.7" font-family="Helvetica,sans-Serif" font-size="14.00">kb({h₁,h₃}) ≡ kb({h₁,h₄})</text>
<text xml:space="preserve" text-anchor="middle" x="465" y="-436.45" font-family="Helvetica,sans-Serif" font-size="14.00">— merged via state&#45;hash —</text>
<text xml:space="preserve" text-anchor="middle" x="465" y="-419.2" font-family="Helvetica,sans-Serif" font-size="14.00">labels = ({h₁,h₃}, {h₁,h₄})</text>
<text xml:space="preserve" text-anchor="middle" x="465" y="-401.95" font-family="Helvetica,sans-Serif" font-size="14.00">parents = ({h₁,h₃,h₄})</text>
<text xml:space="preserve" text-anchor="middle" x="465" y="-384.7" font-family="Helvetica,sans-Serif" font-size="14.00"> &#160;&#160;&#160;&#160;&#160;&#160;&#160;&#160;&#160;&#160;&#160;(deduped: {h₁},{h₃},{h₄})</text>
</g>
<!-- L2_h1h3&#45;&gt;L2_merged_kb -->
<g id="edge12" class="edge">
<title>L2_h1h3&#45;&gt;L2_merged_kb</title>
<path fill="none" stroke="darkorange" stroke-dasharray="5,2" d="M465,-518C465,-508.25 465,-495.43 465,-482.44"/>
<polygon fill="darkorange" stroke="darkorange" points="468.5,-482.56 465,-472.56 461.5,-482.56 468.5,-482.56"/>
<text xml:space="preserve" text-anchor="middle" x="471.75" y="-491.7" font-family="Helvetica,sans-Serif" font-size="9.00">sat</text>
</g>
<!-- L2_h1h4&#45;&gt;L2_merged_kb -->
<g id="edge13" class="edge">
<title>L2_h1h4&#45;&gt;L2_merged_kb</title>
<path fill="none" stroke="darkorange" stroke-dasharray="5,2" d="M540.94,-518C532.42,-507.56 521.04,-493.6 509.69,-479.68"/>
<polygon fill="darkorange" stroke="darkorange" points="512.64,-477.76 503.6,-472.22 507.21,-482.18 512.64,-477.76"/>
<text xml:space="preserve" text-anchor="middle" x="554.39" y="-491.7" font-family="Helvetica,sans-Serif" font-size="9.00">sat [dedup!]</text>
</g>
<!-- L2_h2h3_kb -->
<g id="node22" class="node">
<title>L2_h2h3_kb</title>
<polygon fill="salmon" stroke="black" points="764.25,-453.75 611.75,-453.75 611.75,-394 770.25,-394 770.25,-447.75 764.25,-453.75"/>
<polyline fill="none" stroke="black" points="764.25,-453.75 764.25,-447.75"/>
<polyline fill="none" stroke="black" points="770.25,-447.75 764.25,-447.75"/>
<text xml:space="preserve" text-anchor="middle" x="691" y="-436.45" font-family="Helvetica,sans-Serif" font-size="14.00">kb({h₂,h₃})</text>
<text xml:space="preserve" text-anchor="middle" x="691" y="-419.2" font-family="Helvetica,sans-Serif" font-size="14.00">— dead —</text>
<text xml:space="preserve" text-anchor="middle" x="691" y="-401.95" font-family="Helvetica,sans-Serif" font-size="14.00">emit nogood {h₂,h₃}</text>
</g>
<!-- L2_h2h3&#45;&gt;L2_h2h3_kb -->
<g id="edge14" class="edge">
<title>L2_h2h3&#45;&gt;L2_h2h3_kb</title>
<path fill="none" stroke="red" stroke-dasharray="5,2" d="M691,-518C691,-503.98 691,-483.62 691,-465.51"/>
<polygon fill="red" stroke="red" points="694.5,-465.53 691,-455.53 687.5,-465.53 694.5,-465.53"/>
<text xml:space="preserve" text-anchor="middle" x="697.75" y="-491.7" font-family="Helvetica,sans-Serif" font-size="9.00">sat</text>
</g>
<!-- L2_h2h4_kb -->
<g id="node23" class="node">
<title>L2_h2h4_kb</title>
<polygon fill="palegreen" stroke="black" points="990.38,-441.88 901.62,-441.88 901.62,-405.88 996.38,-405.88 996.38,-435.88 990.38,-441.88"/>
<polyline fill="none" stroke="black" points="990.38,-441.88 990.38,-435.88"/>
<polyline fill="none" stroke="black" points="996.38,-435.88 990.38,-435.88"/>
<text xml:space="preserve" text-anchor="middle" x="949" y="-419.2" font-family="Helvetica,sans-Serif" font-size="14.00">kb({h₂,h₄})</text>
</g>
<!-- L2_h2h4&#45;&gt;L2_h2h4_kb -->
<g id="edge15" class="edge">
<title>L2_h2h4&#45;&gt;L2_h2h4_kb</title>
<path fill="none" stroke="gray" stroke-dasharray="5,2" d="M884.88,-518C897.07,-500.29 916.23,-472.46 930.44,-451.84"/>
<polygon fill="gray" stroke="gray" points="933.31,-453.83 936.1,-443.61 927.55,-449.86 933.31,-453.83"/>
<text xml:space="preserve" text-anchor="middle" x="910.94" y="-491.7" font-family="Helvetica,sans-Serif" font-size="9.00">sat</text>
</g>
<!-- L2_h3h4_kb -->
<g id="node24" class="node">
<title>L2_h3h4_kb</title>
<polygon fill="palegreen" stroke="black" points="280.38,-441.88 191.62,-441.88 191.62,-405.88 286.38,-405.88 286.38,-435.88 280.38,-441.88"/>
<polyline fill="none" stroke="black" points="280.38,-441.88 280.38,-435.88"/>
<polyline fill="none" stroke="black" points="286.38,-435.88 280.38,-435.88"/>
<text xml:space="preserve" text-anchor="middle" x="239" y="-419.2" font-family="Helvetica,sans-Serif" font-size="14.00">kb({h₃,h₄})</text>
</g>
<!-- L2_h3h4&#45;&gt;L2_h3h4_kb -->
<g id="edge16" class="edge">
<title>L2_h3h4&#45;&gt;L2_h3h4_kb</title>
<path fill="none" stroke="gray" stroke-dasharray="5,2" d="M353.45,-517.76C330.77,-499.35 294.88,-470.23 269.35,-449.5"/>
<polygon fill="gray" stroke="gray" points="271.59,-446.82 261.62,-443.24 267.18,-452.26 271.59,-446.82"/>
<text xml:space="preserve" text-anchor="middle" x="337.76" y="-491.7" font-family="Helvetica,sans-Serif" font-size="9.00">sat</text>
</g>
<!-- L3_h1h2h3_pruned -->
<g id="node26" class="node">
<title>L3_h1h2h3_pruned</title>
<path fill="lightgrey" stroke="black" stroke-dasharray="5,2" d="M982.25,-318.25C982.25,-318.25 853.75,-318.25 853.75,-318.25 847.75,-318.25 841.75,-312.25 841.75,-306.25 841.75,-306.25 841.75,-270.5 841.75,-270.5 841.75,-264.5 847.75,-258.5 853.75,-258.5 853.75,-258.5 982.25,-258.5 982.25,-258.5 988.25,-258.5 994.25,-264.5 994.25,-270.5 994.25,-270.5 994.25,-306.25 994.25,-306.25 994.25,-312.25 988.25,-318.25 982.25,-318.25"/>
<text xml:space="preserve" text-anchor="middle" x="918" y="-300.95" font-family="Helvetica,sans-Serif" font-size="14.00">{h₁, h₂, h₃}</text>
<text xml:space="preserve" text-anchor="middle" x="918" y="-283.7" font-family="Helvetica,sans-Serif" font-size="14.00">— pruned at gen —</text>
<text xml:space="preserve" text-anchor="middle" x="918" y="-266.45" font-family="Helvetica,sans-Serif" font-size="14.00">nogood match</text>
</g>
<!-- L2_h1h2_kb&#45;&gt;L3_h1h2h3_pruned -->
<g id="edge37" class="edge">
<title>L2_h1h2_kb&#45;&gt;L3_h1h2h3_pruned</title>
<path fill="none" stroke="#888888" stroke-dasharray="5,2" d="M841.14,-405.76C848.71,-380.52 862,-336.25 862,-336.25 862,-336.25 867.28,-331.83 874.59,-325.71"/>
<polygon fill="#888888" stroke="#888888" points="876.59,-328.6 882.01,-319.5 872.1,-323.23 876.59,-328.6"/>
<text xml:space="preserve" text-anchor="middle" x="887.5" y="-350.2" font-family="Helvetica,sans-Serif" font-size="9.00">would form</text>
<text xml:space="preserve" text-anchor="middle" x="887.5" y="-338.95" font-family="Helvetica,sans-Serif" font-size="9.00">{h₁,h₂,h₃}</text>
</g>
<!-- L3_h1h2h4 -->
<g id="node28" class="node">
<title>L3_h1h2h4</title>
<path fill="lightblue" stroke="black" d="M774.38,-306.38C774.38,-306.38 703.62,-306.38 703.62,-306.38 697.62,-306.38 691.62,-300.38 691.62,-294.38 691.62,-294.38 691.62,-282.38 691.62,-282.38 691.62,-276.38 697.62,-270.38 703.62,-270.38 703.62,-270.38 774.38,-270.38 774.38,-270.38 780.38,-270.38 786.38,-276.38 786.38,-282.38 786.38,-282.38 786.38,-294.38 786.38,-294.38 786.38,-300.38 780.38,-306.38 774.38,-306.38"/>
<text xml:space="preserve" text-anchor="middle" x="739" y="-283.7" font-family="Helvetica,sans-Serif" font-size="14.00">{h₁, h₂, h₄}</text>
</g>
<!-- L2_h1h2_kb&#45;&gt;L3_h1h2h4 -->
<g id="edge32" class="edge">
<title>L2_h1h2_kb&#45;&gt;L3_h1h2h4</title>
<path fill="none" stroke="black" d="M823.32,-405.42C806.76,-382.64 777.62,-342.53 758.31,-315.95"/>
<polygon fill="black" stroke="black" points="761.28,-314.09 752.57,-308.06 755.62,-318.2 761.28,-314.09"/>
<text xml:space="preserve" text-anchor="middle" x="796.12" y="-344.57" font-family="Helvetica,sans-Serif" font-size="9.00">+h₄</text>
</g>
<!-- L2_merged_kb&#45;&gt;L3_h1h2h4 -->
<g id="edge33" class="edge">
<title>L2_merged_kb&#45;&gt;L3_h1h2h4</title>
<path fill="none" stroke="darkorange" d="M568.92,-376.27C591.1,-366.33 608,-358.75 608,-358.75 608,-358.75 658.12,-332.21 696.36,-311.96"/>
<polygon fill="darkorange" stroke="darkorange" points="697.74,-315.18 704.94,-307.41 694.47,-309 697.74,-315.18"/>
<text xml:space="preserve" text-anchor="middle" x="696.5" y="-344.57" font-family="Helvetica,sans-Serif" font-size="9.00">+h₂ &#160;&#160;(from {h₁,h₄})</text>
</g>
<!-- L3_h1h3h4 -->
<g id="node29" class="node">
<title>L3_h1h3h4</title>
<path fill="lightblue" stroke="black" d="M325.38,-306.38C325.38,-306.38 254.62,-306.38 254.62,-306.38 248.62,-306.38 242.62,-300.38 242.62,-294.38 242.62,-294.38 242.62,-282.38 242.62,-282.38 242.62,-276.38 248.62,-270.38 254.62,-270.38 254.62,-270.38 325.38,-270.38 325.38,-270.38 331.38,-270.38 337.38,-276.38 337.38,-282.38 337.38,-282.38 337.38,-294.38 337.38,-294.38 337.38,-300.38 331.38,-306.38 325.38,-306.38"/>
<text xml:space="preserve" text-anchor="middle" x="290" y="-283.7" font-family="Helvetica,sans-Serif" font-size="14.00">{h₁, h₃, h₄}</text>
</g>
<!-- L2_merged_kb&#45;&gt;L3_h1h3h4 -->
<g id="edge35" class="edge">
<title>L2_merged_kb&#45;&gt;L3_h1h3h4</title>
<path fill="none" stroke="darkorange" d="M453.16,-376.27C447.96,-355.76 443,-336.25 443,-336.25 443,-336.25 391.57,-320.49 348.35,-307.25"/>
<polygon fill="darkorange" stroke="darkorange" points="349.61,-303.98 339.02,-304.39 347.55,-310.67 349.61,-303.98"/>
<text xml:space="preserve" text-anchor="middle" x="492.94" y="-350.2" font-family="Helvetica,sans-Serif" font-size="9.00">+h₄ &#160;(from {h₁,h₃})</text>
<text xml:space="preserve" text-anchor="middle" x="492.94" y="-338.95" font-family="Helvetica,sans-Serif" font-size="9.00">+h₃ (from {h₁,h₄})</text>
</g>
<!-- L4_pruned -->
<g id="node31" class="node">
<title>L4_pruned</title>
<path fill="lightgrey" stroke="black" stroke-dasharray="5,2" d="M696.88,-94.25C696.88,-94.25 515.12,-94.25 515.12,-94.25 509.12,-94.25 503.12,-88.25 503.12,-82.25 503.12,-82.25 503.12,-12 503.12,-12 503.12,-6 509.12,0 515.12,0 515.12,0 696.88,0 696.88,0 702.88,0 708.88,-6 708.88,-12 708.88,-12 708.88,-82.25 708.88,-82.25 708.88,-88.25 702.88,-94.25 696.88,-94.25"/>
<text xml:space="preserve" text-anchor="middle" x="606" y="-76.95" font-family="Helvetica,sans-Serif" font-size="14.00">{h₁, h₂, h₃, h₄}</text>
<text xml:space="preserve" text-anchor="middle" x="606" y="-59.7" font-family="Helvetica,sans-Serif" font-size="14.00">— pruned at gen —</text>
<text xml:space="preserve" text-anchor="middle" x="606" y="-42.45" font-family="Helvetica,sans-Serif" font-size="14.00">nogood match: {h₂,h₃} ⊆ S</text>
<text xml:space="preserve" text-anchor="middle" x="606" y="-25.2" font-family="Helvetica,sans-Serif" font-size="14.00">Apriori: {h₂,h₃} ∉ A_2</text>
<text xml:space="preserve" text-anchor="middle" x="606" y="-7.95" font-family="Helvetica,sans-Serif" font-size="14.00">search terminates</text>
</g>
<!-- L2_merged_kb&#45;&gt;L4_pruned -->
<g id="edge42" class="edge">
<title>L2_merged_kb&#45;&gt;L4_pruned</title>
<path fill="none" stroke="#888888" stroke-dasharray="5,2" d="M520.96,-376.27C532.9,-366.33 542,-358.75 542,-358.75 542,-358.75 575.63,-195.54 594.13,-105.73"/>
<polygon fill="#888888" stroke="#888888" points="597.52,-106.61 596.11,-96.11 590.67,-105.2 597.52,-106.61"/>
<text xml:space="preserve" text-anchor="middle" x="631.01" y="-231.95" font-family="Helvetica,sans-Serif" font-size="9.00">+h₂ from {h₁,h₃,h₄}&#45;label</text>
<text xml:space="preserve" text-anchor="middle" x="631.01" y="-220.7" font-family="Helvetica,sans-Serif" font-size="9.00">would form</text>
<text xml:space="preserve" text-anchor="middle" x="631.01" y="-209.45" font-family="Helvetica,sans-Serif" font-size="9.00">{h₁,h₂,h₃,h₄}</text>
</g>
<!-- nogood_emit -->
<g id="node25" class="node">
<title>nogood_emit</title>
<polygon fill="mistyrose" stroke="black" stroke-dasharray="5,2" points="1285.5,-453.75 1014.5,-453.75 1014.5,-394 1291.5,-394 1291.5,-447.75 1285.5,-453.75"/>
<polyline fill="none" stroke="black" stroke-dasharray="5,2" points="1285.5,-453.75 1285.5,-447.75"/>
<polyline fill="none" stroke="black" stroke-dasharray="5,2" points="1291.5,-447.75 1285.5,-447.75"/>
<text xml:space="preserve" text-anchor="middle" x="1153" y="-436.45" font-family="Helvetica,sans-Serif" font-size="14.00">root._nogoods += frozenset({h₂, h₃})</text>
<text xml:space="preserve" text-anchor="middle" x="1153" y="-419.2" font-family="Helvetica,sans-Serif" font-size="14.00">future layers&#39; candidates containing</text>
<text xml:space="preserve" text-anchor="middle" x="1153" y="-401.95" font-family="Helvetica,sans-Serif" font-size="14.00">both h₂ and h₃ are filtered out</text>
</g>
<!-- L2_h2h3_kb&#45;&gt;nogood_emit -->
<g id="edge29" class="edge">
<title>L2_h2h3_kb&#45;&gt;nogood_emit</title>
<path fill="none" stroke="red" stroke-dasharray="1,5" d="M748.12,-454.12C765.45,-463.3 780,-471 780,-471 780,-471 835.88,-488.46 835.88,-488.46 835.88,-488.46 856.12,-488.46 856.12,-488.46 856.12,-488.46 1005,-471 1005,-471 1005,-471 1023.36,-465.16 1047.14,-457.58"/>
<polygon fill="red" stroke="red" points="1048.1,-460.95 1056.57,-454.58 1045.98,-454.28 1048.1,-460.95"/>
<text xml:space="preserve" text-anchor="middle" x="846" y="-491.7" font-family="Helvetica,sans-Serif" font-size="9.00">emit</text>
</g>
<!-- L3_h2h3h4_pruned -->
<g id="node27" class="node">
<title>L3_h2h3h4_pruned</title>
<path fill="lightgrey" stroke="black" stroke-dasharray="5,2" d="M1153.25,-318.25C1153.25,-318.25 1024.75,-318.25 1024.75,-318.25 1018.75,-318.25 1012.75,-312.25 1012.75,-306.25 1012.75,-306.25 1012.75,-270.5 1012.75,-270.5 1012.75,-264.5 1018.75,-258.5 1024.75,-258.5 1024.75,-258.5 1153.25,-258.5 1153.25,-258.5 1159.25,-258.5 1165.25,-264.5 1165.25,-270.5 1165.25,-270.5 1165.25,-306.25 1165.25,-306.25 1165.25,-312.25 1159.25,-318.25 1153.25,-318.25"/>
<text xml:space="preserve" text-anchor="middle" x="1089" y="-300.95" font-family="Helvetica,sans-Serif" font-size="14.00">{h₂, h₃, h₄}</text>
<text xml:space="preserve" text-anchor="middle" x="1089" y="-283.7" font-family="Helvetica,sans-Serif" font-size="14.00">— pruned at gen —</text>
<text xml:space="preserve" text-anchor="middle" x="1089" y="-266.45" font-family="Helvetica,sans-Serif" font-size="14.00">nogood match</text>
</g>
<!-- L2_h2h4_kb&#45;&gt;L3_h2h3h4_pruned -->
<g id="edge38" class="edge">
<title>L2_h2h4_kb&#45;&gt;L3_h2h3h4_pruned</title>
<path fill="none" stroke="#888888" stroke-dasharray="5,2" d="M967.3,-405.42C988.26,-385.44 1023.18,-352.13 1050.26,-326.32"/>
<polygon fill="#888888" stroke="#888888" points="1052.47,-329.05 1057.29,-319.61 1047.64,-323.98 1052.47,-329.05"/>
<text xml:space="preserve" text-anchor="middle" x="1065.22" y="-350.2" font-family="Helvetica,sans-Serif" font-size="9.00">would form</text>
<text xml:space="preserve" text-anchor="middle" x="1065.22" y="-338.95" font-family="Helvetica,sans-Serif" font-size="9.00">{h₂,h₃,h₄}</text>
</g>
<!-- L2_h2h4_kb&#45;&gt;L3_h1h2h4 -->
<g id="edge34" class="edge">
<title>L2_h2h4_kb&#45;&gt;L3_h1h2h4</title>
<path fill="none" stroke="black" d="M941.89,-405.76C931.4,-380.52 913,-336.25 913,-336.25 913,-336.25 833,-318.25 833,-318.25 833,-318.25 816.66,-313.23 797.6,-307.38"/>
<polygon fill="black" stroke="black" points="798.86,-304.1 788.27,-304.51 796.8,-310.79 798.86,-304.1"/>
<text xml:space="preserve" text-anchor="middle" x="930.32" y="-344.57" font-family="Helvetica,sans-Serif" font-size="9.00">+h₁</text>
</g>
<!-- L2_h3h4_kb&#45;&gt;L3_h1h3h4 -->
<g id="edge36" class="edge">
<title>L2_h3h4_kb&#45;&gt;L3_h1h3h4</title>
<path fill="none" stroke="black" d="M230.36,-405.69C220.8,-386.7 206.75,-358.75 206.75,-358.75 206.75,-358.75 206.75,-336.25 206.75,-336.25 206.75,-336.25 228.05,-324.26 249.1,-312.4"/>
<polygon fill="black" stroke="black" points="250.69,-315.53 257.68,-307.57 247.25,-309.43 250.69,-315.53"/>
<text xml:space="preserve" text-anchor="middle" x="215.38" y="-344.57" font-family="Helvetica,sans-Serif" font-size="9.00">+h₁</text>
</g>
<!-- nogood_emit&#45;&gt;L3_h1h2h3_pruned -->
<g id="edge39" class="edge">
<title>nogood_emit&#45;&gt;L3_h1h2h3_pruned</title>
<path fill="none" stroke="red" stroke-dasharray="1,5" d="M1058.85,-393.53C1029.66,-384.44 1005,-376.75 1005,-376.75 1005,-376.75 279,-358.75 279,-358.75 279,-358.75 279,-336.25 279,-336.25 279,-336.25 795,-318.25 795,-318.25 795,-318.25 810.44,-314.63 830.38,-309.94"/>
<polygon fill="red" stroke="red" points="831.09,-313.37 840.03,-307.68 829.49,-306.56 831.09,-313.37"/>
<text xml:space="preserve" text-anchor="middle" x="289.5" y="-344.57" font-family="Helvetica,sans-Serif" font-size="9.00">filter</text>
</g>
<!-- nogood_emit&#45;&gt;L3_h2h3h4_pruned -->
<g id="edge40" class="edge">
<title>nogood_emit&#45;&gt;L3_h2h3h4_pruned</title>
<path fill="none" stroke="red" stroke-dasharray="1,5" d="M1058.85,-393.53C1029.66,-384.44 1005,-376.75 1005,-376.75 1005,-376.75 422,-358.75 422,-358.75 422,-358.75 422,-336.25 422,-336.25 422,-336.25 918.91,-320.86 1001.18,-316.01"/>
<polygon fill="red" stroke="red" points="1001.35,-319.51 1011.02,-315.18 1000.76,-312.53 1001.35,-319.51"/>
<text xml:space="preserve" text-anchor="middle" x="432.5" y="-344.57" font-family="Helvetica,sans-Serif" font-size="9.00">filter</text>
</g>
<!-- nogood_emit&#45;&gt;L4_pruned -->
<g id="edge43" class="edge">
<title>nogood_emit&#45;&gt;L4_pruned</title>
<path fill="none" stroke="red" stroke-dasharray="1,5" d="M1058.85,-393.53C1029.66,-384.44 1005,-376.75 1005,-376.75 1005,-376.75 604,-358.75 604,-358.75 604,-358.75 604,-336.25 604,-336.25 604,-336.25 795,-318.25 795,-318.25 795,-318.25 795,-258.5 795,-258.5 795,-258.5 730,-240.5 730,-240.5 730,-240.5 696,-188.75 696,-188.75 696,-188.75 666.8,-143.13 641.67,-103.86"/>
<polygon fill="red" stroke="red" points="644.87,-102.37 636.53,-95.84 638.98,-106.14 644.87,-102.37"/>
<text xml:space="preserve" text-anchor="middle" x="740.5" y="-220.7" font-family="Helvetica,sans-Serif" font-size="9.00">filter</text>
</g>
<!-- L3_h1h2h4_kb -->
<g id="node30" class="node">
<title>L3_h1h2h4_kb</title>
<polygon fill="palegreen" stroke="black" points="812.75,-188.75 705.25,-188.75 705.25,-152.75 818.75,-152.75 818.75,-182.75 812.75,-188.75"/>
<polyline fill="none" stroke="black" points="812.75,-188.75 812.75,-182.75"/>
<polyline fill="none" stroke="black" points="818.75,-182.75 812.75,-182.75"/>
<text xml:space="preserve" text-anchor="middle" x="762" y="-166.07" font-family="Helvetica,sans-Serif" font-size="14.00">kb({h₁,h₂,h₄})</text>
</g>
<!-- L3_h1h2h4&#45;&gt;L3_h1h2h4_kb -->
<g id="edge30" class="edge">
<title>L3_h1h2h4&#45;&gt;L3_h1h2h4_kb</title>
<path fill="none" stroke="gray" stroke-dasharray="5,2" d="M744.96,-269.92C749.51,-256.59 755,-240.5 755,-240.5 755,-240.5 757.17,-219.22 759.09,-200.33"/>
<polygon fill="gray" stroke="gray" points="762.55,-200.91 760.08,-190.6 755.59,-200.2 762.55,-200.91"/>
<text xml:space="preserve" text-anchor="middle" x="765.04" y="-220.7" font-family="Helvetica,sans-Serif" font-size="9.00">sat</text>
</g>
<!-- L3_h1h3h4&#45;&gt;L2_merged_kb -->
<g id="edge31" class="edge">
<title>L3_h1h3h4&#45;&gt;L2_merged_kb</title>
<path fill="none" stroke="#cc5500" stroke-dasharray="5,2" d="M294.94,-306.52C300.87,-327.07 310,-358.75 310,-358.75 310,-358.75 323.16,-364.19 341.81,-371.91"/>
<polygon fill="#cc5500" stroke="#cc5500" points="340.38,-375.11 350.96,-375.69 343.05,-368.64 340.38,-375.11"/>
<text xml:space="preserve" text-anchor="middle" x="364" y="-344.57" font-family="Helvetica,sans-Serif" font-size="9.00">sat [dedup! cross&#45;layer]</text>
</g>
<!-- L3_h1h2h4_kb&#45;&gt;L4_pruned -->
<g id="edge41" class="edge">
<title>L3_h1h2h4_kb&#45;&gt;L4_pruned</title>
<path fill="none" stroke="#888888" stroke-dasharray="5,2" d="M739.65,-152.32C722.54,-138.99 697.98,-119.84 674.57,-101.59"/>
<polygon fill="#888888" stroke="#888888" points="676.91,-98.97 666.87,-95.58 672.6,-104.49 676.91,-98.97"/>
<text xml:space="preserve" text-anchor="middle" x="751.53" y="-126.2" font-family="Helvetica,sans-Serif" font-size="9.00">+h₃ would form</text>
<text xml:space="preserve" text-anchor="middle" x="751.53" y="-114.95" font-family="Helvetica,sans-Serif" font-size="9.00">{h₁,h₂,h₃,h₄}</text>
</g>
</g>
</svg>
