<?xml version="1.0" encoding="UTF-8" standalone="no"?>
<!DOCTYPE svg PUBLIC "-//W3C//DTD SVG 1.1//EN"
 "http://www.w3.org/Graphics/SVG/1.1/DTD/svg11.dtd">
<!-- Generated by graphviz version 14.1.5 (0)
 -->
<!-- Title: lattice_3hyps_no_dedup Pages: 1 -->
<svg width="458pt" height="634pt"
 viewBox="0.00 0.00 458.00 634.00" xmlns="http://www.w3.org/2000/svg" xmlns:xlink="http://www.w3.org/1999/xlink">
<g id="graph0" class="graph" transform="scale(1 1) rotate(0) translate(4 630.25)">
<title>lattice_3hyps_no_dedup</title>
<polygon fill="white" stroke="none" points="-4,4 -4,-630.25 454.38,-630.25 454.38,4 -4,4"/>
<text xml:space="preserve" text-anchor="middle" x="225.19" y="-609.9" font-family="Helvetica,sans-Serif" font-size="13.00">Search lattice over 3 hypotheses — no dedup</text>
<text xml:space="preserve" text-anchor="middle" x="225.19" y="-593.4" font-family="Helvetica,sans-Serif" font-size="13.00">every commitment ⟶ saturation ⟶ next&#45;layer commitment</text>
<g id="clust1" class="cluster">
<title>cluster_legend</title>
<polygon fill="none" stroke="gray" stroke-dasharray="5,2" points="8,-408.25 8,-577.25 131,-577.25 131,-408.25 8,-408.25"/>
<text xml:space="preserve" text-anchor="middle" x="69.5" y="-563.75" font-family="Helvetica,sans-Serif" font-size="10.00">Legend</text>
</g>
<!-- legend_commit -->
<g id="node1" class="node">
<title>legend_commit</title>
<path fill="lightblue" stroke="black" d="M107.88,-548.5C107.88,-548.5 28.12,-548.5 28.12,-548.5 22.12,-548.5 16.12,-542.5 16.12,-536.5 16.12,-536.5 16.12,-518 16.12,-518 16.12,-512 22.12,-506 28.12,-506 28.12,-506 107.88,-506 107.88,-506 113.88,-506 119.88,-512 119.88,-518 119.88,-518 119.88,-536.5 119.88,-536.5 119.88,-542.5 113.88,-548.5 107.88,-548.5"/>
<text xml:space="preserve" text-anchor="middle" x="68" y="-531.2" font-family="Helvetica,sans-Serif" font-size="14.00">commitment</text>
<text xml:space="preserve" text-anchor="middle" x="68" y="-513.95" font-family="Helvetica,sans-Serif" font-size="14.00">set (raw)</text>
</g>
<!-- legend_kb -->
<g id="node2" class="node">
<title>legend_kb</title>
<polygon fill="palegreen" stroke="black" points="92.38,-458.75 15.62,-458.75 15.62,-416.25 98.38,-416.25 98.38,-452.75 92.38,-458.75"/>
<polyline fill="none" stroke="black" points="92.38,-458.75 92.38,-452.75"/>
<polyline fill="none" stroke="black" points="98.38,-452.75 92.38,-452.75"/>
<text xml:space="preserve" text-anchor="middle" x="57" y="-441.45" font-family="Helvetica,sans-Serif" font-size="14.00">saturated</text>
<text xml:space="preserve" text-anchor="middle" x="57" y="-424.2" font-family="Helvetica,sans-Serif" font-size="14.00">kb</text>
</g>
<!-- legend_commit&#45;&gt;legend_kb -->
<g id="edge1" class="edge">
<title>legend_commit&#45;&gt;legend_kb</title>
<path fill="none" stroke="gray" stroke-dasharray="5,2" d="M52.21,-505.78C45.2,-496.69 38.5,-488 38.5,-488 38.5,-488 38.5,-476.75 38.5,-476.75 38.5,-476.75 39.98,-473.69 42.11,-469.3"/>
<polygon fill="gray" stroke="gray" points="45.24,-470.86 46.44,-460.33 38.94,-467.81 45.24,-470.86"/>
<text xml:space="preserve" text-anchor="middle" x="51.25" y="-479.45" font-family="Helvetica,sans-Serif" font-size="9.00"> &#160;sat &#160;</text>
</g>
<!-- legend_kb&#45;&gt;legend_commit -->
<g id="edge2" class="edge">
<title>legend_kb&#45;&gt;legend_commit</title>
<path fill="none" stroke="black" d="M61.28,-458.97C63.18,-468.06 65,-476.75 65,-476.75 65,-476.75 65.48,-484.62 66.05,-494.08"/>
<polygon fill="black" stroke="black" points="62.55,-494.26 66.65,-504.03 69.54,-493.84 62.55,-494.26"/>
<text xml:space="preserve" text-anchor="middle" x="81.77" y="-479.45" font-family="Helvetica,sans-Serif" font-size="9.00"> &#160;+h_i &#160;</text>
</g>
<!-- L0_commit -->
<g id="node3" class="node">
<title>L0_commit</title>
<path fill="lightblue" stroke="black" d="M184,-545.25C184,-545.25 154,-545.25 154,-545.25 148,-545.25 142,-539.25 142,-533.25 142,-533.25 142,-521.25 142,-521.25 142,-515.25 148,-509.25 154,-509.25 154,-509.25 184,-509.25 184,-509.25 190,-509.25 196,-515.25 196,-521.25 196,-521.25 196,-533.25 196,-533.25 196,-539.25 190,-545.25 184,-545.25"/>
<text xml:space="preserve" text-anchor="middle" x="169" y="-522.58" font-family="Helvetica,sans-Serif" font-size="14.00">∅</text>
</g>
<!-- L0_kb -->
<g id="node4" class="node">
<title>L0_kb</title>
<polygon fill="palegreen" stroke="black" points="328.5,-548.5 243.5,-548.5 243.5,-506 334.5,-506 334.5,-542.5 328.5,-548.5"/>
<polyline fill="none" stroke="black" points="328.5,-548.5 328.5,-542.5"/>
<polyline fill="none" stroke="black" points="334.5,-542.5 328.5,-542.5"/>
<text xml:space="preserve" text-anchor="middle" x="289" y="-531.2" font-family="Helvetica,sans-Serif" font-size="14.00">kb(∅)</text>
<text xml:space="preserve" text-anchor="middle" x="289" y="-513.95" font-family="Helvetica,sans-Serif" font-size="14.00">= sat(root)</text>
</g>
<!-- L0_commit&#45;&gt;L0_kb -->
<g id="edge3" class="edge">
<title>L0_commit&#45;&gt;L0_kb</title>
<path fill="none" stroke="gray" stroke-dasharray="5,2" d="M196.23,-527.25C206.82,-527.25 219.37,-527.25 231.77,-527.25"/>
<polygon fill="gray" stroke="gray" points="231.53,-530.75 241.53,-527.25 231.53,-523.75 231.53,-530.75"/>
<text xml:space="preserve" text-anchor="middle" x="219.75" y="-532.95" font-family="Helvetica,sans-Serif" font-size="9.00"> &#160;sat &#160;</text>
</g>
<!-- L1_h1 -->
<g id="node5" class="node">
<title>L1_h1</title>
<path fill="lightblue" stroke="black" d="M222,-455.5C222,-455.5 192,-455.5 192,-455.5 186,-455.5 180,-449.5 180,-443.5 180,-443.5 180,-431.5 180,-431.5 180,-425.5 186,-419.5 192,-419.5 192,-419.5 222,-419.5 222,-419.5 228,-419.5 234,-425.5 234,-431.5 234,-431.5 234,-443.5 234,-443.5 234,-449.5 228,-455.5 222,-455.5"/>
<text xml:space="preserve" text-anchor="middle" x="207" y="-432.82" font-family="Helvetica,sans-Serif" font-size="14.00">{h₁}</text>
</g>
<!-- L0_kb&#45;&gt;L1_h1 -->
<g id="edge7" class="edge">
<title>L0_kb&#45;&gt;L1_h1</title>
<path fill="none" stroke="black" d="M269.98,-505.9C258.34,-493.44 243.34,-477.39 230.9,-464.07"/>
<polygon fill="black" stroke="black" points="233.57,-461.81 224.19,-456.89 228.46,-466.59 233.57,-461.81"/>
<text xml:space="preserve" text-anchor="middle" x="261.53" y="-479.45" font-family="Helvetica,sans-Serif" font-size="9.00">+h₁</text>
</g>
<!-- L1_h2 -->
<g id="node6" class="node">
<title>L1_h2</title>
<path fill="lightblue" stroke="black" d="M391,-455.5C391,-455.5 361,-455.5 361,-455.5 355,-455.5 349,-449.5 349,-443.5 349,-443.5 349,-431.5 349,-431.5 349,-425.5 355,-419.5 361,-419.5 361,-419.5 391,-419.5 391,-419.5 397,-419.5 403,-425.5 403,-431.5 403,-431.5 403,-443.5 403,-443.5 403,-449.5 397,-455.5 391,-455.5"/>
<text xml:space="preserve" text-anchor="middle" x="376" y="-432.82" font-family="Helvetica,sans-Serif" font-size="14.00">{h₂}</text>
</g>
<!-- L0_kb&#45;&gt;L1_h2 -->
<g id="edge8" class="edge">
<title>L0_kb&#45;&gt;L1_h2</title>
<path fill="none" stroke="black" d="M309.18,-505.9C321.65,-493.32 337.75,-477.08 351.02,-463.69"/>
<polygon fill="black" stroke="black" points="353.24,-466.42 357.8,-456.86 348.27,-461.5 353.24,-466.42"/>
<text xml:space="preserve" text-anchor="middle" x="346.33" y="-479.45" font-family="Helvetica,sans-Serif" font-size="9.00">+h₂</text>
</g>
<!-- L1_h3 -->
<g id="node7" class="node">
<title>L1_h3</title>
<path fill="lightblue" stroke="black" d="M304,-455.5C304,-455.5 274,-455.5 274,-455.5 268,-455.5 262,-449.5 262,-443.5 262,-443.5 262,-431.5 262,-431.5 262,-425.5 268,-419.5 274,-419.5 274,-419.5 304,-419.5 304,-419.5 310,-419.5 316,-425.5 316,-431.5 316,-431.5 316,-443.5 316,-443.5 316,-449.5 310,-455.5 304,-455.5"/>
<text xml:space="preserve" text-anchor="middle" x="289" y="-432.82" font-family="Helvetica,sans-Serif" font-size="14.00">{h₃}</text>
</g>
<!-- L0_kb&#45;&gt;L1_h3 -->
<g id="edge9" class="edge">
<title>L0_kb&#45;&gt;L1_h3</title>
<path fill="none" stroke="black" d="M289,-505.9C289,-494.39 289,-479.81 289,-467.16"/>
<polygon fill="black" stroke="black" points="292.5,-467.3 289,-457.3 285.5,-467.3 292.5,-467.3"/>
<text xml:space="preserve" text-anchor="middle" x="297.62" y="-479.45" font-family="Helvetica,sans-Serif" font-size="9.00">+h₃</text>
</g>
<!-- L1_h1_kb -->
<g id="node8" class="node">
<title>L1_h1_kb</title>
<polygon fill="palegreen" stroke="black" points="223,-369 153,-369 153,-333 229,-333 229,-363 223,-369"/>
<polyline fill="none" stroke="black" points="223,-369 223,-363"/>
<polyline fill="none" stroke="black" points="229,-363 223,-363"/>
<text xml:space="preserve" text-anchor="middle" x="191" y="-346.32" font-family="Helvetica,sans-Serif" font-size="14.00">kb({h₁})</text>
</g>
<!-- L1_h1&#45;&gt;L1_h1_kb -->
<g id="edge4" class="edge">
<title>L1_h1&#45;&gt;L1_h1_kb</title>
<path fill="none" stroke="gray" stroke-dasharray="5,2" d="M203.76,-419.4C201.65,-408.25 198.84,-393.42 196.4,-380.52"/>
<polygon fill="gray" stroke="gray" points="199.87,-380.03 194.57,-370.85 192.99,-381.33 199.87,-380.03"/>
<text xml:space="preserve" text-anchor="middle" x="212.23" y="-389.7" font-family="Helvetica,sans-Serif" font-size="9.00"> &#160;sat &#160;</text>
</g>
<!-- L1_h2_kb -->
<g id="node9" class="node">
<title>L1_h2_kb</title>
<polygon fill="palegreen" stroke="black" points="419,-369 349,-369 349,-333 425,-333 425,-363 419,-369"/>
<polyline fill="none" stroke="black" points="419,-369 419,-363"/>
<polyline fill="none" stroke="black" points="425,-363 419,-363"/>
<text xml:space="preserve" text-anchor="middle" x="387" y="-346.32" font-family="Helvetica,sans-Serif" font-size="14.00">kb({h₂})</text>
</g>
<!-- L1_h2&#45;&gt;L1_h2_kb -->
<g id="edge5" class="edge">
<title>L1_h2&#45;&gt;L1_h2_kb</title>
<path fill="none" stroke="gray" stroke-dasharray="5,2" d="M378.23,-419.4C379.68,-408.25 381.61,-393.42 383.29,-380.52"/>
<polygon fill="gray" stroke="gray" points="386.72,-381.23 384.54,-370.87 379.78,-380.33 386.72,-381.23"/>
<text xml:space="preserve" text-anchor="middle" x="394.91" y="-389.7" font-family="Helvetica,sans-Serif" font-size="9.00"> &#160;sat &#160;</text>
</g>
<!-- L1_h3_kb -->
<g id="node10" class="node">
<title>L1_h3_kb</title>
<polygon fill="palegreen" stroke="black" points="321,-369 251,-369 251,-333 327,-333 327,-363 321,-369"/>
<polyline fill="none" stroke="black" points="321,-369 321,-363"/>
<polyline fill="none" stroke="black" points="327,-363 321,-363"/>
<text xml:space="preserve" text-anchor="middle" x="289" y="-346.32" font-family="Helvetica,sans-Serif" font-size="14.00">kb({h₃})</text>
</g>
<!-- L1_h3&#45;&gt;L1_h3_kb -->
<g id="edge6" class="edge">
<title>L1_h3&#45;&gt;L1_h3_kb</title>
<path fill="none" stroke="gray" stroke-dasharray="5,2" d="M289,-419.4C289,-408.25 289,-393.42 289,-380.52"/>
<polygon fill="gray" stroke="gray" points="292.5,-380.88 289,-370.88 285.5,-380.88 292.5,-380.88"/>
<text xml:space="preserve" text-anchor="middle" x="301.75" y="-389.7" font-family="Helvetica,sans-Serif" font-size="9.00"> &#160;sat &#160;</text>
</g>
<!-- L2_h1h2 -->
<g id="node11" class="node">
<title>L2_h1h2</title>
<path fill="lightblue" stroke="black" d="M309.75,-285.75C309.75,-285.75 262.25,-285.75 262.25,-285.75 256.25,-285.75 250.25,-279.75 250.25,-273.75 250.25,-273.75 250.25,-261.75 250.25,-261.75 250.25,-255.75 256.25,-249.75 262.25,-249.75 262.25,-249.75 309.75,-249.75 309.75,-249.75 315.75,-249.75 321.75,-255.75 321.75,-261.75 321.75,-261.75 321.75,-273.75 321.75,-273.75 321.75,-279.75 315.75,-285.75 309.75,-285.75"/>
<text xml:space="preserve" text-anchor="middle" x="286" y="-263.07" font-family="Helvetica,sans-Serif" font-size="14.00">{h₁, h₂}</text>
</g>
<!-- L1_h1_kb&#45;&gt;L2_h1h2 -->
<g id="edge13" class="edge">
<title>L1_h1_kb&#45;&gt;L2_h1h2</title>
<path fill="none" stroke="black" d="M203,-332.51C211.99,-319.42 222.75,-303.75 222.75,-303.75 222.75,-303.75 232.6,-298.3 244.52,-291.7"/>
<polygon fill="black" stroke="black" points="246,-294.89 253.05,-286.98 242.61,-288.76 246,-294.89"/>
<text xml:space="preserve" text-anchor="middle" x="231.38" y="-306.45" font-family="Helvetica,sans-Serif" font-size="9.00">+h₂</text>
</g>
<!-- L2_h1h3 -->
<g id="node12" class="node">
<title>L2_h1h3</title>
<path fill="lightblue" stroke="black" d="M202.75,-285.75C202.75,-285.75 155.25,-285.75 155.25,-285.75 149.25,-285.75 143.25,-279.75 143.25,-273.75 143.25,-273.75 143.25,-261.75 143.25,-261.75 143.25,-255.75 149.25,-249.75 155.25,-249.75 155.25,-249.75 202.75,-249.75 202.75,-249.75 208.75,-249.75 214.75,-255.75 214.75,-261.75 214.75,-261.75 214.75,-273.75 214.75,-273.75 214.75,-279.75 208.75,-285.75 202.75,-285.75"/>
<text xml:space="preserve" text-anchor="middle" x="179" y="-263.07" font-family="Helvetica,sans-Serif" font-size="14.00">{h₁, h₃}</text>
</g>
<!-- L1_h1_kb&#45;&gt;L2_h1h3 -->
<g id="edge15" class="edge">
<title>L1_h1_kb&#45;&gt;L2_h1h3</title>
<path fill="none" stroke="black" d="M184.88,-332.5C181.81,-323.75 178.75,-315 178.75,-315 178.75,-315 178.75,-303.75 178.75,-303.75 178.75,-303.75 178.77,-301.28 178.79,-297.65"/>
<polygon fill="black" stroke="black" points="182.29,-297.79 178.86,-287.76 175.29,-297.74 182.29,-297.79"/>
<text xml:space="preserve" text-anchor="middle" x="187.38" y="-306.45" font-family="Helvetica,sans-Serif" font-size="9.00">+h₃</text>
</g>
<!-- L1_h2_kb&#45;&gt;L2_h1h2 -->
<g id="edge14" class="edge">
<title>L1_h2_kb&#45;&gt;L2_h1h2</title>
<path fill="none" stroke="black" d="M365.58,-332.77C351.35,-321.32 332.44,-306.11 316.63,-293.39"/>
<polygon fill="black" stroke="black" points="318.9,-290.73 308.92,-287.19 314.51,-296.18 318.9,-290.73"/>
<text xml:space="preserve" text-anchor="middle" x="351.17" y="-306.45" font-family="Helvetica,sans-Serif" font-size="9.00">+h₁</text>
</g>
<!-- L2_h2h3 -->
<g id="node13" class="node">
<title>L2_h2h3</title>
<path fill="lightblue" stroke="black" d="M422.75,-285.75C422.75,-285.75 375.25,-285.75 375.25,-285.75 369.25,-285.75 363.25,-279.75 363.25,-273.75 363.25,-273.75 363.25,-261.75 363.25,-261.75 363.25,-255.75 369.25,-249.75 375.25,-249.75 375.25,-249.75 422.75,-249.75 422.75,-249.75 428.75,-249.75 434.75,-255.75 434.75,-261.75 434.75,-261.75 434.75,-273.75 434.75,-273.75 434.75,-279.75 428.75,-285.75 422.75,-285.75"/>
<text xml:space="preserve" text-anchor="middle" x="399" y="-263.07" font-family="Helvetica,sans-Serif" font-size="14.00">{h₂, h₃}</text>
</g>
<!-- L1_h2_kb&#45;&gt;L2_h2h3 -->
<g id="edge17" class="edge">
<title>L1_h2_kb&#45;&gt;L2_h2h3</title>
<path fill="none" stroke="black" d="M389.54,-332.77C391.06,-322.5 393.03,-309.2 394.77,-297.39"/>
<polygon fill="black" stroke="black" points="398.2,-298.14 396.2,-287.73 391.27,-297.11 398.2,-298.14"/>
<text xml:space="preserve" text-anchor="middle" x="402.34" y="-306.45" font-family="Helvetica,sans-Serif" font-size="9.00">+h₃</text>
</g>
<!-- L1_h3_kb&#45;&gt;L2_h1h3 -->
<g id="edge16" class="edge">
<title>L1_h3_kb&#45;&gt;L2_h1h3</title>
<path fill="none" stroke="black" d="M270.85,-332.51C257.26,-319.42 241,-303.75 241,-303.75 241,-303.75 231.54,-298.41 220.01,-291.9"/>
<polygon fill="black" stroke="black" points="221.75,-288.86 211.32,-286.99 218.31,-294.96 221.75,-288.86"/>
<text xml:space="preserve" text-anchor="middle" x="261.22" y="-306.45" font-family="Helvetica,sans-Serif" font-size="9.00">+h₁</text>
</g>
<!-- L1_h3_kb&#45;&gt;L2_h2h3 -->
<g id="edge18" class="edge">
<title>L1_h3_kb&#45;&gt;L2_h2h3</title>
<path fill="none" stroke="black" d="M296.09,-332.51C301.4,-319.42 307.75,-303.75 307.75,-303.75 307.75,-303.75 329.87,-295.27 352.33,-286.65"/>
<polygon fill="black" stroke="black" points="353.44,-289.97 361.52,-283.12 350.93,-283.44 353.44,-289.97"/>
<text xml:space="preserve" text-anchor="middle" x="316.38" y="-306.45" font-family="Helvetica,sans-Serif" font-size="9.00">+h₂</text>
</g>
<!-- L2_h1h2_kb -->
<g id="node14" class="node">
<title>L2_h1h2_kb</title>
<polygon fill="palegreen" stroke="black" points="327.38,-202.5 238.62,-202.5 238.62,-166.5 333.38,-166.5 333.38,-196.5 327.38,-202.5"/>
<polyline fill="none" stroke="black" points="327.38,-202.5 327.38,-196.5"/>
<polyline fill="none" stroke="black" points="333.38,-196.5 327.38,-196.5"/>
<text xml:space="preserve" text-anchor="middle" x="286" y="-179.82" font-family="Helvetica,sans-Serif" font-size="14.00">kb({h₁,h₂})</text>
</g>
<!-- L2_h1h2&#45;&gt;L2_h1h2_kb -->
<g id="edge10" class="edge">
<title>L2_h1h2&#45;&gt;L2_h1h2_kb</title>
<path fill="none" stroke="gray" stroke-dasharray="5,2" d="M286,-249.52C286,-239.25 286,-225.95 286,-214.14"/>
<polygon fill="gray" stroke="gray" points="289.5,-214.5 286,-204.5 282.5,-214.5 289.5,-214.5"/>
<text xml:space="preserve" text-anchor="middle" x="298.75" y="-223.2" font-family="Helvetica,sans-Serif" font-size="9.00"> &#160;sat &#160;</text>
</g>
<!-- L2_h1h3_kb -->
<g id="node15" class="node">
<title>L2_h1h3_kb</title>
<polygon fill="palegreen" stroke="black" points="210.38,-202.5 121.62,-202.5 121.62,-166.5 216.38,-166.5 216.38,-196.5 210.38,-202.5"/>
<polyline fill="none" stroke="black" points="210.38,-202.5 210.38,-196.5"/>
<polyline fill="none" stroke="black" points="216.38,-196.5 210.38,-196.5"/>
<text xml:space="preserve" text-anchor="middle" x="169" y="-179.82" font-family="Helvetica,sans-Serif" font-size="14.00">kb({h₁,h₃})</text>
</g>
<!-- L2_h1h3&#45;&gt;L2_h1h3_kb -->
<g id="edge11" class="edge">
<title>L2_h1h3&#45;&gt;L2_h1h3_kb</title>
<path fill="none" stroke="gray" stroke-dasharray="5,2" d="M176.88,-249.52C175.62,-239.25 173.98,-225.95 172.52,-214.14"/>
<polygon fill="gray" stroke="gray" points="176.03,-213.99 171.34,-204.49 169.08,-214.84 176.03,-213.99"/>
<text xml:space="preserve" text-anchor="middle" x="187.35" y="-223.2" font-family="Helvetica,sans-Serif" font-size="9.00"> &#160;sat &#160;</text>
</g>
<!-- L2_h2h3_kb -->
<g id="node16" class="node">
<title>L2_h2h3_kb</title>
<polygon fill="palegreen" stroke="black" points="444.38,-202.5 355.62,-202.5 355.62,-166.5 450.38,-166.5 450.38,-196.5 444.38,-202.5"/>
<polyline fill="none" stroke="black" points="444.38,-202.5 444.38,-196.5"/>
<polyline fill="none" stroke="black" points="450.38,-196.5 444.38,-196.5"/>
<text xml:space="preserve" text-anchor="middle" x="403" y="-179.82" font-family="Helvetica,sans-Serif" font-size="14.00">kb({h₂,h₃})</text>
</g>
<!-- L2_h2h3&#45;&gt;L2_h2h3_kb -->
<g id="edge12" class="edge">
<title>L2_h2h3&#45;&gt;L2_h2h3_kb</title>
<path fill="none" stroke="gray" stroke-dasharray="5,2" d="M399.85,-249.52C400.35,-239.25 401.01,-225.95 401.59,-214.14"/>
<polygon fill="gray" stroke="gray" points="405.07,-214.66 402.06,-204.5 398.08,-214.31 405.07,-214.66"/>
<text xml:space="preserve" text-anchor="middle" x="413.99" y="-223.2" font-family="Helvetica,sans-Serif" font-size="9.00"> &#160;sat &#160;</text>
</g>
<!-- L3 -->
<g id="node17" class="node">
<title>L3</title>
<path fill="lightblue" stroke="black" d="M321.38,-119.25C321.38,-119.25 250.62,-119.25 250.62,-119.25 244.62,-119.25 238.62,-113.25 238.62,-107.25 238.62,-107.25 238.62,-95.25 238.62,-95.25 238.62,-89.25 244.62,-83.25 250.62,-83.25 250.62,-83.25 321.38,-83.25 321.38,-83.25 327.38,-83.25 333.38,-89.25 333.38,-95.25 333.38,-95.25 333.38,-107.25 333.38,-107.25 333.38,-113.25 327.38,-119.25 321.38,-119.25"/>
<text xml:space="preserve" text-anchor="middle" x="286" y="-96.58" font-family="Helvetica,sans-Serif" font-size="14.00">{h₁, h₂, h₃}</text>
</g>
<!-- L2_h1h2_kb&#45;&gt;L3 -->
<g id="edge20" class="edge">
<title>L2_h1h2_kb&#45;&gt;L3</title>
<path fill="none" stroke="black" d="M286,-166.27C286,-156 286,-142.7 286,-130.89"/>
<polygon fill="black" stroke="black" points="289.5,-131.25 286,-121.25 282.5,-131.25 289.5,-131.25"/>
<text xml:space="preserve" text-anchor="middle" x="294.62" y="-139.95" font-family="Helvetica,sans-Serif" font-size="9.00">+h₃</text>
</g>
<!-- L2_h1h3_kb&#45;&gt;L3 -->
<g id="edge21" class="edge">
<title>L2_h1h3_kb&#45;&gt;L3</title>
<path fill="none" stroke="black" d="M194.1,-166.07C210.91,-154.4 233.25,-138.88 251.7,-126.07"/>
<polygon fill="black" stroke="black" points="253.48,-129.09 259.7,-120.51 249.49,-123.34 253.48,-129.09"/>
<text xml:space="preserve" text-anchor="middle" x="243.13" y="-139.95" font-family="Helvetica,sans-Serif" font-size="9.00">+h₂</text>
</g>
<!-- L2_h2h3_kb&#45;&gt;L3 -->
<g id="edge22" class="edge">
<title>L2_h2h3_kb&#45;&gt;L3</title>
<path fill="none" stroke="black" d="M377.9,-166.07C361.09,-154.4 338.75,-138.88 320.3,-126.07"/>
<polygon fill="black" stroke="black" points="322.51,-123.34 312.3,-120.51 318.52,-129.09 322.51,-123.34"/>
<text xml:space="preserve" text-anchor="middle" x="360.13" y="-139.95" font-family="Helvetica,sans-Serif" font-size="9.00">+h₁</text>
</g>
<!-- L3_kb -->
<g id="node18" class="node">
<title>L3_kb</title>
<polygon fill="palegreen" stroke="black" points="336.75,-36 229.25,-36 229.25,0 342.75,0 342.75,-30 336.75,-36"/>
<polyline fill="none" stroke="black" points="336.75,-36 336.75,-30"/>
<polyline fill="none" stroke="black" points="342.75,-30 336.75,-30"/>
<text xml:space="preserve" text-anchor="middle" x="286" y="-13.32" font-family="Helvetica,sans-Serif" font-size="14.00">kb({h₁,h₂,h₃})</text>
</g>
<!-- L3&#45;&gt;L3_kb -->
<g id="edge19" class="edge">
<title>L3&#45;&gt;L3_kb</title>
<path fill="none" stroke="gray" stroke-dasharray="5,2" d="M286,-83.02C286,-72.75 286,-59.45 286,-47.64"/>
<polygon fill="gray" stroke="gray" points="289.5,-48 286,-38 282.5,-48 289.5,-48"/>
<text xml:space="preserve" text-anchor="middle" x="298.75" y="-56.7" font-family="Helvetica,sans-Serif" font-size="9.00"> &#160;sat &#160;</text>
</g>
</g>
</svg>
