<?xml version="1.0" encoding="UTF-8" standalone="no"?>
<!DOCTYPE svg PUBLIC "-//W3C//DTD SVG 1.1//EN"
 "http://www.w3.org/Graphics/SVG/1.1/DTD/svg11.dtd">
<!-- Generated by graphviz version 14.1.5 (0)
 -->
<!-- Title: lattice_3hyps_contradiction Pages: 1 -->
<svg width="787pt" height="668pt"
 viewBox="0.00 0.00 787.00 668.00" xmlns="http://www.w3.org/2000/svg" xmlns:xlink="http://www.w3.org/1999/xlink">
<g id="graph0" class="graph" transform="scale(1 1) rotate(0) translate(4 664.25)">
<title>lattice_3hyps_contradiction</title>
<polygon fill="white" stroke="none" points="-4,4 -4,-664.25 783.38,-664.25 783.38,4 -4,4"/>
<text xml:space="preserve" text-anchor="middle" x="389.69" y="-644.85" font-family="Helvetica,sans-Serif" font-size="12.00">Search lattice over 3 hypotheses — 2&#45;clause death at layer 2</text>
<text xml:space="preserve" text-anchor="middle" x="389.69" y="-630.6" font-family="Helvetica,sans-Serif" font-size="12.00">{h₁, h₂} dies → root._nogoods += frozenset({h₁, h₂}) → {h₁,h₂,h₃} pruned at layer&#45;3 gen</text>
<g id="clust1" class="cluster">
<title>cluster_legend</title>
<polygon fill="none" stroke="gray" stroke-dasharray="5,2" points="8,-429.5 8,-615.75 432,-615.75 432,-429.5 8,-429.5"/>
<text xml:space="preserve" text-anchor="middle" x="220" y="-602.25" font-family="Helvetica,sans-Serif" font-size="10.00">Legend</text>
</g>
<!-- legend_commit -->
<g id="node1" class="node">
<title>legend_commit</title>
<path fill="lightblue" stroke="black" d="M107.88,-578.38C107.88,-578.38 28.12,-578.38 28.12,-578.38 22.12,-578.38 16.12,-572.38 16.12,-566.38 16.12,-566.38 16.12,-547.88 16.12,-547.88 16.12,-541.88 22.12,-535.88 28.12,-535.88 28.12,-535.88 107.88,-535.88 107.88,-535.88 113.88,-535.88 119.88,-541.88 119.88,-547.88 119.88,-547.88 119.88,-566.38 119.88,-566.38 119.88,-572.38 113.88,-578.38 107.88,-578.38"/>
<text xml:space="preserve" text-anchor="middle" x="68" y="-561.08" font-family="Helvetica,sans-Serif" font-size="14.00">commitment</text>
<text xml:space="preserve" text-anchor="middle" x="68" y="-543.83" font-family="Helvetica,sans-Serif" font-size="14.00">set (raw)</text>
</g>
<!-- legend_kb -->
<g id="node2" class="node">
<title>legend_kb</title>
<polygon fill="palegreen" stroke="black" points="103.38,-480 26.62,-480 26.62,-437.5 109.38,-437.5 109.38,-474 103.38,-480"/>
<polyline fill="none" stroke="black" points="103.38,-480 103.38,-474"/>
<polyline fill="none" stroke="black" points="109.38,-474 103.38,-474"/>
<text xml:space="preserve" text-anchor="middle" x="68" y="-462.7" font-family="Helvetica,sans-Serif" font-size="14.00">saturated</text>
<text xml:space="preserve" text-anchor="middle" x="68" y="-445.45" font-family="Helvetica,sans-Serif" font-size="14.00">kb (alive)</text>
</g>
<!-- legend_commit&#45;&gt;legend_kb -->
<g id="edge1" class="edge">
<title>legend_commit&#45;&gt;legend_kb</title>
<path fill="none" stroke="gray" stroke-dasharray="5,2" d="M68,-535.69C68,-523 68,-506.41 68,-491.98"/>
<polygon fill="gray" stroke="gray" points="71.5,-492 68,-482 64.5,-492.01 71.5,-492"/>
<text xml:space="preserve" text-anchor="middle" x="80.75" y="-500.7" font-family="Helvetica,sans-Serif" font-size="9.00"> &#160;sat &#160;</text>
</g>
<!-- legend_kb&#45;&gt;legend_commit -->
<g id="edge2" class="edge">
<title>legend_kb&#45;&gt;legend_commit</title>
<path fill="none" stroke="black" d="M84.05,-480.22C91.19,-489.31 98,-498 98,-498 98,-498 98,-509.25 98,-509.25 98,-509.25 93.2,-516.75 87.44,-525.76"/>
<polygon fill="black" stroke="black" points="84.5,-523.84 82.06,-534.15 90.4,-527.62 84.5,-523.84"/>
<text xml:space="preserve" text-anchor="middle" x="114.12" y="-500.7" font-family="Helvetica,sans-Serif" font-size="9.00"> &#160;+h_i &#160;</text>
</g>
<!-- legend_dead -->
<g id="node3" class="node">
<title>legend_dead</title>
<polygon fill="salmon" stroke="black" points="253.62,-578.38 142.38,-578.38 142.38,-535.88 259.62,-535.88 259.62,-572.38 253.62,-578.38"/>
<polyline fill="none" stroke="black" points="253.62,-578.38 253.62,-572.38"/>
<polyline fill="none" stroke="black" points="259.62,-572.38 253.62,-572.38"/>
<text xml:space="preserve" text-anchor="middle" x="201" y="-561.08" font-family="Helvetica,sans-Serif" font-size="14.00">dead kb</text>
<text xml:space="preserve" text-anchor="middle" x="201" y="-543.83" font-family="Helvetica,sans-Serif" font-size="14.00">(contradiction)</text>
</g>
<!-- legend_pruned -->
<g id="node4" class="node">
<title>legend_pruned</title>
<path fill="lightgrey" stroke="black" stroke-dasharray="5,2" d="M412,-587C412,-587 294,-587 294,-587 288,-587 282,-581 282,-575 282,-575 282,-539.25 282,-539.25 282,-533.25 288,-527.25 294,-527.25 294,-527.25 412,-527.25 412,-527.25 418,-527.25 424,-533.25 424,-539.25 424,-539.25 424,-575 424,-575 424,-581 418,-587 412,-587"/>
<text xml:space="preserve" text-anchor="middle" x="353" y="-569.7" font-family="Helvetica,sans-Serif" font-size="14.00">pruned —</text>
<text xml:space="preserve" text-anchor="middle" x="353" y="-552.45" font-family="Helvetica,sans-Serif" font-size="14.00">never forked</text>
<text xml:space="preserve" text-anchor="middle" x="353" y="-535.2" font-family="Helvetica,sans-Serif" font-size="14.00">(matches nogood)</text>
</g>
<!-- L0_kb -->
<g id="node5" class="node">
<title>L0_kb</title>
<polygon fill="palegreen" stroke="black" points="588.5,-578.38 503.5,-578.38 503.5,-535.88 594.5,-535.88 594.5,-572.38 588.5,-578.38"/>
<polyline fill="none" stroke="black" points="588.5,-578.38 588.5,-572.38"/>
<polyline fill="none" stroke="black" points="594.5,-572.38 588.5,-572.38"/>
<text xml:space="preserve" text-anchor="middle" x="549" y="-561.08" font-family="Helvetica,sans-Serif" font-size="14.00">kb(∅)</text>
<text xml:space="preserve" text-anchor="middle" x="549" y="-543.83" font-family="Helvetica,sans-Serif" font-size="14.00">= sat(root)</text>
</g>
<!-- L1_h1 -->
<g id="node6" class="node">
<title>L1_h1</title>
<path fill="lightblue" stroke="black" d="M564,-476.75C564,-476.75 534,-476.75 534,-476.75 528,-476.75 522,-470.75 522,-464.75 522,-464.75 522,-452.75 522,-452.75 522,-446.75 528,-440.75 534,-440.75 534,-440.75 564,-440.75 564,-440.75 570,-440.75 576,-446.75 576,-452.75 576,-452.75 576,-464.75 576,-464.75 576,-470.75 570,-476.75 564,-476.75"/>
<text xml:space="preserve" text-anchor="middle" x="549" y="-454.07" font-family="Helvetica,sans-Serif" font-size="14.00">{h₁}</text>
</g>
<!-- L0_kb&#45;&gt;L1_h1 -->
<g id="edge6" class="edge">
<title>L0_kb&#45;&gt;L1_h1</title>
<path fill="none" stroke="black" d="M549,-535.69C549,-521.91 549,-503.54 549,-488.32"/>
<polygon fill="black" stroke="black" points="552.5,-488.45 549,-478.45 545.5,-488.45 552.5,-488.45"/>
<text xml:space="preserve" text-anchor="middle" x="557.62" y="-500.7" font-family="Helvetica,sans-Serif" font-size="9.00">+h₁</text>
</g>
<!-- L1_h2 -->
<g id="node7" class="node">
<title>L1_h2</title>
<path fill="lightblue" stroke="black" d="M482,-476.75C482,-476.75 452,-476.75 452,-476.75 446,-476.75 440,-470.75 440,-464.75 440,-464.75 440,-452.75 440,-452.75 440,-446.75 446,-440.75 452,-440.75 452,-440.75 482,-440.75 482,-440.75 488,-440.75 494,-446.75 494,-452.75 494,-452.75 494,-464.75 494,-464.75 494,-470.75 488,-476.75 482,-476.75"/>
<text xml:space="preserve" text-anchor="middle" x="467" y="-454.07" font-family="Helvetica,sans-Serif" font-size="14.00">{h₂}</text>
</g>
<!-- L0_kb&#45;&gt;L1_h2 -->
<g id="edge7" class="edge">
<title>L0_kb&#45;&gt;L1_h2</title>
<path fill="none" stroke="black" d="M531.61,-535.69C519.19,-521.09 502.39,-501.34 489.03,-485.64"/>
<polygon fill="black" stroke="black" points="491.75,-483.44 482.61,-478.09 486.42,-487.98 491.75,-483.44"/>
<text xml:space="preserve" text-anchor="middle" x="516.62" y="-500.7" font-family="Helvetica,sans-Serif" font-size="9.00">+h₂</text>
</g>
<!-- L1_h3 -->
<g id="node8" class="node">
<title>L1_h3</title>
<path fill="lightblue" stroke="black" d="M651,-476.75C651,-476.75 621,-476.75 621,-476.75 615,-476.75 609,-470.75 609,-464.75 609,-464.75 609,-452.75 609,-452.75 609,-446.75 615,-440.75 621,-440.75 621,-440.75 651,-440.75 651,-440.75 657,-440.75 663,-446.75 663,-452.75 663,-452.75 663,-464.75 663,-464.75 663,-470.75 657,-476.75 651,-476.75"/>
<text xml:space="preserve" text-anchor="middle" x="636" y="-454.07" font-family="Helvetica,sans-Serif" font-size="14.00">{h₃}</text>
</g>
<!-- L0_kb&#45;&gt;L1_h3 -->
<g id="edge8" class="edge">
<title>L0_kb&#45;&gt;L1_h3</title>
<path fill="none" stroke="black" d="M567.45,-535.69C580.75,-520.95 598.79,-500.97 613.02,-485.2"/>
<polygon fill="black" stroke="black" points="615.37,-487.83 619.47,-478.06 610.17,-483.14 615.37,-487.83"/>
<text xml:space="preserve" text-anchor="middle" x="608.92" y="-500.7" font-family="Helvetica,sans-Serif" font-size="9.00">+h₃</text>
</g>
<!-- L1_h1_kb -->
<g id="node9" class="node">
<title>L1_h1_kb</title>
<polygon fill="palegreen" stroke="black" points="581,-390.25 511,-390.25 511,-354.25 587,-354.25 587,-384.25 581,-390.25"/>
<polyline fill="none" stroke="black" points="581,-390.25 581,-384.25"/>
<polyline fill="none" stroke="black" points="587,-384.25 581,-384.25"/>
<text xml:space="preserve" text-anchor="middle" x="549" y="-367.57" font-family="Helvetica,sans-Serif" font-size="14.00">kb({h₁})</text>
</g>
<!-- L1_h1&#45;&gt;L1_h1_kb -->
<g id="edge3" class="edge">
<title>L1_h1&#45;&gt;L1_h1_kb</title>
<path fill="none" stroke="gray" stroke-dasharray="5,2" d="M549,-440.65C549,-429.5 549,-414.67 549,-401.77"/>
<polygon fill="gray" stroke="gray" points="552.5,-402.13 549,-392.13 545.5,-402.13 552.5,-402.13"/>
<text xml:space="preserve" text-anchor="middle" x="555.75" y="-410.95" font-family="Helvetica,sans-Serif" font-size="9.00">sat</text>
</g>
<!-- L1_h2_kb -->
<g id="node10" class="node">
<title>L1_h2_kb</title>
<polygon fill="palegreen" stroke="black" points="483,-390.25 413,-390.25 413,-354.25 489,-354.25 489,-384.25 483,-390.25"/>
<polyline fill="none" stroke="black" points="483,-390.25 483,-384.25"/>
<polyline fill="none" stroke="black" points="489,-384.25 483,-384.25"/>
<text xml:space="preserve" text-anchor="middle" x="451" y="-367.57" font-family="Helvetica,sans-Serif" font-size="14.00">kb({h₂})</text>
</g>
<!-- L1_h2&#45;&gt;L1_h2_kb -->
<g id="edge4" class="edge">
<title>L1_h2&#45;&gt;L1_h2_kb</title>
<path fill="none" stroke="gray" stroke-dasharray="5,2" d="M463.76,-440.65C461.65,-429.5 458.84,-414.67 456.4,-401.77"/>
<polygon fill="gray" stroke="gray" points="459.87,-401.28 454.57,-392.1 452.99,-402.58 459.87,-401.28"/>
<text xml:space="preserve" text-anchor="middle" x="466.23" y="-410.95" font-family="Helvetica,sans-Serif" font-size="9.00">sat</text>
</g>
<!-- L1_h3_kb -->
<g id="node11" class="node">
<title>L1_h3_kb</title>
<polygon fill="palegreen" stroke="black" points="679,-390.25 609,-390.25 609,-354.25 685,-354.25 685,-384.25 679,-390.25"/>
<polyline fill="none" stroke="black" points="679,-390.25 679,-384.25"/>
<polyline fill="none" stroke="black" points="685,-384.25 679,-384.25"/>
<text xml:space="preserve" text-anchor="middle" x="647" y="-367.57" font-family="Helvetica,sans-Serif" font-size="14.00">kb({h₃})</text>
</g>
<!-- L1_h3&#45;&gt;L1_h3_kb -->
<g id="edge5" class="edge">
<title>L1_h3&#45;&gt;L1_h3_kb</title>
<path fill="none" stroke="gray" stroke-dasharray="5,2" d="M638.23,-440.65C639.68,-429.5 641.61,-414.67 643.29,-401.77"/>
<polygon fill="gray" stroke="gray" points="646.72,-402.48 644.54,-392.12 639.78,-401.58 646.72,-402.48"/>
<text xml:space="preserve" text-anchor="middle" x="648.91" y="-410.95" font-family="Helvetica,sans-Serif" font-size="9.00">sat</text>
</g>
<!-- L2_h1h2 -->
<g id="node12" class="node">
<title>L2_h1h2</title>
<path fill="lightblue" stroke="black" d="M462.75,-307C462.75,-307 415.25,-307 415.25,-307 409.25,-307 403.25,-301 403.25,-295 403.25,-295 403.25,-283 403.25,-283 403.25,-277 409.25,-271 415.25,-271 415.25,-271 462.75,-271 462.75,-271 468.75,-271 474.75,-277 474.75,-283 474.75,-283 474.75,-295 474.75,-295 474.75,-301 468.75,-307 462.75,-307"/>
<text xml:space="preserve" text-anchor="middle" x="439" y="-284.32" font-family="Helvetica,sans-Serif" font-size="14.00">{h₁, h₂}</text>
</g>
<!-- L1_h1_kb&#45;&gt;L2_h1h2 -->
<g id="edge12" class="edge">
<title>L1_h1_kb&#45;&gt;L2_h1h2</title>
<path fill="none" stroke="black" d="M530.85,-353.76C517.26,-340.67 501,-325 501,-325 501,-325 491.54,-319.66 480.01,-313.15"/>
<polygon fill="black" stroke="black" points="481.75,-310.11 471.32,-308.24 478.31,-316.21 481.75,-310.11"/>
<text xml:space="preserve" text-anchor="middle" x="521.22" y="-327.7" font-family="Helvetica,sans-Serif" font-size="9.00">+h₂</text>
</g>
<!-- L2_h1h3 -->
<g id="node13" class="node">
<title>L2_h1h3</title>
<path fill="lightblue" stroke="black" d="M682.75,-307C682.75,-307 635.25,-307 635.25,-307 629.25,-307 623.25,-301 623.25,-295 623.25,-295 623.25,-283 623.25,-283 623.25,-277 629.25,-271 635.25,-271 635.25,-271 682.75,-271 682.75,-271 688.75,-271 694.75,-277 694.75,-283 694.75,-283 694.75,-295 694.75,-295 694.75,-301 688.75,-307 682.75,-307"/>
<text xml:space="preserve" text-anchor="middle" x="659" y="-284.32" font-family="Helvetica,sans-Serif" font-size="14.00">{h₁, h₃}</text>
</g>
<!-- L1_h1_kb&#45;&gt;L2_h1h3 -->
<g id="edge14" class="edge">
<title>L1_h1_kb&#45;&gt;L2_h1h3</title>
<path fill="none" stroke="black" d="M557.6,-353.76C564.04,-340.67 571.75,-325 571.75,-325 571.75,-325 591.53,-317.06 612.26,-308.75"/>
<polygon fill="black" stroke="black" points="613.37,-312.07 621.35,-305.1 610.77,-305.58 613.37,-312.07"/>
<text xml:space="preserve" text-anchor="middle" x="580.38" y="-327.7" font-family="Helvetica,sans-Serif" font-size="9.00">+h₃</text>
</g>
<!-- L1_h2_kb&#45;&gt;L2_h1h2 -->
<g id="edge13" class="edge">
<title>L1_h2_kb&#45;&gt;L2_h1h2</title>
<path fill="none" stroke="black" d="M444.88,-353.75C441.81,-345 438.75,-336.25 438.75,-336.25 438.75,-336.25 438.75,-325 438.75,-325 438.75,-325 438.77,-322.53 438.79,-318.9"/>
<polygon fill="black" stroke="black" points="442.29,-319.04 438.86,-309.01 435.29,-318.99 442.29,-319.04"/>
<text xml:space="preserve" text-anchor="middle" x="447.38" y="-327.7" font-family="Helvetica,sans-Serif" font-size="9.00">+h₁</text>
</g>
<!-- L2_h2h3 -->
<g id="node14" class="node">
<title>L2_h2h3</title>
<path fill="lightblue" stroke="black" d="M576.75,-307C576.75,-307 529.25,-307 529.25,-307 523.25,-307 517.25,-301 517.25,-295 517.25,-295 517.25,-283 517.25,-283 517.25,-277 523.25,-271 529.25,-271 529.25,-271 576.75,-271 576.75,-271 582.75,-271 588.75,-277 588.75,-283 588.75,-283 588.75,-295 588.75,-295 588.75,-301 582.75,-307 576.75,-307"/>
<text xml:space="preserve" text-anchor="middle" x="553" y="-284.32" font-family="Helvetica,sans-Serif" font-size="14.00">{h₂, h₃}</text>
</g>
<!-- L1_h2_kb&#45;&gt;L2_h2h3 -->
<g id="edge16" class="edge">
<title>L1_h2_kb&#45;&gt;L2_h2h3</title>
<path fill="none" stroke="black" d="M463,-353.76C471.99,-340.67 482.75,-325 482.75,-325 482.75,-325 494.12,-319.33 507.72,-312.56"/>
<polygon fill="black" stroke="black" points="509.13,-315.77 516.52,-308.17 506.01,-309.5 509.13,-315.77"/>
<text xml:space="preserve" text-anchor="middle" x="491.38" y="-327.7" font-family="Helvetica,sans-Serif" font-size="9.00">+h₃</text>
</g>
<!-- L1_h3_kb&#45;&gt;L2_h1h3 -->
<g id="edge15" class="edge">
<title>L1_h3_kb&#45;&gt;L2_h1h3</title>
<path fill="none" stroke="black" d="M649.54,-354.02C651.06,-343.75 653.03,-330.45 654.77,-318.64"/>
<polygon fill="black" stroke="black" points="658.2,-319.39 656.2,-308.98 651.27,-318.36 658.2,-319.39"/>
<text xml:space="preserve" text-anchor="middle" x="662.34" y="-327.7" font-family="Helvetica,sans-Serif" font-size="9.00">+h₁</text>
</g>
<!-- L1_h3_kb&#45;&gt;L2_h2h3 -->
<g id="edge17" class="edge">
<title>L1_h3_kb&#45;&gt;L2_h2h3</title>
<path fill="none" stroke="black" d="M627.07,-354.02C613.94,-342.68 596.55,-327.65 581.92,-315"/>
<polygon fill="black" stroke="black" points="584.23,-312.37 574.38,-308.48 579.65,-317.66 584.23,-312.37"/>
<text xml:space="preserve" text-anchor="middle" x="614.25" y="-327.7" font-family="Helvetica,sans-Serif" font-size="9.00">+h₂</text>
</g>
<!-- L2_h1h2_kb -->
<g id="node15" class="node">
<title>L2_h1h2_kb</title>
<polygon fill="salmon" stroke="black" points="477.25,-223.75 324.75,-223.75 324.75,-164 483.25,-164 483.25,-217.75 477.25,-223.75"/>
<polyline fill="none" stroke="black" points="477.25,-223.75 477.25,-217.75"/>
<polyline fill="none" stroke="black" points="483.25,-217.75 477.25,-217.75"/>
<text xml:space="preserve" text-anchor="middle" x="404" y="-206.45" font-family="Helvetica,sans-Serif" font-size="14.00">kb({h₁,h₂})</text>
<text xml:space="preserve" text-anchor="middle" x="404" y="-189.2" font-family="Helvetica,sans-Serif" font-size="14.00">— dead —</text>
<text xml:space="preserve" text-anchor="middle" x="404" y="-171.95" font-family="Helvetica,sans-Serif" font-size="14.00">emit nogood {h₁,h₂}</text>
</g>
<!-- L2_h1h2&#45;&gt;L2_h1h2_kb -->
<g id="edge9" class="edge">
<title>L2_h1h2&#45;&gt;L2_h1h2_kb</title>
<path fill="none" stroke="red" stroke-dasharray="5,2" d="M432.58,-270.92C428.73,-260.66 423.65,-247.17 418.85,-234.39"/>
<polygon fill="red" stroke="red" points="422.24,-233.47 415.45,-225.34 415.69,-235.93 422.24,-233.47"/>
<text xml:space="preserve" text-anchor="middle" x="432.41" y="-244.45" font-family="Helvetica,sans-Serif" font-size="9.00">sat</text>
</g>
<!-- L2_h1h3_kb -->
<g id="node16" class="node">
<title>L2_h1h3_kb</title>
<polygon fill="palegreen" stroke="black" points="713.38,-211.88 624.62,-211.88 624.62,-175.88 719.38,-175.88 719.38,-205.88 713.38,-211.88"/>
<polyline fill="none" stroke="black" points="713.38,-211.88 713.38,-205.88"/>
<polyline fill="none" stroke="black" points="719.38,-205.88 713.38,-205.88"/>
<text xml:space="preserve" text-anchor="middle" x="672" y="-189.2" font-family="Helvetica,sans-Serif" font-size="14.00">kb({h₁,h₃})</text>
</g>
<!-- L2_h1h3&#45;&gt;L2_h1h3_kb -->
<g id="edge10" class="edge">
<title>L2_h1h3&#45;&gt;L2_h1h3_kb</title>
<path fill="none" stroke="gray" stroke-dasharray="5,2" d="M661.38,-270.92C663.24,-257.61 665.86,-238.85 668.03,-223.29"/>
<polygon fill="gray" stroke="gray" points="671.46,-224.05 669.38,-213.66 664.53,-223.08 671.46,-224.05"/>
<text xml:space="preserve" text-anchor="middle" x="671.86" y="-244.45" font-family="Helvetica,sans-Serif" font-size="9.00">sat</text>
</g>
<!-- L2_h2h3_kb -->
<g id="node17" class="node">
<title>L2_h2h3_kb</title>
<polygon fill="palegreen" stroke="black" points="594.38,-211.88 505.62,-211.88 505.62,-175.88 600.38,-175.88 600.38,-205.88 594.38,-211.88"/>
<polyline fill="none" stroke="black" points="594.38,-211.88 594.38,-205.88"/>
<polyline fill="none" stroke="black" points="600.38,-205.88 594.38,-205.88"/>
<text xml:space="preserve" text-anchor="middle" x="553" y="-189.2" font-family="Helvetica,sans-Serif" font-size="14.00">kb({h₂,h₃})</text>
</g>
<!-- L2_h2h3&#45;&gt;L2_h2h3_kb -->
<g id="edge11" class="edge">
<title>L2_h2h3&#45;&gt;L2_h2h3_kb</title>
<path fill="none" stroke="gray" stroke-dasharray="5,2" d="M553,-270.92C553,-257.61 553,-238.85 553,-223.29"/>
<polygon fill="gray" stroke="gray" points="556.5,-223.68 553,-213.68 549.5,-223.68 556.5,-223.68"/>
<text xml:space="preserve" text-anchor="middle" x="559.75" y="-244.45" font-family="Helvetica,sans-Serif" font-size="9.00">sat</text>
</g>
<!-- nogood_emit -->
<g id="node18" class="node">
<title>nogood_emit</title>
<polygon fill="mistyrose" stroke="black" stroke-dasharray="5,2" points="485.5,-68.38 316.5,-68.38 316.5,-25.88 491.5,-25.88 491.5,-62.38 485.5,-68.38"/>
<polyline fill="none" stroke="black" stroke-dasharray="5,2" points="485.5,-68.38 485.5,-62.38"/>
<polyline fill="none" stroke="black" stroke-dasharray="5,2" points="491.5,-62.38 485.5,-62.38"/>
<text xml:space="preserve" text-anchor="middle" x="404" y="-51.08" font-family="Helvetica,sans-Serif" font-size="14.00">root._nogoods</text>
<text xml:space="preserve" text-anchor="middle" x="404" y="-33.83" font-family="Helvetica,sans-Serif" font-size="14.00">+= frozenset({h₁, h₂})</text>
</g>
<!-- L2_h1h2_kb&#45;&gt;nogood_emit -->
<g id="edge18" class="edge">
<title>L2_h1h2_kb&#45;&gt;nogood_emit</title>
<path fill="none" stroke="red" stroke-dasharray="1,5" d="M404,-163.58C404,-139.3 404,-104.85 404,-79.91"/>
<polygon fill="red" stroke="red" points="407.5,-80.03 404,-70.03 400.5,-80.03 407.5,-80.03"/>
<text xml:space="preserve" text-anchor="middle" x="414.12" y="-126.2" font-family="Helvetica,sans-Serif" font-size="9.00">emit</text>
</g>
<!-- L3_pruned -->
<g id="node19" class="node">
<title>L3_pruned</title>
<path fill="lightgrey" stroke="black" stroke-dasharray="5,2" d="M767.38,-94.25C767.38,-94.25 558.62,-94.25 558.62,-94.25 552.62,-94.25 546.62,-88.25 546.62,-82.25 546.62,-82.25 546.62,-12 546.62,-12 546.62,-6 552.62,0 558.62,0 558.62,0 767.38,0 767.38,0 773.38,0 779.38,-6 779.38,-12 779.38,-12 779.38,-82.25 779.38,-82.25 779.38,-88.25 773.38,-94.25 767.38,-94.25"/>
<text xml:space="preserve" text-anchor="middle" x="663" y="-76.95" font-family="Helvetica,sans-Serif" font-size="14.00">{h₁, h₂, h₃}</text>
<text xml:space="preserve" text-anchor="middle" x="663" y="-59.7" font-family="Helvetica,sans-Serif" font-size="14.00">— pruned at generation —</text>
<text xml:space="preserve" text-anchor="middle" x="663" y="-42.45" font-family="Helvetica,sans-Serif" font-size="14.00">matches_any_nogood:</text>
<text xml:space="preserve" text-anchor="middle" x="663" y="-25.2" font-family="Helvetica,sans-Serif" font-size="14.00">frozenset({h₁,h₂}) ⊆ {h₁,h₂,h₃}</text>
<text xml:space="preserve" text-anchor="middle" x="663" y="-7.95" font-family="Helvetica,sans-Serif" font-size="14.00">never forked, never saturated</text>
</g>
<!-- L2_h1h3_kb&#45;&gt;L3_pruned -->
<g id="edge19" class="edge">
<title>L2_h1h3_kb&#45;&gt;L3_pruned</title>
<path fill="none" stroke="#888888" stroke-dasharray="5,2" d="M670.91,-175.41C669.84,-158.13 668.14,-130.72 666.58,-105.76"/>
<polygon fill="#888888" stroke="#888888" points="670.09,-105.78 665.98,-96.01 663.1,-106.21 670.09,-105.78"/>
<text xml:space="preserve" text-anchor="middle" x="715.71" y="-137.45" font-family="Helvetica,sans-Serif" font-size="9.00">+h₂ would form</text>
<text xml:space="preserve" text-anchor="middle" x="715.71" y="-126.2" font-family="Helvetica,sans-Serif" font-size="9.00">{h₁,h₂,h₃}</text>
<text xml:space="preserve" text-anchor="middle" x="715.71" y="-114.95" font-family="Helvetica,sans-Serif" font-size="9.00">→ filtered by nogood</text>
</g>
<!-- L2_h2h3_kb&#45;&gt;L3_pruned -->
<g id="edge20" class="edge">
<title>L2_h2h3_kb&#45;&gt;L3_pruned</title>
<path fill="none" stroke="#888888" stroke-dasharray="5,2" d="M556.31,-175.38C560.79,-151.67 568.25,-112.25 568.25,-112.25 568.25,-112.25 574.95,-107.72 584.78,-101.06"/>
<polygon fill="#888888" stroke="#888888" points="586.57,-104.08 592.89,-95.58 582.64,-98.28 586.57,-104.08"/>
<text xml:space="preserve" text-anchor="middle" x="615.12" y="-137.45" font-family="Helvetica,sans-Serif" font-size="9.00">+h₁ would form</text>
<text xml:space="preserve" text-anchor="middle" x="615.12" y="-126.2" font-family="Helvetica,sans-Serif" font-size="9.00">{h₁,h₂,h₃}</text>
<text xml:space="preserve" text-anchor="middle" x="615.12" y="-114.95" font-family="Helvetica,sans-Serif" font-size="9.00">→ filtered by nogood</text>
</g>
<!-- nogood_emit&#45;&gt;L3_pruned -->
<g id="edge21" class="edge">
<title>nogood_emit&#45;&gt;L3_pruned</title>
<path fill="none" stroke="red" stroke-dasharray="1,5" d="M491.69,-47.12C505.72,-47.12 520.49,-47.12 535.22,-47.12"/>
<polygon fill="red" stroke="red" points="534.96,-50.63 544.96,-47.13 534.96,-43.63 534.96,-50.63"/>
<text xml:space="preserve" text-anchor="middle" x="519.06" y="-52.83" font-family="Helvetica,sans-Serif" font-size="9.00">filter</text>
</g>
</g>
</svg>
