<?xml version="1.0" encoding="UTF-8" standalone="no"?>
<!DOCTYPE svg PUBLIC "-//W3C//DTD SVG 1.1//EN"
 "http://www.w3.org/Graphics/SVG/1.1/DTD/svg11.dtd">
<!-- Generated by graphviz version 2.43.0 (0)
 -->
<!-- Title: G Pages: 1 -->
<svg width="1628pt" height="573pt"
 viewBox="0.00 0.00 1627.59 573.00" xmlns="http://www.w3.org/2000/svg" xmlns:xlink="http://www.w3.org/1999/xlink">
<g id="graph0" class="graph" transform="scale(1 1) rotate(0) translate(4 569)">
<title>G</title>
<polygon fill="white" stroke="transparent" points="-4,4 -4,-569 1623.59,-569 1623.59,4 -4,4"/>
<!-- House -->
<g id="node1" class="node">
<title>House</title>
<ellipse fill="lightgrey" stroke="black" cx="107.34" cy="-474" rx="40.09" ry="18"/>
<text text-anchor="middle" x="107.34" y="-470.3" font-family="Times,serif" font-size="14.00">House</text>
</g>
<!-- House_First -->
<g id="node7" class="node">
<title>House_First</title>
<ellipse fill="none" stroke="black" cx="387.34" cy="-366" rx="66.89" ry="18"/>
<text text-anchor="middle" x="387.34" y="-362.3" font-family="Times,serif" font-size="14.00">House_First</text>
</g>
<!-- House&#45;&gt;House_First -->
<g id="edge1" class="edge">
<title>House&#45;&gt;House_First</title>
<path fill="none" stroke="black" d="M137.04,-461.76C188.42,-442.31 293.75,-402.43 350,-381.14"/>
</g>
<!-- House_A -->
<g id="node8" class="node">
<title>House_A</title>
<ellipse fill="none" stroke="black" cx="200.34" cy="-279" rx="50.89" ry="18"/>
<text text-anchor="middle" x="200.34" y="-275.3" font-family="Times,serif" font-size="14.00">House_A</text>
</g>
<!-- House&#45;&gt;House_A -->
<g id="edge2" class="edge">
<title>House&#45;&gt;House_A</title>
<path fill="none" stroke="black" d="M114.26,-456.05C129.84,-417.99 166.91,-327.99 174.34,-315 177.95,-308.69 182.51,-302.2 186.8,-296.54"/>
</g>
<!-- House_Middle -->
<g id="node9" class="node">
<title>House_Middle</title>
<ellipse fill="none" stroke="black" cx="174.34" cy="-192" rx="76.89" ry="18"/>
<text text-anchor="middle" x="174.34" y="-188.3" font-family="Times,serif" font-size="14.00">House_Middle</text>
</g>
<!-- House&#45;&gt;House_Middle -->
<g id="edge3" class="edge">
<title>House&#45;&gt;House_Middle</title>
<path fill="none" stroke="black" d="M106.43,-455.99C104.91,-414.71 105.09,-306.87 142.34,-228 145.51,-221.3 150.4,-214.98 155.42,-209.61"/>
</g>
<!-- House-1 -->
<g id="node10" class="node">
<title>House-1</title>
<ellipse fill="none" stroke="black" cx="115.34" cy="-105" rx="50.09" ry="18"/>
<text text-anchor="middle" x="115.34" y="-101.3" font-family="Times,serif" font-size="14.00">House-1</text>
</g>
<!-- House&#45;&gt;House-1 -->
<g id="edge4" class="edge">
<title>House&#45;&gt;House-1</title>
<path fill="none" stroke="black" d="M97.36,-456.4C86.1,-436.07 69.34,-400.23 69.34,-367 69.34,-367 69.34,-367 69.34,-191 69.34,-164.49 86.87,-138.32 100.28,-122.18"/>
</g>
<!-- House_Last -->
<g id="node11" class="node">
<title>House_Last</title>
<ellipse fill="none" stroke="black" cx="64.34" cy="-18" rx="64.19" ry="18"/>
<text text-anchor="middle" x="64.34" y="-14.3" font-family="Times,serif" font-size="14.00">House_Last</text>
</g>
<!-- House&#45;&gt;House_Last -->
<g id="edge5" class="edge">
<title>House&#45;&gt;House_Last</title>
<path fill="none" stroke="black" d="M87.38,-458.18C64.86,-439.61 31.34,-405.49 31.34,-367 31.34,-367 31.34,-367 31.34,-104 31.34,-78.99 43.91,-52.47 53.54,-35.84"/>
</g>
<!-- Color -->
<g id="node2" class="node">
<title>Color</title>
<ellipse fill="lightgrey" stroke="black" cx="566.34" cy="-366" rx="36" ry="18"/>
<text text-anchor="middle" x="566.34" y="-362.3" font-family="Times,serif" font-size="14.00">Color</text>
</g>
<!-- Ivory -->
<g id="node12" class="node">
<title>Ivory</title>
<ellipse fill="none" stroke="black" cx="404.34" cy="-279" rx="34.39" ry="18"/>
<text text-anchor="middle" x="404.34" y="-275.3" font-family="Times,serif" font-size="14.00">Ivory</text>
</g>
<!-- Color&#45;&gt;Ivory -->
<g id="edge14" class="edge">
<title>Color&#45;&gt;Ivory</title>
<path fill="none" stroke="black" d="M542.44,-352.46C511.64,-336.29 458.41,-308.37 427.82,-292.32"/>
</g>
<!-- Yellow -->
<g id="node13" class="node">
<title>Yellow</title>
<ellipse fill="none" stroke="black" cx="534.34" cy="-279" rx="40.09" ry="18"/>
<text text-anchor="middle" x="534.34" y="-275.3" font-family="Times,serif" font-size="14.00">Yellow</text>
</g>
<!-- Color&#45;&gt;Yellow -->
<g id="edge15" class="edge">
<title>Color&#45;&gt;Yellow</title>
<path fill="none" stroke="black" d="M562.51,-348.06C560.06,-338.24 556.56,-325.74 552.34,-315 549.95,-308.89 546.82,-302.45 543.84,-296.77"/>
</g>
<!-- Red -->
<g id="node14" class="node">
<title>Red</title>
<ellipse fill="none" stroke="black" cx="621.34" cy="-279" rx="28.7" ry="18"/>
<text text-anchor="middle" x="621.34" y="-275.3" font-family="Times,serif" font-size="14.00">Red</text>
</g>
<!-- Color&#45;&gt;Red -->
<g id="edge16" class="edge">
<title>Color&#45;&gt;Red</title>
<path fill="none" stroke="black" d="M576.95,-348.61C586.75,-333.46 601.23,-311.09 610.96,-296.05"/>
</g>
<!-- Green -->
<g id="node15" class="node">
<title>Green</title>
<ellipse fill="none" stroke="black" cx="572.34" cy="-192" rx="38.99" ry="18"/>
<text text-anchor="middle" x="572.34" y="-188.3" font-family="Times,serif" font-size="14.00">Green</text>
</g>
<!-- Color&#45;&gt;Green -->
<g id="edge17" class="edge">
<title>Color&#45;&gt;Green</title>
<path fill="none" stroke="black" d="M593.11,-353.87C615.38,-343 645.58,-324.11 659.34,-297 666.59,-282.73 666.36,-275.38 659.34,-261 646.91,-235.5 619.77,-216.76 599.09,-205.48"/>
</g>
<!-- Blue -->
<g id="node16" class="node">
<title>Blue</title>
<ellipse fill="none" stroke="black" cx="301.34" cy="-192" rx="31.7" ry="18"/>
<text text-anchor="middle" x="301.34" y="-188.3" font-family="Times,serif" font-size="14.00">Blue</text>
</g>
<!-- Color&#45;&gt;Blue -->
<g id="edge18" class="edge">
<title>Color&#45;&gt;Blue</title>
<path fill="none" stroke="black" d="M531.91,-361.17C488.01,-354.73 411.77,-338.1 361.34,-297 332.75,-273.69 315.01,-232.9 306.79,-209.94"/>
</g>
<!-- Nationality -->
<g id="node3" class="node">
<title>Nationality</title>
<ellipse fill="lightgrey" stroke="black" cx="830.34" cy="-547" rx="62.29" ry="18"/>
<text text-anchor="middle" x="830.34" y="-543.3" font-family="Times,serif" font-size="14.00">Nationality</text>
</g>
<!-- Englishman -->
<g id="node17" class="node">
<title>Englishman</title>
<ellipse fill="none" stroke="black" cx="703.34" cy="-420" rx="65.79" ry="18"/>
<text text-anchor="middle" x="703.34" y="-416.3" font-family="Times,serif" font-size="14.00">Englishman</text>
</g>
<!-- Nationality&#45;&gt;Englishman -->
<g id="edge19" class="edge">
<title>Nationality&#45;&gt;Englishman</title>
<path fill="none" stroke="black" d="M813.48,-529.4C789.19,-505.49 744.61,-461.61 720.28,-437.67"/>
</g>
<!-- Spaniard -->
<g id="node18" class="node">
<title>Spaniard</title>
<ellipse fill="none" stroke="black" cx="1533.34" cy="-420" rx="52.79" ry="18"/>
<text text-anchor="middle" x="1533.34" y="-416.3" font-family="Times,serif" font-size="14.00">Spaniard</text>
</g>
<!-- Nationality&#45;&gt;Spaniard -->
<g id="edge20" class="edge">
<title>Nationality&#45;&gt;Spaniard</title>
<path fill="none" stroke="black" d="M887.28,-539.62C963.28,-530.76 1101.96,-513.38 1219.34,-492 1318.04,-474.02 1432.71,-446.35 1492.42,-431.42"/>
</g>
<!-- Ukrainian -->
<g id="node19" class="node">
<title>Ukrainian</title>
<ellipse fill="none" stroke="black" cx="830.34" cy="-420" rx="56.59" ry="18"/>
<text text-anchor="middle" x="830.34" y="-416.3" font-family="Times,serif" font-size="14.00">Ukrainian</text>
</g>
<!-- Nationality&#45;&gt;Ukrainian -->
<g id="edge21" class="edge">
<title>Nationality&#45;&gt;Ukrainian</title>
<path fill="none" stroke="black" d="M830.34,-528.88C830.34,-505.08 830.34,-462.22 830.34,-438.31"/>
</g>
<!-- Japanese -->
<g id="node20" class="node">
<title>Japanese</title>
<ellipse fill="none" stroke="black" cx="951.34" cy="-474" rx="51.99" ry="18"/>
<text text-anchor="middle" x="951.34" y="-470.3" font-family="Times,serif" font-size="14.00">Japanese</text>
</g>
<!-- Nationality&#45;&gt;Japanese -->
<g id="edge22" class="edge">
<title>Nationality&#45;&gt;Japanese</title>
<path fill="none" stroke="black" d="M856.6,-530.59C877.17,-518.52 905.63,-501.83 925.97,-489.89"/>
</g>
<!-- Norwegian -->
<g id="node21" class="node">
<title>Norwegian</title>
<ellipse fill="none" stroke="black" cx="387.34" cy="-474" rx="61.99" ry="18"/>
<text text-anchor="middle" x="387.34" y="-470.3" font-family="Times,serif" font-size="14.00">Norwegian</text>
</g>
<!-- Nationality&#45;&gt;Norwegian -->
<g id="edge23" class="edge">
<title>Nationality&#45;&gt;Norwegian</title>
<path fill="none" stroke="black" d="M776.91,-537.44C691.53,-523.75 525.34,-497.12 440.28,-483.48"/>
</g>
<!-- Pet -->
<g id="node4" class="node">
<title>Pet</title>
<ellipse fill="lightgrey" stroke="black" cx="1394.34" cy="-366" rx="27" ry="18"/>
<text text-anchor="middle" x="1394.34" y="-362.3" font-family="Times,serif" font-size="14.00">Pet</text>
</g>
<!-- Dog -->
<g id="node22" class="node">
<title>Dog</title>
<ellipse fill="none" stroke="black" cx="1590.34" cy="-279" rx="29.5" ry="18"/>
<text text-anchor="middle" x="1590.34" y="-275.3" font-family="Times,serif" font-size="14.00">Dog</text>
</g>
<!-- Pet&#45;&gt;Dog -->
<g id="edge24" class="edge">
<title>Pet&#45;&gt;Dog</title>
<path fill="none" stroke="black" d="M1414.89,-354.1C1419.85,-351.81 1425.2,-349.61 1430.34,-348 1477.22,-333.38 1495.56,-352.22 1539.34,-330 1555.27,-321.92 1569.41,-307.11 1578.74,-295.7"/>
</g>
<!-- Hourse -->
<g id="node23" class="node">
<title>Hourse</title>
<ellipse fill="none" stroke="black" cx="1096.34" cy="-279" rx="44.39" ry="18"/>
<text text-anchor="middle" x="1096.34" y="-275.3" font-family="Times,serif" font-size="14.00">Hourse</text>
</g>
<!-- Pet&#45;&gt;Hourse -->
<g id="edge25" class="edge">
<title>Pet&#45;&gt;Hourse</title>
<path fill="none" stroke="black" d="M1373.7,-354.38C1368.75,-352.08 1363.43,-349.8 1358.34,-348 1268.21,-316.09 1241.37,-322.95 1149.34,-297 1142.93,-295.19 1136.12,-293.12 1129.6,-291.06"/>
</g>
<!-- Snail -->
<g id="node24" class="node">
<title>Snail</title>
<ellipse fill="none" stroke="black" cx="1301.34" cy="-279" rx="34.39" ry="18"/>
<text text-anchor="middle" x="1301.34" y="-275.3" font-family="Times,serif" font-size="14.00">Snail</text>
</g>
<!-- Pet&#45;&gt;Snail -->
<g id="edge26" class="edge">
<title>Pet&#45;&gt;Snail</title>
<path fill="none" stroke="black" d="M1378.99,-350.96C1362.07,-335.5 1334.96,-310.72 1317.66,-294.92"/>
</g>
<!-- Fox -->
<g id="node25" class="node">
<title>Fox</title>
<ellipse fill="none" stroke="black" cx="1493.34" cy="-279" rx="27.1" ry="18"/>
<text text-anchor="middle" x="1493.34" y="-275.3" font-family="Times,serif" font-size="14.00">Fox</text>
</g>
<!-- Pet&#45;&gt;Fox -->
<g id="edge27" class="edge">
<title>Pet&#45;&gt;Fox</title>
<path fill="none" stroke="black" d="M1410.25,-351.34C1428.62,-335.58 1458.66,-309.78 1477.15,-293.91"/>
</g>
<!-- Zebra -->
<g id="node26" class="node">
<title>Zebra</title>
<ellipse fill="none" stroke="black" cx="1394.34" cy="-279" rx="38.19" ry="18"/>
<text text-anchor="middle" x="1394.34" y="-275.3" font-family="Times,serif" font-size="14.00">Zebra</text>
</g>
<!-- Pet&#45;&gt;Zebra -->
<g id="edge28" class="edge">
<title>Pet&#45;&gt;Zebra</title>
<path fill="none" stroke="black" d="M1394.34,-347.8C1394.34,-333.05 1394.34,-311.92 1394.34,-297.18"/>
</g>
<!-- Cigarette -->
<g id="node5" class="node">
<title>Cigarette</title>
<ellipse fill="lightgrey" stroke="black" cx="1155.34" cy="-474" rx="54.69" ry="18"/>
<text text-anchor="middle" x="1155.34" y="-470.3" font-family="Times,serif" font-size="14.00">Cigarette</text>
</g>
<!-- Old_Gold -->
<g id="node27" class="node">
<title>Old_Gold</title>
<ellipse fill="none" stroke="black" cx="1296.34" cy="-366" rx="52.79" ry="18"/>
<text text-anchor="middle" x="1296.34" y="-362.3" font-family="Times,serif" font-size="14.00">Old_Gold</text>
</g>
<!-- Cigarette&#45;&gt;Old_Gold -->
<g id="edge29" class="edge">
<title>Cigarette&#45;&gt;Old_Gold</title>
<path fill="none" stroke="black" d="M1176.45,-457.13C1203.19,-437.03 1248.97,-402.62 1275.55,-382.63"/>
</g>
<!-- Chesterfields -->
<g id="node28" class="node">
<title>Chesterfields</title>
<ellipse fill="none" stroke="black" cx="1511.34" cy="-366" rx="72.29" ry="18"/>
<text text-anchor="middle" x="1511.34" y="-362.3" font-family="Times,serif" font-size="14.00">Chesterfields</text>
</g>
<!-- Cigarette&#45;&gt;Chesterfields -->
<g id="edge30" class="edge">
<title>Cigarette&#45;&gt;Chesterfields</title>
<path fill="none" stroke="black" d="M1194.46,-461.35C1261.2,-441.48 1396.65,-401.15 1466.88,-380.24"/>
</g>
<!-- Lucky_Strike -->
<g id="node29" class="node">
<title>Lucky_Strike</title>
<ellipse fill="none" stroke="black" cx="1155.34" cy="-366" rx="70.69" ry="18"/>
<text text-anchor="middle" x="1155.34" y="-362.3" font-family="Times,serif" font-size="14.00">Lucky_Strike</text>
</g>
<!-- Cigarette&#45;&gt;Lucky_Strike -->
<g id="edge31" class="edge">
<title>Cigarette&#45;&gt;Lucky_Strike</title>
<path fill="none" stroke="black" d="M1155.34,-455.97C1155.34,-436.31 1155.34,-404.13 1155.34,-384.34"/>
</g>
<!-- Kools -->
<g id="node30" class="node">
<title>Kools</title>
<ellipse fill="none" stroke="black" cx="805.34" cy="-366" rx="36" ry="18"/>
<text text-anchor="middle" x="805.34" y="-362.3" font-family="Times,serif" font-size="14.00">Kools</text>
</g>
<!-- Cigarette&#45;&gt;Kools -->
<g id="edge32" class="edge">
<title>Cigarette&#45;&gt;Kools</title>
<path fill="none" stroke="black" d="M1114.09,-462.05C1055.17,-446.17 943.73,-415.21 850.34,-384 844.64,-382.09 838.59,-379.92 832.83,-377.77"/>
</g>
<!-- Parlament -->
<g id="node31" class="node">
<title>Parlament</title>
<ellipse fill="none" stroke="black" cx="1008.34" cy="-366" rx="58.49" ry="18"/>
<text text-anchor="middle" x="1008.34" y="-362.3" font-family="Times,serif" font-size="14.00">Parlament</text>
</g>
<!-- Cigarette&#45;&gt;Parlament -->
<g id="edge33" class="edge">
<title>Cigarette&#45;&gt;Parlament</title>
<path fill="none" stroke="black" d="M1133.65,-457.36C1106.02,-437.43 1058.51,-403.17 1030.61,-383.05"/>
</g>
<!-- Drink -->
<g id="node6" class="node">
<title>Drink</title>
<ellipse fill="lightgrey" stroke="black" cx="895.34" cy="-366" rx="36.29" ry="18"/>
<text text-anchor="middle" x="895.34" y="-362.3" font-family="Times,serif" font-size="14.00">Drink</text>
</g>
<!-- Coffee -->
<g id="node32" class="node">
<title>Coffee</title>
<ellipse fill="none" stroke="black" cx="898.34" cy="-279" rx="40.09" ry="18"/>
<text text-anchor="middle" x="898.34" y="-275.3" font-family="Times,serif" font-size="14.00">Coffee</text>
</g>
<!-- Drink&#45;&gt;Coffee -->
<g id="edge34" class="edge">
<title>Drink&#45;&gt;Coffee</title>
<path fill="none" stroke="black" d="M895.95,-347.8C896.47,-333.05 897.22,-311.92 897.74,-297.18"/>
</g>
<!-- Milk -->
<g id="node33" class="node">
<title>Milk</title>
<ellipse fill="none" stroke="black" cx="809.34" cy="-279" rx="31.4" ry="18"/>
<text text-anchor="middle" x="809.34" y="-275.3" font-family="Times,serif" font-size="14.00">Milk</text>
</g>
<!-- Drink&#45;&gt;Milk -->
<g id="edge35" class="edge">
<title>Drink&#45;&gt;Milk</title>
<path fill="none" stroke="black" d="M879.57,-349.41C863.86,-333.88 839.91,-310.21 824.44,-294.92"/>
</g>
<!-- Tea -->
<g id="node34" class="node">
<title>Tea</title>
<ellipse fill="none" stroke="black" cx="733.34" cy="-279" rx="27" ry="18"/>
<text text-anchor="middle" x="733.34" y="-275.3" font-family="Times,serif" font-size="14.00">Tea</text>
</g>
<!-- Drink&#45;&gt;Tea -->
<g id="edge36" class="edge">
<title>Drink&#45;&gt;Tea</title>
<path fill="none" stroke="black" d="M871.09,-352.27C839.32,-335.6 784.12,-306.64 754.16,-290.92"/>
</g>
<!-- Juice -->
<g id="node35" class="node">
<title>Juice</title>
<ellipse fill="none" stroke="black" cx="1191.34" cy="-279" rx="33.29" ry="18"/>
<text text-anchor="middle" x="1191.34" y="-275.3" font-family="Times,serif" font-size="14.00">Juice</text>
</g>
<!-- Drink&#45;&gt;Juice -->
<g id="edge37" class="edge">
<title>Drink&#45;&gt;Juice</title>
<path fill="none" stroke="black" d="M922.9,-354.24C928.94,-352.04 935.32,-349.85 941.34,-348 1032.35,-320.12 1058.77,-326.27 1149.34,-297 1154.88,-295.21 1160.73,-293.03 1166.24,-290.85"/>
</g>
<!-- Water -->
<g id="node36" class="node">
<title>Water</title>
<ellipse fill="none" stroke="black" cx="995.34" cy="-279" rx="38.19" ry="18"/>
<text text-anchor="middle" x="995.34" y="-275.3" font-family="Times,serif" font-size="14.00">Water</text>
</g>
<!-- Drink&#45;&gt;Water -->
<g id="edge38" class="edge">
<title>Drink&#45;&gt;Water</title>
<path fill="none" stroke="black" d="M912.76,-350.19C930.89,-334.78 959.15,-310.77 977.45,-295.21"/>
</g>
<!-- House_First&#45;&gt;House_A -->
<g id="edge6" class="edge">
<title>House_First&#45;&gt;House_A</title>
<path fill="none" stroke="red" d="M322.78,-360.93C293.72,-356.53 260.22,-347.67 234.34,-330 225.47,-323.94 218.25,-314.72 212.79,-305.85"/>
<polygon fill="red" stroke="red" points="215.69,-303.87 207.73,-296.87 209.59,-307.3 215.69,-303.87"/>
<text text-anchor="middle" x="252.34" y="-318.8" font-family="Times,serif" font-size="14.00">right</text>
</g>
<!-- House_First&#45;&gt;House_A -->
<g id="edge10" class="edge">
<title>House_First&#45;&gt;House_A</title>
<path fill="none" stroke="blue" d="M321.31,-362.7C268.31,-359.3 199.95,-350.87 182.34,-330 174.37,-320.55 179.68,-307.29 186.54,-296.81"/>
<text text-anchor="middle" x="198.34" y="-318.8" font-family="Times,serif" font-size="14.00">next</text>
</g>
<!-- House_First&#45;&gt;Ivory -->
<g id="edge57" class="edge">
<title>House_First&#45;&gt;Ivory</title>
<path fill="none" stroke="grey" stroke-dasharray="5,2" d="M390.78,-347.8C393.73,-333.05 397.96,-311.92 400.91,-297.18"/>
</g>
<!-- House_First&#45;&gt;Yellow -->
<g id="edge54" class="edge">
<title>House_First&#45;&gt;Yellow</title>
<path fill="none" stroke="grey" stroke-dasharray="5,2" d="M430,-351.87C445.47,-346.23 462.73,-338.87 477.34,-330 492.87,-320.58 508.22,-306.78 519.08,-296.07"/>
</g>
<!-- House_First&#45;&gt;Red -->
<g id="edge55" class="edge">
<title>House_First&#45;&gt;Red</title>
<path fill="none" stroke="grey" stroke-dasharray="5,2" d="M431.48,-352.4C452.74,-346.09 478.51,-338.08 501.34,-330 538.38,-316.89 547.19,-312.36 583.34,-297 588.4,-294.85 593.8,-292.48 598.9,-290.21"/>
</g>
<!-- House_First&#45;&gt;Green -->
<g id="edge56" class="edge">
<title>House_First&#45;&gt;Green</title>
<path fill="none" stroke="grey" stroke-dasharray="5,2" d="M401.89,-348.04C420.41,-326.81 453.81,-289.75 485.34,-261 507.02,-241.24 533.86,-220.81 551.95,-207.57"/>
</g>
<!-- House_A&#45;&gt;House_Middle -->
<g id="edge7" class="edge">
<title>House_A&#45;&gt;House_Middle</title>
<path fill="none" stroke="red" d="M195.08,-260.8C191.49,-249.05 186.65,-233.24 182.55,-219.84"/>
<polygon fill="red" stroke="red" points="185.87,-218.71 179.6,-210.18 179.18,-220.76 185.87,-218.71"/>
<text text-anchor="middle" x="206.34" y="-231.8" font-family="Times,serif" font-size="14.00">right</text>
</g>
<!-- House_A&#45;&gt;House_Middle -->
<g id="edge11" class="edge">
<title>House_A&#45;&gt;House_Middle</title>
<path fill="none" stroke="blue" d="M170.57,-264.42C162.17,-259.02 154.05,-251.93 149.34,-243 143.56,-232.01 149.81,-219.51 157.5,-209.76"/>
<text text-anchor="middle" x="165.34" y="-231.8" font-family="Times,serif" font-size="14.00">next</text>
</g>
<!-- House_A&#45;&gt;Blue -->
<g id="edge53" class="edge">
<title>House_A&#45;&gt;Blue</title>
<path fill="none" stroke="black" d="M219.34,-262.01C237.97,-246.33 266.12,-222.64 284.12,-207.5"/>
</g>
<!-- House_Middle&#45;&gt;House-1 -->
<g id="edge8" class="edge">
<title>House_Middle&#45;&gt;House-1</title>
<path fill="none" stroke="red" d="M137.07,-176.05C128.85,-170.94 121.17,-164.35 116.34,-156 112.46,-149.28 111.17,-141.16 111.13,-133.43"/>
<polygon fill="red" stroke="red" points="114.63,-133.5 111.73,-123.31 107.64,-133.09 114.63,-133.5"/>
<text text-anchor="middle" x="134.34" y="-144.8" font-family="Times,serif" font-size="14.00">right</text>
</g>
<!-- House_Middle&#45;&gt;House-1 -->
<g id="edge12" class="edge">
<title>House_Middle&#45;&gt;House-1</title>
<path fill="none" stroke="blue" d="M168.76,-173.91C165.01,-163.81 159.45,-151.08 152.34,-141 147.45,-134.06 141.03,-127.4 134.91,-121.79"/>
<text text-anchor="middle" x="176.34" y="-144.8" font-family="Times,serif" font-size="14.00">next</text>
</g>
<!-- House-1&#45;&gt;House_Last -->
<g id="edge9" class="edge">
<title>House-1&#45;&gt;House_Last</title>
<path fill="none" stroke="red" d="M86.25,-90.25C78.02,-84.84 70.03,-77.79 65.34,-69 61.69,-62.15 60.47,-53.99 60.42,-46.27"/>
<polygon fill="red" stroke="red" points="63.92,-46.35 60.97,-36.18 56.93,-45.97 63.92,-46.35"/>
<text text-anchor="middle" x="83.34" y="-57.8" font-family="Times,serif" font-size="14.00">right</text>
</g>
<!-- House-1&#45;&gt;House_Last -->
<g id="edge13" class="edge">
<title>House-1&#45;&gt;House_Last</title>
<path fill="none" stroke="blue" d="M112.91,-86.88C110.92,-76.77 107.4,-64.03 101.34,-54 97.14,-47.04 91.18,-40.56 85.27,-35.11"/>
<text text-anchor="middle" x="124.34" y="-57.8" font-family="Times,serif" font-size="14.00">next</text>
</g>
<!-- Ivory&#45;&gt;Green -->
<g id="edge43" class="edge">
<title>Ivory&#45;&gt;Green</title>
<path fill="none" stroke="red" d="M404.08,-260.96C404.85,-250.1 407.7,-236.52 416.34,-228 431.49,-213.08 484.35,-203.49 524.38,-198.18"/>
<polygon fill="red" stroke="red" points="525.03,-201.63 534.51,-196.9 524.15,-194.69 525.03,-201.63"/>
<text text-anchor="middle" x="434.34" y="-231.8" font-family="Times,serif" font-size="14.00">right</text>
</g>
<!-- Englishman&#45;&gt;Red -->
<g id="edge39" class="edge">
<title>Englishman&#45;&gt;Red</title>
<path fill="none" stroke="black" d="M693.29,-401.96C677.38,-374.99 646.61,-322.83 630.97,-296.32"/>
</g>
<!-- Spaniard&#45;&gt;Dog -->
<g id="edge40" class="edge">
<title>Spaniard&#45;&gt;Dog</title>
<path fill="none" stroke="black" d="M1567.98,-406.21C1577.58,-400.88 1586.86,-393.62 1592.34,-384 1607.89,-356.69 1601.38,-318.46 1595.61,-296.77"/>
</g>
<!-- Ukrainian&#45;&gt;Tea -->
<g id="edge42" class="edge">
<title>Ukrainian&#45;&gt;Tea</title>
<path fill="none" stroke="black" d="M791.75,-406.79C780.2,-401.44 768.47,-394.03 760.34,-384 739.8,-358.63 734.73,-319.35 733.57,-297.03"/>
</g>
<!-- Japanese&#45;&gt;Parlament -->
<g id="edge51" class="edge">
<title>Japanese&#45;&gt;Parlament</title>
<path fill="none" stroke="black" d="M960.5,-455.97C971.14,-436.19 988.58,-403.75 999.21,-383.99"/>
</g>
<!-- Norwegian&#45;&gt;House_First -->
<g id="edge47" class="edge">
<title>Norwegian&#45;&gt;House_First</title>
<path fill="none" stroke="black" d="M387.34,-455.97C387.34,-436.31 387.34,-404.13 387.34,-384.34"/>
</g>
<!-- Norwegian&#45;&gt;Blue -->
<g id="edge52" class="edge">
<title>Norwegian&#45;&gt;Blue</title>
<path fill="none" stroke="blue" d="M367.34,-456.66C349.07,-440.39 323.16,-413.63 311.34,-384 287.35,-323.86 294.11,-244.52 298.69,-210.12"/>
<text text-anchor="middle" x="313.34" y="-318.8" font-family="Times,serif" font-size="14.00">next</text>
</g>
<!-- Old_Gold&#45;&gt;Snail -->
<g id="edge44" class="edge">
<title>Old_Gold&#45;&gt;Snail</title>
<path fill="none" stroke="black" d="M1297.36,-347.8C1298.22,-333.05 1299.47,-311.92 1300.33,-297.18"/>
</g>
<!-- Chesterfields&#45;&gt;Fox -->
<g id="edge48" class="edge">
<title>Chesterfields&#45;&gt;Fox</title>
<path fill="none" stroke="blue" d="M1507.7,-347.8C1504.56,-332.95 1500.04,-311.64 1496.92,-296.89"/>
<text text-anchor="middle" x="1519.34" y="-318.8" font-family="Times,serif" font-size="14.00">next</text>
</g>
<!-- Lucky_Strike&#45;&gt;Juice -->
<g id="edge50" class="edge">
<title>Lucky_Strike&#45;&gt;Juice</title>
<path fill="none" stroke="black" d="M1162.63,-347.8C1168.96,-332.86 1178.06,-311.36 1184.31,-296.6"/>
</g>
<!-- Kools&#45;&gt;Yellow -->
<g id="edge45" class="edge">
<title>Kools&#45;&gt;Yellow</title>
<path fill="none" stroke="black" d="M775.07,-356.11C732.24,-343.45 651.55,-319.27 583.34,-297 577.35,-295.04 570.97,-292.89 564.87,-290.78"/>
</g>
<!-- Kools&#45;&gt;Hourse -->
<g id="edge49" class="edge">
<title>Kools&#45;&gt;Hourse</title>
<path fill="none" stroke="blue" d="M832.79,-354.12C838.55,-351.98 844.62,-349.84 850.34,-348 934.42,-321.03 957.55,-321.6 1042.34,-297 1048.95,-295.08 1055.98,-292.94 1062.71,-290.85"/>
<text text-anchor="middle" x="988.34" y="-318.8" font-family="Times,serif" font-size="14.00">next</text>
</g>
<!-- Coffee&#45;&gt;Green -->
<g id="edge41" class="edge">
<title>Coffee&#45;&gt;Green</title>
<path fill="none" stroke="black" d="M868.17,-267.04C861.97,-264.93 855.48,-262.81 849.34,-261 763.15,-235.53 659.94,-211.99 607.17,-200.45"/>
</g>
<!-- Milk&#45;&gt;House_Middle -->
<g id="edge46" class="edge">
<title>Milk&#45;&gt;House_Middle</title>
<path fill="none" stroke="black" d="M786.54,-266.68C781.04,-264.41 775.08,-262.32 769.34,-261 610.6,-224.58 564.79,-264.44 403.34,-243 340.21,-234.61 268.69,-217.8 222.62,-205.99"/>
</g>
</g>
</svg>
