<?xml version="1.0" encoding="UTF-8" standalone="no"?>
<!DOCTYPE svg PUBLIC "-//W3C//DTD SVG 1.1//EN"
 "http://www.w3.org/Graphics/SVG/1.1/DTD/svg11.dtd">
<!-- Generated by graphviz version 2.43.0 (0)
 -->
<!-- Title: G Pages: 1 -->
<svg width="1820pt" height="573pt"
 viewBox="0.00 0.00 1819.84 573.00" xmlns="http://www.w3.org/2000/svg" xmlns:xlink="http://www.w3.org/1999/xlink">
<g id="graph0" class="graph" transform="scale(1 1) rotate(0) translate(4 569)">
<title>G</title>
<polygon fill="white" stroke="transparent" points="-4,4 -4,-569 1815.84,-569 1815.84,4 -4,4"/>
<!-- House -->
<g id="node1" class="node">
<title>House</title>
<ellipse fill="lightgrey" stroke="black" cx="83.34" cy="-474" rx="40.09" ry="18"/>
<text text-anchor="middle" x="83.34" y="-470.3" font-family="Times,serif" font-size="14.00">House</text>
</g>
<!-- House_First -->
<g id="node7" class="node">
<title>House_First</title>
<ellipse fill="none" stroke="black" cx="339.34" cy="-366" rx="66.89" ry="18"/>
<text text-anchor="middle" x="339.34" y="-362.3" font-family="Times,serif" font-size="14.00">House_First</text>
</g>
<!-- House&#45;&gt;House_First -->
<g id="edge1" class="edge">
<title>House&#45;&gt;House_First</title>
<path fill="none" stroke="black" d="M112.21,-461.05C159.55,-441.45 253.49,-402.55 304.47,-381.44"/>
</g>
<!-- House_A -->
<g id="node8" class="node">
<title>House_A</title>
<ellipse fill="none" stroke="black" cx="219.34" cy="-279" rx="50.89" ry="18"/>
<text text-anchor="middle" x="219.34" y="-275.3" font-family="Times,serif" font-size="14.00">House_A</text>
</g>
<!-- House&#45;&gt;House_A -->
<g id="edge2" class="edge">
<title>House&#45;&gt;House_A</title>
<path fill="none" stroke="black" d="M89.99,-455.82C102.48,-425.07 131.81,-359.67 171.34,-315 178.04,-307.43 186.65,-300.53 194.72,-294.89"/>
</g>
<!-- House_Middle -->
<g id="node9" class="node">
<title>House_Middle</title>
<ellipse fill="none" stroke="black" cx="156.34" cy="-192" rx="76.89" ry="18"/>
<text text-anchor="middle" x="156.34" y="-188.3" font-family="Times,serif" font-size="14.00">House_Middle</text>
</g>
<!-- House&#45;&gt;House_Middle -->
<g id="edge3" class="edge">
<title>House&#45;&gt;House_Middle</title>
<path fill="none" stroke="black" d="M82.31,-455.83C80.55,-414.22 80.43,-305.67 120.34,-228 123.85,-221.18 129.2,-214.91 134.71,-209.62"/>
</g>
<!-- House_1 -->
<g id="node10" class="node">
<title>House_1</title>
<ellipse fill="none" stroke="black" cx="88.34" cy="-105" rx="50.09" ry="18"/>
<text text-anchor="middle" x="88.34" y="-101.3" font-family="Times,serif" font-size="14.00">House_1</text>
</g>
<!-- House&#45;&gt;House_1 -->
<g id="edge4" class="edge">
<title>House&#45;&gt;House_1</title>
<path fill="none" stroke="black" d="M73.36,-456.4C62.1,-436.07 45.34,-400.23 45.34,-367 45.34,-367 45.34,-367 45.34,-191 45.34,-164.87 61.72,-138.62 74.26,-122.34"/>
</g>
<!-- House_Last -->
<g id="node11" class="node">
<title>House_Last</title>
<ellipse fill="none" stroke="black" cx="64.34" cy="-18" rx="64.19" ry="18"/>
<text text-anchor="middle" x="64.34" y="-14.3" font-family="Times,serif" font-size="14.00">House_Last</text>
</g>
<!-- House&#45;&gt;House_Last -->
<g id="edge5" class="edge">
<title>House&#45;&gt;House_Last</title>
<path fill="none" stroke="black" d="M63.38,-458.18C40.86,-439.61 7.34,-405.49 7.34,-367 7.34,-367 7.34,-367 7.34,-104 7.34,-76.46 28.24,-51.11 44.73,-35.39"/>
</g>
<!-- Color -->
<g id="node2" class="node">
<title>Color</title>
<ellipse fill="lightgrey" stroke="black" cx="788.34" cy="-279" rx="36" ry="18"/>
<text text-anchor="middle" x="788.34" y="-275.3" font-family="Times,serif" font-size="14.00">Color</text>
</g>
<!-- Ivory -->
<g id="node12" class="node">
<title>Ivory</title>
<ellipse fill="none" stroke="black" cx="342.34" cy="-105" rx="34.39" ry="18"/>
<text text-anchor="middle" x="342.34" y="-101.3" font-family="Times,serif" font-size="14.00">Ivory</text>
</g>
<!-- Color&#45;&gt;Ivory -->
<g id="edge18" class="edge">
<title>Color&#45;&gt;Ivory</title>
<path fill="none" stroke="black" d="M761.82,-266.64C715.79,-247.05 618.04,-205.94 534.34,-174 476.53,-151.94 408.03,-128.26 370.48,-115.49"/>
</g>
<!-- Yellow -->
<g id="node13" class="node">
<title>Yellow</title>
<ellipse fill="none" stroke="black" cx="865.34" cy="-192" rx="40.09" ry="18"/>
<text text-anchor="middle" x="865.34" y="-188.3" font-family="Times,serif" font-size="14.00">Yellow</text>
</g>
<!-- Color&#45;&gt;Yellow -->
<g id="edge19" class="edge">
<title>Color&#45;&gt;Yellow</title>
<path fill="none" stroke="black" d="M802.47,-262.41C816.19,-247.26 836.92,-224.37 850.79,-209.07"/>
</g>
<!-- Red -->
<g id="node14" class="node">
<title>Red</title>
<ellipse fill="none" stroke="black" cx="496.34" cy="-192" rx="28.7" ry="18"/>
<text text-anchor="middle" x="496.34" y="-188.3" font-family="Times,serif" font-size="14.00">Red</text>
</g>
<!-- Color&#45;&gt;Red -->
<g id="edge20" class="edge">
<title>Color&#45;&gt;Red</title>
<path fill="none" stroke="black" d="M761.52,-266.79C755.61,-264.62 749.33,-262.55 743.34,-261 689.86,-247.16 673.67,-257.43 620.34,-243 583.37,-232.99 542.55,-215.12 518.2,-203.67"/>
</g>
<!-- Green -->
<g id="node15" class="node">
<title>Green</title>
<ellipse fill="none" stroke="black" cx="295.34" cy="-192" rx="38.99" ry="18"/>
<text text-anchor="middle" x="295.34" y="-188.3" font-family="Times,serif" font-size="14.00">Green</text>
</g>
<!-- Color&#45;&gt;Green -->
<g id="edge21" class="edge">
<title>Color&#45;&gt;Green</title>
<path fill="none" stroke="black" d="M762.05,-266.78C755.99,-264.56 749.52,-262.47 743.34,-261 669.86,-243.51 649.12,-253.67 574.34,-243 486.17,-230.42 383.21,-210.63 330.45,-200.12"/>
</g>
<!-- Blue -->
<g id="node16" class="node">
<title>Blue</title>
<ellipse fill="none" stroke="black" cx="775.34" cy="-192" rx="31.7" ry="18"/>
<text text-anchor="middle" x="775.34" y="-188.3" font-family="Times,serif" font-size="14.00">Blue</text>
</g>
<!-- Color&#45;&gt;Blue -->
<g id="edge22" class="edge">
<title>Color&#45;&gt;Blue</title>
<path fill="none" stroke="black" d="M785.71,-260.8C783.46,-246.05 780.23,-224.92 777.97,-210.18"/>
</g>
<!-- Nationality -->
<g id="node3" class="node">
<title>Nationality</title>
<ellipse fill="lightgrey" stroke="black" cx="1021.34" cy="-547" rx="62.29" ry="18"/>
<text text-anchor="middle" x="1021.34" y="-543.3" font-family="Times,serif" font-size="14.00">Nationality</text>
</g>
<!-- Englishman -->
<g id="node17" class="node">
<title>Englishman</title>
<ellipse fill="none" stroke="black" cx="490.34" cy="-279" rx="65.79" ry="18"/>
<text text-anchor="middle" x="490.34" y="-275.3" font-family="Times,serif" font-size="14.00">Englishman</text>
</g>
<!-- Nationality&#45;&gt;Englishman -->
<g id="edge23" class="edge">
<title>Nationality&#45;&gt;Englishman</title>
<path fill="none" stroke="black" d="M991.66,-531.13C898.72,-484.57 614.02,-341.96 520.48,-295.1"/>
</g>
<!-- Spaniard -->
<g id="node18" class="node">
<title>Spaniard</title>
<ellipse fill="none" stroke="black" cx="1177.34" cy="-420" rx="52.79" ry="18"/>
<text text-anchor="middle" x="1177.34" y="-416.3" font-family="Times,serif" font-size="14.00">Spaniard</text>
</g>
<!-- Nationality&#45;&gt;Spaniard -->
<g id="edge24" class="edge">
<title>Nationality&#45;&gt;Spaniard</title>
<path fill="none" stroke="black" d="M1041.42,-529.91C1071.37,-505.91 1127.44,-460.99 1157.35,-437.02"/>
</g>
<!-- Ukrainian -->
<g id="node19" class="node">
<title>Ukrainian</title>
<ellipse fill="none" stroke="black" cx="1021.34" cy="-420" rx="56.59" ry="18"/>
<text text-anchor="middle" x="1021.34" y="-416.3" font-family="Times,serif" font-size="14.00">Ukrainian</text>
</g>
<!-- Nationality&#45;&gt;Ukrainian -->
<g id="edge25" class="edge">
<title>Nationality&#45;&gt;Ukrainian</title>
<path fill="none" stroke="black" d="M1021.34,-528.88C1021.34,-505.08 1021.34,-462.22 1021.34,-438.31"/>
</g>
<!-- Japanese -->
<g id="node20" class="node">
<title>Japanese</title>
<ellipse fill="none" stroke="black" cx="1596.34" cy="-474" rx="51.99" ry="18"/>
<text text-anchor="middle" x="1596.34" y="-470.3" font-family="Times,serif" font-size="14.00">Japanese</text>
</g>
<!-- Nationality&#45;&gt;Japanese -->
<g id="edge26" class="edge">
<title>Nationality&#45;&gt;Japanese</title>
<path fill="none" stroke="black" d="M1080.52,-541.04C1172.53,-532.98 1355.36,-515.52 1509.34,-492 1523.64,-489.82 1539.17,-486.94 1553.1,-484.18"/>
</g>
<!-- Norwegian -->
<g id="node21" class="node">
<title>Norwegian</title>
<ellipse fill="none" stroke="black" cx="692.34" cy="-474" rx="61.99" ry="18"/>
<text text-anchor="middle" x="692.34" y="-470.3" font-family="Times,serif" font-size="14.00">Norwegian</text>
</g>
<!-- Nationality&#45;&gt;Norwegian -->
<g id="edge27" class="edge">
<title>Nationality&#45;&gt;Norwegian</title>
<path fill="none" stroke="black" d="M960.44,-542.79C908.49,-538.82 832.29,-530.08 768.34,-511 751.42,-505.95 733.51,-497.63 719.34,-490.26"/>
</g>
<!-- Pet -->
<g id="node4" class="node">
<title>Pet</title>
<ellipse fill="lightgrey" stroke="black" cx="1526.34" cy="-366" rx="27" ry="18"/>
<text text-anchor="middle" x="1526.34" y="-362.3" font-family="Times,serif" font-size="14.00">Pet</text>
</g>
<!-- Dog -->
<g id="node22" class="node">
<title>Dog</title>
<ellipse fill="none" stroke="black" cx="1222.34" cy="-279" rx="29.5" ry="18"/>
<text text-anchor="middle" x="1222.34" y="-275.3" font-family="Times,serif" font-size="14.00">Dog</text>
</g>
<!-- Pet&#45;&gt;Dog -->
<g id="edge28" class="edge">
<title>Pet&#45;&gt;Dog</title>
<path fill="none" stroke="black" d="M1505.29,-354.29C1500.45,-352.04 1495.28,-349.81 1490.34,-348 1445.5,-331.55 1308.43,-299.58 1249.62,-286.17"/>
</g>
<!-- Hourse -->
<g id="node23" class="node">
<title>Hourse</title>
<ellipse fill="none" stroke="black" cx="1432.34" cy="-279" rx="44.39" ry="18"/>
<text text-anchor="middle" x="1432.34" y="-275.3" font-family="Times,serif" font-size="14.00">Hourse</text>
</g>
<!-- Pet&#45;&gt;Hourse -->
<g id="edge29" class="edge">
<title>Pet&#45;&gt;Hourse</title>
<path fill="none" stroke="black" d="M1518.18,-348.72C1512.32,-338.19 1503.65,-324.68 1493.34,-315 1483.91,-306.14 1471.83,-298.61 1460.91,-292.84"/>
</g>
<!-- Snail -->
<g id="node24" class="node">
<title>Snail</title>
<ellipse fill="none" stroke="black" cx="1624.34" cy="-279" rx="34.39" ry="18"/>
<text text-anchor="middle" x="1624.34" y="-275.3" font-family="Times,serif" font-size="14.00">Snail</text>
</g>
<!-- Pet&#45;&gt;Snail -->
<g id="edge30" class="edge">
<title>Pet&#45;&gt;Snail</title>
<path fill="none" stroke="black" d="M1542.09,-351.34C1559.94,-335.86 1588.95,-310.7 1607.32,-294.76"/>
</g>
<!-- Fox -->
<g id="node25" class="node">
<title>Fox</title>
<ellipse fill="none" stroke="black" cx="1342.34" cy="-279" rx="27.1" ry="18"/>
<text text-anchor="middle" x="1342.34" y="-275.3" font-family="Times,serif" font-size="14.00">Fox</text>
</g>
<!-- Pet&#45;&gt;Fox -->
<g id="edge31" class="edge">
<title>Pet&#45;&gt;Fox</title>
<path fill="none" stroke="black" d="M1512.51,-350C1501.18,-338.65 1484.18,-323.6 1466.34,-315 1430.78,-297.85 1416.86,-309.32 1379.34,-297 1374.11,-295.28 1368.62,-293.03 1363.53,-290.73"/>
</g>
<!-- Zebra -->
<g id="node26" class="node">
<title>Zebra</title>
<ellipse fill="none" stroke="black" cx="1533.34" cy="-279" rx="38.19" ry="18"/>
<text text-anchor="middle" x="1533.34" y="-275.3" font-family="Times,serif" font-size="14.00">Zebra</text>
</g>
<!-- Pet&#45;&gt;Zebra -->
<g id="edge32" class="edge">
<title>Pet&#45;&gt;Zebra</title>
<path fill="none" stroke="black" d="M1527.76,-347.8C1528.98,-333.05 1530.72,-311.92 1531.93,-297.18"/>
</g>
<!-- Cigarette -->
<g id="node5" class="node">
<title>Cigarette</title>
<ellipse fill="lightgrey" stroke="black" cx="1445.34" cy="-474" rx="54.69" ry="18"/>
<text text-anchor="middle" x="1445.34" y="-470.3" font-family="Times,serif" font-size="14.00">Cigarette</text>
</g>
<!-- Old_Gold -->
<g id="node27" class="node">
<title>Old_Gold</title>
<ellipse fill="none" stroke="black" cx="1624.34" cy="-366" rx="52.79" ry="18"/>
<text text-anchor="middle" x="1624.34" y="-362.3" font-family="Times,serif" font-size="14.00">Old_Gold</text>
</g>
<!-- Cigarette&#45;&gt;Old_Gold -->
<g id="edge33" class="edge">
<title>Cigarette&#45;&gt;Old_Gold</title>
<path fill="none" stroke="black" d="M1470.61,-458.04C1504.73,-437.84 1565.16,-402.05 1599.21,-381.89"/>
</g>
<!-- Chesterfields -->
<g id="node28" class="node">
<title>Chesterfields</title>
<ellipse fill="none" stroke="black" cx="1319.34" cy="-366" rx="72.29" ry="18"/>
<text text-anchor="middle" x="1319.34" y="-362.3" font-family="Times,serif" font-size="14.00">Chesterfields</text>
</g>
<!-- Cigarette&#45;&gt;Chesterfields -->
<g id="edge34" class="edge">
<title>Cigarette&#45;&gt;Chesterfields</title>
<path fill="none" stroke="black" d="M1426.21,-456.9C1402.66,-437.09 1362.89,-403.64 1339.08,-383.6"/>
</g>
<!-- Lucky_Strike -->
<g id="node29" class="node">
<title>Lucky_Strike</title>
<ellipse fill="none" stroke="black" cx="1120.34" cy="-366" rx="70.69" ry="18"/>
<text text-anchor="middle" x="1120.34" y="-362.3" font-family="Times,serif" font-size="14.00">Lucky_Strike</text>
</g>
<!-- Cigarette&#45;&gt;Lucky_Strike -->
<g id="edge35" class="edge">
<title>Cigarette&#45;&gt;Lucky_Strike</title>
<path fill="none" stroke="black" d="M1409.78,-460.19C1368.85,-445.57 1299.53,-421.21 1239.34,-402 1215.24,-394.31 1188.19,-386.3 1165.98,-379.89"/>
</g>
<!-- Kools -->
<g id="node30" class="node">
<title>Kools</title>
<ellipse fill="none" stroke="black" cx="1445.34" cy="-366" rx="36" ry="18"/>
<text text-anchor="middle" x="1445.34" y="-362.3" font-family="Times,serif" font-size="14.00">Kools</text>
</g>
<!-- Cigarette&#45;&gt;Kools -->
<g id="edge36" class="edge">
<title>Cigarette&#45;&gt;Kools</title>
<path fill="none" stroke="black" d="M1445.34,-455.97C1445.34,-436.31 1445.34,-404.13 1445.34,-384.34"/>
</g>
<!-- Parlament -->
<g id="node31" class="node">
<title>Parlament</title>
<ellipse fill="none" stroke="black" cx="1753.34" cy="-366" rx="58.49" ry="18"/>
<text text-anchor="middle" x="1753.34" y="-362.3" font-family="Times,serif" font-size="14.00">Parlament</text>
</g>
<!-- Cigarette&#45;&gt;Parlament -->
<g id="edge37" class="edge">
<title>Cigarette&#45;&gt;Parlament</title>
<path fill="none" stroke="black" d="M1482.6,-460.55C1502.2,-453.95 1526.61,-445.64 1548.34,-438 1592.51,-422.47 1603.11,-417.34 1647.34,-402 1669.5,-394.32 1694.39,-386.08 1714.48,-379.52"/>
</g>
<!-- Drink -->
<g id="node6" class="node">
<title>Drink</title>
<ellipse fill="lightgrey" stroke="black" cx="954.34" cy="-366" rx="36.29" ry="18"/>
<text text-anchor="middle" x="954.34" y="-362.3" font-family="Times,serif" font-size="14.00">Drink</text>
</g>
<!-- Coffee -->
<g id="node32" class="node">
<title>Coffee</title>
<ellipse fill="none" stroke="black" cx="694.34" cy="-279" rx="40.09" ry="18"/>
<text text-anchor="middle" x="694.34" y="-275.3" font-family="Times,serif" font-size="14.00">Coffee</text>
</g>
<!-- Drink&#45;&gt;Coffee -->
<g id="edge38" class="edge">
<title>Drink&#45;&gt;Coffee</title>
<path fill="none" stroke="black" d="M926.77,-354.12C910.48,-347.51 889.55,-338.69 871.34,-330 858.6,-323.92 856.68,-319.64 843.34,-315 800.7,-300.16 787.03,-308.44 743.34,-297 737.07,-295.36 730.45,-293.3 724.18,-291.18"/>
</g>
<!-- Milk -->
<g id="node33" class="node">
<title>Milk</title>
<ellipse fill="none" stroke="black" cx="605.34" cy="-279" rx="31.4" ry="18"/>
<text text-anchor="middle" x="605.34" y="-275.3" font-family="Times,serif" font-size="14.00">Milk</text>
</g>
<!-- Drink&#45;&gt;Milk -->
<g id="edge39" class="edge">
<title>Drink&#45;&gt;Milk</title>
<path fill="none" stroke="black" d="M924.88,-355.35C882.78,-341.6 809.07,-317.75 796.34,-315 730.28,-300.74 710.65,-314.39 645.34,-297 639.8,-295.52 634.03,-293.43 628.64,-291.21"/>
</g>
<!-- Tea -->
<g id="node34" class="node">
<title>Tea</title>
<ellipse fill="none" stroke="black" cx="1039.34" cy="-279" rx="27" ry="18"/>
<text text-anchor="middle" x="1039.34" y="-275.3" font-family="Times,serif" font-size="14.00">Tea</text>
</g>
<!-- Drink&#45;&gt;Tea -->
<g id="edge40" class="edge">
<title>Drink&#45;&gt;Tea</title>
<path fill="none" stroke="black" d="M964.16,-348.65C970.8,-338.34 980.19,-325.12 990.34,-315 999.23,-306.15 1010.55,-297.9 1020.08,-291.64"/>
</g>
<!-- Juice -->
<g id="node35" class="node">
<title>Juice</title>
<ellipse fill="none" stroke="black" cx="1117.34" cy="-279" rx="33.29" ry="18"/>
<text text-anchor="middle" x="1117.34" y="-275.3" font-family="Times,serif" font-size="14.00">Juice</text>
</g>
<!-- Drink&#45;&gt;Juice -->
<g id="edge41" class="edge">
<title>Drink&#45;&gt;Juice</title>
<path fill="none" stroke="black" d="M978.4,-352.46C1009.57,-336.2 1063.55,-308.05 1094.25,-292.04"/>
</g>
<!-- Water -->
<g id="node36" class="node">
<title>Water</title>
<ellipse fill="none" stroke="black" cx="956.34" cy="-279" rx="38.19" ry="18"/>
<text text-anchor="middle" x="956.34" y="-275.3" font-family="Times,serif" font-size="14.00">Water</text>
</g>
<!-- Drink&#45;&gt;Water -->
<g id="edge42" class="edge">
<title>Drink&#45;&gt;Water</title>
<path fill="none" stroke="black" d="M954.75,-347.8C955.1,-333.05 955.59,-311.92 955.94,-297.18"/>
</g>
<!-- House_First&#45;&gt;House_A -->
<g id="edge6" class="edge">
<title>House_First&#45;&gt;House_A</title>
<path fill="none" stroke="red" d="M305.51,-350.4C293.91,-344.74 281.15,-337.75 270.34,-330 259.9,-322.51 249.56,-312.89 240.94,-304.09"/>
<polygon fill="red" stroke="red" points="243.28,-301.47 233.86,-296.64 238.21,-306.3 243.28,-301.47"/>
<text text-anchor="middle" x="288.34" y="-318.8" font-family="Times,serif" font-size="14.00">right</text>
</g>
<!-- House_First&#45;&gt;House_A -->
<g id="edge14" class="edge">
<title>House_First&#45;&gt;House_A</title>
<path fill="none" stroke="blue" d="M276.97,-359.34C237.51,-354.33 191.69,-345.34 179.34,-330 169.86,-318.22 181.75,-304.85 194.97,-294.9"/>
<text text-anchor="middle" x="195.34" y="-318.8" font-family="Times,serif" font-size="14.00">next</text>
</g>
<!-- House_First&#45;&gt;Ivory -->
<g id="edge62" class="edge">
<title>House_First&#45;&gt;Ivory</title>
<path fill="none" stroke="grey" stroke-width="2" stroke-dasharray="5,2" d="M340.38,-347.91C340.71,-342.22 341.06,-335.84 341.34,-330 345.11,-252.7 346.79,-233.38 348.34,-156 348.48,-149.33 348.91,-147.64 348.34,-141 347.84,-135.1 346.87,-128.71 345.86,-123.02"/>
</g>
<!-- House_First&#45;&gt;Yellow -->
<g id="edge60" class="edge">
<title>House_First&#45;&gt;Yellow</title>
<path fill="none" stroke="grey" stroke-width="2" stroke-dasharray="5,2" d="M406.06,-364.44C525.73,-362.08 770.27,-350.62 833.34,-297 858.96,-275.22 864.43,-233.45 865.38,-210.02"/>
</g>
<!-- House_First&#45;&gt;Red -->
<g id="edge59" class="edge">
<title>House_First&#45;&gt;Red</title>
<path fill="none" stroke="grey" stroke-width="2" stroke-dasharray="5,2" d="M356.17,-348.52C361.59,-342.86 367.45,-336.35 372.34,-330 394.4,-301.38 391.66,-288.29 415.34,-261 434.24,-239.23 460.42,-218.59 477.85,-205.88"/>
</g>
<!-- House_First&#45;&gt;Green -->
<g id="edge61" class="edge">
<title>House_First&#45;&gt;Green</title>
<path fill="none" stroke="grey" stroke-width="2" stroke-dasharray="5,2" d="M334.96,-347.88C326.53,-314.91 308.13,-242.97 299.71,-210.05"/>
</g>
<!-- House_First&#45;&gt;Englishman -->
<g id="edge63" class="edge">
<title>House_First&#45;&gt;Englishman</title>
<path fill="none" stroke="red" stroke-width="2" stroke-dasharray="5,2" d="M371.51,-349.99C383.8,-344.04 397.86,-336.96 410.34,-330 429.52,-319.32 450.54,-306.12 466.22,-295.97"/>
</g>
<!-- House_A&#45;&gt;House_First -->
<g id="edge13" class="edge">
<title>House_A&#45;&gt;House_First</title>
<path fill="none" stroke="yellow" d="M215.81,-297.02C214.63,-307.6 215.11,-320.87 222.34,-330 233.19,-343.68 249.16,-352.19 265.84,-357.42"/>
<polygon fill="yellow" stroke="yellow" points="265.13,-360.86 275.71,-360.14 267,-354.11 265.13,-360.86"/>
<text text-anchor="middle" x="234.84" y="-318.8" font-family="Times,serif" font-size="14.00">left</text>
</g>
<!-- House_A&#45;&gt;House_Middle -->
<g id="edge7" class="edge">
<title>House_A&#45;&gt;House_Middle</title>
<path fill="none" stroke="red" d="M213.95,-260.78C210.26,-250.63 204.7,-237.89 197.34,-228 194.28,-223.88 190.65,-219.92 186.83,-216.24"/>
<polygon fill="red" stroke="red" points="189.15,-213.61 179.37,-209.54 184.47,-218.82 189.15,-213.61"/>
<text text-anchor="middle" x="223.34" y="-231.8" font-family="Times,serif" font-size="14.00">right</text>
</g>
<!-- House_A&#45;&gt;House_Middle -->
<g id="edge15" class="edge">
<title>House_A&#45;&gt;House_Middle</title>
<path fill="none" stroke="blue" d="M172.67,-271.79C155.16,-266.94 136.95,-258.32 126.34,-243 118.85,-232.18 126.71,-219.45 136.25,-209.55"/>
<text text-anchor="middle" x="142.34" y="-231.8" font-family="Times,serif" font-size="14.00">next</text>
</g>
<!-- House_A&#45;&gt;Green -->
<g id="edge64" class="edge">
<title>House_A&#45;&gt;Green</title>
<path fill="none" stroke="red" stroke-width="2" stroke-dasharray="5,2" d="M234,-261.61C247.54,-246.46 267.55,-224.09 280.99,-209.05"/>
</g>
<!-- House_A&#45;&gt;Blue -->
<g id="edge58" class="edge">
<title>House_A&#45;&gt;Blue</title>
<path fill="none" stroke="black" d="M264.84,-271.04C374.81,-254.23 652.74,-211.74 745.03,-197.63"/>
</g>
<!-- House_Middle&#45;&gt;House_A -->
<g id="edge12" class="edge">
<title>House_Middle&#45;&gt;House_A</title>
<path fill="none" stroke="yellow" d="M157.42,-210.46C158.78,-220.69 161.77,-233.44 168.34,-243 172.23,-248.65 177.35,-253.65 182.84,-257.99"/>
<polygon fill="yellow" stroke="yellow" points="180.89,-260.9 191.06,-263.86 184.95,-255.2 180.89,-260.9"/>
<text text-anchor="middle" x="180.84" y="-231.8" font-family="Times,serif" font-size="14.00">left</text>
</g>
<!-- House_Middle&#45;&gt;House_1 -->
<g id="edge8" class="edge">
<title>House_Middle&#45;&gt;House_1</title>
<path fill="none" stroke="red" d="M109.78,-177.67C99.72,-172.55 90.32,-165.54 84.34,-156 80.1,-149.22 79.42,-140.88 80.28,-132.96"/>
<polygon fill="red" stroke="red" points="83.76,-133.44 82.15,-122.97 76.87,-132.16 83.76,-133.44"/>
<text text-anchor="middle" x="102.34" y="-144.8" font-family="Times,serif" font-size="14.00">right</text>
</g>
<!-- House_Middle&#45;&gt;House_1 -->
<g id="edge16" class="edge">
<title>House_Middle&#45;&gt;House_1</title>
<path fill="none" stroke="blue" d="M144.82,-173.97C137.98,-164.13 128.98,-151.63 120.34,-141 115.26,-134.74 109.37,-128.14 104.05,-122.38"/>
<text text-anchor="middle" x="148.34" y="-144.8" font-family="Times,serif" font-size="14.00">next</text>
</g>
<!-- House_1&#45;&gt;House_Middle -->
<g id="edge11" class="edge">
<title>House_1&#45;&gt;House_Middle</title>
<path fill="none" stroke="yellow" d="M133,-113.24C149.11,-118.24 165.68,-126.7 175.34,-141 180.25,-148.27 178.95,-156.98 175.36,-165.08"/>
<polygon fill="yellow" stroke="yellow" points="172.28,-163.41 170.53,-173.86 178.42,-166.78 172.28,-163.41"/>
<text text-anchor="middle" x="190.84" y="-144.8" font-family="Times,serif" font-size="14.00">left</text>
</g>
<!-- House_1&#45;&gt;House_Last -->
<g id="edge9" class="edge">
<title>House_1&#45;&gt;House_Last</title>
<path fill="none" stroke="red" d="M83.49,-86.8C80.17,-75.05 75.71,-59.24 71.92,-45.84"/>
<polygon fill="red" stroke="red" points="75.28,-44.85 69.19,-36.18 68.54,-46.75 75.28,-44.85"/>
<text text-anchor="middle" x="96.34" y="-57.8" font-family="Times,serif" font-size="14.00">right</text>
</g>
<!-- House_1&#45;&gt;House_Last -->
<g id="edge17" class="edge">
<title>House_1&#45;&gt;House_Last</title>
<path fill="none" stroke="blue" d="M107.56,-87.99C116.79,-78.28 124.63,-65.56 118.34,-54 113.7,-45.46 105.98,-38.68 97.8,-33.46"/>
<text text-anchor="middle" x="137.34" y="-57.8" font-family="Times,serif" font-size="14.00">next</text>
</g>
<!-- House_Last&#45;&gt;House_1 -->
<g id="edge10" class="edge">
<title>House_Last&#45;&gt;House_1</title>
<path fill="none" stroke="yellow" d="M51.59,-35.98C45.84,-45.81 41.34,-58.31 46.34,-69 48.6,-73.82 51.88,-78.21 55.64,-82.12"/>
<polygon fill="yellow" stroke="yellow" points="53.52,-84.92 63.28,-89.05 58.22,-79.74 53.52,-84.92"/>
<text text-anchor="middle" x="58.84" y="-57.8" font-family="Times,serif" font-size="14.00">left</text>
</g>
<!-- Ivory&#45;&gt;Green -->
<g id="edge47" class="edge">
<title>Ivory&#45;&gt;Green</title>
<path fill="none" stroke="red" d="M310.29,-111.76C293.56,-116.58 274.51,-125.3 264.34,-141 258.57,-149.93 262.62,-159.86 269.46,-168.51"/>
<polygon fill="red" stroke="red" points="266.99,-171 276.32,-176.03 272.16,-166.28 266.99,-171"/>
<text text-anchor="middle" x="282.34" y="-144.8" font-family="Times,serif" font-size="14.00">right</text>
</g>
<!-- Green&#45;&gt;Ivory -->
<g id="edge48" class="edge">
<title>Green&#45;&gt;Ivory</title>
<path fill="none" stroke="yellow" d="M304.63,-174.21C311.37,-162.02 320.6,-145.32 328.25,-131.49"/>
<polygon fill="yellow" stroke="yellow" points="331.46,-132.91 333.24,-122.47 325.34,-129.53 331.46,-132.91"/>
<text text-anchor="middle" x="333.84" y="-144.8" font-family="Times,serif" font-size="14.00">left</text>
</g>
<!-- Englishman&#45;&gt;Red -->
<g id="edge43" class="edge">
<title>Englishman&#45;&gt;Red</title>
<path fill="none" stroke="black" d="M491.56,-260.8C492.6,-246.05 494.09,-224.92 495.13,-210.18"/>
</g>
<!-- Spaniard&#45;&gt;Dog -->
<g id="edge44" class="edge">
<title>Spaniard&#45;&gt;Dog</title>
<path fill="none" stroke="black" d="M1190.16,-402.27C1193.92,-396.7 1197.71,-390.31 1200.34,-384 1212.49,-354.87 1218.22,-318.25 1220.69,-297.15"/>
</g>
<!-- Ukrainian&#45;&gt;Tea -->
<g id="edge46" class="edge">
<title>Ukrainian&#45;&gt;Tea</title>
<path fill="none" stroke="black" d="M1023.55,-401.96C1027.01,-375.28 1033.65,-323.95 1037.12,-297.18"/>
</g>
<!-- Japanese&#45;&gt;Parlament -->
<g id="edge56" class="edge">
<title>Japanese&#45;&gt;Parlament</title>
<path fill="none" stroke="black" d="M1619.17,-457.59C1648.85,-437.55 1700.41,-402.74 1730.23,-382.6"/>
</g>
<!-- Norwegian&#45;&gt;House_First -->
<g id="edge52" class="edge">
<title>Norwegian&#45;&gt;House_First</title>
<path fill="none" stroke="black" d="M650.81,-460.53C583.38,-440.28 450.75,-400.45 382.37,-379.92"/>
</g>
<!-- Norwegian&#45;&gt;Blue -->
<g id="edge57" class="edge">
<title>Norwegian&#45;&gt;Blue</title>
<path fill="none" stroke="blue" d="M712,-456.82C744.69,-428.48 809.02,-366.26 833.34,-297 838.65,-281.9 838.88,-276.01 833.34,-261 825.3,-239.16 806.77,-219.57 792.8,-207.09"/>
<text text-anchor="middle" x="841.34" y="-318.8" font-family="Times,serif" font-size="14.00">next</text>
</g>
<!-- Old_Gold&#45;&gt;Snail -->
<g id="edge49" class="edge">
<title>Old_Gold&#45;&gt;Snail</title>
<path fill="none" stroke="black" d="M1624.34,-347.8C1624.34,-333.05 1624.34,-311.92 1624.34,-297.18"/>
</g>
<!-- Chesterfields&#45;&gt;Fox -->
<g id="edge53" class="edge">
<title>Chesterfields&#45;&gt;Fox</title>
<path fill="none" stroke="blue" d="M1324,-347.8C1328.02,-332.95 1333.78,-311.64 1337.78,-296.89"/>
<text text-anchor="middle" x="1347.34" y="-318.8" font-family="Times,serif" font-size="14.00">next</text>
</g>
<!-- Lucky_Strike&#45;&gt;Juice -->
<g id="edge55" class="edge">
<title>Lucky_Strike&#45;&gt;Juice</title>
<path fill="none" stroke="black" d="M1119.74,-347.8C1119.22,-333.05 1118.47,-311.92 1117.95,-297.18"/>
</g>
<!-- Kools&#45;&gt;Yellow -->
<g id="edge50" class="edge">
<title>Kools&#45;&gt;Yellow</title>
<path fill="none" stroke="black" d="M1417.93,-354.02C1412.17,-351.89 1406.09,-349.77 1400.34,-348 1367.58,-337.92 1355,-347.19 1325.34,-330 1288.9,-308.87 1297.46,-280.93 1260.34,-261 1198.96,-228.03 991.92,-205.03 904.65,-196.58"/>
</g>
<!-- Kools&#45;&gt;Hourse -->
<g id="edge54" class="edge">
<title>Kools&#45;&gt;Hourse</title>
<path fill="none" stroke="blue" d="M1442.71,-347.8C1440.46,-333.05 1437.23,-311.92 1434.97,-297.18"/>
<text text-anchor="middle" x="1455.34" y="-318.8" font-family="Times,serif" font-size="14.00">next</text>
</g>
<!-- Coffee&#45;&gt;Green -->
<g id="edge45" class="edge">
<title>Coffee&#45;&gt;Green</title>
<path fill="none" stroke="black" d="M665.14,-266.54C658.71,-264.39 651.86,-262.39 645.34,-261 553.72,-241.5 526.88,-262.92 435.34,-243 394.87,-234.19 350.12,-216.77 322.36,-205.01"/>
</g>
<!-- Milk&#45;&gt;House_Middle -->
<g id="edge51" class="edge">
<title>Milk&#45;&gt;House_Middle</title>
<path fill="none" stroke="black" d="M582.07,-266.7C576.68,-264.49 570.9,-262.41 565.34,-261 484.86,-240.52 461.36,-256.11 379.34,-243 319.01,-233.35 250.57,-217.22 205.6,-205.89"/>
</g>
</g>
</svg>
