<?xml version="1.0" encoding="UTF-8" standalone="no"?>
<!DOCTYPE svg PUBLIC "-//W3C//DTD SVG 1.1//EN"
 "http://www.w3.org/Graphics/SVG/1.1/DTD/svg11.dtd">
<!-- Generated by graphviz version 2.43.0 (0)
 -->
<!-- Title: G Pages: 1 -->
<svg width="268pt" height="291pt"
 viewBox="0.00 0.00 267.79 291.00" xmlns="http://www.w3.org/2000/svg" xmlns:xlink="http://www.w3.org/1999/xlink">
<g id="graph0" class="graph" transform="scale(1 1) rotate(0) translate(4 287)">
<title>G</title>
<polygon fill="white" stroke="transparent" points="-4,4 -4,-287 263.79,-287 263.79,4 -4,4"/>
<!-- House -->
<g id="node1" class="node">
<title>House</title>
<ellipse fill="lightgrey" stroke="black" cx="54.05" cy="-18" rx="40.09" ry="18"/>
<text text-anchor="middle" x="54.05" y="-14.3" font-family="Times,serif" font-size="14.00">House</text>
</g>
<!-- Color -->
<g id="node2" class="node">
<title>Color</title>
<ellipse fill="lightgrey" stroke="black" cx="224.05" cy="-91" rx="36" ry="18"/>
<text text-anchor="middle" x="224.05" y="-87.3" font-family="Times,serif" font-size="14.00">Color</text>
</g>
<!-- House-4 -->
<g id="node3" class="node">
<title>House-4</title>
<ellipse fill="none" stroke="black" cx="50.05" cy="-178" rx="50.09" ry="18"/>
<text text-anchor="middle" x="50.05" y="-174.3" font-family="Times,serif" font-size="14.00">House-4</text>
</g>
<!-- House-4&#45;&gt;House -->
<g id="edge1" class="edge">
<title>House-4&#45;&gt;House</title>
<path fill="none" stroke="black" d="M50.48,-159.79C51.17,-132.48 52.53,-78.99 53.35,-46.38"/>
<polygon fill="black" stroke="black" points="56.86,-46.27 53.61,-36.19 49.86,-46.1 56.86,-46.27"/>
</g>
<!-- House-5 -->
<g id="node4" class="node">
<title>House-5</title>
<ellipse fill="none" stroke="black" cx="120.05" cy="-91" rx="50.09" ry="18"/>
<text text-anchor="middle" x="120.05" y="-87.3" font-family="Times,serif" font-size="14.00">House-5</text>
</g>
<!-- House-4&#45;&gt;House-5 -->
<g id="edge3" class="edge">
<title>House-4&#45;&gt;House-5</title>
<path fill="none" stroke="red" d="M63.54,-160.61C73.9,-148.03 88.37,-130.46 100.07,-116.25"/>
<polygon fill="red" stroke="red" points="102.93,-118.28 106.59,-108.34 97.53,-113.83 102.93,-118.28"/>
<text text-anchor="middle" x="108.05" y="-130.8" font-family="Times,serif" font-size="14.00">right</text>
</g>
<!-- House-5&#45;&gt;House -->
<g id="edge2" class="edge">
<title>House-5&#45;&gt;House</title>
<path fill="none" stroke="black" d="M104.74,-73.53C96.12,-64.26 85.22,-52.53 75.73,-42.33"/>
<polygon fill="black" stroke="black" points="78.19,-39.83 68.82,-34.89 73.06,-44.6 78.19,-39.83"/>
</g>
<!-- Ivory -->
<g id="node5" class="node">
<title>Ivory</title>
<ellipse fill="none" stroke="black" cx="157.05" cy="-265" rx="34.39" ry="18"/>
<text text-anchor="middle" x="157.05" y="-261.3" font-family="Times,serif" font-size="14.00">Ivory</text>
</g>
<!-- Ivory&#45;&gt;Color -->
<g id="edge4" class="edge">
<title>Ivory&#45;&gt;Color</title>
<path fill="none" stroke="black" d="M177.34,-250.32C184.54,-244.52 192.07,-237.21 197.05,-229 217.55,-195.18 222.88,-148.82 224.06,-119.64"/>
<polygon fill="black" stroke="black" points="227.56,-119.45 224.33,-109.36 220.57,-119.27 227.56,-119.45"/>
</g>
<!-- Ivory&#45;&gt;House-4 -->
<g id="edge7" class="edge">
<title>Ivory&#45;&gt;House-4</title>
<path fill="none" stroke="black" d="M138.89,-249.58C122.1,-236.24 96.88,-216.2 77.6,-200.89"/>
<polygon fill="black" stroke="black" points="79.75,-198.12 69.74,-194.64 75.39,-203.61 79.75,-198.12"/>
</g>
<!-- Green -->
<g id="node6" class="node">
<title>Green</title>
<ellipse fill="none" stroke="black" cx="157.05" cy="-178" rx="38.99" ry="18"/>
<text text-anchor="middle" x="157.05" y="-174.3" font-family="Times,serif" font-size="14.00">Green</text>
</g>
<!-- Ivory&#45;&gt;Green -->
<g id="edge6" class="edge">
<title>Ivory&#45;&gt;Green</title>
<path fill="none" stroke="red" d="M157.05,-246.8C157.05,-235.16 157.05,-219.55 157.05,-206.24"/>
<polygon fill="red" stroke="red" points="160.55,-206.18 157.05,-196.18 153.55,-206.18 160.55,-206.18"/>
<text text-anchor="middle" x="175.05" y="-217.8" font-family="Times,serif" font-size="14.00">right</text>
</g>
<!-- Green&#45;&gt;Color -->
<g id="edge5" class="edge">
<title>Green&#45;&gt;Color</title>
<path fill="none" stroke="black" d="M169.96,-160.61C179.95,-147.95 193.91,-130.24 205.14,-115.98"/>
<polygon fill="black" stroke="black" points="207.95,-118.07 211.39,-108.05 202.45,-113.74 207.95,-118.07"/>
</g>
<!-- Green&#45;&gt;House-5 -->
<g id="edge8" class="edge">
<title>Green&#45;&gt;House-5</title>
<path fill="none" stroke="green" stroke-width="2" d="M149.74,-160.21C144.55,-148.29 137.48,-132.06 131.55,-118.42"/>
<polygon fill="green" stroke="green" stroke-width="2" points="134.67,-116.82 127.47,-109.05 128.25,-119.62 134.67,-116.82"/>
</g>
</g>
</svg>
