<?xml version="1.0" encoding="UTF-8" standalone="no"?>
<!DOCTYPE svg PUBLIC "-//W3C//DTD SVG 1.1//EN"
 "http://www.w3.org/Graphics/SVG/1.1/DTD/svg11.dtd">
<!-- Generated by graphviz version 2.43.0 (0)
 -->
<!-- Title: G Pages: 1 -->
<svg width="241pt" height="260pt"
 viewBox="0.00 0.00 241.04 260.00" xmlns="http://www.w3.org/2000/svg" xmlns:xlink="http://www.w3.org/1999/xlink">
<g id="graph0" class="graph" transform="scale(1 1) rotate(0) translate(4 256)">
<title>G</title>
<polygon fill="white" stroke="transparent" points="-4,4 -4,-256 237.04,-256 237.04,4 -4,4"/>
<!-- House -->
<g id="node1" class="node">
<title>House</title>
<ellipse fill="lightgrey" stroke="black" cx="40.3" cy="-162" rx="40.09" ry="18"/>
<text text-anchor="middle" x="40.3" y="-158.3" font-family="Times,serif" font-size="14.00">House</text>
</g>
<!-- Color -->
<g id="node2" class="node">
<title>Color</title>
<ellipse fill="lightgrey" stroke="black" cx="197.3" cy="-90" rx="36" ry="18"/>
<text text-anchor="middle" x="197.3" y="-86.3" font-family="Times,serif" font-size="14.00">Color</text>
</g>
<!-- Cigarette -->
<g id="node3" class="node">
<title>Cigarette</title>
<ellipse fill="lightgrey" stroke="black" cx="108.3" cy="-18" rx="54.69" ry="18"/>
<text text-anchor="middle" x="108.3" y="-14.3" font-family="Times,serif" font-size="14.00">Cigarette</text>
</g>
<!-- House_1 -->
<g id="node4" class="node">
<title>House_1</title>
<ellipse fill="none" stroke="black" cx="108.3" cy="-234" rx="50.09" ry="18"/>
<text text-anchor="middle" x="108.3" y="-230.3" font-family="Times,serif" font-size="14.00">House_1</text>
</g>
<!-- House_1&#45;&gt;House -->
<g id="edge1" class="edge">
<title>House_1&#45;&gt;House</title>
<path fill="none" stroke="black" d="M92.52,-216.76C83.77,-207.75 72.73,-196.39 63.05,-186.43"/>
<polygon fill="black" stroke="black" points="65.46,-183.88 55.98,-179.15 60.44,-188.76 65.46,-183.88"/>
</g>
<!-- Kools -->
<g id="node5" class="node">
<title>Kools</title>
<ellipse fill="none" stroke="black" cx="108.3" cy="-90" rx="36" ry="18"/>
<text text-anchor="middle" x="108.3" y="-86.3" font-family="Times,serif" font-size="14.00">Kools</text>
</g>
<!-- House_1&#45;&gt;Kools -->
<g id="edge6" class="edge">
<title>House_1&#45;&gt;Kools</title>
<path fill="none" stroke="green" stroke-width="2" d="M108.3,-215.87C108.3,-191.67 108.3,-147.21 108.3,-118.39"/>
<polygon fill="green" stroke="green" stroke-width="2" points="111.8,-118.19 108.3,-108.19 104.8,-118.19 111.8,-118.19"/>
</g>
<!-- Yellow -->
<g id="node6" class="node">
<title>Yellow</title>
<ellipse fill="none" stroke="black" cx="176.3" cy="-162" rx="40.09" ry="18"/>
<text text-anchor="middle" x="176.3" y="-158.3" font-family="Times,serif" font-size="14.00">Yellow</text>
</g>
<!-- House_1&#45;&gt;Yellow -->
<g id="edge4" class="edge">
<title>House_1&#45;&gt;Yellow</title>
<path fill="none" stroke="black" d="M124.07,-216.76C132.82,-207.75 143.87,-196.39 153.54,-186.43"/>
<polygon fill="black" stroke="black" points="156.15,-188.76 160.61,-179.15 151.13,-183.88 156.15,-188.76"/>
</g>
<!-- Kools&#45;&gt;Cigarette -->
<g id="edge2" class="edge">
<title>Kools&#45;&gt;Cigarette</title>
<path fill="none" stroke="black" d="M108.3,-71.7C108.3,-63.98 108.3,-54.71 108.3,-46.11"/>
<polygon fill="black" stroke="black" points="111.8,-46.1 108.3,-36.1 104.8,-46.1 111.8,-46.1"/>
</g>
<!-- Yellow&#45;&gt;Color -->
<g id="edge3" class="edge">
<title>Yellow&#45;&gt;Color</title>
<path fill="none" stroke="black" d="M181.38,-144.05C183.72,-136.26 186.55,-126.82 189.17,-118.08"/>
<polygon fill="black" stroke="black" points="192.59,-118.86 192.11,-108.28 185.89,-116.85 192.59,-118.86"/>
</g>
<!-- Yellow&#45;&gt;Kools -->
<g id="edge5" class="edge">
<title>Yellow&#45;&gt;Kools</title>
<path fill="none" stroke="black" d="M160.87,-145.12C152,-135.99 140.7,-124.36 130.85,-114.22"/>
<polygon fill="black" stroke="black" points="133.14,-111.56 123.67,-106.82 128.12,-116.43 133.14,-111.56"/>
</g>
</g>
</svg>
