<?xml version="1.0" encoding="UTF-8" standalone="no"?>
<!DOCTYPE svg PUBLIC "-//W3C//DTD SVG 1.1//EN"
 "http://www.w3.org/Graphics/SVG/1.1/DTD/svg11.dtd">
<!-- Generated by graphviz version 2.43.0 (0)
 -->
<!-- Title: G Pages: 1 -->
<svg width="139pt" height="204pt"
 viewBox="0.00 0.00 139.09 204.00" xmlns="http://www.w3.org/2000/svg" xmlns:xlink="http://www.w3.org/1999/xlink">
<g id="graph0" class="graph" transform="scale(1 1) rotate(0) translate(4 200)">
<title>G</title>
<polygon fill="white" stroke="transparent" points="-4,4 -4,-200 135.09,-200 135.09,4 -4,4"/>
<!-- House -->
<g id="node1" class="node">
<title>House</title>
<ellipse fill="lightgrey" stroke="black" cx="89.05" cy="-178" rx="40.09" ry="18"/>
<text text-anchor="middle" x="89.05" y="-174.3" font-family="Times,serif" font-size="14.00">House</text>
</g>
<!-- House-1 -->
<g id="node2" class="node">
<title>House-1</title>
<ellipse fill="none" stroke="black" cx="50.05" cy="-105" rx="50.09" ry="18"/>
<text text-anchor="middle" x="50.05" y="-101.3" font-family="Times,serif" font-size="14.00">House-1</text>
</g>
<!-- House&#45;&gt;House-1 -->
<g id="edge1" class="edge">
<title>House&#45;&gt;House-1</title>
<path fill="none" stroke="black" d="M79.8,-160.17C73.59,-148.86 65.42,-134 59.22,-122.71"/>
</g>
<!-- House-2 -->
<g id="node3" class="node">
<title>House-2</title>
<ellipse fill="none" stroke="black" cx="81.05" cy="-18" rx="50.09" ry="18"/>
<text text-anchor="middle" x="81.05" y="-14.3" font-family="Times,serif" font-size="14.00">House-2</text>
</g>
<!-- House&#45;&gt;House-2 -->
<g id="edge2" class="edge">
<title>House&#45;&gt;House-2</title>
<path fill="none" stroke="black" d="M97.14,-159.93C101.63,-149.52 106.75,-135.79 109.05,-123 114.47,-92.74 115.05,-82.71 104.05,-54 101.6,-47.62 97.85,-41.2 94.08,-35.64"/>
</g>
<!-- House-1&#45;&gt;House-2 -->
<g id="edge3" class="edge">
<title>House-1&#45;&gt;House-2</title>
<path fill="none" stroke="red" d="M32.28,-87.7C23.8,-77.89 16.74,-65.17 23.05,-54 26.82,-47.31 32.45,-41.76 38.73,-37.19"/>
<polygon fill="red" stroke="red" points="41.02,-39.88 47.6,-31.57 37.28,-33.97 41.02,-39.88"/>
<text text-anchor="middle" x="41.05" y="-57.8" font-family="Times,serif" font-size="14.00">right</text>
</g>
<!-- House-1&#45;&gt;House-2 -->
<g id="edge4" class="edge">
<title>House-1&#45;&gt;House-2</title>
<path fill="none" stroke="blue" stroke-dasharray="5,2" d="M56.32,-86.8C61.73,-71.95 69.51,-50.64 74.89,-35.89"/>
<text text-anchor="middle" x="84.05" y="-57.8" font-family="Times,serif" font-size="14.00">next</text>
</g>
</g>
</svg>
