<?xml version="1.0" encoding="UTF-8" standalone="no"?>
<!DOCTYPE svg PUBLIC "-//W3C//DTD SVG 1.1//EN"
 "http://www.w3.org/Graphics/SVG/1.1/DTD/svg11.dtd">
<!-- Generated by graphviz version 2.43.0 (0)
 -->
<!-- Title: G Pages: 1 -->
<svg width="319pt" height="291pt"
 viewBox="0.00 0.00 319.04 291.00" xmlns="http://www.w3.org/2000/svg" xmlns:xlink="http://www.w3.org/1999/xlink">
<g id="graph0" class="graph" transform="scale(1 1) rotate(0) translate(4 287)">
<title>G</title>
<polygon fill="white" stroke="transparent" points="-4,4 -4,-287 315.04,-287 315.04,4 -4,4"/>
<!-- House -->
<g id="node1" class="node">
<title>House</title>
<ellipse fill="lightgrey" stroke="black" cx="40.3" cy="-192" rx="40.09" ry="18"/>
<text text-anchor="middle" x="40.3" y="-188.3" font-family="Times,serif" font-size="14.00">House</text>
</g>
<!-- House_1 -->
<g id="node4" class="node">
<title>House_1</title>
<ellipse fill="none" stroke="black" cx="118.3" cy="-105" rx="50.09" ry="18"/>
<text text-anchor="middle" x="118.3" y="-101.3" font-family="Times,serif" font-size="14.00">House_1</text>
</g>
<!-- House&#45;&gt;House_1 -->
<g id="edge1" class="edge">
<title>House&#45;&gt;House_1</title>
<path fill="none" stroke="black" d="M54.97,-175.01C68.82,-159.91 89.5,-137.38 103.43,-122.21"/>
</g>
<!-- House_2 -->
<g id="node5" class="node">
<title>House_2</title>
<ellipse fill="none" stroke="black" cx="118.3" cy="-18" rx="50.09" ry="18"/>
<text text-anchor="middle" x="118.3" y="-14.3" font-family="Times,serif" font-size="14.00">House_2</text>
</g>
<!-- House&#45;&gt;House_2 -->
<g id="edge2" class="edge">
<title>House&#45;&gt;House_2</title>
<path fill="none" stroke="black" d="M40.68,-173.95C41.75,-152.62 45.63,-115.46 59.3,-87 69.04,-66.71 86.49,-47.73 99.89,-35.01"/>
</g>
<!-- Color -->
<g id="node2" class="node">
<title>Color</title>
<ellipse fill="lightgrey" stroke="black" cx="275.3" cy="-192" rx="36" ry="18"/>
<text text-anchor="middle" x="275.3" y="-188.3" font-family="Times,serif" font-size="14.00">Color</text>
</g>
<!-- Blue -->
<g id="node7" class="node">
<title>Blue</title>
<ellipse fill="none" stroke="black" cx="218.3" cy="-105" rx="31.7" ry="18"/>
<text text-anchor="middle" x="218.3" y="-101.3" font-family="Times,serif" font-size="14.00">Blue</text>
</g>
<!-- Color&#45;&gt;Blue -->
<g id="edge5" class="edge">
<title>Color&#45;&gt;Blue</title>
<path fill="none" stroke="black" d="M264.31,-174.61C254.15,-159.46 239.14,-137.09 229.06,-122.05"/>
</g>
<!-- Nationality -->
<g id="node3" class="node">
<title>Nationality</title>
<ellipse fill="lightgrey" stroke="black" cx="160.3" cy="-265" rx="62.29" ry="18"/>
<text text-anchor="middle" x="160.3" y="-261.3" font-family="Times,serif" font-size="14.00">Nationality</text>
</g>
<!-- Norwegian -->
<g id="node6" class="node">
<title>Norwegian</title>
<ellipse fill="none" stroke="black" cx="160.3" cy="-192" rx="61.99" ry="18"/>
<text text-anchor="middle" x="160.3" y="-188.3" font-family="Times,serif" font-size="14.00">Norwegian</text>
</g>
<!-- Nationality&#45;&gt;Norwegian -->
<g id="edge4" class="edge">
<title>Nationality&#45;&gt;Norwegian</title>
<path fill="none" stroke="black" d="M160.3,-246.81C160.3,-235.65 160.3,-221.16 160.3,-210.03"/>
</g>
<!-- House_1&#45;&gt;House_2 -->
<g id="edge3" class="edge">
<title>House_1&#45;&gt;House_2</title>
<path fill="none" stroke="blue" d="M118.3,-86.8C118.3,-72.05 118.3,-50.92 118.3,-36.18"/>
<text text-anchor="middle" x="134.3" y="-57.8" font-family="Times,serif" font-size="14.00">next</text>
</g>
<!-- Norwegian&#45;&gt;House_1 -->
<g id="edge6" class="edge">
<title>Norwegian&#45;&gt;House_1</title>
<path fill="none" stroke="black" d="M151.8,-173.8C144.46,-158.95 133.93,-137.64 126.64,-122.89"/>
</g>
<!-- Norwegian&#45;&gt;Blue -->
<g id="edge7" class="edge">
<title>Norwegian&#45;&gt;Blue</title>
<path fill="none" stroke="blue" d="M171.76,-174.21C182.06,-159.11 197.08,-137.09 207.25,-122.18"/>
<text text-anchor="middle" x="208.3" y="-144.8" font-family="Times,serif" font-size="14.00">next</text>
</g>
<!-- Blue&#45;&gt;House_2 -->
<g id="edge8" class="edge">
<title>Blue&#45;&gt;House_2</title>
<path fill="none" stroke="green" stroke-width="2" d="M201.33,-89.58C183.5,-74.42 155.52,-50.64 137.05,-34.94"/>
</g>
</g>
</svg>
