<?xml version="1.0" encoding="UTF-8" standalone="no"?>
<!DOCTYPE svg PUBLIC "-//W3C//DTD SVG 1.1//EN"
 "http://www.w3.org/Graphics/SVG/1.1/DTD/svg11.dtd">
<!-- Generated by graphviz version 2.43.0 (0)
 -->
<!-- Title: G Pages: 1 -->
<svg width="285pt" height="260pt"
 viewBox="0.00 0.00 285.34 260.00" xmlns="http://www.w3.org/2000/svg" xmlns:xlink="http://www.w3.org/1999/xlink">
<g id="graph0" class="graph" transform="scale(1 1) rotate(0) translate(4 256)">
<title>G</title>
<polygon fill="white" stroke="transparent" points="-4,4 -4,-256 281.34,-256 281.34,4 -4,4"/>
<!-- House -->
<g id="node1" class="node">
<title>House</title>
<ellipse fill="lightgrey" stroke="black" cx="139.75" cy="-234" rx="40.09" ry="18"/>
<text text-anchor="middle" x="139.75" y="-230.3" font-family="Times,serif" font-size="14.00">House</text>
</g>
<!-- House_1 -->
<g id="node4" class="node">
<title>House_1</title>
<ellipse fill="none" stroke="black" cx="139.75" cy="-162" rx="50.09" ry="18"/>
<text text-anchor="middle" x="139.75" y="-158.3" font-family="Times,serif" font-size="14.00">House_1</text>
</g>
<!-- House&#45;&gt;House_1 -->
<g id="edge1" class="edge">
<title>House&#45;&gt;House_1</title>
<path fill="none" stroke="black" d="M139.75,-215.7C139.75,-204.85 139.75,-190.92 139.75,-180.1"/>
</g>
<!-- Color -->
<g id="node2" class="node">
<title>Color</title>
<ellipse fill="lightgrey" stroke="black" cx="35.75" cy="-162" rx="36" ry="18"/>
<text text-anchor="middle" x="35.75" y="-158.3" font-family="Times,serif" font-size="14.00">Color</text>
</g>
<!-- Yellow -->
<g id="node6" class="node">
<title>Yellow</title>
<ellipse fill="none" stroke="black" cx="71.75" cy="-90" rx="40.09" ry="18"/>
<text text-anchor="middle" x="71.75" y="-86.3" font-family="Times,serif" font-size="14.00">Yellow</text>
</g>
<!-- Color&#45;&gt;Yellow -->
<g id="edge3" class="edge">
<title>Color&#45;&gt;Yellow</title>
<path fill="none" stroke="black" d="M44.28,-144.41C49.93,-133.41 57.33,-119.03 63.03,-107.96"/>
</g>
<!-- Cigarette -->
<g id="node3" class="node">
<title>Cigarette</title>
<ellipse fill="lightgrey" stroke="black" cx="222.75" cy="-90" rx="54.69" ry="18"/>
<text text-anchor="middle" x="222.75" y="-86.3" font-family="Times,serif" font-size="14.00">Cigarette</text>
</g>
<!-- Kools -->
<g id="node5" class="node">
<title>Kools</title>
<ellipse fill="none" stroke="black" cx="139.75" cy="-18" rx="36" ry="18"/>
<text text-anchor="middle" x="139.75" y="-14.3" font-family="Times,serif" font-size="14.00">Kools</text>
</g>
<!-- Cigarette&#45;&gt;Kools -->
<g id="edge2" class="edge">
<title>Cigarette&#45;&gt;Kools</title>
<path fill="none" stroke="black" d="M203.5,-72.76C189.51,-60.97 170.74,-45.14 157.2,-33.72"/>
</g>
<!-- House_1&#45;&gt;Yellow -->
<g id="edge4" class="edge">
<title>House_1&#45;&gt;Yellow</title>
<path fill="none" stroke="black" d="M123.98,-144.76C112.99,-133.46 98.4,-118.44 87.43,-107.15"/>
</g>
<!-- Kools&#45;&gt;House_1 -->
<g id="edge6" class="edge">
<title>Kools&#45;&gt;House_1</title>
<path fill="none" stroke="green" stroke-width="2" d="M139.75,-36.19C139.75,-63.52 139.75,-116.58 139.75,-143.87"/>
</g>
<!-- Yellow&#45;&gt;Kools -->
<g id="edge5" class="edge">
<title>Yellow&#45;&gt;Kools</title>
<path fill="none" stroke="black" d="M87.18,-73.12C98.31,-61.66 113.26,-46.26 124.38,-34.82"/>
</g>
</g>
</svg>
