<?xml version="1.0" encoding="UTF-8" standalone="no"?>
<!DOCTYPE svg PUBLIC "-//W3C//DTD SVG 1.1//EN"
 "http://www.w3.org/Graphics/SVG/1.1/DTD/svg11.dtd">
<!-- Generated by graphviz version 2.43.0 (0)
 -->
<!-- Title: G Pages: 1 -->
<svg width="366pt" height="291pt"
 viewBox="0.00 0.00 366.14 291.00" xmlns="http://www.w3.org/2000/svg" xmlns:xlink="http://www.w3.org/1999/xlink">
<g id="graph0" class="graph" transform="scale(1 1) rotate(0) translate(4 287)">
<title>G</title>
<polygon fill="white" stroke="transparent" points="-4,4 -4,-287 362.14,-287 362.14,4 -4,4"/>
<!-- House -->
<g id="node1" class="node">
<title>House</title>
<ellipse fill="lightgrey" stroke="black" cx="152.39" cy="-18" rx="40.09" ry="18"/>
<text text-anchor="middle" x="152.39" y="-14.3" font-family="Times,serif" font-size="14.00">House</text>
</g>
<!-- Color -->
<g id="node2" class="node">
<title>Color</title>
<ellipse fill="lightgrey" stroke="black" cx="322.39" cy="-91" rx="36" ry="18"/>
<text text-anchor="middle" x="322.39" y="-87.3" font-family="Times,serif" font-size="14.00">Color</text>
</g>
<!-- Nationality -->
<g id="node3" class="node">
<title>Nationality</title>
<ellipse fill="lightgrey" stroke="black" cx="62.39" cy="-178" rx="62.29" ry="18"/>
<text text-anchor="middle" x="62.39" y="-174.3" font-family="Times,serif" font-size="14.00">Nationality</text>
</g>
<!-- House_1 -->
<g id="node4" class="node">
<title>House_1</title>
<ellipse fill="none" stroke="black" cx="192.39" cy="-178" rx="50.09" ry="18"/>
<text text-anchor="middle" x="192.39" y="-174.3" font-family="Times,serif" font-size="14.00">House_1</text>
</g>
<!-- House_1&#45;&gt;House -->
<g id="edge1" class="edge">
<title>House_1&#45;&gt;House</title>
<path fill="none" stroke="black" d="M182.13,-160.37C174.44,-147.01 164.41,-127.49 159.39,-109 153.83,-88.49 152.2,-64.45 151.89,-46.38"/>
<polygon fill="black" stroke="black" points="155.39,-46.23 151.85,-36.24 148.39,-46.26 155.39,-46.23"/>
</g>
<!-- House_2 -->
<g id="node5" class="node">
<title>House_2</title>
<ellipse fill="none" stroke="black" cx="218.39" cy="-91" rx="50.09" ry="18"/>
<text text-anchor="middle" x="218.39" y="-87.3" font-family="Times,serif" font-size="14.00">House_2</text>
</g>
<!-- House_1&#45;&gt;House_2 -->
<g id="edge3" class="edge">
<title>House_1&#45;&gt;House_2</title>
<path fill="none" stroke="blue" d="M197.66,-159.8C201.25,-148.05 206.09,-132.24 210.18,-118.84"/>
<polygon fill="blue" stroke="blue" points="213.56,-119.76 213.14,-109.18 206.87,-117.71 213.56,-119.76"/>
<text text-anchor="middle" x="222.39" y="-130.8" font-family="Times,serif" font-size="14.00">next</text>
</g>
<!-- House_2&#45;&gt;House -->
<g id="edge2" class="edge">
<title>House_2&#45;&gt;House</title>
<path fill="none" stroke="black" d="M203.09,-73.53C194.47,-64.26 183.57,-52.53 174.08,-42.33"/>
<polygon fill="black" stroke="black" points="176.54,-39.83 167.17,-34.89 171.41,-44.6 176.54,-39.83"/>
</g>
<!-- Norwegian -->
<g id="node6" class="node">
<title>Norwegian</title>
<ellipse fill="none" stroke="black" cx="192.39" cy="-265" rx="61.99" ry="18"/>
<text text-anchor="middle" x="192.39" y="-261.3" font-family="Times,serif" font-size="14.00">Norwegian</text>
</g>
<!-- Norwegian&#45;&gt;Nationality -->
<g id="edge4" class="edge">
<title>Norwegian&#45;&gt;Nationality</title>
<path fill="none" stroke="black" d="M168.25,-248.21C147.63,-234.73 117.8,-215.23 95.06,-200.36"/>
<polygon fill="black" stroke="black" points="96.7,-197.25 86.41,-194.7 92.87,-203.11 96.7,-197.25"/>
</g>
<!-- Norwegian&#45;&gt;House_1 -->
<g id="edge6" class="edge">
<title>Norwegian&#45;&gt;House_1</title>
<path fill="none" stroke="black" d="M192.39,-246.8C192.39,-235.16 192.39,-219.55 192.39,-206.24"/>
<polygon fill="black" stroke="black" points="195.89,-206.18 192.39,-196.18 188.89,-206.18 195.89,-206.18"/>
</g>
<!-- Blue -->
<g id="node7" class="node">
<title>Blue</title>
<ellipse fill="none" stroke="black" cx="292.39" cy="-178" rx="31.7" ry="18"/>
<text text-anchor="middle" x="292.39" y="-174.3" font-family="Times,serif" font-size="14.00">Blue</text>
</g>
<!-- Norwegian&#45;&gt;Blue -->
<g id="edge7" class="edge">
<title>Norwegian&#45;&gt;Blue</title>
<path fill="none" stroke="blue" d="M211.68,-247.61C227.58,-234.1 250.24,-214.83 267.51,-200.15"/>
<polygon fill="blue" stroke="blue" points="270.15,-202.5 275.5,-193.36 265.62,-197.17 270.15,-202.5"/>
<text text-anchor="middle" x="263.39" y="-217.8" font-family="Times,serif" font-size="14.00">next</text>
</g>
<!-- Blue&#45;&gt;Color -->
<g id="edge5" class="edge">
<title>Blue&#45;&gt;Color</title>
<path fill="none" stroke="black" d="M298.32,-160.21C302.51,-148.33 308.22,-132.17 313.02,-118.56"/>
<polygon fill="black" stroke="black" points="316.45,-119.35 316.48,-108.76 309.85,-117.02 316.45,-119.35"/>
</g>
<!-- Blue&#45;&gt;House_2 -->
<g id="edge8" class="edge">
<title>Blue&#45;&gt;House_2</title>
<path fill="none" stroke="green" stroke-width="2" d="M278.82,-161.41C267.77,-148.71 251.97,-130.57 239.3,-116.02"/>
<polygon fill="green" stroke="green" stroke-width="2" points="241.84,-113.6 232.64,-108.36 236.56,-118.2 241.84,-113.6"/>
</g>
</g>
</svg>
