<?xml version="1.0" encoding="UTF-8" standalone="no"?>
<!DOCTYPE svg PUBLIC "-//W3C//DTD SVG 1.1//EN"
 "http://www.w3.org/Graphics/SVG/1.1/DTD/svg11.dtd">
<!-- Generated by graphviz version 2.43.0 (0)
 -->
<!-- Title: G Pages: 1 -->
<svg width="1742pt" height="573pt"
 viewBox="0.00 0.00 1741.99 573.00" xmlns="http://www.w3.org/2000/svg" xmlns:xlink="http://www.w3.org/1999/xlink">
<g id="graph0" class="graph" transform="scale(1 1) rotate(0) translate(4 569)">
<title>G</title>
<polygon fill="white" stroke="transparent" points="-4,4 -4,-569 1737.99,-569 1737.99,4 -4,4"/>
<!-- House -->
<g id="node1" class="node">
<title>House</title>
<ellipse fill="lightgrey" stroke="black" cx="103.34" cy="-474" rx="40.09" ry="18"/>
<text text-anchor="middle" x="103.34" y="-470.3" font-family="Times,serif" font-size="14.00">House</text>
</g>
<!-- House_First -->
<g id="node7" class="node">
<title>House_First</title>
<ellipse fill="none" stroke="black" cx="198.34" cy="-387" rx="66.89" ry="18"/>
<text text-anchor="middle" x="198.34" y="-383.3" font-family="Times,serif" font-size="14.00">House_First</text>
</g>
<!-- House&#45;&gt;House_First -->
<g id="edge1" class="edge">
<title>House&#45;&gt;House_First</title>
<path fill="none" stroke="black" d="M120.77,-457.41C137.59,-442.36 162.95,-419.66 180.06,-404.36"/>
</g>
<!-- House_A -->
<g id="node8" class="node">
<title>House_A</title>
<ellipse fill="none" stroke="black" cx="144.34" cy="-279" rx="50.89" ry="18"/>
<text text-anchor="middle" x="144.34" y="-275.3" font-family="Times,serif" font-size="14.00">House_A</text>
</g>
<!-- House&#45;&gt;House_A -->
<g id="edge2" class="edge">
<title>House&#45;&gt;House_A</title>
<path fill="none" stroke="black" d="M104.82,-455.63C107.62,-426.21 114.78,-364.9 129.34,-315 131.12,-308.91 133.68,-302.46 136.17,-296.79"/>
</g>
<!-- House_Middle -->
<g id="node9" class="node">
<title>House_Middle</title>
<ellipse fill="none" stroke="black" cx="201.34" cy="-192" rx="76.89" ry="18"/>
<text text-anchor="middle" x="201.34" y="-188.3" font-family="Times,serif" font-size="14.00">House_Middle</text>
</g>
<!-- House&#45;&gt;House_Middle -->
<g id="edge3" class="edge">
<title>House&#45;&gt;House_Middle</title>
<path fill="none" stroke="black" d="M142.7,-469.71C183.4,-463.97 245.02,-448.23 274.34,-405 318.06,-340.58 248.91,-247.42 216.57,-209.75"/>
</g>
<!-- House_1 -->
<g id="node10" class="node">
<title>House_1</title>
<ellipse fill="none" stroke="black" cx="119.34" cy="-105" rx="50.09" ry="18"/>
<text text-anchor="middle" x="119.34" y="-101.3" font-family="Times,serif" font-size="14.00">House_1</text>
</g>
<!-- House&#45;&gt;House_1 -->
<g id="edge4" class="edge">
<title>House&#45;&gt;House_1</title>
<path fill="none" stroke="black" d="M91.11,-456.71C80,-440.27 65.34,-413.7 65.34,-388 65.34,-388 65.34,-388 65.34,-191 65.34,-163.55 85.65,-137.8 101.36,-121.99"/>
</g>
<!-- House_Last -->
<g id="node11" class="node">
<title>House_Last</title>
<ellipse fill="none" stroke="black" cx="64.34" cy="-18" rx="64.19" ry="18"/>
<text text-anchor="middle" x="64.34" y="-14.3" font-family="Times,serif" font-size="14.00">House_Last</text>
</g>
<!-- House&#45;&gt;House_Last -->
<g id="edge5" class="edge">
<title>House&#45;&gt;House_Last</title>
<path fill="none" stroke="black" d="M79.3,-459.47C57.03,-444.96 27.34,-419.67 27.34,-388 27.34,-388 27.34,-388 27.34,-104 27.34,-78.73 41.26,-52.49 52.02,-35.97"/>
</g>
<!-- Color -->
<g id="node2" class="node">
<title>Color</title>
<ellipse fill="lightgrey" stroke="black" cx="437.34" cy="-474" rx="36" ry="18"/>
<text text-anchor="middle" x="437.34" y="-470.3" font-family="Times,serif" font-size="14.00">Color</text>
</g>
<!-- Ivory -->
<g id="node12" class="node">
<title>Ivory</title>
<ellipse fill="none" stroke="black" cx="437.34" cy="-387" rx="34.39" ry="18"/>
<text text-anchor="middle" x="437.34" y="-383.3" font-family="Times,serif" font-size="14.00">Ivory</text>
</g>
<!-- Color&#45;&gt;Ivory -->
<g id="edge14" class="edge">
<title>Color&#45;&gt;Ivory</title>
<path fill="none" stroke="black" d="M437.34,-455.8C437.34,-441.05 437.34,-419.92 437.34,-405.18"/>
</g>
<!-- Yellow -->
<g id="node13" class="node">
<title>Yellow</title>
<ellipse fill="none" stroke="black" cx="1084.34" cy="-387" rx="40.09" ry="18"/>
<text text-anchor="middle" x="1084.34" y="-383.3" font-family="Times,serif" font-size="14.00">Yellow</text>
</g>
<!-- Color&#45;&gt;Yellow -->
<g id="edge15" class="edge">
<title>Color&#45;&gt;Yellow</title>
<path fill="none" stroke="black" d="M463.49,-461.54C469.28,-459.39 475.44,-457.38 481.34,-456 721.65,-399.65 792.94,-456.42 1034.34,-405 1041.07,-403.57 1048.15,-401.52 1054.79,-399.33"/>
</g>
<!-- Red -->
<g id="node14" class="node">
<title>Red</title>
<ellipse fill="none" stroke="black" cx="556.34" cy="-387" rx="28.7" ry="18"/>
<text text-anchor="middle" x="556.34" y="-383.3" font-family="Times,serif" font-size="14.00">Red</text>
</g>
<!-- Color&#45;&gt;Red -->
<g id="edge16" class="edge">
<title>Color&#45;&gt;Red</title>
<path fill="none" stroke="black" d="M464.24,-462.05C482.63,-454.3 505.11,-444.21 513.34,-438 525.96,-428.49 537.47,-414.7 545.4,-404.01"/>
</g>
<!-- Green -->
<g id="node15" class="node">
<title>Green</title>
<ellipse fill="none" stroke="black" cx="499.34" cy="-279" rx="38.99" ry="18"/>
<text text-anchor="middle" x="499.34" y="-275.3" font-family="Times,serif" font-size="14.00">Green</text>
</g>
<!-- Color&#45;&gt;Green -->
<g id="edge17" class="edge">
<title>Color&#45;&gt;Green</title>
<path fill="none" stroke="black" d="M450.19,-456.98C460.05,-443.8 473.16,-424.24 480.34,-405 494.09,-368.19 497.9,-321.74 498.95,-297.13"/>
</g>
<!-- Blue -->
<g id="node16" class="node">
<title>Blue</title>
<ellipse fill="none" stroke="black" cx="353.34" cy="-387" rx="31.7" ry="18"/>
<text text-anchor="middle" x="353.34" y="-383.3" font-family="Times,serif" font-size="14.00">Blue</text>
</g>
<!-- Color&#45;&gt;Blue -->
<g id="edge18" class="edge">
<title>Color&#45;&gt;Blue</title>
<path fill="none" stroke="black" d="M421.94,-457.41C406.69,-441.98 383.49,-418.5 368.37,-403.21"/>
</g>
<!-- Nationality -->
<g id="node3" class="node">
<title>Nationality</title>
<ellipse fill="lightgrey" stroke="black" cx="696.34" cy="-547" rx="62.29" ry="18"/>
<text text-anchor="middle" x="696.34" y="-543.3" font-family="Times,serif" font-size="14.00">Nationality</text>
</g>
<!-- Englishman -->
<g id="node17" class="node">
<title>Englishman</title>
<ellipse fill="none" stroke="black" cx="556.34" cy="-474" rx="65.79" ry="18"/>
<text text-anchor="middle" x="556.34" y="-470.3" font-family="Times,serif" font-size="14.00">Englishman</text>
</g>
<!-- Nationality&#45;&gt;Englishman -->
<g id="edge19" class="edge">
<title>Nationality&#45;&gt;Englishman</title>
<path fill="none" stroke="black" d="M666.65,-530.94C643.06,-518.98 610.19,-502.31 586.47,-490.28"/>
</g>
<!-- Spaniard -->
<g id="node18" class="node">
<title>Spaniard</title>
<ellipse fill="none" stroke="black" cx="1074.34" cy="-474" rx="52.79" ry="18"/>
<text text-anchor="middle" x="1074.34" y="-470.3" font-family="Times,serif" font-size="14.00">Spaniard</text>
</g>
<!-- Nationality&#45;&gt;Spaniard -->
<g id="edge20" class="edge">
<title>Nationality&#45;&gt;Spaniard</title>
<path fill="none" stroke="black" d="M747.32,-536.42C821.68,-522.46 958.72,-496.72 1029.47,-483.43"/>
</g>
<!-- Ukrainian -->
<g id="node19" class="node">
<title>Ukrainian</title>
<ellipse fill="none" stroke="black" cx="696.34" cy="-474" rx="56.59" ry="18"/>
<text text-anchor="middle" x="696.34" y="-470.3" font-family="Times,serif" font-size="14.00">Ukrainian</text>
</g>
<!-- Nationality&#45;&gt;Ukrainian -->
<g id="edge21" class="edge">
<title>Nationality&#45;&gt;Ukrainian</title>
<path fill="none" stroke="black" d="M696.34,-528.81C696.34,-517.65 696.34,-503.16 696.34,-492.03"/>
</g>
<!-- Japanese -->
<g id="node20" class="node">
<title>Japanese</title>
<ellipse fill="none" stroke="black" cx="913.34" cy="-474" rx="51.99" ry="18"/>
<text text-anchor="middle" x="913.34" y="-470.3" font-family="Times,serif" font-size="14.00">Japanese</text>
</g>
<!-- Nationality&#45;&gt;Japanese -->
<g id="edge22" class="edge">
<title>Nationality&#45;&gt;Japanese</title>
<path fill="none" stroke="black" d="M735.89,-533.06C776.11,-519.9 837.91,-499.68 876.96,-486.91"/>
</g>
<!-- Norwegian -->
<g id="node21" class="node">
<title>Norwegian</title>
<ellipse fill="none" stroke="black" cx="322.34" cy="-474" rx="61.99" ry="18"/>
<text text-anchor="middle" x="322.34" y="-470.3" font-family="Times,serif" font-size="14.00">Norwegian</text>
</g>
<!-- Nationality&#45;&gt;Norwegian -->
<g id="edge23" class="edge">
<title>Nationality&#45;&gt;Norwegian</title>
<path fill="none" stroke="black" d="M643.16,-537.59C582.32,-527.72 479.82,-510.37 392.34,-492 384.27,-490.3 375.7,-488.35 367.44,-486.39"/>
</g>
<!-- Pet -->
<g id="node4" class="node">
<title>Pet</title>
<ellipse fill="lightgrey" stroke="black" cx="1421.34" cy="-474" rx="27" ry="18"/>
<text text-anchor="middle" x="1421.34" y="-470.3" font-family="Times,serif" font-size="14.00">Pet</text>
</g>
<!-- Dog -->
<g id="node22" class="node">
<title>Dog</title>
<ellipse fill="none" stroke="black" cx="1255.34" cy="-387" rx="29.5" ry="18"/>
<text text-anchor="middle" x="1255.34" y="-383.3" font-family="Times,serif" font-size="14.00">Dog</text>
</g>
<!-- Pet&#45;&gt;Dog -->
<g id="edge24" class="edge">
<title>Pet&#45;&gt;Dog</title>
<path fill="none" stroke="black" d="M1400.14,-462.66C1395.31,-460.4 1390.18,-458.06 1385.34,-456 1364.77,-447.22 1358.45,-447.81 1338.34,-438 1315.67,-426.93 1291.07,-411.67 1274.59,-400.93"/>
</g>
<!-- Hourse -->
<g id="node23" class="node">
<title>Hourse</title>
<ellipse fill="none" stroke="black" cx="1346.34" cy="-387" rx="44.39" ry="18"/>
<text text-anchor="middle" x="1346.34" y="-383.3" font-family="Times,serif" font-size="14.00">Hourse</text>
</g>
<!-- Pet&#45;&gt;Hourse -->
<g id="edge25" class="edge">
<title>Pet&#45;&gt;Hourse</title>
<path fill="none" stroke="black" d="M1409.07,-457.93C1400.81,-447.91 1389.6,-434.52 1379.34,-423 1373.79,-416.76 1367.54,-410.06 1361.99,-404.2"/>
</g>
<!-- Snail -->
<g id="node24" class="node">
<title>Snail</title>
<ellipse fill="none" stroke="black" cx="1614.34" cy="-387" rx="34.39" ry="18"/>
<text text-anchor="middle" x="1614.34" y="-383.3" font-family="Times,serif" font-size="14.00">Snail</text>
</g>
<!-- Pet&#45;&gt;Snail -->
<g id="edge26" class="edge">
<title>Pet&#45;&gt;Snail</title>
<path fill="none" stroke="black" d="M1441.88,-462.08C1446.84,-459.79 1452.19,-457.59 1457.34,-456 1506.36,-440.9 1526.54,-462.98 1571.34,-438 1585.34,-430.2 1596.89,-415.97 1604.48,-404.69"/>
</g>
<!-- Fox -->
<g id="node25" class="node">
<title>Fox</title>
<ellipse fill="none" stroke="black" cx="1533.34" cy="-387" rx="27.1" ry="18"/>
<text text-anchor="middle" x="1533.34" y="-383.3" font-family="Times,serif" font-size="14.00">Fox</text>
</g>
<!-- Pet&#45;&gt;Fox -->
<g id="edge27" class="edge">
<title>Pet&#45;&gt;Fox</title>
<path fill="none" stroke="black" d="M1438.84,-459.72C1459.89,-443.75 1494.98,-417.11 1515.97,-401.19"/>
</g>
<!-- Zebra -->
<g id="node26" class="node">
<title>Zebra</title>
<ellipse fill="none" stroke="black" cx="1447.34" cy="-387" rx="38.19" ry="18"/>
<text text-anchor="middle" x="1447.34" y="-383.3" font-family="Times,serif" font-size="14.00">Zebra</text>
</g>
<!-- Pet&#45;&gt;Zebra -->
<g id="edge28" class="edge">
<title>Pet&#45;&gt;Zebra</title>
<path fill="none" stroke="black" d="M1426.48,-456.21C1431.01,-441.4 1437.58,-419.93 1442.13,-405.05"/>
</g>
<!-- Cigarette -->
<g id="node5" class="node">
<title>Cigarette</title>
<ellipse fill="lightgrey" stroke="black" cx="1340.34" cy="-547" rx="54.69" ry="18"/>
<text text-anchor="middle" x="1340.34" y="-543.3" font-family="Times,serif" font-size="14.00">Cigarette</text>
</g>
<!-- Old_Gold -->
<g id="node27" class="node">
<title>Old_Gold</title>
<ellipse fill="none" stroke="black" cx="1681.34" cy="-474" rx="52.79" ry="18"/>
<text text-anchor="middle" x="1681.34" y="-470.3" font-family="Times,serif" font-size="14.00">Old_Gold</text>
</g>
<!-- Cigarette&#45;&gt;Old_Gold -->
<g id="edge29" class="edge">
<title>Cigarette&#45;&gt;Old_Gold</title>
<path fill="none" stroke="black" d="M1387.97,-537.93C1443.7,-528.21 1538.63,-510.85 1619.34,-492 1626.84,-490.25 1634.8,-488.21 1642.43,-486.16"/>
</g>
<!-- Chesterfields -->
<g id="node28" class="node">
<title>Chesterfields</title>
<ellipse fill="none" stroke="black" cx="1538.34" cy="-474" rx="72.29" ry="18"/>
<text text-anchor="middle" x="1538.34" y="-470.3" font-family="Times,serif" font-size="14.00">Chesterfields</text>
</g>
<!-- Cigarette&#45;&gt;Chesterfields -->
<g id="edge30" class="edge">
<title>Cigarette&#45;&gt;Chesterfields</title>
<path fill="none" stroke="black" d="M1376.2,-533.14C1410.86,-520.71 1463.24,-501.93 1499.02,-489.1"/>
</g>
<!-- Lucky_Strike -->
<g id="node29" class="node">
<title>Lucky_Strike</title>
<ellipse fill="none" stroke="black" cx="1215.34" cy="-474" rx="70.69" ry="18"/>
<text text-anchor="middle" x="1215.34" y="-470.3" font-family="Times,serif" font-size="14.00">Lucky_Strike</text>
</g>
<!-- Cigarette&#45;&gt;Lucky_Strike -->
<g id="edge31" class="edge">
<title>Cigarette&#45;&gt;Lucky_Strike</title>
<path fill="none" stroke="black" d="M1314.14,-531.12C1293.24,-519.24 1264.04,-502.66 1242.81,-490.6"/>
</g>
<!-- Kools -->
<g id="node30" class="node">
<title>Kools</title>
<ellipse fill="none" stroke="black" cx="1340.34" cy="-474" rx="36" ry="18"/>
<text text-anchor="middle" x="1340.34" y="-470.3" font-family="Times,serif" font-size="14.00">Kools</text>
</g>
<!-- Cigarette&#45;&gt;Kools -->
<g id="edge32" class="edge">
<title>Cigarette&#45;&gt;Kools</title>
<path fill="none" stroke="black" d="M1340.34,-528.81C1340.34,-517.65 1340.34,-503.16 1340.34,-492.03"/>
</g>
<!-- Parlament -->
<g id="node31" class="node">
<title>Parlament</title>
<ellipse fill="none" stroke="black" cx="967.34" cy="-387" rx="58.49" ry="18"/>
<text text-anchor="middle" x="967.34" y="-383.3" font-family="Times,serif" font-size="14.00">Parlament</text>
</g>
<!-- Cigarette&#45;&gt;Parlament -->
<g id="edge33" class="edge">
<title>Cigarette&#45;&gt;Parlament</title>
<path fill="none" stroke="black" d="M1286.7,-543.32C1204.92,-538.24 1054.14,-524.63 1012.34,-492 984.74,-470.45 973.77,-428.59 969.64,-405.08"/>
</g>
<!-- Drink -->
<g id="node6" class="node">
<title>Drink</title>
<ellipse fill="lightgrey" stroke="black" cx="807.34" cy="-474" rx="36.29" ry="18"/>
<text text-anchor="middle" x="807.34" y="-470.3" font-family="Times,serif" font-size="14.00">Drink</text>
</g>
<!-- Coffee -->
<g id="node32" class="node">
<title>Coffee</title>
<ellipse fill="none" stroke="black" cx="718.34" cy="-387" rx="40.09" ry="18"/>
<text text-anchor="middle" x="718.34" y="-383.3" font-family="Times,serif" font-size="14.00">Coffee</text>
</g>
<!-- Drink&#45;&gt;Coffee -->
<g id="edge34" class="edge">
<title>Drink&#45;&gt;Coffee</title>
<path fill="none" stroke="black" d="M791.43,-457.8C775.43,-442.52 750.88,-419.08 734.72,-403.64"/>
</g>
<!-- Milk -->
<g id="node33" class="node">
<title>Milk</title>
<ellipse fill="none" stroke="black" cx="726.34" cy="-333" rx="31.4" ry="18"/>
<text text-anchor="middle" x="726.34" y="-329.3" font-family="Times,serif" font-size="14.00">Milk</text>
</g>
<!-- Drink&#45;&gt;Milk -->
<g id="edge35" class="edge">
<title>Drink&#45;&gt;Milk</title>
<path fill="none" stroke="black" d="M803.55,-455.91C798.14,-434.21 786.67,-396.32 767.34,-369 761.51,-360.75 753.3,-353.23 745.76,-347.29"/>
</g>
<!-- Tea -->
<g id="node34" class="node">
<title>Tea</title>
<ellipse fill="none" stroke="black" cx="633.34" cy="-387" rx="27" ry="18"/>
<text text-anchor="middle" x="633.34" y="-383.3" font-family="Times,serif" font-size="14.00">Tea</text>
</g>
<!-- Drink&#45;&gt;Tea -->
<g id="edge36" class="edge">
<title>Drink&#45;&gt;Tea</title>
<path fill="none" stroke="black" d="M782.41,-460.82C748.02,-444.02 686.62,-414.03 654.41,-398.29"/>
</g>
<!-- Juice -->
<g id="node35" class="node">
<title>Juice</title>
<ellipse fill="none" stroke="black" cx="1175.34" cy="-387" rx="33.29" ry="18"/>
<text text-anchor="middle" x="1175.34" y="-383.3" font-family="Times,serif" font-size="14.00">Juice</text>
</g>
<!-- Drink&#45;&gt;Juice -->
<g id="edge37" class="edge">
<title>Drink&#45;&gt;Juice</title>
<path fill="none" stroke="black" d="M834.69,-461.77C840.46,-459.65 846.55,-457.61 852.34,-456 974.66,-422.1 1011.43,-440.33 1133.34,-405 1138.94,-403.38 1144.8,-401.28 1150.32,-399.1"/>
</g>
<!-- Water -->
<g id="node36" class="node">
<title>Water</title>
<ellipse fill="none" stroke="black" cx="852.34" cy="-387" rx="38.19" ry="18"/>
<text text-anchor="middle" x="852.34" y="-383.3" font-family="Times,serif" font-size="14.00">Water</text>
</g>
<!-- Drink&#45;&gt;Water -->
<g id="edge38" class="edge">
<title>Drink&#45;&gt;Water</title>
<path fill="none" stroke="black" d="M816.23,-456.21C824.12,-441.31 835.59,-419.65 843.47,-404.76"/>
</g>
<!-- House_First&#45;&gt;House_A -->
<g id="edge6" class="edge">
<title>House_First&#45;&gt;House_A</title>
<path fill="none" stroke="red" d="M195.23,-368.79C192.03,-353.86 186.1,-332.02 176.34,-315 174.18,-311.22 171.54,-307.51 168.72,-304"/>
<polygon fill="red" stroke="red" points="171.16,-301.47 161.95,-296.24 165.89,-306.08 171.16,-301.47"/>
<text text-anchor="middle" x="208.34" y="-329.3" font-family="Times,serif" font-size="14.00">right</text>
</g>
<!-- House_First&#45;&gt;House_A -->
<g id="edge10" class="edge">
<title>House_First&#45;&gt;House_A</title>
<path fill="none" stroke="blue" d="M162.16,-371.85C153.49,-366.65 145.32,-359.81 140.34,-351 131,-334.44 134.34,-312.11 138.49,-296.95"/>
<text text-anchor="middle" x="156.34" y="-329.3" font-family="Times,serif" font-size="14.00">next</text>
</g>
<!-- House_A&#45;&gt;House_Middle -->
<g id="edge7" class="edge">
<title>House_A&#45;&gt;House_Middle</title>
<path fill="none" stroke="red" d="M140.34,-260.74C138.92,-250.59 138.83,-237.85 144.34,-228 147.32,-222.68 151.48,-218.06 156.2,-214.09"/>
<polygon fill="red" stroke="red" points="158.55,-216.72 164.59,-208.01 154.44,-211.05 158.55,-216.72"/>
<text text-anchor="middle" x="162.34" y="-231.8" font-family="Times,serif" font-size="14.00">right</text>
</g>
<!-- House_A&#45;&gt;House_Middle -->
<g id="edge11" class="edge">
<title>House_A&#45;&gt;House_Middle</title>
<path fill="none" stroke="blue" d="M163.43,-262.18C169.39,-256.56 175.63,-249.91 180.34,-243 187.24,-232.89 192.55,-220.15 196.1,-210.07"/>
<text text-anchor="middle" x="204.34" y="-231.8" font-family="Times,serif" font-size="14.00">next</text>
</g>
<!-- House_Middle&#45;&gt;House_1 -->
<g id="edge8" class="edge">
<title>House_Middle&#45;&gt;House_1</title>
<path fill="none" stroke="red" d="M162.84,-176.33C153.14,-171.12 143.46,-164.41 136.34,-156 130.85,-149.5 127.1,-141.15 124.56,-133.13"/>
<polygon fill="red" stroke="red" points="127.9,-132.09 121.94,-123.33 121.14,-133.89 127.9,-132.09"/>
<text text-anchor="middle" x="154.34" y="-144.8" font-family="Times,serif" font-size="14.00">right</text>
</g>
<!-- House_Middle&#45;&gt;House_1 -->
<g id="edge12" class="edge">
<title>House_Middle&#45;&gt;House_1</title>
<path fill="none" stroke="blue" d="M193.92,-173.95C188.86,-163.63 181.43,-150.63 172.34,-141 164.85,-133.06 155.23,-126.03 146.24,-120.39"/>
<text text-anchor="middle" x="198.34" y="-144.8" font-family="Times,serif" font-size="14.00">next</text>
</g>
<!-- House_1&#45;&gt;House_Last -->
<g id="edge9" class="edge">
<title>House_1&#45;&gt;House_Last</title>
<path fill="none" stroke="red" d="M113.55,-87.05C109.72,-77.01 104.15,-64.28 97.34,-54 94.84,-50.22 91.91,-46.46 88.85,-42.9"/>
<polygon fill="red" stroke="red" points="91.38,-40.48 82.05,-35.45 86.21,-45.19 91.38,-40.48"/>
<text text-anchor="middle" x="124.34" y="-57.8" font-family="Times,serif" font-size="14.00">right</text>
</g>
<!-- House_1&#45;&gt;House_Last -->
<g id="edge13" class="edge">
<title>House_1&#45;&gt;House_Last</title>
<path fill="none" stroke="blue" d="M85.9,-91.43C76.24,-86.06 66.84,-78.73 61.34,-69 55.79,-59.16 56.65,-46.42 58.84,-36.26"/>
<text text-anchor="middle" x="77.34" y="-57.8" font-family="Times,serif" font-size="14.00">next</text>
</g>
<!-- Ivory&#45;&gt;Green -->
<g id="edge43" class="edge">
<title>Ivory&#45;&gt;Green</title>
<path fill="none" stroke="red" d="M436.64,-368.92C436.8,-353.66 439.06,-331.27 449.34,-315 453.35,-308.66 458.97,-303.15 465,-298.49"/>
<polygon fill="red" stroke="red" points="467.15,-301.26 473.36,-292.68 463.15,-295.51 467.15,-301.26"/>
<text text-anchor="middle" x="467.34" y="-329.3" font-family="Times,serif" font-size="14.00">right</text>
</g>
<!-- Englishman&#45;&gt;Red -->
<g id="edge39" class="edge">
<title>Englishman&#45;&gt;Red</title>
<path fill="none" stroke="black" d="M556.34,-455.8C556.34,-441.05 556.34,-419.92 556.34,-405.18"/>
</g>
<!-- Spaniard&#45;&gt;Dog -->
<g id="edge40" class="edge">
<title>Spaniard&#45;&gt;Dog</title>
<path fill="none" stroke="black" d="M1104.23,-458.96C1140.38,-441.99 1200.4,-413.8 1232.85,-398.56"/>
</g>
<!-- Ukrainian&#45;&gt;Tea -->
<g id="edge42" class="edge">
<title>Ukrainian&#45;&gt;Tea</title>
<path fill="none" stroke="black" d="M683.9,-456.21C672.49,-440.82 655.75,-418.24 644.71,-403.33"/>
</g>
<!-- Japanese&#45;&gt;Parlament -->
<g id="edge51" class="edge">
<title>Japanese&#45;&gt;Parlament</title>
<path fill="none" stroke="black" d="M924.01,-456.21C933.48,-441.31 947.24,-419.65 956.7,-404.76"/>
</g>
<!-- Norwegian&#45;&gt;House_First -->
<g id="edge47" class="edge">
<title>Norwegian&#45;&gt;House_First</title>
<path fill="none" stroke="black" d="M299.31,-457.21C277.18,-442.04 243.91,-419.23 221.67,-403.99"/>
</g>
<!-- Norwegian&#45;&gt;Blue -->
<g id="edge52" class="edge">
<title>Norwegian&#45;&gt;Blue</title>
<path fill="none" stroke="blue" d="M328.62,-455.8C334.03,-440.95 341.81,-419.64 347.19,-404.89"/>
<text text-anchor="middle" x="355.34" y="-426.8" font-family="Times,serif" font-size="14.00">next</text>
</g>
<!-- Old_Gold&#45;&gt;Snail -->
<g id="edge44" class="edge">
<title>Old_Gold&#45;&gt;Snail</title>
<path fill="none" stroke="black" d="M1668.11,-456.21C1656.13,-441.01 1638.62,-418.8 1626.87,-403.9"/>
</g>
<!-- Chesterfields&#45;&gt;Fox -->
<g id="edge48" class="edge">
<title>Chesterfields&#45;&gt;Fox</title>
<path fill="none" stroke="blue" d="M1537.33,-455.8C1536.46,-441.05 1535.22,-419.92 1534.35,-405.18"/>
<text text-anchor="middle" x="1551.34" y="-426.8" font-family="Times,serif" font-size="14.00">next</text>
</g>
<!-- Lucky_Strike&#45;&gt;Juice -->
<g id="edge50" class="edge">
<title>Lucky_Strike&#45;&gt;Juice</title>
<path fill="none" stroke="black" d="M1207.25,-455.8C1200.22,-440.86 1190.1,-419.36 1183.15,-404.6"/>
</g>
<!-- Kools&#45;&gt;Yellow -->
<g id="edge45" class="edge">
<title>Kools&#45;&gt;Yellow</title>
<path fill="none" stroke="black" d="M1312.83,-462.32C1307.07,-460.17 1301.03,-457.97 1295.34,-456 1224.01,-431.32 1205.01,-428.71 1133.34,-405 1127.36,-403.02 1120.98,-400.85 1114.88,-398.75"/>
</g>
<!-- Kools&#45;&gt;Hourse -->
<g id="edge49" class="edge">
<title>Kools&#45;&gt;Hourse</title>
<path fill="none" stroke="blue" d="M1341.56,-455.8C1342.6,-441.05 1344.09,-419.92 1345.13,-405.18"/>
<text text-anchor="middle" x="1359.34" y="-426.8" font-family="Times,serif" font-size="14.00">next</text>
</g>
<!-- Coffee&#45;&gt;Green -->
<g id="edge41" class="edge">
<title>Coffee&#45;&gt;Green</title>
<path fill="none" stroke="black" d="M691.93,-373.21C649.61,-352.73 567.12,-312.8 525.17,-292.5"/>
</g>
<!-- Milk&#45;&gt;House_Middle -->
<g id="edge46" class="edge">
<title>Milk&#45;&gt;House_Middle</title>
<path fill="none" stroke="black" d="M702.8,-321.04C669.04,-305.71 604.6,-277.83 547.34,-261 450.73,-232.61 335.41,-212.62 265.32,-201.97"/>
</g>
</g>
</svg>
