<?xml version="1.0" encoding="UTF-8" standalone="no"?>
<!DOCTYPE svg PUBLIC "-//W3C//DTD SVG 1.1//EN"
 "http://www.w3.org/Graphics/SVG/1.1/DTD/svg11.dtd">
<!-- Generated by graphviz version 2.43.0 (0)
 -->
<!-- Title: G Pages: 1 -->
<svg width="139pt" height="186pt"
 viewBox="0.00 0.00 139.40 185.60" xmlns="http://www.w3.org/2000/svg" xmlns:xlink="http://www.w3.org/1999/xlink">
<g id="graph0" class="graph" transform="scale(1 1) rotate(0) translate(4 181.6)">
<title>G</title>
<polygon fill="white" stroke="transparent" points="-4,4 -4,-181.6 135.4,-181.6 135.4,4 -4,4"/>
<!-- Drink -->
<g id="node1" class="node">
<title>Drink</title>
<ellipse fill="lightgrey" stroke="black" cx="36.4" cy="-18" rx="36.29" ry="18"/>
<text text-anchor="middle" x="36.4" y="-14.3" font-family="Times,serif" font-size="14.00">Drink</text>
</g>
<!-- Juice -->
<g id="node2" class="node">
<title>Juice</title>
<ellipse fill="none" stroke="black" cx="36.4" cy="-105" rx="33.29" ry="18"/>
<text text-anchor="middle" x="36.4" y="-101.3" font-family="Times,serif" font-size="14.00">Juice</text>
</g>
<!-- Juice&#45;&gt;Drink -->
<g id="edge1" class="edge">
<title>Juice&#45;&gt;Drink</title>
<path fill="none" stroke="black" d="M36.4,-86.8C36.4,-75.16 36.4,-59.55 36.4,-46.24"/>
<polygon fill="black" stroke="black" points="39.9,-46.18 36.4,-36.18 32.9,-46.18 39.9,-46.18"/>
<text text-anchor="middle" x="83.9" y="-57.8" font-family="Times,serif" font-size="14.00">is instance of</text>
</g>
<!-- Subject -->
<g id="node3" class="node">
<title>Subject</title>
<ellipse fill="black" stroke="black" cx="36.4" cy="-175.8" rx="1.8" ry="1.8"/>
</g>
<!-- Subject&#45;&gt;Juice -->
<g id="edge2" class="edge">
<title>Subject&#45;&gt;Juice</title>
<path fill="none" stroke="black" d="M36.4,-173.83C36.4,-169.34 36.4,-150.11 36.4,-133.27"/>
<polygon fill="black" stroke="black" points="39.9,-133.24 36.4,-123.24 32.9,-133.24 39.9,-133.24"/>
<text text-anchor="middle" x="59.4" y="-144.8" font-family="Times,serif" font-size="14.00">drinks</text>
</g>
</g>
</svg>
