<?xml version="1.0" encoding="UTF-8" standalone="no"?>
<!DOCTYPE svg PUBLIC "-//W3C//DTD SVG 1.1//EN"
 "http://www.w3.org/Graphics/SVG/1.1/DTD/svg11.dtd">
<!-- Generated by graphviz version 2.43.0 (0)
 -->
<!-- Title: G Pages: 1 -->
<svg width="192pt" height="305pt"
 viewBox="0.00 0.00 191.70 305.00" xmlns="http://www.w3.org/2000/svg" xmlns:xlink="http://www.w3.org/1999/xlink">
<g id="graph0" class="graph" transform="scale(1 1) rotate(0) translate(4 301)">
<title>G</title>
<polygon fill="white" stroke="transparent" points="-4,4 -4,-301 187.7,-301 187.7,4 -4,4"/>
<!-- Pet -->
<g id="node1" class="node">
<title>Pet</title>
<ellipse fill="lightgrey" stroke="black" cx="64.7" cy="-279" rx="27" ry="18"/>
<text text-anchor="middle" x="64.7" y="-275.3" font-family="Times,serif" font-size="14.00">Pet</text>
</g>
<!-- Snail -->
<g id="node3" class="node">
<title>Snail</title>
<ellipse fill="none" stroke="black" cx="64.7" cy="-192" rx="34.39" ry="18"/>
<text text-anchor="middle" x="64.7" y="-188.3" font-family="Times,serif" font-size="14.00">Snail</text>
</g>
<!-- Pet&#45;&gt;Snail -->
<g id="edge1" class="edge">
<title>Pet&#45;&gt;Snail</title>
<path fill="none" stroke="black" d="M44.03,-267.2C35.11,-261.34 25.62,-253.2 20.7,-243 15.09,-231.38 22.73,-220.39 33.13,-211.69"/>
<polygon fill="black" stroke="black" points="35.51,-214.29 41.45,-205.51 31.34,-208.67 35.51,-214.29"/>
<text text-anchor="middle" x="54.2" y="-231.8" font-family="Times,serif" font-size="14.00">is type of</text>
</g>
<!-- Cigarette -->
<g id="node2" class="node">
<title>Cigarette</title>
<ellipse fill="lightgrey" stroke="black" cx="64.7" cy="-18" rx="54.69" ry="18"/>
<text text-anchor="middle" x="64.7" y="-14.3" font-family="Times,serif" font-size="14.00">Cigarette</text>
</g>
<!-- Old_Gold -->
<g id="node4" class="node">
<title>Old_Gold</title>
<ellipse fill="none" stroke="black" cx="64.7" cy="-105" rx="52.79" ry="18"/>
<text text-anchor="middle" x="64.7" y="-101.3" font-family="Times,serif" font-size="14.00">Old_Gold</text>
</g>
<!-- Cigarette&#45;&gt;Old_Gold -->
<g id="edge3" class="edge">
<title>Cigarette&#45;&gt;Old_Gold</title>
<path fill="none" stroke="black" d="M87.3,-34.48C97.91,-43.8 107.16,-56.3 101.7,-69 99.79,-73.44 97.01,-77.57 93.82,-81.34"/>
<polygon fill="black" stroke="black" points="91.3,-78.9 86.84,-88.51 96.32,-83.78 91.3,-78.9"/>
<text text-anchor="middle" x="136.2" y="-57.8" font-family="Times,serif" font-size="14.00">is type of</text>
</g>
<!-- Snail&#45;&gt;Pet -->
<g id="edge2" class="edge">
<title>Snail&#45;&gt;Pet</title>
<path fill="none" stroke="black" d="M78.52,-208.77C85.27,-218.39 91.26,-231.1 87.7,-243 86.53,-246.89 84.79,-250.74 82.76,-254.39"/>
<polygon fill="black" stroke="black" points="79.73,-252.63 77.35,-262.95 85.65,-256.38 79.73,-252.63"/>
<text text-anchor="middle" x="136.2" y="-231.8" font-family="Times,serif" font-size="14.00">is instance of</text>
</g>
<!-- Snail&#45;&gt;Old_Gold -->
<g id="edge6" class="edge">
<title>Snail&#45;&gt;Old_Gold</title>
<path fill="none" stroke="black" d="M42.81,-177.98C35.3,-172.27 27.77,-164.84 23.7,-156 19.05,-145.93 24.1,-136.19 32.04,-128.02"/>
<polygon fill="black" stroke="black" points="34.8,-130.25 39.96,-121 30.16,-125.02 34.8,-130.25"/>
<text text-anchor="middle" x="50.7" y="-144.8" font-family="Times,serif" font-size="14.00">smokes</text>
</g>
<!-- Old_Gold&#45;&gt;Cigarette -->
<g id="edge4" class="edge">
<title>Old_Gold&#45;&gt;Cigarette</title>
<path fill="none" stroke="black" d="M28.67,-91.75C18.47,-86.42 8.56,-79.03 2.7,-69 -4.92,-55.95 5.27,-44.92 19.45,-36.58"/>
<polygon fill="black" stroke="black" points="21.45,-39.48 28.67,-31.73 18.19,-33.29 21.45,-39.48"/>
<text text-anchor="middle" x="50.2" y="-57.8" font-family="Times,serif" font-size="14.00">is instance of</text>
</g>
<!-- Old_Gold&#45;&gt;Snail -->
<g id="edge5" class="edge">
<title>Old_Gold&#45;&gt;Snail</title>
<path fill="none" stroke="black" d="M74.79,-122.87C77.6,-128.45 80.27,-134.81 81.7,-141 83.55,-149.04 81.99,-157.61 79.2,-165.34"/>
<polygon fill="black" stroke="black" points="75.96,-164.01 75.17,-174.58 82.38,-166.81 75.96,-164.01"/>
<text text-anchor="middle" x="100.2" y="-144.8" font-family="Times,serif" font-size="14.00">owns</text>
</g>
</g>
</svg>
